<?xml version="1.0" encoding="UTF-8" standalone="no"?>
<!-- Created with Inkscape (http://www.inkscape.org/) -->

<svg
   width="122.01064mm"
   height="48.953888mm"
   viewBox="0 0 122.01064 48.953888"
   version="1.1"
   id="svg1"
   inkscape:version="1.3.2 (1:1.3.2+202311252150+091e20ef0f)"
   sodipodi:docname="Mapping_in_Gauss.svg"
   xmlns:inkscape="http://www.inkscape.org/namespaces/inkscape"
   xmlns:sodipodi="http://sodipodi.sourceforge.net/DTD/sodipodi-0.dtd"
   xmlns="http://www.w3.org/2000/svg"
   xmlns:svg="http://www.w3.org/2000/svg"
   xmlns:ns1="http://wanglongqi.github.io/WriteTeX">
  <sodipodi:namedview
     id="namedview1"
     pagecolor="#ffffff"
     bordercolor="#000000"
     borderopacity="0.25"
     inkscape:showpageshadow="2"
     inkscape:pageopacity="0.0"
     inkscape:pagecheckerboard="0"
     inkscape:deskcolor="#d1d1d1"
     inkscape:document-units="mm"
     inkscape:zoom="1.0242632"
     inkscape:cx="216.25301"
     inkscape:cy="136.68362"
     inkscape:window-width="1920"
     inkscape:window-height="1129"
     inkscape:window-x="1920"
     inkscape:window-y="0"
     inkscape:window-maximized="1"
     inkscape:current-layer="layer1" />
  <defs
     id="defs1">
    <marker
       style="overflow:visible"
       id="ConcaveTriangle"
       refX="0"
       refY="0"
       orient="auto-start-reverse"
       inkscape:stockid="Concave triangle arrow"
       markerWidth="1"
       markerHeight="1"
       viewBox="0 0 1 1"
       inkscape:isstock="true"
       inkscape:collect="always"
       preserveAspectRatio="xMidYMid">
      <path
         transform="scale(0.7)"
         d="M -2,-4 9,0 -2,4 c 2,-2.33 2,-5.66 0,-8 z"
         style="fill:context-stroke;fill-rule:evenodd;stroke:none"
         id="path7" />
    </marker>
  </defs>
  <g
     inkscape:label="Ebene 1"
     inkscape:groupmode="layer"
     id="layer1"
     transform="translate(-42.06875,-131.49791)">
    <path
       style="fill:none;stroke:#006b94;stroke-width:0.529;-inkscape-stroke:none;paint-order:fill markers stroke"
       d="M 23.01476,93.885609 36.896677,97.17343"
       id="path1" />
    <rect
       style="fill:none;stroke:#000000;stroke-width:0.705556;stroke-dasharray:none;paint-order:fill markers stroke"
       id="rect1"
       width="27.422688"
       height="27.422688"
       x="49.169674"
       y="145.92819" />
    <path
       style="fill:none;stroke:#000000;stroke-width:0.352778;stroke-linecap:butt;stroke-linejoin:miter;stroke-dasharray:none;stroke-opacity:1;marker-end:url(#ConcaveTriangle)"
       d="M 42.06875,159.63953 H 81.47079"
       id="path5" />
    <path
       style="fill:none;stroke:#000000;stroke-width:0.352778;stroke-linecap:butt;stroke-linejoin:miter;stroke-dasharray:none;stroke-opacity:1;marker-end:url(#ConcaveTriangle)"
       d="M 62.88102,180.4518 V 141.04976"
       id="path6" />
    <path
       style="font-variation-settings:normal;vector-effect:none;fill:none;fill-opacity:1;stroke:#000000;stroke-width:0.705556;stroke-linecap:butt;stroke-linejoin:miter;stroke-miterlimit:4;stroke-dasharray:none;stroke-dashoffset:0;stroke-opacity:1;-inkscape-stroke:none;paint-order:fill markers stroke;stop-color:#000000"
       d="m 132.83505,158.11887 -2.49687,-26.13917 33.20609,9.52034 -17.52146,29.76041 z"
       id="path8" />
    <path
       style="font-variation-settings:normal;vector-effect:none;fill:none;fill-opacity:1;stroke:#000000;stroke-width:0.352778;stroke-linecap:butt;stroke-linejoin:miter;stroke-miterlimit:4;stroke-dasharray:none;stroke-dashoffset:0;stroke-opacity:1;-inkscape-stroke:none;marker-end:url(#ConcaveTriangle);stop-color:#000000"
       d="m 125.95297,178.21061 h 9.73185"
       id="path9"
       sodipodi:nodetypes="cc" />
    <path
       style="font-variation-settings:normal;vector-effect:none;fill:none;fill-opacity:1;stroke:#000000;stroke-width:0.352778;stroke-linecap:butt;stroke-linejoin:miter;stroke-miterlimit:4;stroke-dasharray:none;stroke-dashoffset:0;stroke-opacity:1;-inkscape-stroke:none;marker-end:url(#ConcaveTriangle);stop-color:#000000"
       d="M 126.03845,178.21061 V 168.5855"
       id="path10"
       sodipodi:nodetypes="cc" />
    <path
       style="font-variation-settings:normal;fill:none;fill-opacity:1;stroke:#006b94;stroke-width:0.529167;stroke-linecap:butt;stroke-linejoin:miter;stroke-miterlimit:4;stroke-dasharray:none;stroke-dashoffset:0;stroke-opacity:1;marker-end:url(#ConcaveTriangle);stop-color:#000000"
       d="M 81.013603,148.06313 C 96.853217,141.35293 124.24571,146.924 124.24571,146.924"
       id="path11"
       sodipodi:nodetypes="cc" />
    <g
       ns1:text="$\hat{\Omega}$"
       transform="matrix(0.75424336,0,0,0.75424336,-73.53756,5.9835829)"
       id="g30">
      <g
         id="g29">
        <g
           style="fill:#000000;fill-opacity:1"
           id="g23">
          <path
             style="stroke:none"
             d="M 2.5,-6.921875 1.15625,-5.5625 1.328125,-5.390625 2.5,-6.40625 3.640625,-5.390625 3.8125,-5.5625 Z m 0,0"
             transform="translate(179.691,108.472)"
             id="path23" />
        </g>
        <g
           style="fill:#000000;fill-opacity:1"
           id="g24">
          <path
             style="stroke:none"
             d="M 6.75,-1.609375 H 6.5 c -0.046875,0.25 -0.09375,0.484375 -0.1875,0.71875 -0.046875,0.15625 -0.078125,0.25 -0.65625,0.25 H 4.859375 C 5,-1.203125 5.296875,-1.6875 5.75,-2.34375 c 0.46875,-0.703125 0.875,-1.390625 0.875,-2.1875 0,-1.375 -1.34375,-2.5 -3.03125,-2.5 -1.703125,0 -3.03125,1.140625 -3.03125,2.5 0,0.796875 0.40625,1.484375 0.875,2.1875 0.4375,0.65625 0.75,1.140625 0.890625,1.703125 H 1.53125 C 0.953125,-0.640625 0.921875,-0.734375 0.875,-0.875 0.78125,-1.109375 0.734375,-1.359375 0.6875,-1.609375 h -0.25 L 0.765625,0 h 1.59375 c 0.21875,0 0.25,0 0.25,-0.203125 0,-0.703125 -0.3125,-1.578125 -0.53125,-2.21875 -0.21875,-0.578125 -0.5,-1.359375 -0.5,-2.109375 0,-1.59375 1.109375,-2.28125 2.015625,-2.28125 0.953125,0 2.015625,0.71875 2.015625,2.28125 0,0.75 -0.28125,1.5 -0.5625,2.3125 -0.15625,0.421875 -0.46875,1.328125 -0.46875,2.015625 C 4.578125,0 4.609375,0 4.828125,0 h 1.59375 z m 0,0"
             transform="translate(178.584,110.99)"
             id="path24" />
        </g>
      </g>
    </g>
    <g
       ns1:text="$\Omega^{\mbox{\tiny e}}$"
       transform="matrix(0.75424336,0,0,0.75424336,-35.397714,13.47474)"
       id="g43">
      <g
         id="g42">
        <g
           style="fill:#000000;fill-opacity:1"
           id="g40">
          <path
             style="stroke:none"
             d="M 6.75,-1.609375 H 6.5 c -0.046875,0.25 -0.09375,0.484375 -0.1875,0.71875 -0.046875,0.15625 -0.078125,0.25 -0.65625,0.25 H 4.859375 C 5,-1.203125 5.296875,-1.6875 5.75,-2.34375 c 0.46875,-0.703125 0.875,-1.390625 0.875,-2.1875 0,-1.375 -1.34375,-2.5 -3.03125,-2.5 -1.703125,0 -3.03125,1.140625 -3.03125,2.5 0,0.796875 0.40625,1.484375 0.875,2.1875 0.4375,0.65625 0.75,1.140625 0.890625,1.703125 H 1.53125 C 0.953125,-0.640625 0.921875,-0.734375 0.875,-0.875 0.78125,-1.109375 0.734375,-1.359375 0.6875,-1.609375 h -0.25 L 0.765625,0 h 1.59375 c 0.21875,0 0.25,0 0.25,-0.203125 0,-0.703125 -0.3125,-1.578125 -0.53125,-2.21875 -0.21875,-0.578125 -0.5,-1.359375 -0.5,-2.109375 0,-1.59375 1.109375,-2.28125 2.015625,-2.28125 0.953125,0 2.015625,0.71875 2.015625,2.28125 0,0.75 -0.28125,1.5 -0.5625,2.3125 -0.15625,0.421875 -0.46875,1.328125 -0.46875,2.015625 C 4.578125,0 4.609375,0 4.828125,0 h 1.59375 z m 0,0"
             transform="translate(178.585,110.99)"
             id="path40" />
        </g>
        <g
           style="fill:#000000;fill-opacity:1"
           id="g41">
          <path
             style="stroke:none"
             d="m 2.71875,-0.59375 c 0,-0.078125 -0.078125,-0.078125 -0.09375,-0.078125 -0.078125,0 -0.09375,0.015625 -0.125,0.078125 C 2.375,-0.25 2,-0.125 1.71875,-0.125 c -0.40625,0 -0.625,-0.21875 -0.703125,-0.3125 -0.1875,-0.234375 -0.1875,-0.546875 -0.1875,-0.6875 h 1.75 c 0.109375,0 0.140625,0 0.140625,-0.109375 0,-0.34375 -0.171875,-1 -1.109375,-1 -0.75,0 -1.28125,0.546875 -1.28125,1.140625 0,0.625 0.609375,1.15625 1.359375,1.15625 0.796875,0 1.03125,-0.5625 1.03125,-0.65625 z m -0.375,-0.6875 H 0.828125 C 0.890625,-1.9375 1.375,-2.0625 1.609375,-2.0625 c 0.6875,0 0.734375,0.640625 0.734375,0.78125 z m 0,0"
             transform="translate(185.78,107.375)"
             id="path41" />
        </g>
      </g>
    </g>
    <path
       style="font-variation-settings:normal;vector-effect:none;fill:none;fill-opacity:1;stroke:#006b94;stroke-width:0.529;stroke-linecap:butt;stroke-linejoin:miter;stroke-miterlimit:4;stroke-dasharray:none;stroke-dashoffset:0;stroke-opacity:1;-inkscape-stroke:none;paint-order:fill markers stroke;stop-color:#000000"
       d="m 135.29837,155.75714 2.32887,-2.32888"
       id="path1-8" />
    <path
       style="font-variation-settings:normal;vector-effect:none;fill:none;fill-opacity:1;stroke:#006b94;stroke-width:0.529;stroke-linecap:butt;stroke-linejoin:miter;stroke-miterlimit:4;stroke-dasharray:none;stroke-dashoffset:0;stroke-opacity:1;-inkscape-stroke:none;paint-order:fill markers stroke;stop-color:#000000"
       d="m 137.62724,155.75714 -2.32887,-2.32888"
       id="path2-1" />
    <path
       style="font-variation-settings:normal;vector-effect:none;fill:none;fill-opacity:1;stroke:#006b94;stroke-width:0.529;stroke-linecap:butt;stroke-linejoin:miter;stroke-miterlimit:4;stroke-dasharray:none;stroke-dashoffset:0;stroke-opacity:1;-inkscape-stroke:none;paint-order:fill markers stroke;stop-color:#000000"
       d="m 143.82154,160.56238 2.32887,-2.32888"
       id="path4" />
    <path
       style="font-variation-settings:normal;vector-effect:none;fill:none;fill-opacity:1;stroke:#006b94;stroke-width:0.529;stroke-linecap:butt;stroke-linejoin:miter;stroke-miterlimit:4;stroke-dasharray:none;stroke-dashoffset:0;stroke-opacity:1;-inkscape-stroke:none;paint-order:fill markers stroke;stop-color:#000000"
       d="m 146.15041,160.56238 -2.32887,-2.32888"
       id="path5-1" />
    <path
       style="font-variation-settings:normal;vector-effect:none;fill:none;fill-opacity:1;stroke:#006b94;stroke-width:0.529;stroke-linecap:butt;stroke-linejoin:miter;stroke-miterlimit:4;stroke-dasharray:none;stroke-dashoffset:0;stroke-opacity:1;-inkscape-stroke:none;paint-order:fill markers stroke;stop-color:#000000"
       d="m 148.7429,147.50115 2.32887,-2.32887"
       id="path9-9" />
    <path
       style="font-variation-settings:normal;vector-effect:none;fill:none;fill-opacity:1;stroke:#006b94;stroke-width:0.529;stroke-linecap:butt;stroke-linejoin:miter;stroke-miterlimit:4;stroke-dasharray:none;stroke-dashoffset:0;stroke-opacity:1;-inkscape-stroke:none;paint-order:fill markers stroke;stop-color:#000000"
       d="m 151.07177,147.50115 -2.32887,-2.32887"
       id="path10-1" />
    <path
       style="font-variation-settings:normal;vector-effect:none;fill:none;fill-opacity:1;stroke:#006b94;stroke-width:0.529;stroke-linecap:butt;stroke-linejoin:miter;stroke-miterlimit:4;stroke-dasharray:none;stroke-dashoffset:0;stroke-opacity:1;-inkscape-stroke:none;paint-order:fill markers stroke;stop-color:#000000"
       d="m 137.09744,143.19601 2.32888,-2.32887"
       id="path12-4" />
    <path
       style="font-variation-settings:normal;fill:none;fill-opacity:1;stroke:#006b94;stroke-width:0.529;stroke-linecap:butt;stroke-linejoin:miter;stroke-miterlimit:4;stroke-dasharray:none;stroke-dashoffset:0;stroke-opacity:1;paint-order:fill markers stroke;stop-color:#000000"
       d="m 139.42632,143.19601 -2.32888,-2.32887"
       id="path13-8" />
    <path
       style="font-variation-settings:normal;vector-effect:none;fill:none;fill-opacity:1;stroke:#006b94;stroke-width:0.529;stroke-linecap:butt;stroke-linejoin:miter;stroke-miterlimit:4;stroke-dasharray:none;stroke-dashoffset:0;stroke-opacity:1;-inkscape-stroke:none;paint-order:fill markers stroke;stop-color:#000000"
       d="m 69.627988,152.88284 2.32887,-2.32888"
       id="path3" />
    <path
       style="font-variation-settings:normal;vector-effect:none;fill:none;fill-opacity:1;stroke:#006b94;stroke-width:0.529;stroke-linecap:butt;stroke-linejoin:miter;stroke-miterlimit:4;stroke-dasharray:none;stroke-dashoffset:0;stroke-opacity:1;-inkscape-stroke:none;paint-order:fill markers stroke;stop-color:#000000"
       d="m 71.956858,152.88284 -2.32887,-2.32888"
       id="path14" />
    <path
       style="font-variation-settings:normal;vector-effect:none;fill:none;fill-opacity:1;stroke:#006b94;stroke-width:0.529;stroke-linecap:butt;stroke-linejoin:miter;stroke-miterlimit:4;stroke-dasharray:none;stroke-dashoffset:0;stroke-opacity:1;-inkscape-stroke:none;paint-order:fill markers stroke;stop-color:#000000"
       d="m 53.968997,152.84058 2.32887,-2.32888"
       id="path15" />
    <path
       style="font-variation-settings:normal;vector-effect:none;fill:none;fill-opacity:1;stroke:#006b94;stroke-width:0.529;stroke-linecap:butt;stroke-linejoin:miter;stroke-miterlimit:4;stroke-dasharray:none;stroke-dashoffset:0;stroke-opacity:1;-inkscape-stroke:none;paint-order:fill markers stroke;stop-color:#000000"
       d="m 56.297867,152.84058 -2.32887,-2.32888"
       id="path16" />
    <path
       style="font-variation-settings:normal;vector-effect:none;fill:none;fill-opacity:1;stroke:#006b94;stroke-width:0.529;stroke-linecap:butt;stroke-linejoin:miter;stroke-miterlimit:4;stroke-dasharray:none;stroke-dashoffset:0;stroke-opacity:1;-inkscape-stroke:none;paint-order:fill markers stroke;stop-color:#000000"
       d="m 71.956858,152.88284 -2.32887,-2.32888"
       id="path17" />
    <path
       style="font-variation-settings:normal;vector-effect:none;fill:none;fill-opacity:1;stroke:#006b94;stroke-width:0.529;stroke-linecap:butt;stroke-linejoin:miter;stroke-miterlimit:4;stroke-dasharray:none;stroke-dashoffset:0;stroke-opacity:1;-inkscape-stroke:none;paint-order:fill markers stroke;stop-color:#000000"
       d="m 53.968997,152.84058 2.32887,-2.32888"
       id="path20" />
    <path
       style="font-variation-settings:normal;vector-effect:none;fill:none;fill-opacity:1;stroke:#006b94;stroke-width:0.529;stroke-linecap:butt;stroke-linejoin:miter;stroke-miterlimit:4;stroke-dasharray:none;stroke-dashoffset:0;stroke-opacity:1;-inkscape-stroke:none;paint-order:fill markers stroke;stop-color:#000000"
       d="m 56.297867,152.84058 -2.32887,-2.32888"
       id="path21" />
    <path
       style="font-variation-settings:normal;vector-effect:none;fill:none;fill-opacity:1;stroke:#006b94;stroke-width:0.529;stroke-linecap:butt;stroke-linejoin:miter;stroke-miterlimit:4;stroke-dasharray:none;stroke-dashoffset:0;stroke-opacity:1;-inkscape-stroke:none;paint-order:fill markers stroke;stop-color:#000000"
       d="m 69.627988,168.49958 2.32887,-2.32888"
       id="path22" />
    <path
       style="font-variation-settings:normal;vector-effect:none;fill:none;fill-opacity:1;stroke:#006b94;stroke-width:0.529;stroke-linecap:butt;stroke-linejoin:miter;stroke-miterlimit:4;stroke-dasharray:none;stroke-dashoffset:0;stroke-opacity:1;-inkscape-stroke:none;paint-order:fill markers stroke;stop-color:#000000"
       d="m 71.956858,168.49958 -2.32887,-2.32888"
       id="path27" />
    <path
       style="font-variation-settings:normal;vector-effect:none;fill:none;fill-opacity:1;stroke:#006b94;stroke-width:0.529;stroke-linecap:butt;stroke-linejoin:miter;stroke-miterlimit:4;stroke-dasharray:none;stroke-dashoffset:0;stroke-opacity:1;-inkscape-stroke:none;paint-order:fill markers stroke;stop-color:#000000"
       d="m 53.968997,168.45732 2.32887,-2.32888"
       id="path28" />
    <path
       style="font-variation-settings:normal;vector-effect:none;fill:none;fill-opacity:1;stroke:#006b94;stroke-width:0.529;stroke-linecap:butt;stroke-linejoin:miter;stroke-miterlimit:4;stroke-dasharray:none;stroke-dashoffset:0;stroke-opacity:1;-inkscape-stroke:none;paint-order:fill markers stroke;stop-color:#000000"
       d="m 56.297867,168.45732 -2.32887,-2.32888"
       id="path29" />
    <path
       style="font-variation-settings:normal;vector-effect:none;fill:none;fill-opacity:1;stroke:#006b94;stroke-width:0.529;stroke-linecap:butt;stroke-linejoin:miter;stroke-miterlimit:4;stroke-dasharray:none;stroke-dashoffset:0;stroke-opacity:1;-inkscape-stroke:none;paint-order:fill markers stroke;stop-color:#000000"
       d="m 71.956858,168.49958 -2.32887,-2.32888"
       id="path30" />
    <path
       style="font-variation-settings:normal;vector-effect:none;fill:none;fill-opacity:1;stroke:#006b94;stroke-width:0.529;stroke-linecap:butt;stroke-linejoin:miter;stroke-miterlimit:4;stroke-dasharray:none;stroke-dashoffset:0;stroke-opacity:1;-inkscape-stroke:none;paint-order:fill markers stroke;stop-color:#000000"
       d="m 53.968997,168.45732 2.32887,-2.32888"
       id="path31" />
    <path
       style="font-variation-settings:normal;vector-effect:none;fill:none;fill-opacity:1;stroke:#006b94;stroke-width:0.529;stroke-linecap:butt;stroke-linejoin:miter;stroke-miterlimit:4;stroke-dasharray:none;stroke-dashoffset:0;stroke-opacity:1;-inkscape-stroke:none;paint-order:fill markers stroke;stop-color:#000000"
       d="m 56.297867,168.45732 -2.32887,-2.32888"
       id="path34" />
    <g
       ns1:text="$\xi$"
       transform="matrix(0.58400388,0,0,0.58400388,-25.881372,100.31594)"
       id="g3">
      <g
         id="surface1">
        <g
           style="fill:rgb(0%,0%,0%);fill-opacity:1;"
           id="g2">
          <path
             style="stroke:none;"
             d="M 1.53125 -3.046875 C 0.453125 -2.328125 0.234375 -1.390625 0.234375 -1.03125 C 0.234375 -0.5625 0.5 -0.28125 0.515625 -0.25 C 0.84375 0.078125 0.921875 0.125 1.671875 0.40625 L 2.875 0.875 C 3.03125 0.9375 3.234375 1 3.234375 1.296875 C 3.234375 1.53125 3.046875 1.828125 2.734375 1.828125 C 2.296875 1.828125 1.96875 1.578125 1.859375 1.5 C 1.796875 1.46875 1.796875 1.453125 1.75 1.453125 C 1.671875 1.453125 1.65625 1.53125 1.65625 1.5625 C 1.65625 1.6875 2.1875 2.046875 2.734375 2.046875 C 3.359375 2.046875 3.78125 1.46875 3.78125 0.984375 C 3.78125 0.5 3.40625 0.3125 3.296875 0.265625 C 3.15625 0.21875 2.828125 0.09375 2.6875 0.046875 C 2.5 -0.046875 2.296875 -0.125 2.078125 -0.1875 L 1.484375 -0.421875 C 1.03125 -0.609375 0.734375 -0.890625 0.734375 -1.3125 C 0.734375 -1.71875 1.125 -2.59375 1.96875 -3.015625 C 2.328125 -2.875 2.625 -2.875 2.84375 -2.875 C 3.140625 -2.875 3.765625 -2.875 3.765625 -3.1875 C 3.765625 -3.4375 3.34375 -3.453125 2.953125 -3.453125 C 2.765625 -3.453125 2.484375 -3.453125 2.109375 -3.34375 C 1.859375 -3.59375 1.8125 -3.921875 1.8125 -4.109375 C 1.8125 -4.671875 2.171875 -5.4375 2.921875 -5.8125 C 3.09375 -5.59375 3.328125 -5.59375 3.5625 -5.59375 C 3.8125 -5.59375 4.453125 -5.59375 4.453125 -5.90625 C 4.453125 -6.15625 4 -6.171875 3.625 -6.171875 C 3.484375 -6.171875 3.25 -6.171875 2.984375 -6.125 C 2.953125 -6.203125 2.9375 -6.28125 2.9375 -6.453125 C 2.9375 -6.59375 2.984375 -6.796875 2.984375 -6.8125 C 2.984375 -6.890625 2.9375 -6.953125 2.875 -6.953125 C 2.6875 -6.953125 2.6875 -6.484375 2.6875 -6.453125 C 2.6875 -6.265625 2.75 -6.109375 2.765625 -6.078125 C 1.6875 -5.765625 1.015625 -4.96875 1.015625 -4.203125 C 1.015625 -3.84375 1.203125 -3.421875 1.671875 -3.15625 Z M 3.15625 -5.90625 C 3.3125 -5.953125 3.515625 -5.953125 3.625 -5.953125 C 3.96875 -5.953125 4 -5.9375 4.1875 -5.890625 C 4.109375 -5.859375 4 -5.8125 3.5625 -5.8125 C 3.375 -5.8125 3.265625 -5.8125 3.15625 -5.90625 Z M 2.375 -3.1875 C 2.609375 -3.234375 2.828125 -3.234375 2.9375 -3.234375 C 3.296875 -3.234375 3.328125 -3.234375 3.515625 -3.1875 C 3.421875 -3.140625 3.328125 -3.09375 2.875 -3.09375 C 2.640625 -3.09375 2.546875 -3.09375 2.375 -3.1875 Z M 2.375 -3.1875 "
             transform="translate(178.585,110.99)"
             id="path2" />
        </g>
      </g>
    </g>
    <g
       ns1:text="$\eta$"
       transform="matrix(0.58400388,0,0,0.58400388,-47.572964,75.814857)"
       id="g14">
      <g
         id="g13">
        <g
           style="fill:rgb(0%,0%,0%);fill-opacity:1;"
           id="g12">
          <path
             style="stroke:none;"
             d="M 4.859375 -2.765625 C 4.921875 -2.9375 4.9375 -3.078125 4.9375 -3.34375 C 4.9375 -3.984375 4.546875 -4.40625 3.796875 -4.40625 C 3.015625 -4.40625 2.5 -3.890625 2.25 -3.53125 C 2.203125 -4.109375 1.78125 -4.40625 1.328125 -4.40625 C 0.875 -4.40625 0.6875 -4.015625 0.59375 -3.84375 C 0.421875 -3.5 0.296875 -2.90625 0.296875 -2.875 C 0.296875 -2.765625 0.390625 -2.765625 0.40625 -2.765625 C 0.515625 -2.765625 0.515625 -2.78125 0.578125 -3 C 0.75 -3.703125 0.953125 -4.1875 1.3125 -4.1875 C 1.46875 -4.1875 1.609375 -4.109375 1.609375 -3.734375 C 1.609375 -3.515625 1.578125 -3.40625 1.453125 -2.890625 L 0.875 -0.59375 C 0.84375 -0.4375 0.78125 -0.203125 0.78125 -0.15625 C 0.78125 0.015625 0.921875 0.109375 1.078125 0.109375 C 1.203125 0.109375 1.375 0.03125 1.453125 -0.171875 C 1.453125 -0.1875 1.578125 -0.65625 1.640625 -0.90625 L 1.859375 -1.796875 C 1.90625 -2.03125 1.96875 -2.25 2.03125 -2.46875 C 2.046875 -2.53125 2.125 -2.859375 2.140625 -2.921875 C 2.15625 -3.015625 2.46875 -3.5625 2.8125 -3.84375 C 3.03125 -4 3.34375 -4.1875 3.765625 -4.1875 C 4.203125 -4.1875 4.3125 -3.84375 4.3125 -3.484375 C 4.3125 -3.4375 4.3125 -3.265625 4.203125 -2.859375 L 3.078125 1.71875 C 3.046875 1.84375 3.046875 1.859375 3.046875 1.890625 C 3.046875 2.03125 3.15625 2.15625 3.3125 2.15625 C 3.625 2.15625 3.703125 1.859375 3.734375 1.75 Z M 4.859375 -2.765625 "
             transform="translate(178.585,110.99)"
             id="path12" />
        </g>
      </g>
    </g>
    <g
       ns1:text="$y$"
       transform="matrix(0.58400388,0,0,0.58400388,14.573505,103.1981)"
       id="g34">
      <g
         id="g33">
        <g
           style="fill:rgb(0%,0%,0%);fill-opacity:1;"
           id="g32">
          <path
             style="stroke:none;"
             d="M 4.84375 -3.796875 C 4.890625 -3.9375 4.890625 -3.953125 4.890625 -4.03125 C 4.890625 -4.203125 4.75 -4.296875 4.59375 -4.296875 C 4.5 -4.296875 4.34375 -4.234375 4.25 -4.09375 C 4.234375 -4.03125 4.140625 -3.734375 4.109375 -3.546875 C 4.03125 -3.296875 3.96875 -3.015625 3.90625 -2.75 L 3.453125 -0.953125 C 3.421875 -0.8125 2.984375 -0.109375 2.328125 -0.109375 C 1.828125 -0.109375 1.71875 -0.546875 1.71875 -0.921875 C 1.71875 -1.375 1.890625 -2 2.21875 -2.875 C 2.375 -3.28125 2.421875 -3.390625 2.421875 -3.59375 C 2.421875 -4.03125 2.109375 -4.40625 1.609375 -4.40625 C 0.65625 -4.40625 0.296875 -2.953125 0.296875 -2.875 C 0.296875 -2.765625 0.390625 -2.765625 0.40625 -2.765625 C 0.515625 -2.765625 0.515625 -2.796875 0.5625 -2.953125 C 0.84375 -3.890625 1.234375 -4.1875 1.578125 -4.1875 C 1.65625 -4.1875 1.828125 -4.1875 1.828125 -3.875 C 1.828125 -3.625 1.71875 -3.359375 1.65625 -3.171875 C 1.25 -2.109375 1.078125 -1.546875 1.078125 -1.078125 C 1.078125 -0.1875 1.703125 0.109375 2.296875 0.109375 C 2.6875 0.109375 3.015625 -0.0625 3.296875 -0.34375 C 3.171875 0.171875 3.046875 0.671875 2.65625 1.203125 C 2.390625 1.53125 2.015625 1.828125 1.5625 1.828125 C 1.421875 1.828125 0.96875 1.796875 0.796875 1.40625 C 0.953125 1.40625 1.09375 1.40625 1.21875 1.28125 C 1.328125 1.203125 1.421875 1.0625 1.421875 0.875 C 1.421875 0.5625 1.15625 0.53125 1.0625 0.53125 C 0.828125 0.53125 0.5 0.6875 0.5 1.171875 C 0.5 1.671875 0.9375 2.046875 1.5625 2.046875 C 2.578125 2.046875 3.609375 1.140625 3.890625 0.015625 Z M 4.84375 -3.796875 "
             transform="translate(178.585,110.99)"
             id="path32" />
        </g>
      </g>
    </g>
    <g
       ns1:text="$x$"
       transform="matrix(0.58400388,0,0,0.58400388,34.029968,114.64632)"
       id="g37">
      <g
         id="g36">
        <g
           style="fill:rgb(0%,0%,0%);fill-opacity:1;"
           id="g35">
          <path
             style="stroke:none;"
             d="M 3.328125 -3.015625 C 3.390625 -3.265625 3.625 -4.1875 4.3125 -4.1875 C 4.359375 -4.1875 4.609375 -4.1875 4.8125 -4.0625 C 4.53125 -4 4.34375 -3.765625 4.34375 -3.515625 C 4.34375 -3.359375 4.453125 -3.171875 4.71875 -3.171875 C 4.9375 -3.171875 5.25 -3.34375 5.25 -3.75 C 5.25 -4.265625 4.671875 -4.40625 4.328125 -4.40625 C 3.75 -4.40625 3.40625 -3.875 3.28125 -3.65625 C 3.03125 -4.3125 2.5 -4.40625 2.203125 -4.40625 C 1.171875 -4.40625 0.59375 -3.125 0.59375 -2.875 C 0.59375 -2.765625 0.703125 -2.765625 0.71875 -2.765625 C 0.796875 -2.765625 0.828125 -2.796875 0.84375 -2.875 C 1.1875 -3.9375 1.84375 -4.1875 2.1875 -4.1875 C 2.375 -4.1875 2.71875 -4.09375 2.71875 -3.515625 C 2.71875 -3.203125 2.546875 -2.546875 2.1875 -1.140625 C 2.03125 -0.53125 1.671875 -0.109375 1.234375 -0.109375 C 1.171875 -0.109375 0.953125 -0.109375 0.734375 -0.234375 C 0.984375 -0.296875 1.203125 -0.5 1.203125 -0.78125 C 1.203125 -1.046875 0.984375 -1.125 0.84375 -1.125 C 0.53125 -1.125 0.296875 -0.875 0.296875 -0.546875 C 0.296875 -0.09375 0.78125 0.109375 1.21875 0.109375 C 1.890625 0.109375 2.25 -0.59375 2.265625 -0.640625 C 2.390625 -0.28125 2.75 0.109375 3.34375 0.109375 C 4.375 0.109375 4.9375 -1.171875 4.9375 -1.421875 C 4.9375 -1.53125 4.859375 -1.53125 4.828125 -1.53125 C 4.734375 -1.53125 4.71875 -1.484375 4.6875 -1.421875 C 4.359375 -0.34375 3.6875 -0.109375 3.375 -0.109375 C 2.984375 -0.109375 2.828125 -0.421875 2.828125 -0.765625 C 2.828125 -0.984375 2.875 -1.203125 2.984375 -1.640625 Z M 3.328125 -3.015625 "
             transform="translate(178.585,110.99)"
             id="path35" />
        </g>
      </g>
    </g>
  </g>
</svg>
