<?xml version="1.0" encoding="UTF-8" standalone="no"?>
<!-- Created with Inkscape (http://www.inkscape.org/) -->

<svg
   width="127.37997mm"
   height="76.125534mm"
   viewBox="0 0 127.37998 76.125534"
   version="1.1"
   id="svg1"
   inkscape:version="1.3.2 (091e20e, 2023-11-25, custom)"
   sodipodi:docname="Assembly_Operator_K2.svg"
   xmlns:inkscape="http://www.inkscape.org/namespaces/inkscape"
   xmlns:sodipodi="http://sodipodi.sourceforge.net/DTD/sodipodi-0.dtd"
   xmlns="http://www.w3.org/2000/svg"
   xmlns:svg="http://www.w3.org/2000/svg"
   xmlns:ns1="http://wanglongqi.github.io/WriteTeX">
  <sodipodi:namedview
     id="namedview1"
     pagecolor="#ffffff"
     bordercolor="#000000"
     borderopacity="0.25"
     inkscape:showpageshadow="2"
     inkscape:pageopacity="0.0"
     inkscape:pagecheckerboard="0"
     inkscape:deskcolor="#d1d1d1"
     inkscape:document-units="mm"
     inkscape:zoom="0.72426347"
     inkscape:cx="359.67574"
     inkscape:cy="118.05096"
     inkscape:window-width="1920"
     inkscape:window-height="1009"
     inkscape:window-x="1912"
     inkscape:window-y="-8"
     inkscape:window-maximized="1"
     inkscape:current-layer="layer1" />
  <defs
     id="defs1" />
  <g
     inkscape:label="Ebene 1"
     inkscape:groupmode="layer"
     id="layer1"
     transform="translate(-27.250565,-180.75812)">
    <path
       id="path1"
       d="M 75.389247,88.254746 H 141.87692 V 154.74242 H 75.389247 Z"
       style="fill:none;stroke:#000000;stroke-width:0.388003;stroke-linecap:butt;stroke-linejoin:miter;stroke-miterlimit:4;stroke-dasharray:none;stroke-opacity:1" />
    <path
       id="path3"
       d="m 68.869914,121.65399 c 0.156986,0 0.34431,0 0.34431,-0.18733 0,-0.20249 -0.187324,-0.20249 -0.327731,-0.20249 h -5.969704 c -0.140758,0 -0.328083,0 -0.328083,0.20249 0,0.18733 0.187325,0.18733 0.328083,0.18733 z m 0.01658,1.9378 c 0.140407,0 0.327731,0 0.327731,-0.20284 0,-0.18733 -0.187324,-0.18733 -0.34431,-0.18733 H 62.91679 c -0.140758,0 -0.328083,0 -0.328083,0.18733 0,0.20284 0.187325,0.20284 0.328083,0.20284 z"
       style="fill:#000000;fill-opacity:1;fill-rule:nonzero;stroke:none;stroke-width:0.352778" />
    <path
       id="path4"
       d="M 92.011429,88.254746 V 154.74207"
       style="fill:none;stroke:#000000;stroke-width:0.388003;stroke-linecap:butt;stroke-linejoin:miter;stroke-miterlimit:4;stroke-dasharray:none;stroke-opacity:1" />
    <path
       id="path5"
       d="M 108.63326,88.254746 V 154.74207"
       style="fill:none;stroke:#000000;stroke-width:0.388003;stroke-linecap:butt;stroke-linejoin:miter;stroke-miterlimit:4;stroke-dasharray:none;stroke-opacity:1" />
    <path
       id="path6"
       d="M 125.25509,88.254746 V 154.74207"
       style="fill:none;stroke:#000000;stroke-width:0.388003;stroke-linecap:butt;stroke-linejoin:miter;stroke-miterlimit:4;stroke-dasharray:none;stroke-opacity:1" />
    <path
       id="path7"
       d="M 141.87692,88.254746 V 154.74207"
       style="fill:none;stroke:#000000;stroke-width:0.388003;stroke-linecap:butt;stroke-linejoin:miter;stroke-miterlimit:4;stroke-dasharray:none;stroke-opacity:1" />
    <path
       id="path8"
       d="M 75.389247,88.254746 V 154.74207"
       style="fill:none;stroke:#000000;stroke-width:0.388003;stroke-linecap:butt;stroke-linejoin:miter;stroke-miterlimit:4;stroke-dasharray:none;stroke-opacity:1" />
    <path
       id="path9"
       d="M 75.389247,138.12024 H 141.87692"
       style="fill:none;stroke:#000000;stroke-width:0.388003;stroke-linecap:butt;stroke-linejoin:miter;stroke-miterlimit:4;stroke-dasharray:none;stroke-opacity:1" />
    <path
       id="path10"
       d="M 75.389247,121.49841 H 141.87692"
       style="fill:none;stroke:#000000;stroke-width:0.388003;stroke-linecap:butt;stroke-linejoin:miter;stroke-miterlimit:4;stroke-dasharray:none;stroke-opacity:1" />
    <path
       id="path11"
       d="M 75.389247,104.87658 H 141.87692"
       style="fill:none;stroke:#000000;stroke-width:0.388003;stroke-linecap:butt;stroke-linejoin:miter;stroke-miterlimit:4;stroke-dasharray:none;stroke-opacity:1" />
    <path
       id="path12"
       d="M 75.389247,88.254746 H 141.87692"
       style="fill:none;stroke:#000000;stroke-width:0.388003;stroke-linecap:butt;stroke-linejoin:miter;stroke-miterlimit:4;stroke-dasharray:none;stroke-opacity:1" />
    <path
       id="path13"
       d="M 75.389247,154.74207 H 141.87692"
       style="fill:none;stroke:#000000;stroke-width:0.388003;stroke-linecap:butt;stroke-linejoin:miter;stroke-miterlimit:4;stroke-dasharray:none;stroke-opacity:1" />
    <path
       id="path14"
       d="m 82.535819,82.6544 c 0.110419,0.4064 0.469899,0.672394 0.891469,0.672394 0.343253,0 0.577496,-0.234244 0.734836,-0.547158 0.170744,-0.359834 0.295981,-0.968728 0.295981,-0.983897 0,-0.11042 -0.07832,-0.11042 -0.108657,-0.11042 -0.110419,0 -0.110419,0.04692 -0.140757,0.187678 -0.140406,0.563386 -0.327731,1.234722 -0.751064,1.234722 -0.202495,0 -0.31115,-0.125589 -0.31115,-0.453319 0,-0.218017 0.123825,-0.687917 0.202494,-1.045986 l 0.281163,-1.079148 c 0.03175,-0.140405 0.125236,-0.515408 0.172156,-0.670983 0.04692,-0.234244 0.140406,-0.610658 0.140406,-0.672747 0,-0.172156 -0.140406,-0.265642 -0.280811,-0.265642 -0.04692,0 -0.312914,0.01623 -0.391583,0.344311 -0.187326,0.734484 -0.624064,2.484614 -0.749653,3.000022 -0.01517,0.04692 -0.4064,0.843492 -1.140883,0.843492 -0.515409,0 -0.609247,-0.453319 -0.609247,-0.811742 0,-0.563738 0.281162,-1.345141 0.531987,-2.032705 0.124178,-0.311503 0.170746,-0.451908 0.170746,-0.639233 0,-0.438503 -0.31115,-0.813153 -0.81139,-0.813153 -0.95391,0 -1.313392,1.452386 -1.313392,1.531055 0,0.110067 0.09384,0.110067 0.110068,0.110067 0.109007,0 0.109007,-0.03175 0.155927,-0.188736 0.250825,-0.858308 0.640645,-1.233311 1.015647,-1.233311 0.09349,0 0.250826,0.01517 0.250826,0.328083 0,0.234245 -0.110419,0.530578 -0.172509,0.670984 -0.37465,1.000477 -0.578555,1.609725 -0.578555,2.094794 0,0.952147 0.687564,1.202972 1.219552,1.202972 0.655814,0 1.015647,-0.453319 1.186393,-0.672394 z"
       style="fill:#000000;fill-opacity:1;fill-rule:nonzero;stroke:none;stroke-width:0.352778" />
    <path
       id="path15"
       d="m 87.083477,80.274208 c 0,-0.187325 0,-0.187325 -0.203907,-0.187325 -0.45226,0.43815 -1.077735,0.43815 -1.358899,0.43815 v 0.249414 c 0.155575,0 0.625475,0 1.000478,-0.187325 v 3.547184 c 0,0.23424 0,0.32808 -0.687565,0.32808 h -0.265993 v 0.24941 c 0.125236,0 0.983897,-0.0303 1.234721,-0.0303 0.217665,0 1.092905,0.0303 1.249892,0.0303 v -0.24941 H 87.78621 c -0.702733,0 -0.702733,-0.0938 -0.702733,-0.32808 z"
       style="fill:#000000;fill-opacity:1;fill-rule:nonzero;stroke:none;stroke-width:0.352778" />
    <path
       id="path16"
       d="m 98.926226,82.6544 c 0.109008,0.4064 0.468489,0.672394 0.890058,0.672394 0.344666,0 0.578906,-0.234244 0.734836,-0.547158 0.17216,-0.359834 0.29739,-0.968728 0.29739,-0.983897 0,-0.11042 -0.0783,-0.11042 -0.11007,-0.11042 -0.109,0 -0.109,0.04692 -0.14075,0.187678 -0.14041,0.563386 -0.32773,1.234722 -0.749656,1.234722 -0.202494,0 -0.312561,-0.125589 -0.312561,-0.453319 0,-0.218017 0.125236,-0.687917 0.203906,-1.045986 l 0.281161,-1.079148 c 0.0314,-0.140405 0.12524,-0.515408 0.17216,-0.670983 0.0469,-0.234244 0.1404,-0.610658 0.1404,-0.672747 0,-0.172156 -0.1404,-0.265642 -0.28116,-0.265642 -0.048,0 -0.312561,0.01623 -0.391231,0.344311 -0.187325,0.734484 -0.625475,2.484614 -0.749652,3.000022 -0.01658,0.04692 -0.4064,0.843492 -1.140884,0.843492 -0.515408,0 -0.609247,-0.453319 -0.609247,-0.811742 0,-0.563738 0.281164,-1.345141 0.530578,-2.032705 0.125588,-0.311503 0.172155,-0.451908 0.172155,-0.639233 0,-0.438503 -0.312562,-0.813153 -0.8128,-0.813153 -0.9525,0 -1.311981,1.452386 -1.311981,1.531055 0,0.110067 0.09384,0.110067 0.108657,0.110067 0.110419,0 0.110419,-0.03175 0.157338,-0.188736 0.249414,-0.858308 0.640645,-1.233311 1.015648,-1.233311 0.09349,0 0.249413,0.01517 0.249413,0.328083 0,0.234245 -0.109008,0.530578 -0.171097,0.670984 -0.376061,1.000477 -0.578555,1.609725 -0.578555,2.094794 0,0.952147 0.687564,1.202972 1.218141,1.202972 0.657224,0 1.015647,-0.453319 1.187803,-0.672394 z"
       style="fill:#000000;fill-opacity:1;fill-rule:nonzero;stroke:none;stroke-width:0.352778" />
    <path
       id="path17"
       d="m 104.66028,83.446739 h -0.23425 c -0.0152,0.155577 -0.0938,0.561977 -0.18732,0.624067 -0.0469,0.0469 -0.5775,0.0469 -0.68792,0.0469 h -1.28129 c 0.73448,-0.63959 0.98531,-0.843496 1.39171,-1.171226 0.51541,-0.406753 0.99907,-0.843492 0.99907,-1.499306 0,-0.844903 -0.73449,-1.360311 -1.62455,-1.360311 -0.86007,0 -1.45274,0.609247 -1.45274,1.249892 0,0.344664 0.29634,0.391583 0.37501,0.391583 0.15557,0 0.35948,-0.125589 0.35948,-0.375003 0,-0.125236 -0.048,-0.376061 -0.4064,-0.376061 0.21766,-0.483658 0.68756,-0.639586 1.01565,-0.639586 0.70273,0 1.06256,0.545747 1.06256,1.109486 0,0.608895 -0.4385,1.077383 -0.65616,1.326797 l -1.67288,1.673225 c -0.0773,0.0617 -0.0773,0.0769 -0.0773,0.26458 h 2.87479 z"
       style="fill:#000000;fill-opacity:1;fill-rule:nonzero;stroke:none;stroke-width:0.352778" />
    <path
       id="path18"
       d="m 115.53571,82.6544 c 0.10901,0.4064 0.46849,0.672394 0.89041,0.672394 0.3429,0 0.57714,-0.234244 0.73448,-0.547158 0.17216,-0.359834 0.29598,-0.968728 0.29598,-0.983897 0,-0.11042 -0.0769,-0.11042 -0.10865,-0.11042 -0.11042,0 -0.11042,0.04692 -0.14076,0.187678 -0.14041,0.563386 -0.32773,1.234722 -0.74965,1.234722 -0.20391,0 -0.31256,-0.125589 -0.31256,-0.453319 0,-0.218017 0.12523,-0.687917 0.20249,-1.045986 l 0.28116,-1.079148 c 0.0318,-0.140405 0.12524,-0.515408 0.17216,-0.670983 0.0469,-0.234244 0.1404,-0.610658 0.1404,-0.672747 0,-0.172156 -0.1404,-0.265642 -0.28081,-0.265642 -0.0469,0 -0.31291,0.01623 -0.39017,0.344311 -0.18873,0.734484 -0.62547,2.484614 -0.75106,3.000022 -0.0152,0.04692 -0.4064,0.843492 -1.13947,0.843492 -0.51682,0 -0.61066,-0.453319 -0.61066,-0.811742 0,-0.563738 0.28116,-1.345141 0.53199,-2.032705 0.12558,-0.311503 0.17215,-0.451908 0.17215,-0.639233 0,-0.438503 -0.31256,-0.813153 -0.8128,-0.813153 -0.95356,0 -1.31198,1.452386 -1.31198,1.531055 0,0.110067 0.0938,0.110067 0.10901,0.110067 0.10865,0 0.10865,-0.03175 0.15557,-0.188736 0.25083,-0.858308 0.64065,-1.233311 1.01565,-1.233311 0.0935,0 0.25083,0.01517 0.25083,0.328083 0,0.234245 -0.11042,0.530578 -0.17216,0.670984 -0.375,1.000477 -0.57891,1.609725 -0.57891,2.094794 0,0.952147 0.68757,1.202972 1.21956,1.202972 0.65581,0 1.01564,-0.453319 1.1878,-0.672394 z"
       style="fill:#000000;fill-opacity:1;fill-rule:nonzero;stroke:none;stroke-width:0.352778" />
    <path
       id="path19"
       d="m 119.66003,82.384172 c 0.54716,0 0.93733,0.37465 0.93733,1.124303 0,0.860071 -0.5154,1.126071 -0.90558,1.126071 -0.28222,0 -0.90664,-0.0787 -1.1878,-0.50024 0.32808,0 0.40675,-0.23425 0.40675,-0.39159 0,-0.217661 -0.17251,-0.374647 -0.39158,-0.374647 -0.18733,0 -0.38982,0.125236 -0.38982,0.406397 0,0.65617 0.7179,1.07774 1.56245,1.07774 0.96873,0 1.64007,-0.65581 1.64007,-1.343731 0,-0.546806 -0.4371,-1.092553 -1.20298,-1.249892 0.71932,-0.265642 0.9839,-0.78105 0.9839,-1.218142 0,-0.546805 -0.62442,-0.953558 -1.40582,-0.953558 -0.76623,0 -1.35996,0.375003 -1.35996,0.936978 0,0.235655 0.15699,0.359833 0.35948,0.359833 0.21908,0 0.35984,-0.155575 0.35984,-0.343253 0,-0.203905 -0.14076,-0.35948 -0.35984,-0.37465 0.25083,-0.297744 0.71932,-0.375002 0.98531,-0.375002 0.31151,0 0.74966,0.155927 0.74966,0.749652 0,0.296334 -0.0935,0.624417 -0.28117,0.828323 -0.21907,0.264583 -0.42157,0.281163 -0.76588,0.312913 -0.17251,0.01517 -0.18768,0.01517 -0.21907,0.01517 -0.0152,0 -0.0773,0.01517 -0.0773,0.09349 0,0.09384 0.0621,0.09384 0.18732,0.09384 z"
       style="fill:#000000;fill-opacity:1;fill-rule:nonzero;stroke:none;stroke-width:0.352778" />
    <path
       id="path20"
       d="m 132.20587,82.6544 c 0.11042,0.4064 0.4699,0.672394 0.89147,0.672394 0.34325,0 0.57749,-0.234244 0.73448,-0.547158 0.1711,-0.359834 0.29633,-0.968728 0.29633,-0.983897 0,-0.11042 -0.0783,-0.11042 -0.10865,-0.11042 -0.11042,0 -0.11042,0.04692 -0.14076,0.187678 -0.14041,0.563386 -0.32773,1.234722 -0.75106,1.234722 -0.2025,0 -0.31151,-0.125589 -0.31151,-0.453319 0,-0.218017 0.12418,-0.687917 0.20285,-1.045986 l 0.28116,-1.079148 c 0.0314,-0.140405 0.12524,-0.515408 0.17216,-0.670983 0.0469,-0.234244 0.14041,-0.610658 0.14041,-0.672747 0,-0.172156 -0.14041,-0.265642 -0.28117,-0.265642 -0.0466,0 -0.31256,0.01623 -0.39123,0.344311 -0.18732,0.734484 -0.62406,2.484614 -0.74965,3.000022 -0.0152,0.04692 -0.4064,0.843492 -1.14088,0.843492 -0.51541,0 -0.60925,-0.453319 -0.60925,-0.811742 0,-0.563738 0.28116,-1.345141 0.53199,-2.032705 0.12382,-0.311503 0.17074,-0.451908 0.17074,-0.639233 0,-0.438503 -0.3115,-0.813153 -0.81174,-0.813153 -0.95356,0 -1.31304,1.452386 -1.31304,1.531055 0,0.110067 0.0935,0.110067 0.11007,0.110067 0.10901,0 0.10901,-0.03175 0.15593,-0.188736 0.25082,-0.858308 0.64064,-1.233311 1.01564,-1.233311 0.0935,0 0.25083,0.01517 0.25083,0.328083 0,0.234245 -0.11042,0.530578 -0.17251,0.670984 -0.37465,1.000477 -0.57856,1.609725 -0.57856,2.094794 0,0.952147 0.68757,1.202972 1.21956,1.202972 0.65581,0 1.01564,-0.453319 1.18639,-0.672394 z"
       style="fill:#000000;fill-opacity:1;fill-rule:nonzero;stroke:none;stroke-width:0.352778" />
    <path
       id="path21"
       d="M 138.11207,83.571976 V 83.32115 h -0.7814 v -3.108678 c 0,-0.140758 0,-0.203906 -0.1404,-0.203906 -0.0938,0 -0.12418,0 -0.18733,0.110067 l -2.31246,3.202517 v 0.250826 h 2.06305 v 0.56233 c 0,0.24941 0,0.32808 -0.57891,0.32808 h -0.18733 v 0.24941 c 0.35948,-0.0152 0.79763,-0.0303 1.04705,-0.0303 0.26599,0 0.70308,0.0152 1.06256,0.0303 v -0.24941 h -0.18732 c -0.57891,0 -0.57891,-0.0787 -0.57891,-0.32808 v -0.56233 z m -1.31198,-2.797529 v 2.546703 h -1.84361 z"
       style="fill:#000000;fill-opacity:1;fill-rule:nonzero;stroke:none;stroke-width:0.352778" />
    <path
       id="path22"
       d="m 149.11592,97.458366 c 0.10865,0.40675 0.46849,0.67275 0.89006,0.67275 0.34325,0 0.57749,-0.23425 0.73448,-0.54716 0.17216,-0.35983 0.29633,-0.96873 0.29633,-0.9839 0,-0.11042 -0.0773,-0.11042 -0.109,-0.11042 -0.10866,0 -0.10866,0.0469 -0.14041,0.18768 -0.14076,0.56339 -0.32808,1.23472 -0.74965,1.23472 -0.20391,0 -0.31292,-0.12559 -0.31292,-0.45367 0,-0.21766 0.12559,-0.68756 0.2025,-1.04563 l 0.28116,-1.07915 c 0.0318,-0.14041 0.12559,-0.51541 0.17251,-0.67098 0.0466,-0.23425 0.14041,-0.61066 0.14041,-0.67275 0,-0.17216 -0.14041,-0.266 -0.28117,-0.266 -0.0469,0 -0.31291,0.0166 -0.38982,0.34467 -0.18909,0.73448 -0.62583,2.48461 -0.75106,3.00002 -0.0152,0.0469 -0.40675,0.84349 -1.13983,0.84349 -0.51682,0 -0.6103,-0.45367 -0.6103,-0.81174 0,-0.56374 0.28116,-1.34514 0.53199,-2.03271 0.12523,-0.3115 0.17215,-0.4519 0.17215,-0.63923 0,-0.4385 -0.31291,-0.81315 -0.81315,-0.81315 -0.95356,0 -1.31198,1.45238 -1.31198,1.53105 0,0.11007 0.0938,0.11007 0.10901,0.11007 0.10901,0 0.10901,-0.0318 0.15557,-0.18874 0.25083,-0.85866 0.641,-1.23331 1.01565,-1.23331 0.0938,0 0.25082,0.0152 0.25082,0.32809 0,0.23424 -0.11006,0.53057 -0.17215,0.67098 -0.375,1.00048 -0.57891,1.60937 -0.57891,2.09444 0,0.9525 0.68792,1.20333 1.21955,1.20333 0.65617,0 1.01565,-0.45368 1.18816,-0.67275 z"
       style="fill:#000000;fill-opacity:1;fill-rule:nonzero;stroke:none;stroke-width:0.352778" />
    <path
       id="path23"
       d="m 153.66181,95.078526 c 0,-0.18732 0,-0.18732 -0.20249,-0.18732 -0.45332,0.43815 -1.07915,0.43815 -1.35996,0.43815 v 0.24941 c 0.15699,0 0.62548,0 1.00048,-0.18733 v 3.54719 c 0,0.23424 0,0.32773 -0.68792,0.32773 h -0.26599 v 0.24941 c 0.12559,0 0.98531,-0.0303 1.23472,-0.0303 0.21943,0 1.09432,0.0303 1.24989,0.0303 v -0.24941 h -0.26564 c -0.70309,0 -0.70309,-0.0935 -0.70309,-0.32773 z"
       style="fill:#000000;fill-opacity:1;fill-rule:nonzero;stroke:none;stroke-width:0.352778" />
    <path
       id="path24"
       d="m 148.89684,114.03363 c 0.10866,0.4064 0.46849,0.6724 0.89006,0.6724 0.34467,0 0.57891,-0.23425 0.73449,-0.54716 0.17215,-0.35948 0.29774,-0.96873 0.29774,-0.9839 0,-0.11007 -0.0787,-0.11007 -0.11042,-0.11007 -0.10866,0 -0.10866,0.0466 -0.14041,0.18733 -0.14075,0.56233 -0.32808,1.23472 -0.74965,1.23472 -0.2039,0 -0.31291,-0.12559 -0.31291,-0.45332 0,-0.21907 0.12559,-0.68756 0.20249,-1.04739 l 0.28258,-1.07774 c 0.0303,-0.14041 0.12418,-0.51541 0.17074,-0.67098 0.0469,-0.23566 0.14076,-0.61031 0.14076,-0.6724 0,-0.17251 -0.14076,-0.26599 -0.28116,-0.26599 -0.0469,0 -0.31292,0.0166 -0.38982,0.34431 -0.18768,0.73448 -0.62583,2.48461 -0.74966,3.00002 -0.0166,0.0469 -0.40675,0.84349 -1.14123,0.84349 -0.51541,0 -0.6089,-0.45332 -0.6089,-0.81315 0,-0.56233 0.28082,-1.34338 0.53058,-2.03129 0.12524,-0.31115 0.17216,-0.45191 0.17216,-0.64065 0,-0.43674 -0.31292,-0.81174 -0.81316,-0.81174 -0.95214,0 -1.31198,1.45239 -1.31198,1.53105 0,0.10901 0.0938,0.10901 0.10901,0.10901 0.11007,0 0.11007,-0.0303 0.15699,-0.18767 0.24941,-0.85831 0.63958,-1.23332 1.01565,-1.23332 0.0938,0 0.24941,0.0152 0.24941,0.32809 0,0.23424 -0.10866,0.53058 -0.17216,0.67098 -0.375,1.00048 -0.57749,1.60973 -0.57749,2.09479 0,0.95215 0.68756,1.20298 1.21814,1.20298 0.65617,0 1.01565,-0.45332 1.18815,-0.6724 z"
       style="fill:#000000;fill-opacity:1;fill-rule:nonzero;stroke:none;stroke-width:0.352778" />
    <path
       id="path25"
       d="m 154.63054,114.82597 h -0.23424 c -0.0152,0.15558 -0.0935,0.56233 -0.18733,0.62407 -0.0469,0.0469 -0.57891,0.0469 -0.68756,0.0469 h -1.28164 c 0.73448,-0.64064 0.9853,-0.84313 1.39029,-1.17122 0.51682,-0.4064 1.00048,-0.84349 1.00048,-1.50071 0,-0.8435 -0.73448,-1.3589 -1.62454,-1.3589 -0.86007,0 -1.4538,0.60924 -1.4538,1.24989 0,0.34466 0.29775,0.39158 0.37465,0.39158 0.15734,0 0.35984,-0.12559 0.35984,-0.37641 0,-0.12383 -0.0469,-0.37465 -0.4064,-0.37465 0.21907,-0.48366 0.68756,-0.641 1.01529,-0.641 0.7045,0 1.06257,0.54716 1.06257,1.10949 0,0.6103 -0.43674,1.07914 -0.65582,1.32856 l -1.67146,1.67146 c -0.0787,0.0635 -0.0787,0.0787 -0.0787,0.26599 h 2.87585 z"
       style="fill:#000000;fill-opacity:1;fill-rule:nonzero;stroke:none;stroke-width:0.352778" />
    <path
       id="path26"
       d="m 148.83476,130.60854 c 0.10865,0.4064 0.46848,0.6724 0.89005,0.6724 0.34326,0 0.5775,-0.23425 0.73449,-0.54681 0.17109,-0.35983 0.29633,-0.96873 0.29633,-0.98531 0,-0.109 -0.0787,-0.109 -0.10901,-0.109 -0.11007,0 -0.11007,0.0469 -0.1404,0.18732 -0.14041,0.56233 -0.32809,1.23472 -0.75107,1.23472 -0.20249,0 -0.3115,-0.12523 -0.3115,-0.45332 0,-0.21907 0.12418,-0.68756 0.20249,-1.04739 l 0.28117,-1.07739 c 0.0318,-0.14076 0.12559,-0.51541 0.17251,-0.67274 0.0466,-0.23425 0.1404,-0.6089 0.1404,-0.67099 0,-0.17215 -0.1404,-0.26599 -0.28116,-0.26599 -0.0469,0 -0.31292,0.0152 -0.39123,0.34466 -0.18733,0.73448 -0.62442,2.4832 -0.74966,3.00002 -0.0152,0.0466 -0.40675,0.84314 -1.14123,0.84314 -0.51506,0 -0.6089,-0.45332 -0.6089,-0.8128 0,-0.56233 0.28117,-1.34373 0.53199,-2.03129 0.12383,-0.31292 0.17075,-0.45332 0.17075,-0.641 0,-0.43674 -0.31151,-0.81139 -0.81174,-0.81139 -0.95356,0 -1.31304,1.45239 -1.31304,1.5307 0,0.10901 0.0935,0.10901 0.11006,0.10901 0.10901,0 0.10901,-0.0303 0.15593,-0.18732 0.25083,-0.85866 0.64065,-1.23331 1.0153,-1.23331 0.0938,0 0.25082,0.0152 0.25082,0.32773 0,0.23424 -0.11007,0.53058 -0.17215,0.67133 -0.37465,1.00048 -0.57856,1.60938 -0.57856,2.09445 0,0.95214 0.68756,1.20297 1.21955,1.20297 0.65582,0 1.0153,-0.45332 1.18781,-0.6724 z"
       style="fill:#000000;fill-opacity:1;fill-rule:nonzero;stroke:none;stroke-width:0.352778" />
    <path
       id="path27"
       d="m 152.95908,130.33832 c 0.54716,0 0.93698,0.375 0.93698,1.12465 0,0.86007 -0.51541,1.12466 -0.90664,1.12466 -0.28117,0 -0.90523,-0.0773 -1.18639,-0.49918 0.32773,0 0.4064,-0.23425 0.4064,-0.39123 0,-0.21908 -0.17216,-0.37465 -0.39123,-0.37465 -0.18733,0 -0.39018,0.12523 -0.39018,0.4064 0,0.65581 0.71791,1.07773 1.5614,1.07773 0.96873,0 1.64112,-0.65617 1.64112,-1.34373 0,-0.54716 -0.43674,-1.09432 -1.20297,-1.24989 0.71931,-0.266 0.9839,-0.7814 0.9839,-1.21814 0,-0.54716 -0.62407,-0.95356 -1.40547,-0.95356 -0.76623,0 -1.36031,0.37465 -1.36031,0.93698 0,0.23424 0.15734,0.35983 0.35983,0.35983 0.21908,0 0.35983,-0.15593 0.35983,-0.34325 0,-0.20391 -0.14075,-0.35984 -0.35983,-0.37606 0.25083,-0.29634 0.71932,-0.37501 0.9839,-0.37501 0.31291,0 0.75106,0.15699 0.75106,0.75107 0,0.29633 -0.0938,0.62406 -0.28116,0.82832 -0.21908,0.26458 -0.42157,0.28081 -0.76623,0.31115 -0.17216,0.0166 -0.18733,0.0166 -0.21908,0.0166 -0.0152,0 -0.0773,0.0152 -0.0773,0.0938 0,0.0935 0.0621,0.0935 0.18768,0.0935 z"
       style="fill:#000000;fill-opacity:1;fill-rule:nonzero;stroke:none;stroke-width:0.352778" />
    <path
       id="path28"
       d="m 148.72434,147.32421 c 0.11042,0.4064 0.46848,0.6724 0.89041,0.6724 0.34431,0 0.57855,-0.23566 0.73448,-0.54716 0.17216,-0.35948 0.29739,-0.96873 0.29739,-0.98531 0,-0.10866 -0.0783,-0.10866 -0.11007,-0.10866 -0.109,0 -0.109,0.0469 -0.1404,0.18733 -0.14076,0.56233 -0.32808,1.23472 -0.75001,1.23472 -0.20249,0 -0.31256,-0.12524 -0.31256,-0.45332 0,-0.21907 0.12524,-0.68756 0.20391,-1.0474 l 0.28116,-1.07738 c 0.0318,-0.14076 0.12524,-0.51541 0.17216,-0.67275 0.0469,-0.23424 0.14076,-0.60889 0.14076,-0.67098 0,-0.17215 -0.14076,-0.26599 -0.28117,-0.26599 -0.0469,0 -0.31291,0.0152 -0.39158,0.34466 -0.18733,0.73307 -0.62406,2.4832 -0.74965,2.99967 -0.0166,0.0469 -0.4064,0.84349 -1.14089,0.84349 -0.51541,0 -0.60924,-0.45332 -0.60924,-0.81315 0,-0.56198 0.28116,-1.34338 0.53057,-2.03094 0.12559,-0.31292 0.17251,-0.45368 0.17251,-0.641 0,-0.43674 -0.31291,-0.81174 -0.81174,-0.81174 -0.95356,0 -1.31339,1.45274 -1.31339,1.53105 0,0.10901 0.0938,0.10901 0.10901,0.10901 0.11006,0 0.11006,-0.0303 0.15698,-0.18732 0.24942,-0.85866 0.64065,-1.23473 1.01565,-1.23473 0.0935,0 0.24941,0.0162 0.24941,0.32915 0,0.23424 -0.109,0.53057 -0.17074,0.67133 -0.37641,1.00013 -0.57891,1.60937 -0.57891,2.09444 0,0.95215 0.68757,1.20298 1.21814,1.20298 0.65723,0 1.01565,-0.45332 1.18781,-0.6724 z"
       style="fill:#000000;fill-opacity:1;fill-rule:nonzero;stroke:none;stroke-width:0.352778" />
    <path
       id="path29"
       d="m 154.63054,148.24073 v -0.24942 h -0.78105 v -3.10903 c 0,-0.1404 0,-0.2039 -0.14076,-0.2039 -0.0938,0 -0.12523,0 -0.18732,0.11007 l -2.31246,3.20286 v 0.24942 h 2.06304 v 0.56338 c 0,0.24942 0,0.32809 -0.5789,0.32809 h -0.18733 v 0.24941 c 0.35983,-0.0152 0.79657,-0.0317 1.0474,-0.0317 0.26458,0 0.70273,0.0166 1.06221,0.0317 v -0.24941 h -0.18732 c -0.57856,0 -0.57856,-0.0787 -0.57856,-0.32809 v -0.56338 z m -1.31163,-2.79612 v 2.5467 h -1.84397 z"
       style="fill:#000000;fill-opacity:1;fill-rule:nonzero;stroke:none;stroke-width:0.352778" />
    <path
       id="path30"
       d="M 75.389247,88.254746 H 108.63291 V 121.49841 H 75.389247 Z"
       style="fill:#006b94;fill-opacity:0.4;fill-rule:nonzero;stroke:#000000;stroke-width:0.388003;stroke-linecap:butt;stroke-linejoin:miter;stroke-miterlimit:4;stroke-dasharray:none;stroke-opacity:1" />
    <path
       id="path33"
       d="m 98.816158,95.210816 2.407352,-1.98437 c 0.21767,-0.18733 0.62407,-0.18733 0.93698,-0.18733 h 0.15558 v -0.4699 c -0.38982,0.0318 -0.96873,0.0318 -1.0153,0.0318 -0.375,0 -1.0929,0 -1.452736,-0.0318 v 0.4699 c 0.124178,0 0.328086,0 0.577496,0.0621 0.15699,0.0318 0.0469,0.0152 0.12559,0.0469 l -3.687939,3.07834 v -3.18735 h 1.077737 v -0.4699 c -0.37465,0.0318 -1.343378,0.0318 -1.78047,0.0318 -0.42157,0 -1.406878,0 -1.78188,-0.0318 v 0.4699 h 1.079147 v 5.90621 h -1.079147 v 0.46849 c 0.375002,-0.0318 1.36031,-0.0318 1.78188,-0.0318 0.437092,0 1.40582,0 1.78047,0.0318 v -0.46849 h -1.077736 v -2.09443 l 1.000477,-0.82833 2.061634,2.70369 c 0.04692,0.0621 0.04692,0.0773 0.07867,0.14076 -0.187657,0.0783 -0.390151,0.0783 -0.734462,0.0783 v 0.46849 c 0.4064,-0.0318 1.313022,-0.0318 1.750112,-0.0318 0.4064,0 1.09396,0 1.46897,0.0318 v -0.46849 h -0.29634 c -0.53199,0 -0.56374,-0.0469 -0.67239,-0.20391 z"
       style="fill:#000000;fill-opacity:1;fill-rule:nonzero;stroke:none;stroke-width:0.352778" />
    <path
       id="path34"
       d="m 105.29704,96.470586 c 0,-0.18768 0,-0.18768 -0.20391,-0.18768 -0.45226,0.43851 -1.07773,0.43851 -1.3589,0.43851 v 0.24941 c 0.15558,0 0.62442,0 1.00048,-0.18768 v 3.547184 c 0,0.23425 0,0.32809 -0.68756,0.32809 h -0.266 v 0.25082 c 0.12524,0 0.9839,-0.0318 1.23473,-0.0318 0.21766,0 1.09255,0.0318 1.24989,0.0318 v -0.25082 h -0.266 c -0.70273,0 -0.70273,-0.0938 -0.70273,-0.32809 z"
       style="fill:#000000;fill-opacity:1;fill-rule:nonzero;stroke:none;stroke-width:0.352778" />
    <path
       id="path91"
       d="m 75.389247,190.20198 h 66.487673 v 66.48767 H 75.389247 Z"
       style="fill:none;stroke:#000000;stroke-width:0.388003;stroke-linecap:butt;stroke-linejoin:miter;stroke-miterlimit:4;stroke-dasharray:none;stroke-opacity:1" />
    <path
       id="path92"
       d="m 68.869914,223.60122 c 0.156986,0 0.34431,0 0.34431,-0.18733 0,-0.20249 -0.187324,-0.20249 -0.327731,-0.20249 h -5.969704 c -0.140758,0 -0.328083,0 -0.328083,0.20249 0,0.18733 0.187325,0.18733 0.328083,0.18733 z m 0.01658,1.9378 c 0.140407,0 0.327731,0 0.327731,-0.20284 0,-0.18733 -0.187324,-0.18733 -0.34431,-0.18733 H 62.91679 c -0.140758,0 -0.328083,0 -0.328083,0.18733 0,0.20284 0.187325,0.20284 0.328083,0.20284 z"
       style="fill:#000000;fill-opacity:1;fill-rule:nonzero;stroke:none;stroke-width:0.352778" />
    <path
       id="path93"
       d="M 92.011429,190.20198 V 256.6893"
       style="fill:none;stroke:#000000;stroke-width:0.388003;stroke-linecap:butt;stroke-linejoin:miter;stroke-miterlimit:4;stroke-dasharray:none;stroke-opacity:1" />
    <path
       id="path94"
       d="M 108.63326,190.20198 V 256.6893"
       style="fill:none;stroke:#000000;stroke-width:0.388003;stroke-linecap:butt;stroke-linejoin:miter;stroke-miterlimit:4;stroke-dasharray:none;stroke-opacity:1" />
    <path
       id="path95"
       d="M 125.25509,190.20198 V 256.6893"
       style="fill:none;stroke:#000000;stroke-width:0.388003;stroke-linecap:butt;stroke-linejoin:miter;stroke-miterlimit:4;stroke-dasharray:none;stroke-opacity:1" />
    <path
       id="path96"
       d="M 141.87692,190.20198 V 256.6893"
       style="fill:none;stroke:#000000;stroke-width:0.388003;stroke-linecap:butt;stroke-linejoin:miter;stroke-miterlimit:4;stroke-dasharray:none;stroke-opacity:1" />
    <path
       id="path97"
       d="M 75.389247,190.20198 V 256.6893"
       style="fill:none;stroke:#000000;stroke-width:0.388003;stroke-linecap:butt;stroke-linejoin:miter;stroke-miterlimit:4;stroke-dasharray:none;stroke-opacity:1" />
    <path
       id="path98"
       d="M 75.389247,240.06747 H 141.87692"
       style="fill:none;stroke:#000000;stroke-width:0.388003;stroke-linecap:butt;stroke-linejoin:miter;stroke-miterlimit:4;stroke-dasharray:none;stroke-opacity:1" />
    <path
       id="path99"
       d="M 75.389247,223.44564 H 141.87692"
       style="fill:none;stroke:#000000;stroke-width:0.388003;stroke-linecap:butt;stroke-linejoin:miter;stroke-miterlimit:4;stroke-dasharray:none;stroke-opacity:1" />
    <path
       id="path100"
       d="M 75.389247,206.82381 H 141.87692"
       style="fill:none;stroke:#000000;stroke-width:0.388003;stroke-linecap:butt;stroke-linejoin:miter;stroke-miterlimit:4;stroke-dasharray:none;stroke-opacity:1" />
    <path
       id="path101"
       d="M 75.389247,190.20198 H 141.87692"
       style="fill:none;stroke:#000000;stroke-width:0.388003;stroke-linecap:butt;stroke-linejoin:miter;stroke-miterlimit:4;stroke-dasharray:none;stroke-opacity:1" />
    <path
       id="path102"
       d="M 75.389247,256.6893 H 141.87692"
       style="fill:none;stroke:#000000;stroke-width:0.388003;stroke-linecap:butt;stroke-linejoin:miter;stroke-miterlimit:4;stroke-dasharray:none;stroke-opacity:1" />
    <path
       id="path103"
       d="m 82.535819,184.60163 c 0.110419,0.4064 0.469899,0.6724 0.891469,0.6724 0.343253,0 0.577496,-0.23425 0.734836,-0.54716 0.170744,-0.35983 0.295981,-0.96873 0.295981,-0.9839 0,-0.11042 -0.07832,-0.11042 -0.108657,-0.11042 -0.110419,0 -0.110419,0.0469 -0.140757,0.18768 -0.140406,0.56339 -0.327731,1.23472 -0.751064,1.23472 -0.202495,0 -0.31115,-0.12559 -0.31115,-0.45332 0,-0.21801 0.123825,-0.68791 0.202494,-1.04598 l 0.281163,-1.07915 c 0.03175,-0.14041 0.125236,-0.51541 0.172156,-0.67098 0.04692,-0.23425 0.140406,-0.61066 0.140406,-0.67275 0,-0.17216 -0.140406,-0.26564 -0.280811,-0.26564 -0.04692,0 -0.312914,0.0162 -0.391583,0.34431 -0.187326,0.73448 -0.624064,2.48461 -0.749653,3.00002 -0.01517,0.0469 -0.4064,0.84349 -1.140883,0.84349 -0.515409,0 -0.609247,-0.45332 -0.609247,-0.81174 0,-0.56374 0.281162,-1.34514 0.531987,-2.0327 0.124178,-0.31151 0.170746,-0.45191 0.170746,-0.63924 0,-0.4385 -0.31115,-0.81315 -0.81139,-0.81315 -0.95391,0 -1.313392,1.45239 -1.313392,1.53105 0,0.11007 0.09384,0.11007 0.110068,0.11007 0.109007,0 0.109007,-0.0317 0.155927,-0.18873 0.250825,-0.85831 0.640645,-1.23332 1.015647,-1.23332 0.09349,0 0.250826,0.0152 0.250826,0.32809 0,0.23424 -0.110419,0.53058 -0.172509,0.67098 -0.37465,1.00048 -0.578555,1.60973 -0.578555,2.0948 0,0.95214 0.687564,1.20297 1.219552,1.20297 0.655814,0 1.015647,-0.45332 1.186393,-0.6724 z"
       style="fill:#000000;fill-opacity:1;fill-rule:nonzero;stroke:none;stroke-width:0.352778" />
    <path
       id="path104"
       d="m 87.083477,182.22144 c 0,-0.18732 0,-0.18732 -0.203907,-0.18732 -0.45226,0.43815 -1.077735,0.43815 -1.358899,0.43815 v 0.24941 c 0.155575,0 0.625475,0 1.000478,-0.18732 v 3.54718 c 0,0.23424 0,0.32808 -0.687565,0.32808 h -0.265993 v 0.24941 c 0.125236,0 0.983897,-0.0303 1.234721,-0.0303 0.217665,0 1.092905,0.0303 1.249892,0.0303 v -0.24941 H 87.78621 c -0.702733,0 -0.702733,-0.0938 -0.702733,-0.32808 z"
       style="fill:#000000;fill-opacity:1;fill-rule:nonzero;stroke:none;stroke-width:0.352778" />
    <path
       id="path105"
       d="m 98.926226,184.60163 c 0.109008,0.4064 0.468489,0.6724 0.890058,0.6724 0.344666,0 0.578906,-0.23425 0.734836,-0.54716 0.17216,-0.35983 0.29739,-0.96873 0.29739,-0.9839 0,-0.11042 -0.0783,-0.11042 -0.11007,-0.11042 -0.109,0 -0.109,0.0469 -0.14075,0.18768 -0.14041,0.56339 -0.32773,1.23472 -0.749656,1.23472 -0.202494,0 -0.312561,-0.12559 -0.312561,-0.45332 0,-0.21801 0.125236,-0.68791 0.203906,-1.04598 l 0.281161,-1.07915 c 0.0314,-0.14041 0.12524,-0.51541 0.17216,-0.67098 0.0469,-0.23425 0.1404,-0.61066 0.1404,-0.67275 0,-0.17216 -0.1404,-0.26564 -0.28116,-0.26564 -0.048,0 -0.312561,0.0162 -0.391231,0.34431 -0.187325,0.73448 -0.625475,2.48461 -0.749652,3.00002 -0.01658,0.0469 -0.4064,0.84349 -1.140884,0.84349 -0.515408,0 -0.609247,-0.45332 -0.609247,-0.81174 0,-0.56374 0.281164,-1.34514 0.530578,-2.0327 0.125588,-0.31151 0.172155,-0.45191 0.172155,-0.63924 0,-0.4385 -0.312562,-0.81315 -0.8128,-0.81315 -0.9525,0 -1.311981,1.45239 -1.311981,1.53105 0,0.11007 0.09384,0.11007 0.108657,0.11007 0.110419,0 0.110419,-0.0317 0.157338,-0.18873 0.249414,-0.85831 0.640645,-1.23332 1.015648,-1.23332 0.09349,0 0.249413,0.0152 0.249413,0.32809 0,0.23424 -0.109008,0.53058 -0.171097,0.67098 -0.376061,1.00048 -0.578555,1.60973 -0.578555,2.0948 0,0.95214 0.687564,1.20297 1.218141,1.20297 0.657224,0 1.015647,-0.45332 1.187803,-0.6724 z"
       style="fill:#000000;fill-opacity:1;fill-rule:nonzero;stroke:none;stroke-width:0.352778" />
    <path
       id="path106"
       d="m 104.66028,185.39397 h -0.23425 c -0.0152,0.15558 -0.0938,0.56198 -0.18732,0.62407 -0.0469,0.0469 -0.5775,0.0469 -0.68792,0.0469 h -1.28129 c 0.73448,-0.63959 0.98531,-0.8435 1.39171,-1.17123 0.51541,-0.40675 0.99907,-0.84349 0.99907,-1.4993 0,-0.84491 -0.73449,-1.36031 -1.62455,-1.36031 -0.86007,0 -1.45274,0.60924 -1.45274,1.24989 0,0.34466 0.29634,0.39158 0.37501,0.39158 0.15557,0 0.35948,-0.12559 0.35948,-0.375 0,-0.12524 -0.048,-0.37606 -0.4064,-0.37606 0.21766,-0.48366 0.68756,-0.63959 1.01565,-0.63959 0.70273,0 1.06256,0.54575 1.06256,1.10949 0,0.60889 -0.4385,1.07738 -0.65616,1.32679 l -1.67288,1.67323 c -0.0773,0.0617 -0.0773,0.0769 -0.0773,0.26458 h 2.87479 z"
       style="fill:#000000;fill-opacity:1;fill-rule:nonzero;stroke:none;stroke-width:0.352778" />
    <path
       id="path107"
       d="m 115.53571,184.60163 c 0.10901,0.4064 0.46849,0.6724 0.89041,0.6724 0.3429,0 0.57714,-0.23425 0.73448,-0.54716 0.17216,-0.35983 0.29598,-0.96873 0.29598,-0.9839 0,-0.11042 -0.0769,-0.11042 -0.10865,-0.11042 -0.11042,0 -0.11042,0.0469 -0.14076,0.18768 -0.14041,0.56339 -0.32773,1.23472 -0.74965,1.23472 -0.20391,0 -0.31256,-0.12559 -0.31256,-0.45332 0,-0.21801 0.12523,-0.68791 0.20249,-1.04598 l 0.28116,-1.07915 c 0.0318,-0.14041 0.12524,-0.51541 0.17216,-0.67098 0.0469,-0.23425 0.1404,-0.61066 0.1404,-0.67275 0,-0.17216 -0.1404,-0.26564 -0.28081,-0.26564 -0.0469,0 -0.31291,0.0162 -0.39017,0.34431 -0.18873,0.73448 -0.62547,2.48461 -0.75106,3.00002 -0.0152,0.0469 -0.4064,0.84349 -1.13947,0.84349 -0.51682,0 -0.61066,-0.45332 -0.61066,-0.81174 0,-0.56374 0.28116,-1.34514 0.53199,-2.0327 0.12558,-0.31151 0.17215,-0.45191 0.17215,-0.63924 0,-0.4385 -0.31256,-0.81315 -0.8128,-0.81315 -0.95356,0 -1.31198,1.45239 -1.31198,1.53105 0,0.11007 0.0938,0.11007 0.10901,0.11007 0.10865,0 0.10865,-0.0317 0.15557,-0.18873 0.25083,-0.85831 0.64065,-1.23332 1.01565,-1.23332 0.0935,0 0.25083,0.0152 0.25083,0.32809 0,0.23424 -0.11042,0.53058 -0.17216,0.67098 -0.375,1.00048 -0.57891,1.60973 -0.57891,2.0948 0,0.95214 0.68757,1.20297 1.21956,1.20297 0.65581,0 1.01564,-0.45332 1.1878,-0.6724 z"
       style="fill:#000000;fill-opacity:1;fill-rule:nonzero;stroke:none;stroke-width:0.352778" />
    <path
       id="path108"
       d="m 119.66003,184.33141 c 0.54716,0 0.93733,0.37465 0.93733,1.1243 0,0.86007 -0.5154,1.12607 -0.90558,1.12607 -0.28222,0 -0.90664,-0.0787 -1.1878,-0.50024 0.32808,0 0.40675,-0.23425 0.40675,-0.39159 0,-0.21766 -0.17251,-0.37465 -0.39158,-0.37465 -0.18733,0 -0.38982,0.12524 -0.38982,0.4064 0,0.65617 0.7179,1.07774 1.56245,1.07774 0.96873,0 1.64007,-0.65581 1.64007,-1.34373 0,-0.54681 -0.4371,-1.09255 -1.20298,-1.24989 0.71932,-0.26565 0.9839,-0.78105 0.9839,-1.21815 0,-0.5468 -0.62442,-0.95355 -1.40582,-0.95355 -0.76623,0 -1.35996,0.375 -1.35996,0.93697 0,0.23566 0.15699,0.35984 0.35948,0.35984 0.21908,0 0.35984,-0.15558 0.35984,-0.34326 0,-0.2039 -0.14076,-0.35948 -0.35984,-0.37465 0.25083,-0.29774 0.71932,-0.375 0.98531,-0.375 0.31151,0 0.74966,0.15593 0.74966,0.74965 0,0.29634 -0.0935,0.62442 -0.28117,0.82833 -0.21907,0.26458 -0.42157,0.28116 -0.76588,0.31291 -0.17251,0.0152 -0.18768,0.0152 -0.21907,0.0152 -0.0152,0 -0.0773,0.0152 -0.0773,0.0935 0,0.0938 0.0621,0.0938 0.18732,0.0938 z"
       style="fill:#000000;fill-opacity:1;fill-rule:nonzero;stroke:none;stroke-width:0.352778" />
    <path
       id="path109"
       d="m 132.20587,184.60163 c 0.11042,0.4064 0.4699,0.6724 0.89147,0.6724 0.34325,0 0.57749,-0.23425 0.73448,-0.54716 0.1711,-0.35983 0.29633,-0.96873 0.29633,-0.9839 0,-0.11042 -0.0783,-0.11042 -0.10865,-0.11042 -0.11042,0 -0.11042,0.0469 -0.14076,0.18768 -0.14041,0.56339 -0.32773,1.23472 -0.75106,1.23472 -0.2025,0 -0.31151,-0.12559 -0.31151,-0.45332 0,-0.21801 0.12418,-0.68791 0.20285,-1.04598 l 0.28116,-1.07915 c 0.0314,-0.14041 0.12524,-0.51541 0.17216,-0.67098 0.0469,-0.23425 0.14041,-0.61066 0.14041,-0.67275 0,-0.17216 -0.14041,-0.26564 -0.28117,-0.26564 -0.0466,0 -0.31256,0.0162 -0.39123,0.34431 -0.18732,0.73448 -0.62406,2.48461 -0.74965,3.00002 -0.0152,0.0469 -0.4064,0.84349 -1.14088,0.84349 -0.51541,0 -0.60925,-0.45332 -0.60925,-0.81174 0,-0.56374 0.28116,-1.34514 0.53199,-2.0327 0.12382,-0.31151 0.17074,-0.45191 0.17074,-0.63924 0,-0.4385 -0.3115,-0.81315 -0.81174,-0.81315 -0.95356,0 -1.31304,1.45239 -1.31304,1.53105 0,0.11007 0.0935,0.11007 0.11007,0.11007 0.10901,0 0.10901,-0.0317 0.15593,-0.18873 0.25082,-0.85831 0.64064,-1.23332 1.01564,-1.23332 0.0935,0 0.25083,0.0152 0.25083,0.32809 0,0.23424 -0.11042,0.53058 -0.17251,0.67098 -0.37465,1.00048 -0.57856,1.60973 -0.57856,2.0948 0,0.95214 0.68757,1.20297 1.21956,1.20297 0.65581,0 1.01564,-0.45332 1.18639,-0.6724 z"
       style="fill:#000000;fill-opacity:1;fill-rule:nonzero;stroke:none;stroke-width:0.352778" />
    <path
       id="path110"
       d="m 138.11207,185.51921 v -0.25083 h -0.7814 v -3.10867 c 0,-0.14076 0,-0.20391 -0.1404,-0.20391 -0.0938,0 -0.12418,0 -0.18733,0.11007 l -2.31246,3.20251 v 0.25083 h 2.06305 v 0.56233 c 0,0.24941 0,0.32808 -0.57891,0.32808 h -0.18733 v 0.24941 c 0.35948,-0.0152 0.79763,-0.0303 1.04705,-0.0303 0.26599,0 0.70308,0.0152 1.06256,0.0303 v -0.24941 h -0.18732 c -0.57891,0 -0.57891,-0.0787 -0.57891,-0.32808 v -0.56233 z m -1.31198,-2.79753 v 2.5467 h -1.84361 z"
       style="fill:#000000;fill-opacity:1;fill-rule:nonzero;stroke:none;stroke-width:0.352778" />
    <path
       id="path111"
       d="m 149.11592,199.4056 c 0.10865,0.40675 0.46849,0.67275 0.89006,0.67275 0.34325,0 0.57749,-0.23425 0.73448,-0.54716 0.17216,-0.35983 0.29633,-0.96873 0.29633,-0.9839 0,-0.11042 -0.0773,-0.11042 -0.109,-0.11042 -0.10866,0 -0.10866,0.0469 -0.14041,0.18768 -0.14076,0.56339 -0.32808,1.23472 -0.74965,1.23472 -0.20391,0 -0.31292,-0.12559 -0.31292,-0.45367 0,-0.21766 0.12559,-0.68756 0.2025,-1.04563 l 0.28116,-1.07915 c 0.0318,-0.14041 0.12559,-0.51541 0.17251,-0.67098 0.0466,-0.23425 0.14041,-0.61066 0.14041,-0.67275 0,-0.17216 -0.14041,-0.266 -0.28117,-0.266 -0.0469,0 -0.31291,0.0166 -0.38982,0.34467 -0.18909,0.73448 -0.62583,2.48461 -0.75106,3.00002 -0.0152,0.0469 -0.40675,0.84349 -1.13983,0.84349 -0.51682,0 -0.6103,-0.45367 -0.6103,-0.81174 0,-0.56374 0.28116,-1.34514 0.53199,-2.03271 0.12523,-0.3115 0.17215,-0.4519 0.17215,-0.63923 0,-0.4385 -0.31291,-0.81315 -0.81315,-0.81315 -0.95356,0 -1.31198,1.45238 -1.31198,1.53105 0,0.11007 0.0938,0.11007 0.10901,0.11007 0.10901,0 0.10901,-0.0318 0.15557,-0.18874 0.25083,-0.85866 0.641,-1.23331 1.01565,-1.23331 0.0938,0 0.25082,0.0152 0.25082,0.32809 0,0.23424 -0.11006,0.53057 -0.17215,0.67098 -0.375,1.00048 -0.57891,1.60937 -0.57891,2.09444 0,0.9525 0.68792,1.20333 1.21955,1.20333 0.65617,0 1.01565,-0.45368 1.18816,-0.67275 z"
       style="fill:#000000;fill-opacity:1;fill-rule:nonzero;stroke:none;stroke-width:0.352778" />
    <path
       id="path112"
       d="m 153.66181,197.02576 c 0,-0.18732 0,-0.18732 -0.20249,-0.18732 -0.45332,0.43815 -1.07915,0.43815 -1.35996,0.43815 v 0.24941 c 0.15699,0 0.62548,0 1.00048,-0.18733 v 3.54719 c 0,0.23424 0,0.32773 -0.68792,0.32773 h -0.26599 v 0.24941 c 0.12559,0 0.98531,-0.0303 1.23472,-0.0303 0.21943,0 1.09432,0.0303 1.24989,0.0303 v -0.24941 h -0.26564 c -0.70309,0 -0.70309,-0.0935 -0.70309,-0.32773 z"
       style="fill:#000000;fill-opacity:1;fill-rule:nonzero;stroke:none;stroke-width:0.352778" />
    <path
       id="path113"
       d="m 148.89684,215.98086 c 0.10866,0.4064 0.46849,0.6724 0.89006,0.6724 0.34467,0 0.57891,-0.23425 0.73449,-0.54716 0.17215,-0.35948 0.29774,-0.96873 0.29774,-0.9839 0,-0.11007 -0.0787,-0.11007 -0.11042,-0.11007 -0.10866,0 -0.10866,0.0466 -0.14041,0.18733 -0.14075,0.56233 -0.32808,1.23472 -0.74965,1.23472 -0.2039,0 -0.31291,-0.12559 -0.31291,-0.45332 0,-0.21907 0.12559,-0.68756 0.20249,-1.04739 l 0.28258,-1.07774 c 0.0303,-0.14041 0.12418,-0.51541 0.17074,-0.67098 0.0469,-0.23566 0.14076,-0.61031 0.14076,-0.6724 0,-0.17251 -0.14076,-0.26599 -0.28116,-0.26599 -0.0469,0 -0.31292,0.0166 -0.38982,0.34431 -0.18768,0.73448 -0.62583,2.48461 -0.74966,3.00002 -0.0166,0.0469 -0.40675,0.84349 -1.14123,0.84349 -0.51541,0 -0.6089,-0.45332 -0.6089,-0.81315 0,-0.56233 0.28082,-1.34338 0.53058,-2.03129 0.12524,-0.31115 0.17216,-0.45191 0.17216,-0.64065 0,-0.43674 -0.31292,-0.81174 -0.81316,-0.81174 -0.95214,0 -1.31198,1.45239 -1.31198,1.53105 0,0.10901 0.0938,0.10901 0.10901,0.10901 0.11007,0 0.11007,-0.0303 0.15699,-0.18767 0.24941,-0.85831 0.63958,-1.23332 1.01565,-1.23332 0.0938,0 0.24941,0.0152 0.24941,0.32809 0,0.23424 -0.10866,0.53058 -0.17216,0.67098 -0.375,1.00048 -0.57749,1.60973 -0.57749,2.09479 0,0.95215 0.68756,1.20298 1.21814,1.20298 0.65617,0 1.01565,-0.45332 1.18815,-0.6724 z"
       style="fill:#000000;fill-opacity:1;fill-rule:nonzero;stroke:none;stroke-width:0.352778" />
    <path
       id="path114"
       d="m 154.63054,216.7732 h -0.23424 c -0.0152,0.15558 -0.0935,0.56233 -0.18733,0.62407 -0.0469,0.0469 -0.57891,0.0469 -0.68756,0.0469 h -1.28164 c 0.73448,-0.64064 0.9853,-0.84313 1.39029,-1.17122 0.51682,-0.4064 1.00048,-0.84349 1.00048,-1.50071 0,-0.8435 -0.73448,-1.3589 -1.62454,-1.3589 -0.86007,0 -1.4538,0.60924 -1.4538,1.24989 0,0.34466 0.29775,0.39158 0.37465,0.39158 0.15734,0 0.35984,-0.12559 0.35984,-0.37641 0,-0.12383 -0.0469,-0.37465 -0.4064,-0.37465 0.21907,-0.48366 0.68756,-0.641 1.01529,-0.641 0.7045,0 1.06257,0.54716 1.06257,1.10949 0,0.6103 -0.43674,1.07914 -0.65582,1.32856 l -1.67146,1.67146 c -0.0787,0.0635 -0.0787,0.0787 -0.0787,0.26599 h 2.87585 z"
       style="fill:#000000;fill-opacity:1;fill-rule:nonzero;stroke:none;stroke-width:0.352778" />
    <path
       id="path115"
       d="m 148.83476,232.55577 c 0.10865,0.4064 0.46848,0.6724 0.89005,0.6724 0.34326,0 0.5775,-0.23425 0.73449,-0.54681 0.17109,-0.35983 0.29633,-0.96873 0.29633,-0.98531 0,-0.109 -0.0787,-0.109 -0.10901,-0.109 -0.11007,0 -0.11007,0.0469 -0.1404,0.18732 -0.14041,0.56233 -0.32809,1.23472 -0.75107,1.23472 -0.20249,0 -0.3115,-0.12523 -0.3115,-0.45332 0,-0.21907 0.12418,-0.68756 0.20249,-1.04739 l 0.28117,-1.07739 c 0.0318,-0.14076 0.12559,-0.51541 0.17251,-0.67274 0.0466,-0.23425 0.1404,-0.6089 0.1404,-0.67099 0,-0.17215 -0.1404,-0.26599 -0.28116,-0.26599 -0.0469,0 -0.31292,0.0152 -0.39123,0.34466 -0.18733,0.73448 -0.62442,2.4832 -0.74966,3.00002 -0.0152,0.0466 -0.40675,0.84314 -1.14123,0.84314 -0.51506,0 -0.6089,-0.45332 -0.6089,-0.8128 0,-0.56233 0.28117,-1.34373 0.53199,-2.03129 0.12383,-0.31292 0.17075,-0.45332 0.17075,-0.641 0,-0.43674 -0.31151,-0.81139 -0.81174,-0.81139 -0.95356,0 -1.31304,1.45239 -1.31304,1.5307 0,0.10901 0.0935,0.10901 0.11006,0.10901 0.10901,0 0.10901,-0.0303 0.15593,-0.18732 0.25083,-0.85866 0.64065,-1.23331 1.0153,-1.23331 0.0938,0 0.25082,0.0152 0.25082,0.32773 0,0.23424 -0.11007,0.53058 -0.17215,0.67133 -0.37465,1.00048 -0.57856,1.60938 -0.57856,2.09445 0,0.95214 0.68756,1.20297 1.21955,1.20297 0.65582,0 1.0153,-0.45332 1.18781,-0.6724 z"
       style="fill:#000000;fill-opacity:1;fill-rule:nonzero;stroke:none;stroke-width:0.352778" />
    <path
       id="path116"
       d="m 152.95908,232.28555 c 0.54716,0 0.93698,0.375 0.93698,1.12465 0,0.86007 -0.51541,1.12466 -0.90664,1.12466 -0.28117,0 -0.90523,-0.0773 -1.18639,-0.49918 0.32773,0 0.4064,-0.23425 0.4064,-0.39123 0,-0.21908 -0.17216,-0.37465 -0.39123,-0.37465 -0.18733,0 -0.39018,0.12523 -0.39018,0.4064 0,0.65581 0.71791,1.07773 1.5614,1.07773 0.96873,0 1.64112,-0.65617 1.64112,-1.34373 0,-0.54716 -0.43674,-1.09432 -1.20297,-1.24989 0.71931,-0.266 0.9839,-0.7814 0.9839,-1.21814 0,-0.54716 -0.62407,-0.95356 -1.40547,-0.95356 -0.76623,0 -1.36031,0.37465 -1.36031,0.93698 0,0.23424 0.15734,0.35983 0.35983,0.35983 0.21908,0 0.35983,-0.15593 0.35983,-0.34325 0,-0.20391 -0.14075,-0.35984 -0.35983,-0.37606 0.25083,-0.29634 0.71932,-0.37501 0.9839,-0.37501 0.31291,0 0.75106,0.15699 0.75106,0.75107 0,0.29633 -0.0938,0.62406 -0.28116,0.82832 -0.21908,0.26458 -0.42157,0.28081 -0.76623,0.31115 -0.17216,0.0166 -0.18733,0.0166 -0.21908,0.0166 -0.0152,0 -0.0773,0.0152 -0.0773,0.0938 0,0.0935 0.0621,0.0935 0.18768,0.0935 z"
       style="fill:#000000;fill-opacity:1;fill-rule:nonzero;stroke:none;stroke-width:0.352778" />
    <path
       id="path117"
       d="m 148.72434,249.27144 c 0.11042,0.4064 0.46848,0.6724 0.89041,0.6724 0.34431,0 0.57855,-0.23566 0.73448,-0.54716 0.17216,-0.35948 0.29739,-0.96873 0.29739,-0.98531 0,-0.10866 -0.0783,-0.10866 -0.11007,-0.10866 -0.109,0 -0.109,0.0469 -0.1404,0.18733 -0.14076,0.56233 -0.32808,1.23472 -0.75001,1.23472 -0.20249,0 -0.31256,-0.12524 -0.31256,-0.45332 0,-0.21907 0.12524,-0.68756 0.20391,-1.0474 l 0.28116,-1.07738 c 0.0318,-0.14076 0.12524,-0.51541 0.17216,-0.67275 0.0469,-0.23424 0.14076,-0.60889 0.14076,-0.67098 0,-0.17215 -0.14076,-0.26599 -0.28117,-0.26599 -0.0469,0 -0.31291,0.0152 -0.39158,0.34466 -0.18733,0.73307 -0.62406,2.4832 -0.74965,2.99967 -0.0166,0.0469 -0.4064,0.84349 -1.14089,0.84349 -0.51541,0 -0.60924,-0.45332 -0.60924,-0.81315 0,-0.56198 0.28116,-1.34338 0.53057,-2.03094 0.12559,-0.31292 0.17251,-0.45368 0.17251,-0.641 0,-0.43674 -0.31291,-0.81174 -0.81174,-0.81174 -0.95356,0 -1.31339,1.45274 -1.31339,1.53105 0,0.10901 0.0938,0.10901 0.10901,0.10901 0.11006,0 0.11006,-0.0303 0.15698,-0.18732 0.24942,-0.85866 0.64065,-1.23473 1.01565,-1.23473 0.0935,0 0.24941,0.0162 0.24941,0.32915 0,0.23424 -0.109,0.53057 -0.17074,0.67133 -0.37641,1.00013 -0.57891,1.60937 -0.57891,2.09444 0,0.95215 0.68757,1.20298 1.21814,1.20298 0.65723,0 1.01565,-0.45332 1.18781,-0.6724 z"
       style="fill:#000000;fill-opacity:1;fill-rule:nonzero;stroke:none;stroke-width:0.352778" />
    <path
       id="path118"
       d="m 154.63054,250.18796 v -0.24942 h -0.78105 v -3.10903 c 0,-0.1404 0,-0.2039 -0.14076,-0.2039 -0.0938,0 -0.12523,0 -0.18732,0.11007 l -2.31246,3.20286 v 0.24942 h 2.06304 v 0.56338 c 0,0.24942 0,0.32809 -0.5789,0.32809 h -0.18733 v 0.24941 c 0.35983,-0.0152 0.79657,-0.0317 1.0474,-0.0317 0.26458,0 0.70273,0.0166 1.06221,0.0317 v -0.24941 h -0.18732 c -0.57856,0 -0.57856,-0.0787 -0.57856,-0.32809 v -0.56338 z m -1.31163,-2.79612 v 2.5467 h -1.84397 z"
       style="fill:#000000;fill-opacity:1;fill-rule:nonzero;stroke:none;stroke-width:0.352778" />
    <path
       id="path120"
       d="m 92.011429,206.82381 h 33.243661 v 33.24366 H 92.011429 Z"
       style="fill:#e3000f;fill-opacity:0.4;fill-rule:nonzero;stroke:#000000;stroke-width:0.388003;stroke-linecap:butt;stroke-linejoin:miter;stroke-miterlimit:4;stroke-dasharray:none;stroke-opacity:1" />
    <path
       id="path124"
       d="m 115.32898,213.60632 2.40594,-1.98438 c 0.21943,-0.18732 0.62583,-0.18732 0.93734,-0.18732 h 0.15698 v -0.4699 c -0.39123,0.0318 -0.96873,0.0318 -1.01565,0.0318 -0.37465,0 -1.09396,0 -1.45379,-0.0318 v 0.4699 c 0.12523,0 0.32808,0 0.57891,0.0621 0.15557,0.0318 0.0466,0.0152 0.12523,0.0469 l -3.68758,3.07834 v -3.18734 h 1.07773 v -0.4699 c -0.375,0.0318 -1.34373,0.0318 -1.78188,0.0318 -0.42157,0 -1.40547,0 -1.78047,-0.0318 v 0.4699 h 1.07774 v 5.9062 h -1.07774 v 0.46849 c 0.375,-0.0314 1.3589,-0.0314 1.78047,-0.0314 0.43815,0 1.40688,0 1.78188,0.0314 v -0.46849 h -1.07773 v -2.09444 l 0.99906,-0.82832 2.06305,2.70369 c 0.0466,0.0621 0.0466,0.0787 0.0783,0.14075 -0.18733,0.0783 -0.39123,0.0783 -0.73449,0.0783 v 0.46849 c 0.40676,-0.0314 1.31198,-0.0314 1.75013,-0.0314 0.40535,0 1.09291,0 1.46897,0.0314 v -0.46849 h -0.29739 c -0.53058,0 -0.56233,-0.0469 -0.67134,-0.2039 z"
       style="fill:#000000;fill-opacity:1;fill-rule:nonzero;stroke:none;stroke-width:0.352778" />
    <path
       id="path125"
       d="m 122.9966,218.03826 h -0.23459 c -0.0152,0.15699 -0.0935,0.56233 -0.18733,0.62548 -0.0469,0.0469 -0.57855,0.0469 -0.68756,0.0469 h -1.28164 c 0.73448,-0.64065 0.98531,-0.84349 1.39065,-1.17264 0.51646,-0.40534 1.00047,-0.84349 1.00047,-1.4993 0,-0.84349 -0.73448,-1.36031 -1.62489,-1.36031 -0.85972,0 -1.4538,0.61066 -1.4538,1.2513 0,0.34325 0.29775,0.39017 0.37465,0.39017 0.15734,0 0.35984,-0.12559 0.35984,-0.375 0,-0.12524 -0.0469,-0.37465 -0.4064,-0.37465 0.21907,-0.48507 0.68756,-0.641 1.01564,-0.641 0.70415,0 1.06222,0.54716 1.06222,1.10949 0,0.60889 -0.43674,1.07738 -0.65582,1.32821 l -1.67146,1.67181 c -0.0787,0.0621 -0.0787,0.0783 -0.0787,0.26599 h 2.87585 z"
       style="fill:#000000;fill-opacity:1;fill-rule:nonzero;stroke:none;stroke-width:0.352778" />
    <path
       id="path128"
       d="m 75.389247,303.51775 h 66.487673 v 66.48767 H 75.389247 Z"
       style="fill:none;stroke:#000000;stroke-width:0.388003;stroke-linecap:butt;stroke-linejoin:miter;stroke-miterlimit:4;stroke-dasharray:none;stroke-opacity:1" />
    <path
       id="path129"
       d="m 68.869914,336.91699 c 0.156986,0 0.34431,0 0.34431,-0.18733 0,-0.20249 -0.187324,-0.20249 -0.327731,-0.20249 h -5.969704 c -0.140758,0 -0.328083,0 -0.328083,0.20249 0,0.18733 0.187325,0.18733 0.328083,0.18733 z m 0.01658,1.9378 c 0.140407,0 0.327731,0 0.327731,-0.20284 0,-0.18733 -0.187324,-0.18733 -0.34431,-0.18733 H 62.91679 c -0.140758,0 -0.328083,0 -0.328083,0.18733 0,0.20284 0.187325,0.20284 0.328083,0.20284 z"
       style="fill:#000000;fill-opacity:1;fill-rule:nonzero;stroke:none;stroke-width:0.352778" />
    <path
       id="path130"
       d="m 92.011429,303.51775 v 66.48732"
       style="fill:none;stroke:#000000;stroke-width:0.388003;stroke-linecap:butt;stroke-linejoin:miter;stroke-miterlimit:4;stroke-dasharray:none;stroke-opacity:1" />
    <path
       id="path131"
       d="m 108.63326,303.51775 v 66.48732"
       style="fill:none;stroke:#000000;stroke-width:0.388003;stroke-linecap:butt;stroke-linejoin:miter;stroke-miterlimit:4;stroke-dasharray:none;stroke-opacity:1" />
    <path
       id="path132"
       d="m 125.25509,303.51775 v 66.48732"
       style="fill:none;stroke:#000000;stroke-width:0.388003;stroke-linecap:butt;stroke-linejoin:miter;stroke-miterlimit:4;stroke-dasharray:none;stroke-opacity:1" />
    <path
       id="path133"
       d="m 141.87692,303.51775 v 66.48732"
       style="fill:none;stroke:#000000;stroke-width:0.388003;stroke-linecap:butt;stroke-linejoin:miter;stroke-miterlimit:4;stroke-dasharray:none;stroke-opacity:1" />
    <path
       id="path134"
       d="m 75.389247,303.51775 v 66.48732"
       style="fill:none;stroke:#000000;stroke-width:0.388003;stroke-linecap:butt;stroke-linejoin:miter;stroke-miterlimit:4;stroke-dasharray:none;stroke-opacity:1" />
    <path
       id="path135"
       d="M 75.389247,353.38324 H 141.87692"
       style="fill:none;stroke:#000000;stroke-width:0.388003;stroke-linecap:butt;stroke-linejoin:miter;stroke-miterlimit:4;stroke-dasharray:none;stroke-opacity:1" />
    <path
       id="path136"
       d="M 75.389247,336.76141 H 141.87692"
       style="fill:none;stroke:#000000;stroke-width:0.388003;stroke-linecap:butt;stroke-linejoin:miter;stroke-miterlimit:4;stroke-dasharray:none;stroke-opacity:1" />
    <path
       id="path137"
       d="M 75.389247,320.13958 H 141.87692"
       style="fill:none;stroke:#000000;stroke-width:0.388003;stroke-linecap:butt;stroke-linejoin:miter;stroke-miterlimit:4;stroke-dasharray:none;stroke-opacity:1" />
    <path
       id="path138"
       d="M 75.389247,303.51775 H 141.87692"
       style="fill:none;stroke:#000000;stroke-width:0.388003;stroke-linecap:butt;stroke-linejoin:miter;stroke-miterlimit:4;stroke-dasharray:none;stroke-opacity:1" />
    <path
       id="path139"
       d="M 75.389247,370.00507 H 141.87692"
       style="fill:none;stroke:#000000;stroke-width:0.388003;stroke-linecap:butt;stroke-linejoin:miter;stroke-miterlimit:4;stroke-dasharray:none;stroke-opacity:1" />
    <path
       id="path140"
       d="m 82.535819,297.9174 c 0.110419,0.4064 0.469899,0.6724 0.891469,0.6724 0.343253,0 0.577496,-0.23425 0.734836,-0.54716 0.170744,-0.35983 0.295981,-0.96873 0.295981,-0.9839 0,-0.11042 -0.07832,-0.11042 -0.108657,-0.11042 -0.110419,0 -0.110419,0.0469 -0.140757,0.18768 -0.140406,0.56339 -0.327731,1.23472 -0.751064,1.23472 -0.202495,0 -0.31115,-0.12559 -0.31115,-0.45332 0,-0.21801 0.123825,-0.68791 0.202494,-1.04598 l 0.281163,-1.07915 c 0.03175,-0.14041 0.125236,-0.51541 0.172156,-0.67098 0.04692,-0.23425 0.140406,-0.61066 0.140406,-0.67275 0,-0.17216 -0.140406,-0.26564 -0.280811,-0.26564 -0.04692,0 -0.312914,0.0162 -0.391583,0.34431 -0.187326,0.73448 -0.624064,2.48461 -0.749653,3.00002 -0.01517,0.0469 -0.4064,0.84349 -1.140883,0.84349 -0.515409,0 -0.609247,-0.45332 -0.609247,-0.81174 0,-0.56374 0.281162,-1.34514 0.531987,-2.0327 0.124178,-0.31151 0.170746,-0.45191 0.170746,-0.63924 0,-0.4385 -0.31115,-0.81315 -0.81139,-0.81315 -0.95391,0 -1.313392,1.45239 -1.313392,1.53105 0,0.11007 0.09384,0.11007 0.110068,0.11007 0.109007,0 0.109007,-0.0317 0.155927,-0.18873 0.250825,-0.85831 0.640645,-1.23332 1.015647,-1.23332 0.09349,0 0.250826,0.0152 0.250826,0.32809 0,0.23424 -0.110419,0.53058 -0.172509,0.67098 -0.37465,1.00048 -0.578555,1.60973 -0.578555,2.0948 0,0.95214 0.687564,1.20297 1.219552,1.20297 0.655814,0 1.015647,-0.45332 1.186393,-0.6724 z"
       style="fill:#000000;fill-opacity:1;fill-rule:nonzero;stroke:none;stroke-width:0.352778" />
    <path
       id="path141"
       d="m 87.083477,295.53721 c 0,-0.18732 0,-0.18732 -0.203907,-0.18732 -0.45226,0.43815 -1.077735,0.43815 -1.358899,0.43815 v 0.24941 c 0.155575,0 0.625475,0 1.000478,-0.18732 v 3.54718 c 0,0.23424 0,0.32808 -0.687565,0.32808 h -0.265993 v 0.24941 c 0.125236,0 0.983897,-0.0303 1.234721,-0.0303 0.217665,0 1.092905,0.0303 1.249892,0.0303 v -0.24941 H 87.78621 c -0.702733,0 -0.702733,-0.0938 -0.702733,-0.32808 z"
       style="fill:#000000;fill-opacity:1;fill-rule:nonzero;stroke:none;stroke-width:0.352778" />
    <path
       id="path142"
       d="m 98.926226,297.9174 c 0.109008,0.4064 0.468489,0.6724 0.890058,0.6724 0.344666,0 0.578906,-0.23425 0.734836,-0.54716 0.17216,-0.35983 0.29739,-0.96873 0.29739,-0.9839 0,-0.11042 -0.0783,-0.11042 -0.11007,-0.11042 -0.109,0 -0.109,0.0469 -0.14075,0.18768 -0.14041,0.56339 -0.32773,1.23472 -0.749656,1.23472 -0.202494,0 -0.312561,-0.12559 -0.312561,-0.45332 0,-0.21801 0.125236,-0.68791 0.203906,-1.04598 l 0.281161,-1.07915 c 0.0314,-0.14041 0.12524,-0.51541 0.17216,-0.67098 0.0469,-0.23425 0.1404,-0.61066 0.1404,-0.67275 0,-0.17216 -0.1404,-0.26564 -0.28116,-0.26564 -0.048,0 -0.312561,0.0162 -0.391231,0.34431 -0.187325,0.73448 -0.625475,2.48461 -0.749652,3.00002 -0.01658,0.0469 -0.4064,0.84349 -1.140884,0.84349 -0.515408,0 -0.609247,-0.45332 -0.609247,-0.81174 0,-0.56374 0.281164,-1.34514 0.530578,-2.0327 0.125588,-0.31151 0.172155,-0.45191 0.172155,-0.63924 0,-0.4385 -0.312562,-0.81315 -0.8128,-0.81315 -0.9525,0 -1.311981,1.45239 -1.311981,1.53105 0,0.11007 0.09384,0.11007 0.108657,0.11007 0.110419,0 0.110419,-0.0317 0.157338,-0.18873 0.249414,-0.85831 0.640645,-1.23332 1.015648,-1.23332 0.09349,0 0.249413,0.0152 0.249413,0.32809 0,0.23424 -0.109008,0.53058 -0.171097,0.67098 -0.376061,1.00048 -0.578555,1.60973 -0.578555,2.0948 0,0.95214 0.687564,1.20297 1.218141,1.20297 0.657224,0 1.015647,-0.45332 1.187803,-0.6724 z"
       style="fill:#000000;fill-opacity:1;fill-rule:nonzero;stroke:none;stroke-width:0.352778" />
    <path
       id="path143"
       d="m 104.66028,298.70974 h -0.23425 c -0.0152,0.15558 -0.0938,0.56198 -0.18732,0.62407 -0.0469,0.0469 -0.5775,0.0469 -0.68792,0.0469 h -1.28129 c 0.73448,-0.63959 0.98531,-0.8435 1.39171,-1.17123 0.51541,-0.40675 0.99907,-0.84349 0.99907,-1.4993 0,-0.84491 -0.73449,-1.36031 -1.62455,-1.36031 -0.86007,0 -1.45274,0.60924 -1.45274,1.24989 0,0.34466 0.29634,0.39158 0.37501,0.39158 0.15557,0 0.35948,-0.12559 0.35948,-0.375 0,-0.12524 -0.048,-0.37606 -0.4064,-0.37606 0.21766,-0.48366 0.68756,-0.63959 1.01565,-0.63959 0.70273,0 1.06256,0.54575 1.06256,1.10949 0,0.60889 -0.4385,1.07738 -0.65616,1.32679 l -1.67288,1.67323 c -0.0773,0.0617 -0.0773,0.0769 -0.0773,0.26458 h 2.87479 z"
       style="fill:#000000;fill-opacity:1;fill-rule:nonzero;stroke:none;stroke-width:0.352778" />
    <path
       id="path144"
       d="m 115.53571,297.9174 c 0.10901,0.4064 0.46849,0.6724 0.89041,0.6724 0.3429,0 0.57714,-0.23425 0.73448,-0.54716 0.17216,-0.35983 0.29598,-0.96873 0.29598,-0.9839 0,-0.11042 -0.0769,-0.11042 -0.10865,-0.11042 -0.11042,0 -0.11042,0.0469 -0.14076,0.18768 -0.14041,0.56339 -0.32773,1.23472 -0.74965,1.23472 -0.20391,0 -0.31256,-0.12559 -0.31256,-0.45332 0,-0.21801 0.12523,-0.68791 0.20249,-1.04598 l 0.28116,-1.07915 c 0.0318,-0.14041 0.12524,-0.51541 0.17216,-0.67098 0.0469,-0.23425 0.1404,-0.61066 0.1404,-0.67275 0,-0.17216 -0.1404,-0.26564 -0.28081,-0.26564 -0.0469,0 -0.31291,0.0162 -0.39017,0.34431 -0.18873,0.73448 -0.62547,2.48461 -0.75106,3.00002 -0.0152,0.0469 -0.4064,0.84349 -1.13947,0.84349 -0.51682,0 -0.61066,-0.45332 -0.61066,-0.81174 0,-0.56374 0.28116,-1.34514 0.53199,-2.0327 0.12558,-0.31151 0.17215,-0.45191 0.17215,-0.63924 0,-0.4385 -0.31256,-0.81315 -0.8128,-0.81315 -0.95356,0 -1.31198,1.45239 -1.31198,1.53105 0,0.11007 0.0938,0.11007 0.10901,0.11007 0.10865,0 0.10865,-0.0317 0.15557,-0.18873 0.25083,-0.85831 0.64065,-1.23332 1.01565,-1.23332 0.0935,0 0.25083,0.0152 0.25083,0.32809 0,0.23424 -0.11042,0.53058 -0.17216,0.67098 -0.375,1.00048 -0.57891,1.60973 -0.57891,2.0948 0,0.95214 0.68757,1.20297 1.21956,1.20297 0.65581,0 1.01564,-0.45332 1.1878,-0.6724 z"
       style="fill:#000000;fill-opacity:1;fill-rule:nonzero;stroke:none;stroke-width:0.352778" />
    <path
       id="path145"
       d="m 119.66003,297.64718 c 0.54716,0 0.93733,0.37465 0.93733,1.1243 0,0.86007 -0.5154,1.12607 -0.90558,1.12607 -0.28222,0 -0.90664,-0.0787 -1.1878,-0.50024 0.32808,0 0.40675,-0.23425 0.40675,-0.39159 0,-0.21766 -0.17251,-0.37465 -0.39158,-0.37465 -0.18733,0 -0.38982,0.12524 -0.38982,0.4064 0,0.65617 0.7179,1.07774 1.56245,1.07774 0.96873,0 1.64007,-0.65581 1.64007,-1.34373 0,-0.54681 -0.4371,-1.09255 -1.20298,-1.24989 0.71932,-0.26565 0.9839,-0.78105 0.9839,-1.21815 0,-0.5468 -0.62442,-0.95355 -1.40582,-0.95355 -0.76623,0 -1.35996,0.375 -1.35996,0.93697 0,0.23566 0.15699,0.35984 0.35948,0.35984 0.21908,0 0.35984,-0.15558 0.35984,-0.34326 0,-0.2039 -0.14076,-0.35948 -0.35984,-0.37465 0.25083,-0.29774 0.71932,-0.375 0.98531,-0.375 0.31151,0 0.74966,0.15593 0.74966,0.74965 0,0.29634 -0.0935,0.62442 -0.28117,0.82833 -0.21907,0.26458 -0.42157,0.28116 -0.76588,0.31291 -0.17251,0.0152 -0.18768,0.0152 -0.21907,0.0152 -0.0152,0 -0.0773,0.0152 -0.0773,0.0935 0,0.0938 0.0621,0.0938 0.18732,0.0938 z"
       style="fill:#000000;fill-opacity:1;fill-rule:nonzero;stroke:none;stroke-width:0.352778" />
    <path
       id="path146"
       d="m 132.20587,297.9174 c 0.11042,0.4064 0.4699,0.6724 0.89147,0.6724 0.34325,0 0.57749,-0.23425 0.73448,-0.54716 0.1711,-0.35983 0.29633,-0.96873 0.29633,-0.9839 0,-0.11042 -0.0783,-0.11042 -0.10865,-0.11042 -0.11042,0 -0.11042,0.0469 -0.14076,0.18768 -0.14041,0.56339 -0.32773,1.23472 -0.75106,1.23472 -0.2025,0 -0.31151,-0.12559 -0.31151,-0.45332 0,-0.21801 0.12418,-0.68791 0.20285,-1.04598 l 0.28116,-1.07915 c 0.0314,-0.14041 0.12524,-0.51541 0.17216,-0.67098 0.0469,-0.23425 0.14041,-0.61066 0.14041,-0.67275 0,-0.17216 -0.14041,-0.26564 -0.28117,-0.26564 -0.0466,0 -0.31256,0.0162 -0.39123,0.34431 -0.18732,0.73448 -0.62406,2.48461 -0.74965,3.00002 -0.0152,0.0469 -0.4064,0.84349 -1.14088,0.84349 -0.51541,0 -0.60925,-0.45332 -0.60925,-0.81174 0,-0.56374 0.28116,-1.34514 0.53199,-2.0327 0.12382,-0.31151 0.17074,-0.45191 0.17074,-0.63924 0,-0.4385 -0.3115,-0.81315 -0.81174,-0.81315 -0.95356,0 -1.31304,1.45239 -1.31304,1.53105 0,0.11007 0.0935,0.11007 0.11007,0.11007 0.10901,0 0.10901,-0.0317 0.15593,-0.18873 0.25082,-0.85831 0.64064,-1.23332 1.01564,-1.23332 0.0935,0 0.25083,0.0152 0.25083,0.32809 0,0.23424 -0.11042,0.53058 -0.17251,0.67098 -0.37465,1.00048 -0.57856,1.60973 -0.57856,2.0948 0,0.95214 0.68757,1.20297 1.21956,1.20297 0.65581,0 1.01564,-0.45332 1.18639,-0.6724 z"
       style="fill:#000000;fill-opacity:1;fill-rule:nonzero;stroke:none;stroke-width:0.352778" />
    <path
       id="path147"
       d="m 138.11207,298.83498 v -0.25083 h -0.7814 v -3.10867 c 0,-0.14076 0,-0.20391 -0.1404,-0.20391 -0.0938,0 -0.12418,0 -0.18733,0.11007 l -2.31246,3.20251 v 0.25083 h 2.06305 v 0.56233 c 0,0.24941 0,0.32808 -0.57891,0.32808 h -0.18733 v 0.24941 c 0.35948,-0.0152 0.79763,-0.0303 1.04705,-0.0303 0.26599,0 0.70308,0.0152 1.06256,0.0303 v -0.24941 h -0.18732 c -0.57891,0 -0.57891,-0.0787 -0.57891,-0.32808 v -0.56233 z m -1.31198,-2.79753 v 2.5467 h -1.84361 z"
       style="fill:#000000;fill-opacity:1;fill-rule:nonzero;stroke:none;stroke-width:0.352778" />
    <path
       id="path148"
       d="m 149.11592,312.72137 c 0.10865,0.40675 0.46849,0.67275 0.89006,0.67275 0.34325,0 0.57749,-0.23425 0.73448,-0.54716 0.17216,-0.35983 0.29633,-0.96873 0.29633,-0.9839 0,-0.11042 -0.0773,-0.11042 -0.109,-0.11042 -0.10866,0 -0.10866,0.0469 -0.14041,0.18768 -0.14076,0.56339 -0.32808,1.23472 -0.74965,1.23472 -0.20391,0 -0.31292,-0.12559 -0.31292,-0.45367 0,-0.21766 0.12559,-0.68756 0.2025,-1.04563 l 0.28116,-1.07915 c 0.0318,-0.14041 0.12559,-0.51541 0.17251,-0.67098 0.0466,-0.23425 0.14041,-0.61066 0.14041,-0.67275 0,-0.17216 -0.14041,-0.266 -0.28117,-0.266 -0.0469,0 -0.31291,0.0166 -0.38982,0.34467 -0.18909,0.73448 -0.62583,2.48461 -0.75106,3.00002 -0.0152,0.0469 -0.40675,0.84349 -1.13983,0.84349 -0.51682,0 -0.6103,-0.45367 -0.6103,-0.81174 0,-0.56374 0.28116,-1.34514 0.53199,-2.03271 0.12523,-0.3115 0.17215,-0.4519 0.17215,-0.63923 0,-0.4385 -0.31291,-0.81315 -0.81315,-0.81315 -0.95356,0 -1.31198,1.45238 -1.31198,1.53105 0,0.11007 0.0938,0.11007 0.10901,0.11007 0.10901,0 0.10901,-0.0318 0.15557,-0.18874 0.25083,-0.85866 0.641,-1.23331 1.01565,-1.23331 0.0938,0 0.25082,0.0152 0.25082,0.32809 0,0.23424 -0.11006,0.53057 -0.17215,0.67098 -0.375,1.00048 -0.57891,1.60937 -0.57891,2.09444 0,0.9525 0.68792,1.20333 1.21955,1.20333 0.65617,0 1.01565,-0.45368 1.18816,-0.67275 z"
       style="fill:#000000;fill-opacity:1;fill-rule:nonzero;stroke:none;stroke-width:0.352778" />
    <path
       id="path149"
       d="m 153.66181,310.34153 c 0,-0.18732 0,-0.18732 -0.20249,-0.18732 -0.45332,0.43815 -1.07915,0.43815 -1.35996,0.43815 v 0.24941 c 0.15699,0 0.62548,0 1.00048,-0.18733 v 3.54719 c 0,0.23424 0,0.32773 -0.68792,0.32773 h -0.26599 v 0.24941 c 0.12559,0 0.98531,-0.0303 1.23472,-0.0303 0.21943,0 1.09432,0.0303 1.24989,0.0303 v -0.24941 h -0.26564 c -0.70309,0 -0.70309,-0.0935 -0.70309,-0.32773 z"
       style="fill:#000000;fill-opacity:1;fill-rule:nonzero;stroke:none;stroke-width:0.352778" />
    <path
       id="path150"
       d="m 148.89684,329.29663 c 0.10866,0.4064 0.46849,0.6724 0.89006,0.6724 0.34467,0 0.57891,-0.23425 0.73449,-0.54716 0.17215,-0.35948 0.29774,-0.96873 0.29774,-0.9839 0,-0.11007 -0.0787,-0.11007 -0.11042,-0.11007 -0.10866,0 -0.10866,0.0466 -0.14041,0.18733 -0.14075,0.56233 -0.32808,1.23472 -0.74965,1.23472 -0.2039,0 -0.31291,-0.12559 -0.31291,-0.45332 0,-0.21907 0.12559,-0.68756 0.20249,-1.04739 l 0.28258,-1.07774 c 0.0303,-0.14041 0.12418,-0.51541 0.17074,-0.67098 0.0469,-0.23566 0.14076,-0.61031 0.14076,-0.6724 0,-0.17251 -0.14076,-0.26599 -0.28116,-0.26599 -0.0469,0 -0.31292,0.0166 -0.38982,0.34431 -0.18768,0.73448 -0.62583,2.48461 -0.74966,3.00002 -0.0166,0.0469 -0.40675,0.84349 -1.14123,0.84349 -0.51541,0 -0.6089,-0.45332 -0.6089,-0.81315 0,-0.56233 0.28082,-1.34338 0.53058,-2.03129 0.12524,-0.31115 0.17216,-0.45191 0.17216,-0.64065 0,-0.43674 -0.31292,-0.81174 -0.81316,-0.81174 -0.95214,0 -1.31198,1.45239 -1.31198,1.53105 0,0.10901 0.0938,0.10901 0.10901,0.10901 0.11007,0 0.11007,-0.0303 0.15699,-0.18767 0.24941,-0.85831 0.63958,-1.23332 1.01565,-1.23332 0.0938,0 0.24941,0.0152 0.24941,0.32809 0,0.23424 -0.10866,0.53058 -0.17216,0.67098 -0.375,1.00048 -0.57749,1.60973 -0.57749,2.09479 0,0.95215 0.68756,1.20298 1.21814,1.20298 0.65617,0 1.01565,-0.45332 1.18815,-0.6724 z"
       style="fill:#000000;fill-opacity:1;fill-rule:nonzero;stroke:none;stroke-width:0.352778" />
    <path
       id="path151"
       d="m 154.63054,330.08897 h -0.23424 c -0.0152,0.15558 -0.0935,0.56233 -0.18733,0.62407 -0.0469,0.0469 -0.57891,0.0469 -0.68756,0.0469 h -1.28164 c 0.73448,-0.64064 0.9853,-0.84313 1.39029,-1.17122 0.51682,-0.4064 1.00048,-0.84349 1.00048,-1.50071 0,-0.8435 -0.73448,-1.3589 -1.62454,-1.3589 -0.86007,0 -1.4538,0.60924 -1.4538,1.24989 0,0.34466 0.29775,0.39158 0.37465,0.39158 0.15734,0 0.35984,-0.12559 0.35984,-0.37641 0,-0.12383 -0.0469,-0.37465 -0.4064,-0.37465 0.21907,-0.48366 0.68756,-0.641 1.01529,-0.641 0.7045,0 1.06257,0.54716 1.06257,1.10949 0,0.6103 -0.43674,1.07914 -0.65582,1.32856 l -1.67146,1.67146 c -0.0787,0.0635 -0.0787,0.0787 -0.0787,0.26599 h 2.87585 z"
       style="fill:#000000;fill-opacity:1;fill-rule:nonzero;stroke:none;stroke-width:0.352778" />
    <path
       id="path152"
       d="m 148.83476,345.87154 c 0.10865,0.4064 0.46848,0.6724 0.89005,0.6724 0.34326,0 0.5775,-0.23425 0.73449,-0.54681 0.17109,-0.35983 0.29633,-0.96873 0.29633,-0.98531 0,-0.109 -0.0787,-0.109 -0.10901,-0.109 -0.11007,0 -0.11007,0.0469 -0.1404,0.18732 -0.14041,0.56233 -0.32809,1.23472 -0.75107,1.23472 -0.20249,0 -0.3115,-0.12523 -0.3115,-0.45332 0,-0.21907 0.12418,-0.68756 0.20249,-1.04739 l 0.28117,-1.07739 c 0.0318,-0.14076 0.12559,-0.51541 0.17251,-0.67274 0.0466,-0.23425 0.1404,-0.6089 0.1404,-0.67099 0,-0.17215 -0.1404,-0.26599 -0.28116,-0.26599 -0.0469,0 -0.31292,0.0152 -0.39123,0.34466 -0.18733,0.73448 -0.62442,2.4832 -0.74966,3.00002 -0.0152,0.0466 -0.40675,0.84314 -1.14123,0.84314 -0.51506,0 -0.6089,-0.45332 -0.6089,-0.8128 0,-0.56233 0.28117,-1.34373 0.53199,-2.03129 0.12383,-0.31292 0.17075,-0.45332 0.17075,-0.641 0,-0.43674 -0.31151,-0.81139 -0.81174,-0.81139 -0.95356,0 -1.31304,1.45239 -1.31304,1.5307 0,0.10901 0.0935,0.10901 0.11006,0.10901 0.10901,0 0.10901,-0.0303 0.15593,-0.18732 0.25083,-0.85866 0.64065,-1.23331 1.0153,-1.23331 0.0938,0 0.25082,0.0152 0.25082,0.32773 0,0.23424 -0.11007,0.53058 -0.17215,0.67133 -0.37465,1.00048 -0.57856,1.60938 -0.57856,2.09445 0,0.95214 0.68756,1.20297 1.21955,1.20297 0.65582,0 1.0153,-0.45332 1.18781,-0.6724 z"
       style="fill:#000000;fill-opacity:1;fill-rule:nonzero;stroke:none;stroke-width:0.352778" />
    <path
       id="path153"
       d="m 152.95908,345.60132 c 0.54716,0 0.93698,0.375 0.93698,1.12465 0,0.86007 -0.51541,1.12466 -0.90664,1.12466 -0.28117,0 -0.90523,-0.0773 -1.18639,-0.49918 0.32773,0 0.4064,-0.23425 0.4064,-0.39123 0,-0.21908 -0.17216,-0.37465 -0.39123,-0.37465 -0.18733,0 -0.39018,0.12523 -0.39018,0.4064 0,0.65581 0.71791,1.07773 1.5614,1.07773 0.96873,0 1.64112,-0.65617 1.64112,-1.34373 0,-0.54716 -0.43674,-1.09432 -1.20297,-1.24989 0.71931,-0.266 0.9839,-0.7814 0.9839,-1.21814 0,-0.54716 -0.62407,-0.95356 -1.40547,-0.95356 -0.76623,0 -1.36031,0.37465 -1.36031,0.93698 0,0.23424 0.15734,0.35983 0.35983,0.35983 0.21908,0 0.35983,-0.15593 0.35983,-0.34325 0,-0.20391 -0.14075,-0.35984 -0.35983,-0.37606 0.25083,-0.29634 0.71932,-0.37501 0.9839,-0.37501 0.31291,0 0.75106,0.15699 0.75106,0.75107 0,0.29633 -0.0938,0.62406 -0.28116,0.82832 -0.21908,0.26458 -0.42157,0.28081 -0.76623,0.31115 -0.17216,0.0166 -0.18733,0.0166 -0.21908,0.0166 -0.0152,0 -0.0773,0.0152 -0.0773,0.0938 0,0.0935 0.0621,0.0935 0.18768,0.0935 z"
       style="fill:#000000;fill-opacity:1;fill-rule:nonzero;stroke:none;stroke-width:0.352778" />
    <path
       id="path154"
       d="m 148.72434,362.58721 c 0.11042,0.4064 0.46848,0.6724 0.89041,0.6724 0.34431,0 0.57855,-0.23566 0.73448,-0.54716 0.17216,-0.35948 0.29739,-0.96873 0.29739,-0.98531 0,-0.10866 -0.0783,-0.10866 -0.11007,-0.10866 -0.109,0 -0.109,0.0469 -0.1404,0.18733 -0.14076,0.56233 -0.32808,1.23472 -0.75001,1.23472 -0.20249,0 -0.31256,-0.12524 -0.31256,-0.45332 0,-0.21907 0.12524,-0.68756 0.20391,-1.0474 l 0.28116,-1.07738 c 0.0318,-0.14076 0.12524,-0.51541 0.17216,-0.67275 0.0469,-0.23424 0.14076,-0.60889 0.14076,-0.67098 0,-0.17215 -0.14076,-0.26599 -0.28117,-0.26599 -0.0469,0 -0.31291,0.0152 -0.39158,0.34466 -0.18733,0.73307 -0.62406,2.4832 -0.74965,2.99967 -0.0166,0.0469 -0.4064,0.84349 -1.14089,0.84349 -0.51541,0 -0.60924,-0.45332 -0.60924,-0.81315 0,-0.56198 0.28116,-1.34338 0.53057,-2.03094 0.12559,-0.31292 0.17251,-0.45368 0.17251,-0.641 0,-0.43674 -0.31291,-0.81174 -0.81174,-0.81174 -0.95356,0 -1.31339,1.45274 -1.31339,1.53105 0,0.10901 0.0938,0.10901 0.10901,0.10901 0.11006,0 0.11006,-0.0303 0.15698,-0.18732 0.24942,-0.85866 0.64065,-1.23473 1.01565,-1.23473 0.0935,0 0.24941,0.0162 0.24941,0.32915 0,0.23424 -0.109,0.53057 -0.17074,0.67133 -0.37641,1.00013 -0.57891,1.60937 -0.57891,2.09444 0,0.95215 0.68757,1.20298 1.21814,1.20298 0.65723,0 1.01565,-0.45332 1.18781,-0.6724 z"
       style="fill:#000000;fill-opacity:1;fill-rule:nonzero;stroke:none;stroke-width:0.352778" />
    <path
       id="path155"
       d="m 154.63054,363.50373 v -0.24942 h -0.78105 v -3.10903 c 0,-0.1404 0,-0.2039 -0.14076,-0.2039 -0.0938,0 -0.12523,0 -0.18732,0.11007 l -2.31246,3.20286 v 0.24942 h 2.06304 v 0.56338 c 0,0.24942 0,0.32809 -0.5789,0.32809 h -0.18733 v 0.24941 c 0.35983,-0.0152 0.79657,-0.0317 1.0474,-0.0317 0.26458,0 0.70273,0.0166 1.06221,0.0317 v -0.24941 h -0.18732 c -0.57856,0 -0.57856,-0.0787 -0.57856,-0.32809 v -0.56338 z m -1.31163,-2.79612 v 2.5467 h -1.84397 z"
       style="fill:#000000;fill-opacity:1;fill-rule:nonzero;stroke:none;stroke-width:0.352778" />
    <path
       id="path158"
       d="m 108.63326,336.76141 h 33.24366 v 33.24366 h -33.24366 z"
       style="fill:#94c11c;fill-opacity:0.4;fill-rule:nonzero;stroke:#000000;stroke-width:0.388003;stroke-linecap:butt;stroke-linejoin:miter;stroke-miterlimit:4;stroke-dasharray:none;stroke-opacity:1" />
    <path
       id="path163"
       d="m 131.91906,343.47371 2.4063,-1.98437 c 0.21907,-0.18733 0.62547,-0.18733 0.93839,-0.18733 h 0.15557 v -0.4699 c -0.38982,0.0318 -0.96873,0.0318 -1.01565,0.0318 -0.37465,0 -1.09396,0 -1.45238,-0.0318 v 0.4699 c 0.12418,0 0.32808,0 0.57749,0.0621 0.15558,0.0317 0.0469,0.0152 0.12524,0.0469 l -3.68758,3.07834 V 341.302 h 1.07773 v -0.4699 c -0.37465,0.0318 -1.34373,0.0318 -1.78047,0.0318 -0.42298,0 -1.40688,0 -1.78188,-0.0318 v 0.4699 h 1.07774 v 5.90621 h -1.07774 v 0.46849 c 0.375,-0.0318 1.3589,-0.0318 1.78188,-0.0318 0.43674,0 1.40582,0 1.78047,0.0318 v -0.46849 h -1.07773 v -2.09444 l 1.00047,-0.82833 2.06164,2.70369 c 0.0469,0.0621 0.0469,0.0773 0.0787,0.14076 -0.18768,0.0783 -0.39159,0.0783 -0.73449,0.0783 v 0.46849 c 0.4064,-0.0318 1.31163,-0.0318 1.75013,-0.0318 0.4064,0 1.09397,0 1.46897,0.0318 v -0.46849 h -0.29774 c -0.53058,0 -0.56233,-0.0469 -0.67099,-0.20391 z"
       style="fill:#000000;fill-opacity:1;fill-rule:nonzero;stroke:none;stroke-width:0.352778" />
    <path
       id="path164"
       d="m 137.97696,346.84309 c 0.54716,0 0.93874,0.37501 0.93874,1.12466 0,0.85972 -0.51541,1.12571 -0.90699,1.12571 -0.28116,0 -0.90664,-0.0787 -1.1878,-0.50024 0.32808,0 0.4064,-0.23424 0.4064,-0.38982 0,-0.21942 -0.17216,-0.37641 -0.38982,-0.37641 -0.18733,0 -0.39123,0.12559 -0.39123,0.4064 0,0.65617 0.71931,1.07915 1.56245,1.07915 0.96873,0 1.64148,-0.65723 1.64148,-1.34479 0,-0.54575 -0.43851,-1.09291 -1.20333,-1.24989 0.71826,-0.26459 0.9839,-0.78141 0.9839,-1.2185 0,-0.5468 -0.62548,-0.95356 -1.40688,-0.95356 -0.76482,0 -1.35855,0.37501 -1.35855,0.93839 0,0.2346 0.15558,0.35843 0.35948,0.35843 0.21767,0 0.35984,-0.15558 0.35984,-0.34326 0,-0.20249 -0.14217,-0.35948 -0.35984,-0.37465 0.24942,-0.29774 0.71791,-0.375 0.9839,-0.375 0.31291,0 0.74965,0.15593 0.74965,0.74965 0,0.29634 -0.0935,0.62583 -0.28116,0.82832 -0.21908,0.266 -0.42157,0.28117 -0.76482,0.31292 -0.17216,0.0152 -0.18733,0.0152 -0.21908,0.0152 -0.0152,0 -0.0783,0.0152 -0.0783,0.0935 0,0.0938 0.0631,0.0938 0.18733,0.0938 z"
       style="fill:#000000;fill-opacity:1;fill-rule:nonzero;stroke:none;stroke-width:0.352778" />
    <g
       ns1:text="$\mathcal{A}[\mathbf{K}^{(1)}]$"
       transform="translate(-151.60006,13.675283)"
       id="g39">
      <g
         id="surface1">
        <g
           style="fill:#000000;fill-opacity:1"
           id="g2">
          <path
             style="stroke:none"
             d="m 5.9375,-1.640625 c 0.046875,0.625 0.15625,1.078125 0.21875,1.265625 0.109375,0.453125 0.15625,0.671875 0.578125,0.671875 0.453125,0 1.21875,-0.453125 1.21875,-0.640625 0,-0.0625 -0.03125,-0.078125 -0.09375,-0.078125 -0.125,0 -0.328125,0.109375 -0.359375,0.125 C 7.421875,-0.25 7.40625,-0.25 7.390625,-0.25 7.109375,-0.25 7.046875,-0.515625 6.921875,-1.109375 6.859375,-1.453125 6.765625,-1.84375 6.6875,-3.203125 6.625,-4.234375 6.578125,-5.25 6.578125,-6.265625 6.578125,-6.5 6.59375,-6.765625 6.59375,-7 c 0,-0.15625 0,-0.203125 -0.109375,-0.203125 -0.140625,0 -0.546875,0.171875 -0.734375,0.4375 L 5.6875,-6.65625 c -0.796875,1.6875 -1.53125,2.890625 -2.046875,3.703125 -0.59375,0.90625 -1.625,2.53125 -2.171875,2.53125 -0.359375,0 -0.671875,-0.234375 -0.765625,-0.59375 0,-0.015625 -0.03125,-0.078125 -0.0625,-0.078125 -0.15625,0 -0.375,0.46875 -0.375,0.75 0,0.40625 0.4375,0.84375 0.90625,0.84375 C 1.859375,0.5 3,-1.296875 3.21875,-1.640625 Z M 5.734375,-5.96875 v 0.578125 c 0,0.578125 0.015625,1.15625 0.046875,1.734375 0.015625,0.203125 0.046875,0.9375 0.09375,1.46875 H 4.0625 c -0.171875,0 -0.3125,0 -0.578125,0.15625 0.703125,-1.078125 1.28125,-2.109375 1.34375,-2.21875 0.5,-0.890625 0.765625,-1.46875 0.890625,-1.71875 z m 0,0"
             transform="translate(178.585,110.99)"
             id="path2" />
        </g>
        <g
           style="fill:#000000;fill-opacity:1"
           id="g31">
          <path
             style="stroke:none"
             d="M 2.546875,2.5 V 2.09375 h -0.96875 v -9.171875 h 0.96875 v -0.40625 h -1.375 V 2.5 Z m 0,0"
             transform="translate(186.539,110.99)"
             id="path31" />
        </g>
        <g
           style="fill:#000000;fill-opacity:1"
           id="g32">
          <path
             style="stroke:none"
             d="M 4.828125,-4.203125 7.234375,-6.1875 c 0.21875,-0.1875 0.625,-0.1875 0.9375,-0.1875 h 0.15625 V -6.84375 C 7.9375,-6.8125 7.359375,-6.8125 7.3125,-6.8125 c -0.375,0 -1.09375,0 -1.453125,-0.03125 V -6.375 c 0.125,0 0.328125,0 0.578125,0.0625 0.15625,0.03125 0.046875,0.015625 0.125,0.046875 L 2.875,-3.1875 V -6.375 h 1.078125 v -0.46875 c -0.375,0.03125 -1.34375,0.03125 -1.78125,0.03125 -0.421875,0 -1.40625,0 -1.78125,-0.03125 V -6.375 H 1.46875 v 5.90625 H 0.390625 V 0 c 0.375,-0.03125 1.359375,-0.03125 1.78125,-0.03125 0.4375,0 1.40625,0 1.78125,0.03125 V -0.46875 H 2.875 V -2.5625 l 1,-0.828125 2.0625,2.703125 C 5.984375,-0.625 5.984375,-0.609375 6.015625,-0.546875 5.828125,-0.46875 5.625,-0.46875 5.28125,-0.46875 V 0 c 0.40625,-0.03125 1.3125,-0.03125 1.75,-0.03125 0.40625,0 1.09375,0 1.46875,0.03125 V -0.46875 H 8.203125 c -0.53125,0 -0.5625,-0.046875 -0.671875,-0.203125 z m 0,0"
             transform="translate(189.307,110.99)"
             id="path32" />
        </g>
        <g
           style="fill:#000000;fill-opacity:1"
           id="g37">
          <path
             style="stroke:none"
             d="M 2.46875,-5.21875 C 1.15625,-4.296875 0.796875,-2.8125 0.796875,-1.75 c 0,0.984375 0.296875,2.515625 1.671875,3.484375 0.0625,0 0.140625,0 0.140625,-0.078125 0,-0.046875 -0.015625,-0.0625 -0.0625,-0.109375 C 1.609375,0.703125 1.28125,-0.46875 1.28125,-1.734375 1.28125,-3.625 2,-4.546875 2.5625,-5.0625 2.59375,-5.09375 2.609375,-5.109375 2.609375,-5.140625 2.609375,-5.21875 2.53125,-5.21875 2.46875,-5.21875 Z m 0,0"
             transform="translate(198.287,107.375)"
             id="path35" />
          <path
             style="stroke:none"
             d="m 2.328125,-4.4375 c 0,-0.1875 0,-0.1875 -0.203125,-0.1875 -0.453125,0.4375 -1.078125,0.4375 -1.359375,0.4375 v 0.25 c 0.15625,0 0.625,0 1,-0.1875 v 3.546875 c 0,0.234375 0,0.328125 -0.6875,0.328125 H 0.8125 V 0 c 0.125,0 0.984375,-0.03125 1.234375,-0.03125 0.21875,0 1.09375,0.03125 1.25,0.03125 V -0.25 H 3.03125 c -0.703125,0 -0.703125,-0.09375 -0.703125,-0.328125 z m 0,0"
             transform="translate(201.39731,107.375)"
             id="path36" />
          <path
             style="stroke:none"
             d="m 0.625,-5.21875 c -0.046875,0 -0.125,0 -0.125,0.078125 0,0.03125 0.015625,0.046875 0.0625,0.109375 0.59375,0.546875 1.265625,1.484375 1.265625,3.28125 0,1.453125 -0.453125,2.5625 -1.203125,3.234375 -0.125,0.125 -0.125,0.125 -0.125,0.171875 0,0.03125 0.015625,0.078125 0.078125,0.078125 0.09375,0 0.75,-0.453125 1.21875,-1.328125 0.296875,-0.578125 0.5,-1.328125 0.5,-2.140625 C 2.296875,-2.71875 2,-4.25 0.625,-5.21875 Z m 0,0"
             transform="translate(205.36541,107.375)"
             id="path37" />
        </g>
        <g
           style="fill:#000000;fill-opacity:1"
           id="g38">
          <path
             style="stroke:none"
             d="M 1.578125,-7.484375 H 0.21875 v 0.40625 H 1.1875 V 2.09375 H 0.21875 V 2.5 h 1.359375 z m 0,0"
             transform="translate(208.983,110.99)"
             id="path38" />
        </g>
      </g>
    </g>
    <g
       ns1:text="$\mathcal{A}[\mathbf{K}^{(2)}]$"
       transform="translate(-151.60006,115.62252)"
       id="g47">
      <g
         id="g46">
        <g
           style="fill:#000000;fill-opacity:1"
           id="g40">
          <path
             style="stroke:none"
             d="m 5.9375,-1.640625 c 0.046875,0.625 0.15625,1.078125 0.21875,1.265625 0.109375,0.453125 0.15625,0.671875 0.578125,0.671875 0.453125,0 1.21875,-0.453125 1.21875,-0.640625 0,-0.0625 -0.03125,-0.078125 -0.09375,-0.078125 -0.125,0 -0.328125,0.109375 -0.359375,0.125 C 7.421875,-0.25 7.40625,-0.25 7.390625,-0.25 7.109375,-0.25 7.046875,-0.515625 6.921875,-1.109375 6.859375,-1.453125 6.765625,-1.84375 6.6875,-3.203125 6.625,-4.234375 6.578125,-5.25 6.578125,-6.265625 6.578125,-6.5 6.59375,-6.765625 6.59375,-7 c 0,-0.15625 0,-0.203125 -0.109375,-0.203125 -0.140625,0 -0.546875,0.171875 -0.734375,0.4375 L 5.6875,-6.65625 c -0.796875,1.6875 -1.53125,2.890625 -2.046875,3.703125 -0.59375,0.90625 -1.625,2.53125 -2.171875,2.53125 -0.359375,0 -0.671875,-0.234375 -0.765625,-0.59375 0,-0.015625 -0.03125,-0.078125 -0.0625,-0.078125 -0.15625,0 -0.375,0.46875 -0.375,0.75 0,0.40625 0.4375,0.84375 0.90625,0.84375 C 1.859375,0.5 3,-1.296875 3.21875,-1.640625 Z M 5.734375,-5.96875 v 0.578125 c 0,0.578125 0.015625,1.15625 0.046875,1.734375 0.015625,0.203125 0.046875,0.9375 0.09375,1.46875 H 4.0625 c -0.171875,0 -0.3125,0 -0.578125,0.15625 0.703125,-1.078125 1.28125,-2.109375 1.34375,-2.21875 0.5,-0.890625 0.765625,-1.46875 0.890625,-1.71875 z m 0,0"
             transform="translate(178.585,110.99)"
             id="path39" />
        </g>
        <g
           style="fill:#000000;fill-opacity:1"
           id="g41">
          <path
             style="stroke:none"
             d="M 2.546875,2.5 V 2.09375 h -0.96875 v -9.171875 h 0.96875 v -0.40625 h -1.375 V 2.5 Z m 0,0"
             transform="translate(186.539,110.99)"
             id="path40" />
        </g>
        <g
           style="fill:#000000;fill-opacity:1"
           id="g42">
          <path
             style="stroke:none"
             d="M 4.828125,-4.203125 7.234375,-6.1875 c 0.21875,-0.1875 0.625,-0.1875 0.9375,-0.1875 h 0.15625 V -6.84375 C 7.9375,-6.8125 7.359375,-6.8125 7.3125,-6.8125 c -0.375,0 -1.09375,0 -1.453125,-0.03125 V -6.375 c 0.125,0 0.328125,0 0.578125,0.0625 0.15625,0.03125 0.046875,0.015625 0.125,0.046875 L 2.875,-3.1875 V -6.375 h 1.078125 v -0.46875 c -0.375,0.03125 -1.34375,0.03125 -1.78125,0.03125 -0.421875,0 -1.40625,0 -1.78125,-0.03125 V -6.375 H 1.46875 v 5.90625 H 0.390625 V 0 c 0.375,-0.03125 1.359375,-0.03125 1.78125,-0.03125 0.4375,0 1.40625,0 1.78125,0.03125 V -0.46875 H 2.875 V -2.5625 l 1,-0.828125 2.0625,2.703125 C 5.984375,-0.625 5.984375,-0.609375 6.015625,-0.546875 5.828125,-0.46875 5.625,-0.46875 5.28125,-0.46875 V 0 c 0.40625,-0.03125 1.3125,-0.03125 1.75,-0.03125 0.40625,0 1.09375,0 1.46875,0.03125 V -0.46875 H 8.203125 c -0.53125,0 -0.5625,-0.046875 -0.671875,-0.203125 z m 0,0"
             transform="translate(189.307,110.99)"
             id="path41" />
        </g>
        <g
           style="fill:#000000;fill-opacity:1"
           id="g44">
          <path
             style="stroke:none"
             d="M 2.46875,-5.21875 C 1.15625,-4.296875 0.796875,-2.8125 0.796875,-1.75 c 0,0.984375 0.296875,2.515625 1.671875,3.484375 0.0625,0 0.140625,0 0.140625,-0.078125 0,-0.046875 -0.015625,-0.0625 -0.0625,-0.109375 C 1.609375,0.703125 1.28125,-0.46875 1.28125,-1.734375 1.28125,-3.625 2,-4.546875 2.5625,-5.0625 2.59375,-5.09375 2.609375,-5.109375 2.609375,-5.140625 2.609375,-5.21875 2.53125,-5.21875 2.46875,-5.21875 Z m 0,0"
             transform="translate(198.287,107.375)"
             id="path42" />
          <path
             style="stroke:none"
             d="M 3.515625,-1.265625 H 3.28125 c -0.015625,0.15625 -0.09375,0.5625 -0.1875,0.625 C 3.046875,-0.59375 2.515625,-0.59375 2.40625,-0.59375 H 1.125 c 0.734375,-0.640625 0.984375,-0.84375 1.390625,-1.171875 0.515625,-0.40625 1,-0.84375 1,-1.5 0,-0.84375 -0.734375,-1.359375 -1.625,-1.359375 -0.859375,0 -1.453125,0.609375 -1.453125,1.25 0,0.34375 0.296875,0.390625 0.375,0.390625 0.15625,0 0.359375,-0.125 0.359375,-0.375 0,-0.125 -0.046875,-0.375 -0.40625,-0.375 C 0.984375,-4.21875 1.453125,-4.375 1.78125,-4.375 c 0.703125,0 1.0625,0.546875 1.0625,1.109375 0,0.609375 -0.4375,1.078125 -0.65625,1.328125 L 0.515625,-0.265625 C 0.4375,-0.203125 0.4375,-0.1875 0.4375,0 h 2.875 z m 0,0"
             transform="translate(201.39731,107.375)"
             id="path43" />
          <path
             style="stroke:none"
             d="m 0.625,-5.21875 c -0.046875,0 -0.125,0 -0.125,0.078125 0,0.03125 0.015625,0.046875 0.0625,0.109375 0.59375,0.546875 1.265625,1.484375 1.265625,3.28125 0,1.453125 -0.453125,2.5625 -1.203125,3.234375 -0.125,0.125 -0.125,0.125 -0.125,0.171875 0,0.03125 0.015625,0.078125 0.078125,0.078125 0.09375,0 0.75,-0.453125 1.21875,-1.328125 0.296875,-0.578125 0.5,-1.328125 0.5,-2.140625 C 2.296875,-2.71875 2,-4.25 0.625,-5.21875 Z m 0,0"
             transform="translate(205.36541,107.375)"
             id="path44" />
        </g>
        <g
           style="fill:#000000;fill-opacity:1"
           id="g45">
          <path
             style="stroke:none"
             d="M 1.578125,-7.484375 H 0.21875 v 0.40625 H 1.1875 V 2.09375 H 0.21875 V 2.5 h 1.359375 z m 0,0"
             transform="translate(208.983,110.99)"
             id="path45" />
        </g>
      </g>
    </g>
    <g
       ns1:text="$\mathcal{A}[\mathbf{K}^{(3)}]$"
       transform="translate(-151.60006,228.93829)"
       id="g55">
      <g
         id="g54">
        <g
           style="fill:#000000;fill-opacity:1"
           id="g48">
          <path
             style="stroke:none"
             d="m 5.9375,-1.640625 c 0.046875,0.625 0.15625,1.078125 0.21875,1.265625 0.109375,0.453125 0.15625,0.671875 0.578125,0.671875 0.453125,0 1.21875,-0.453125 1.21875,-0.640625 0,-0.0625 -0.03125,-0.078125 -0.09375,-0.078125 -0.125,0 -0.328125,0.109375 -0.359375,0.125 C 7.421875,-0.25 7.40625,-0.25 7.390625,-0.25 7.109375,-0.25 7.046875,-0.515625 6.921875,-1.109375 6.859375,-1.453125 6.765625,-1.84375 6.6875,-3.203125 6.625,-4.234375 6.578125,-5.25 6.578125,-6.265625 6.578125,-6.5 6.59375,-6.765625 6.59375,-7 c 0,-0.15625 0,-0.203125 -0.109375,-0.203125 -0.140625,0 -0.546875,0.171875 -0.734375,0.4375 L 5.6875,-6.65625 c -0.796875,1.6875 -1.53125,2.890625 -2.046875,3.703125 -0.59375,0.90625 -1.625,2.53125 -2.171875,2.53125 -0.359375,0 -0.671875,-0.234375 -0.765625,-0.59375 0,-0.015625 -0.03125,-0.078125 -0.0625,-0.078125 -0.15625,0 -0.375,0.46875 -0.375,0.75 0,0.40625 0.4375,0.84375 0.90625,0.84375 C 1.859375,0.5 3,-1.296875 3.21875,-1.640625 Z M 5.734375,-5.96875 v 0.578125 c 0,0.578125 0.015625,1.15625 0.046875,1.734375 0.015625,0.203125 0.046875,0.9375 0.09375,1.46875 H 4.0625 c -0.171875,0 -0.3125,0 -0.578125,0.15625 0.703125,-1.078125 1.28125,-2.109375 1.34375,-2.21875 0.5,-0.890625 0.765625,-1.46875 0.890625,-1.71875 z m 0,0"
             transform="translate(178.585,110.99)"
             id="path47" />
        </g>
        <g
           style="fill:#000000;fill-opacity:1"
           id="g49">
          <path
             style="stroke:none"
             d="M 2.546875,2.5 V 2.09375 h -0.96875 v -9.171875 h 0.96875 v -0.40625 h -1.375 V 2.5 Z m 0,0"
             transform="translate(186.539,110.99)"
             id="path48" />
        </g>
        <g
           style="fill:#000000;fill-opacity:1"
           id="g50">
          <path
             style="stroke:none"
             d="M 4.828125,-4.203125 7.234375,-6.1875 c 0.21875,-0.1875 0.625,-0.1875 0.9375,-0.1875 h 0.15625 V -6.84375 C 7.9375,-6.8125 7.359375,-6.8125 7.3125,-6.8125 c -0.375,0 -1.09375,0 -1.453125,-0.03125 V -6.375 c 0.125,0 0.328125,0 0.578125,0.0625 0.15625,0.03125 0.046875,0.015625 0.125,0.046875 L 2.875,-3.1875 V -6.375 h 1.078125 v -0.46875 c -0.375,0.03125 -1.34375,0.03125 -1.78125,0.03125 -0.421875,0 -1.40625,0 -1.78125,-0.03125 V -6.375 H 1.46875 v 5.90625 H 0.390625 V 0 c 0.375,-0.03125 1.359375,-0.03125 1.78125,-0.03125 0.4375,0 1.40625,0 1.78125,0.03125 V -0.46875 H 2.875 V -2.5625 l 1,-0.828125 2.0625,2.703125 C 5.984375,-0.625 5.984375,-0.609375 6.015625,-0.546875 5.828125,-0.46875 5.625,-0.46875 5.28125,-0.46875 V 0 c 0.40625,-0.03125 1.3125,-0.03125 1.75,-0.03125 0.40625,0 1.09375,0 1.46875,0.03125 V -0.46875 H 8.203125 c -0.53125,0 -0.5625,-0.046875 -0.671875,-0.203125 z m 0,0"
             transform="translate(189.307,110.99)"
             id="path49" />
        </g>
        <g
           style="fill:#000000;fill-opacity:1"
           id="g52">
          <path
             style="stroke:none"
             d="M 2.46875,-5.21875 C 1.15625,-4.296875 0.796875,-2.8125 0.796875,-1.75 c 0,0.984375 0.296875,2.515625 1.671875,3.484375 0.0625,0 0.140625,0 0.140625,-0.078125 0,-0.046875 -0.015625,-0.0625 -0.0625,-0.109375 C 1.609375,0.703125 1.28125,-0.46875 1.28125,-1.734375 1.28125,-3.625 2,-4.546875 2.5625,-5.0625 2.59375,-5.09375 2.609375,-5.109375 2.609375,-5.140625 2.609375,-5.21875 2.53125,-5.21875 2.46875,-5.21875 Z m 0,0"
             transform="translate(198.287,107.375)"
             id="path50" />
          <path
             style="stroke:none"
             d="m 1.90625,-2.328125 c 0.546875,0 0.9375,0.375 0.9375,1.125 0,0.859375 -0.515625,1.125 -0.90625,1.125 -0.28125,0 -0.90625,-0.078125 -1.1875,-0.5 0.328125,0 0.40625,-0.234375 0.40625,-0.390625 0,-0.21875 -0.171875,-0.375 -0.390625,-0.375 -0.1875,0 -0.390625,0.125 -0.390625,0.40625 0,0.65625 0.71875,1.078125 1.5625,1.078125 0.96875,0 1.640625,-0.65625 1.640625,-1.34375 0,-0.546875 -0.4375,-1.09375 -1.203125,-1.25 0.71875,-0.265625 0.984375,-0.78125 0.984375,-1.21875 0,-0.546875 -0.625,-0.953125 -1.40625,-0.953125 -0.765625,0 -1.359375,0.375 -1.359375,0.9375 0,0.234375 0.15625,0.359375 0.359375,0.359375 0.21875,0 0.359375,-0.15625 0.359375,-0.34375 0,-0.203125 -0.140625,-0.359375 -0.359375,-0.375 0.25,-0.296875 0.71875,-0.375 0.984375,-0.375 0.3125,0 0.75,0.15625 0.75,0.75 0,0.296875 -0.09375,0.625 -0.28125,0.828125 -0.21875,0.265625 -0.421875,0.28125 -0.765625,0.3125 -0.171875,0.015625 -0.1875,0.015625 -0.21875,0.015625 -0.015625,0 -0.078125,0.015625 -0.078125,0.09375 0,0.09375 0.0625,0.09375 0.1875,0.09375 z m 0,0"
             transform="translate(201.39731,107.375)"
             id="path51" />
          <path
             style="stroke:none"
             d="m 0.625,-5.21875 c -0.046875,0 -0.125,0 -0.125,0.078125 0,0.03125 0.015625,0.046875 0.0625,0.109375 0.59375,0.546875 1.265625,1.484375 1.265625,3.28125 0,1.453125 -0.453125,2.5625 -1.203125,3.234375 -0.125,0.125 -0.125,0.125 -0.125,0.171875 0,0.03125 0.015625,0.078125 0.078125,0.078125 0.09375,0 0.75,-0.453125 1.21875,-1.328125 0.296875,-0.578125 0.5,-1.328125 0.5,-2.140625 C 2.296875,-2.71875 2,-4.25 0.625,-5.21875 Z m 0,0"
             transform="translate(205.36541,107.375)"
             id="path52" />
        </g>
        <g
           style="fill:#000000;fill-opacity:1"
           id="g53">
          <path
             style="stroke:none"
             d="M 1.578125,-7.484375 H 0.21875 v 0.40625 H 1.1875 V 2.09375 H 0.21875 V 2.5 h 1.359375 z m 0,0"
             transform="translate(208.983,110.99)"
             id="path53" />
        </g>
      </g>
    </g>
  </g>
</svg>
