<?xml version="1.0" encoding="UTF-8" standalone="no"?>
<!-- Created with Inkscape (http://www.inkscape.org/) -->

<svg
   width="88.655861mm"
   height="56.673412mm"
   viewBox="0 0 88.655861 56.673412"
   version="1.1"
   id="svg1"
   inkscape:version="1.3.2 (1:1.3.2+202311252150+091e20ef0f)"
   sodipodi:docname="Physical_Connectivity_2D.svg"
   xmlns:inkscape="http://www.inkscape.org/namespaces/inkscape"
   xmlns:sodipodi="http://sodipodi.sourceforge.net/DTD/sodipodi-0.dtd"
   xmlns="http://www.w3.org/2000/svg"
   xmlns:svg="http://www.w3.org/2000/svg"
   xmlns:ns1="http://wanglongqi.github.io/WriteTeX">
  <sodipodi:namedview
     id="namedview1"
     pagecolor="#ffffff"
     bordercolor="#000000"
     borderopacity="0.25"
     inkscape:showpageshadow="2"
     inkscape:pageopacity="0.0"
     inkscape:pagecheckerboard="0"
     inkscape:deskcolor="#d1d1d1"
     inkscape:document-units="mm"
     inkscape:zoom="1.0242632"
     inkscape:cx="275.80801"
     inkscape:cy="119.11001"
     inkscape:window-width="1920"
     inkscape:window-height="1129"
     inkscape:window-x="1920"
     inkscape:window-y="0"
     inkscape:window-maximized="1"
     inkscape:current-layer="layer1" />
  <defs
     id="defs1">
    <marker
       style="overflow:visible"
       id="ConcaveTriangle"
       refX="0"
       refY="0"
       orient="auto-start-reverse"
       inkscape:stockid="Concave triangle arrow"
       markerWidth="1"
       markerHeight="1"
       viewBox="0 0 1 1"
       inkscape:isstock="true"
       inkscape:collect="always"
       preserveAspectRatio="xMidYMid">
      <path
         transform="scale(0.7)"
         d="M -2,-4 9,0 -2,4 c 2,-2.33 2,-5.66 0,-8 z"
         style="fill:context-stroke;fill-rule:evenodd;stroke:none"
         id="path18" />
    </marker>
  </defs>
  <g
     inkscape:label="Ebene 1"
     inkscape:groupmode="layer"
     id="layer1"
     transform="translate(-20.684789,-65.884805)">
    <rect
       style="fill:none;fill-opacity:0.4;stroke:#000000;stroke-width:0.29122;paint-order:fill markers stroke"
       id="rect1"
       width="36.193348"
       height="36.193348"
       x="22.433586"
       y="75.126251" />
    <rect
       style="fill:none;fill-opacity:0.4;stroke:#000000;stroke-width:0.29122;paint-order:fill markers stroke"
       id="rect2"
       width="36.193348"
       height="36.193348"
       x="58.683163"
       y="75.126251" />
    <circle
       style="font-variation-settings:normal;vector-effect:none;fill:#000000;fill-opacity:1;stroke:none;stroke-width:0.496339;stroke-linecap:square;stroke-linejoin:round;stroke-miterlimit:10;stroke-dasharray:none;stroke-dashoffset:0;stroke-opacity:1;-inkscape-stroke:none;paint-order:fill markers stroke;stop-color:#000000"
       id="circle4"
       cx="94.82029"
       cy="75.126251"
       r="1.7487975" />
    <circle
       style="font-variation-settings:normal;vector-effect:none;fill:#000000;fill-opacity:1;stroke:none;stroke-width:0.496339;stroke-linecap:square;stroke-linejoin:round;stroke-miterlimit:10;stroke-dasharray:none;stroke-dashoffset:0;stroke-opacity:1;-inkscape-stroke:none;paint-order:fill markers stroke;stop-color:#000000"
       id="circle5"
       cx="94.82029"
       cy="111.3196"
       r="1.7487975" />
    <path
       style="font-variation-settings:normal;fill:none;fill-opacity:1;stroke:#000000;stroke-width:0.423653;stroke-linecap:butt;stroke-linejoin:miter;stroke-miterlimit:4;stroke-dasharray:none;stroke-dashoffset:0;stroke-opacity:1;marker-end:url(#ConcaveTriangle);paint-order:fill markers stroke;stop-color:#000000"
       d="m 94.82029,111.3196 h 4.512148"
       id="path142"
       sodipodi:nodetypes="cc" />
    <circle
       style="font-variation-settings:normal;vector-effect:none;fill:#000000;fill-opacity:1;stroke:none;stroke-width:0.496339;stroke-linecap:square;stroke-linejoin:round;stroke-miterlimit:10;stroke-dasharray:none;stroke-dashoffset:0;stroke-opacity:1;-inkscape-stroke:none;paint-order:fill markers stroke;stop-color:#000000"
       id="circle1"
       cx="58.772545"
       cy="111.46522"
       r="1.7487975" />
    <circle
       style="font-variation-settings:normal;vector-effect:none;fill:#000000;fill-opacity:1;stroke:none;stroke-width:0.496339;stroke-linecap:square;stroke-linejoin:round;stroke-miterlimit:10;stroke-dasharray:none;stroke-dashoffset:0;stroke-opacity:1;-inkscape-stroke:none;paint-order:fill markers stroke;stop-color:#000000"
       id="circle2"
       cx="22.433586"
       cy="111.3196"
       r="1.7487975" />
    <g
       ns1:text="$\mathbf{1}$"
       transform="matrix(0.56416182,0,0,0.56416182,-76.164861,45.325704)"
       id="g63">
      <g
         id="g62">
        <g
           style="fill:#000000;fill-opacity:1"
           id="g61">
          <path
             style="stroke:none"
             d="m 3.53125,-6.203125 c 0,-0.234375 0,-0.328125 -0.265625,-0.328125 -0.109375,0 -0.125,0 -0.21875,0.078125 -0.765625,0.5625 -1.796875,0.5625 -2,0.5625 H 0.84375 v 0.46875 H 1.046875 C 1.203125,-5.421875 1.75,-5.4375 2.34375,-5.625 v 5.15625 H 0.953125 V 0 c 0.4375,-0.03125 1.5,-0.03125 1.984375,-0.03125 0.484375,0 1.546875,0 1.984375,0.03125 V -0.46875 H 3.53125 Z m 0,0"
             transform="translate(178.585,110.99)"
             id="path61" />
        </g>
      </g>
    </g>
    <g
       ns1:text="$\mathbf{2}$"
       transform="matrix(0.56416182,0,0,0.56416182,-39.284579,45.325704)"
       id="g78">
      <g
         id="g77">
        <g
           style="fill:#000000;fill-opacity:1"
           id="g76">
          <path
             style="stroke:none"
             d="M 5.15625,-2.21875 H 4.6875 C 4.65625,-2.015625 4.5625,-1.375 4.421875,-1.3125 4.3125,-1.25 3.5625,-1.25 3.40625,-1.25 H 1.9375 c 0.46875,-0.390625 1,-0.8125 1.4375,-1.140625 1.140625,-0.84375 1.78125,-1.3125 1.78125,-2.25 0,-1.15625 -1.046875,-1.890625 -2.4375,-1.890625 -1.21875,0 -2.15625,0.625 -2.15625,1.515625 0,0.59375 0.484375,0.734375 0.71875,0.734375 C 1.609375,-4.28125 2,-4.5 2,-5 2,-5.515625 1.578125,-5.671875 1.4375,-5.71875 1.71875,-5.953125 2.109375,-6.0625 2.46875,-6.0625 c 0.84375,0 1.3125,0.671875 1.3125,1.421875 0,0.6875 -0.375,1.375 -1.078125,2.078125 l -2,2.046875 C 0.5625,-0.40625 0.5625,-0.375 0.5625,-0.171875 V 0 h 4.28125 z m 0,0"
             transform="translate(178.585,110.99)"
             id="path75" />
        </g>
      </g>
    </g>
    <g
       ns1:text="$\mathbf{3}$"
       transform="matrix(0.56416182,0,0,0.56416182,-3.9575254,45.294851)"
       id="g81">
      <g
         id="g80">
        <g
           style="fill:#000000;fill-opacity:1"
           id="g79">
          <path
             style="stroke:none"
             d="m 3.515625,-3.515625 c 0.6875,-0.203125 1.40625,-0.765625 1.40625,-1.625 0,-0.765625 -0.75,-1.390625 -2.15625,-1.390625 -1.1875,0 -1.96875,0.640625 -1.96875,1.4375 0,0.421875 0.3125,0.703125 0.6875,0.703125 0.453125,0 0.703125,-0.328125 0.703125,-0.6875 0,-0.578125 -0.546875,-0.6875 -0.578125,-0.703125 0.34375,-0.28125 0.78125,-0.359375 1.09375,-0.359375 0.828125,0 0.859375,0.640625 0.859375,0.96875 0,0.125 -0.015625,1.4375 -1.046875,1.5 -0.40625,0.015625 -0.4375,0.015625 -0.484375,0.03125 -0.09375,0.015625 -0.125,0.109375 -0.125,0.171875 0,0.171875 0.109375,0.171875 0.28125,0.171875 H 2.625 c 1.09375,0 1.09375,0.984375 1.09375,1.5 0,0.46875 0,1.484375 -1.03125,1.484375 -0.265625,0 -0.78125,-0.046875 -1.265625,-0.34375 C 1.75,-0.75 2,-1 2,-1.40625 c 0,-0.453125 -0.3125,-0.75 -0.75,-0.75 -0.421875,0 -0.765625,0.265625 -0.765625,0.765625 0,0.90625 0.96875,1.5 2.25,1.5 1.78125,0 2.515625,-1 2.515625,-1.90625 0,-0.546875 -0.296875,-1.40625 -1.734375,-1.71875 z m 0,0"
             transform="translate(178.585,110.99)"
             id="path78" />
        </g>
      </g>
    </g>
    <g
       ns1:text="$\mathbf{4}$"
       transform="matrix(0.56416182,0,0,0.56416182,-75.86515,18.005115)"
       id="g84">
      <g
         id="g83">
        <g
           style="fill:#000000;fill-opacity:1"
           id="g82">
          <path
             style="stroke:none"
             d="M 4.4375,-1.5625 H 5.40625 V -2.03125 H 4.4375 v -4.1875 c 0,-0.265625 -0.015625,-0.328125 -0.296875,-0.328125 -0.21875,0 -0.21875,0.015625 -0.34375,0.171875 L 0.3125,-2.03125 v 0.46875 h 2.875 v 1.09375 H 2.078125 V 0 c 0.375,-0.03125 1.28125,-0.03125 1.703125,-0.03125 0.40625,0 1.265625,0 1.625,0.03125 V -0.46875 H 4.4375 Z M 3.296875,-2.03125 H 0.84375 l 2.453125,-3.078125 z m 0,0"
             transform="translate(178.585,110.99)"
             id="path81" />
        </g>
      </g>
    </g>
    <g
       id="g96"
       transform="translate(-15.198303,10.817956)">
      <g
         ns1:text="$1$"
         transform="matrix(0.69825401,0,0,0.69825401,-70.736585,7.2241784)"
         id="g75">
        <g
           id="g74">
          <g
             style="fill:#000000;fill-opacity:1"
             id="g73">
            <path
               style="stroke:none"
               d="m 2.9375,-6.375 c 0,-0.25 0,-0.265625 -0.234375,-0.265625 C 2.078125,-6 1.203125,-6 0.890625,-6 v 0.3125 c 0.203125,0 0.78125,0 1.296875,-0.265625 v 5.171875 c 0,0.359375 -0.03125,0.46875 -0.921875,0.46875 h -0.3125 V 0 c 0.34375,-0.03125 1.203125,-0.03125 1.609375,-0.03125 0.390625,0 1.265625,0 1.609375,0.03125 v -0.3125 h -0.3125 c -0.90625,0 -0.921875,-0.109375 -0.921875,-0.46875 z m 0,0"
               transform="translate(178.585,110.99)"
               id="path72" />
          </g>
        </g>
      </g>
      <rect
         style="fill:none;stroke:#000000;stroke-width:0.388001;stroke-dasharray:none;paint-order:fill markers stroke"
         id="rect84"
         width="7.7388787"
         height="7.7388787"
         x="51.859123"
         y="78.53553" />
    </g>
    <g
       id="g97"
       transform="translate(-10.299266,10.817956)">
      <rect
         style="fill:none;stroke:#000000;stroke-width:0.388001;stroke-dasharray:none;paint-order:fill markers stroke"
         id="rect87"
         width="7.7388787"
         height="7.7388787"
         x="83.153435"
         y="78.53553" />
      <g
         ns1:text="$2$"
         transform="matrix(0.69825401,0,0,0.69825401,-39.442274,7.2241784)"
         id="g95">
        <g
           id="g94">
          <g
             style="fill:#000000;fill-opacity:1"
             id="g93">
            <path
               style="stroke:none"
               d="m 1.265625,-0.765625 1.0625,-1.03125 c 1.546875,-1.375 2.140625,-1.90625 2.140625,-2.90625 0,-1.140625 -0.890625,-1.9375 -2.109375,-1.9375 -1.125,0 -1.859375,0.921875 -1.859375,1.8125 0,0.546875 0.5,0.546875 0.53125,0.546875 0.171875,0 0.515625,-0.109375 0.515625,-0.53125 0,-0.25 -0.1875,-0.515625 -0.53125,-0.515625 -0.078125,0 -0.09375,0 -0.125,0.015625 0.21875,-0.65625 0.765625,-1.015625 1.34375,-1.015625 0.90625,0 1.328125,0.8125 1.328125,1.625 C 3.5625,-3.90625 3.078125,-3.125 2.515625,-2.5 l -1.90625,2.125 C 0.5,-0.265625 0.5,-0.234375 0.5,0 H 4.203125 L 4.46875,-1.734375 H 4.234375 C 4.171875,-1.4375 4.109375,-1 4,-0.84375 3.9375,-0.765625 3.28125,-0.765625 3.0625,-0.765625 Z m 0,0"
               transform="translate(178.585,110.99)"
               id="path92" />
          </g>
        </g>
      </g>
    </g>
    <circle
       style="font-variation-settings:normal;vector-effect:none;fill:#000000;fill-opacity:1;stroke:none;stroke-width:0.496339;stroke-linecap:square;stroke-linejoin:round;stroke-miterlimit:10;stroke-dasharray:none;stroke-dashoffset:0;stroke-opacity:1;-inkscape-stroke:none;paint-order:fill markers stroke;stop-color:#000000"
       id="circle3"
       cx="58.626934"
       cy="75.126251"
       r="1.7487975" />
    <circle
       style="font-variation-settings:normal;vector-effect:none;fill:#000000;fill-opacity:1;stroke:none;stroke-width:0.496339;stroke-linecap:square;stroke-linejoin:round;stroke-miterlimit:10;stroke-dasharray:none;stroke-dashoffset:0;stroke-opacity:1;-inkscape-stroke:none;paint-order:fill markers stroke;stop-color:#000000"
       id="circle6"
       cx="22.433586"
       cy="75.126251"
       r="1.7487975" />
    <path
       style="font-variation-settings:normal;fill:none;fill-opacity:1;stroke:#000000;stroke-width:0.423653;stroke-linecap:butt;stroke-linejoin:miter;stroke-miterlimit:4;stroke-dasharray:none;stroke-dashoffset:0;stroke-opacity:1;marker-end:url(#ConcaveTriangle);paint-order:fill markers stroke;stop-color:#000000"
       d="M 22.433585,75.126253 V 70.614105"
       id="path6"
       sodipodi:nodetypes="cc" />
    <g
       ns1:text="$\mathbf{5}$"
       transform="matrix(0.56416182,0,0,0.56416182,-39.284579,17.94341)"
       id="g25">
      <g
         id="g24">
        <g
           style="fill:#000000;fill-opacity:1"
           id="g23">
          <path
             style="stroke:none"
             d="m 5.15625,-2 c 0,-1.15625 -0.796875,-2.078125 -2.265625,-2.078125 -0.28125,0 -0.8125,0.03125 -1.28125,0.34375 v -1.3125 C 1.890625,-5 2,-4.96875 2.328125,-4.96875 c 1.453125,0 2.375,-1.125 2.375,-1.375 0,-0.078125 -0.015625,-0.1875 -0.140625,-0.1875 -0.03125,0 -0.03125,0 -0.140625,0.046875 -0.578125,0.21875 -1.109375,0.28125 -1.53125,0.28125 -0.75,0 -1.28125,-0.203125 -1.546875,-0.28125 C 1.25,-6.515625 1.25,-6.53125 1.21875,-6.53125 c -0.140625,0 -0.140625,0.109375 -0.140625,0.265625 v 2.921875 c 0,0.171875 0,0.296875 0.21875,0.296875 0.125,0 0.15625,-0.03125 0.21875,-0.109375 0.390625,-0.46875 0.921875,-0.5625 1.328125,-0.5625 0.890625,0 0.890625,0.875 0.890625,1.671875 0,0.734375 0,1.734375 -1.1875,1.734375 -0.25,0 -0.875,-0.0625 -1.296875,-0.625 0.359375,-0.015625 0.65625,-0.265625 0.65625,-0.671875 0,-0.53125 -0.4375,-0.671875 -0.671875,-0.671875 -0.140625,0 -0.671875,0.09375 -0.671875,0.703125 0,0.84375 0.78125,1.6875 2.015625,1.6875 1.59375,0 2.578125,-0.890625 2.578125,-2.109375 z m 0,0"
             transform="translate(178.585,110.99)"
             id="path22" />
        </g>
      </g>
    </g>
    <g
       ns1:text="$\mathbf{6}$"
       transform="matrix(0.56416182,0,0,0.56416182,-3.9575254,17.94341)"
       id="g28">
      <g
         id="g27">
        <g
           style="fill:#000000;fill-opacity:1"
           id="g26">
          <path
             style="stroke:none"
             d="m 1.828125,-3.40625 v -0.1875 c 0,-1.140625 0.21875,-1.5625 0.28125,-1.71875 0.25,-0.46875 0.78125,-0.828125 1.390625,-0.828125 0.171875,0 0.515625,0.03125 0.75,0.265625 -0.359375,0.046875 -0.546875,0.3125 -0.546875,0.609375 0,0.34375 0.234375,0.625 0.625,0.625 0.390625,0 0.625,-0.265625 0.625,-0.640625 0,-0.625 -0.421875,-1.25 -1.46875,-1.25 -1.359375,0 -3,0.859375 -3,3.375 0,0.78125 0.078125,1.578125 0.5,2.265625 0.46875,0.765625 1.21875,1 1.921875,1 1.375,0 2.34375,-0.8125 2.34375,-2.15625 0,-1.390625 -1.015625,-2.125 -2.21875,-2.125 -0.21875,0 -0.78125,0 -1.203125,0.765625 z M 2.875,-0.3125 c -0.515625,0 -0.78125,-0.390625 -0.859375,-0.5625 -0.15625,-0.3125 -0.15625,-1.03125 -0.15625,-1.21875 0,-1.25 0.53125,-1.71875 1.078125,-1.71875 0.953125,0 0.953125,0.75 0.953125,1.75 0,1 0,1.75 -1.015625,1.75 z m 0,0"
             transform="translate(178.585,110.99)"
             id="path25" />
        </g>
      </g>
    </g>
    <g
       ns1:text="$\mathcal{I}^{(1)}=[1\; 2\; 4\; 5]$"
       transform="matrix(0.49133768,0,0,0.49133768,-62.559996,66.796304)"
       id="g92">
      <g
         id="surface1">
        <g
           style="fill:#000000;fill-opacity:1"
           id="g70">
          <path
             style="stroke:none"
             d="m 3.53125,-6.8125 c -1.234375,0 -1.765625,0.234375 -2,0.328125 -1.015625,0.421875 -1.25,1.09375 -1.25,1.234375 0,0.0625 0.046875,0.078125 0.109375,0.078125 0.171875,0 0.65625,-0.25 0.734375,-0.46875 0.125,-0.375 0.15625,-0.46875 0.8125,-0.5625 0.34375,-0.03125 0.671875,-0.0625 1.015625,-0.0625 h 0.90625 c -0.625,0.609375 -0.921875,1.6875 -1.28125,3.109375 -0.28125,1.1875 -0.515625,1.953125 -0.921875,2.484375 -0.09375,0.109375 -0.109375,0.125 -0.375,0.125 H 0.640625 c -0.1875,0 -0.296875,0 -0.546875,0.140625 -0.109375,0.0625 -0.328125,0.234375 -0.328125,0.34375 0,0.046875 0,0.0625 0.21875,0.0625 H 3.40625 C 4.5625,0 5.4375,-0.875 5.4375,-1.21875 c 0,-0.078125 -0.078125,-0.078125 -0.109375,-0.078125 -0.171875,0 -0.640625,0.234375 -0.75,0.484375 -0.0625,0.203125 -0.09375,0.265625 -0.59375,0.265625 H 2.078125 C 2.796875,-1.15625 3.09375,-2.140625 3.421875,-3.5 3.703125,-4.578125 3.9375,-5.546875 4.34375,-6.15625 4.40625,-6.25 4.421875,-6.265625 4.609375,-6.265625 H 5.46875 c 0.1875,0 0.28125,0 0.546875,-0.140625 0.078125,-0.046875 0.3125,-0.21875 0.3125,-0.328125 0,-0.0625 -0.015625,-0.078125 -0.234375,-0.078125 z m 0,0"
             transform="translate(178.585,110.99)"
             id="path70" />
        </g>
        <g
           style="fill:#000000;fill-opacity:1"
           id="g85">
          <path
             style="stroke:none"
             d="M 2.46875,-5.21875 C 1.15625,-4.296875 0.796875,-2.8125 0.796875,-1.75 c 0,0.984375 0.296875,2.515625 1.671875,3.484375 0.0625,0 0.140625,0 0.140625,-0.078125 0,-0.046875 -0.015625,-0.0625 -0.0625,-0.109375 C 1.609375,0.703125 1.28125,-0.46875 1.28125,-1.734375 1.28125,-3.625 2,-4.546875 2.5625,-5.0625 2.59375,-5.09375 2.609375,-5.109375 2.609375,-5.140625 2.609375,-5.21875 2.53125,-5.21875 2.46875,-5.21875 Z m 0,0"
             transform="translate(184.745,107.375)"
             id="path71" />
          <path
             style="stroke:none"
             d="m 2.328125,-4.4375 c 0,-0.1875 0,-0.1875 -0.203125,-0.1875 -0.453125,0.4375 -1.078125,0.4375 -1.359375,0.4375 v 0.25 c 0.15625,0 0.625,0 1,-0.1875 v 3.546875 c 0,0.234375 0,0.328125 -0.6875,0.328125 H 0.8125 V 0 c 0.125,0 0.984375,-0.03125 1.234375,-0.03125 0.21875,0 1.09375,0.03125 1.25,0.03125 V -0.25 H 3.03125 c -0.703125,0 -0.703125,-0.09375 -0.703125,-0.328125 z m 0,0"
             transform="translate(187.85531,107.375)"
             id="path73" />
          <path
             style="stroke:none"
             d="m 0.625,-5.21875 c -0.046875,0 -0.125,0 -0.125,0.078125 0,0.03125 0.015625,0.046875 0.0625,0.109375 0.59375,0.546875 1.265625,1.484375 1.265625,3.28125 0,1.453125 -0.453125,2.5625 -1.203125,3.234375 -0.125,0.125 -0.125,0.125 -0.125,0.171875 0,0.03125 0.015625,0.078125 0.078125,0.078125 0.09375,0 0.75,-0.453125 1.21875,-1.328125 0.296875,-0.578125 0.5,-1.328125 0.5,-2.140625 C 2.296875,-2.71875 2,-4.25 0.625,-5.21875 Z m 0,0"
             transform="translate(191.82341,107.375)"
             id="path74" />
        </g>
        <g
           style="fill:#000000;fill-opacity:1"
           id="g86">
          <path
             style="stroke:none"
             d="m 6.84375,-3.265625 c 0.15625,0 0.34375,0 0.34375,-0.1875 C 7.1875,-3.65625 7,-3.65625 6.859375,-3.65625 h -5.96875 c -0.140625,0 -0.328125,0 -0.328125,0.203125 0,0.1875 0.1875,0.1875 0.328125,0.1875 z m 0.015625,1.9375 c 0.140625,0 0.328125,0 0.328125,-0.203125 0,-0.1875 -0.1875,-0.1875 -0.34375,-0.1875 H 0.890625 c -0.140625,0 -0.328125,0 -0.328125,0.1875 0,0.203125 0.1875,0.203125 0.328125,0.203125 z m 0,0"
             transform="translate(198.208,110.99)"
             id="path85" />
        </g>
        <g
           style="fill:#000000;fill-opacity:1"
           id="g87">
          <path
             style="stroke:none"
             d="M 2.546875,2.5 V 2.09375 h -0.96875 v -9.171875 h 0.96875 v -0.40625 h -1.375 V 2.5 Z m 0,0"
             transform="translate(208.70858,110.99)"
             id="path86" />
          <path
             style="stroke:none"
             d="m 2.9375,-6.375 c 0,-0.25 0,-0.265625 -0.234375,-0.265625 C 2.078125,-6 1.203125,-6 0.890625,-6 v 0.3125 c 0.203125,0 0.78125,0 1.296875,-0.265625 v 5.171875 c 0,0.359375 -0.03125,0.46875 -0.921875,0.46875 h -0.3125 V 0 c 0.34375,-0.03125 1.203125,-0.03125 1.609375,-0.03125 0.390625,0 1.265625,0 1.609375,0.03125 v -0.3125 h -0.3125 c -0.90625,0 -0.921875,-0.109375 -0.921875,-0.46875 z m 0,0"
             transform="translate(211.46822,110.99)"
             id="path87" />
        </g>
        <g
           style="fill:#000000;fill-opacity:1"
           id="g88">
          <path
             style="stroke:none"
             d="m 1.265625,-0.765625 1.0625,-1.03125 c 1.546875,-1.375 2.140625,-1.90625 2.140625,-2.90625 0,-1.140625 -0.890625,-1.9375 -2.109375,-1.9375 -1.125,0 -1.859375,0.921875 -1.859375,1.8125 0,0.546875 0.5,0.546875 0.53125,0.546875 0.171875,0 0.515625,-0.109375 0.515625,-0.53125 0,-0.25 -0.1875,-0.515625 -0.53125,-0.515625 -0.078125,0 -0.09375,0 -0.125,0.015625 0.21875,-0.65625 0.765625,-1.015625 1.34375,-1.015625 0.90625,0 1.328125,0.8125 1.328125,1.625 C 3.5625,-3.90625 3.078125,-3.125 2.515625,-2.5 l -1.90625,2.125 C 0.5,-0.265625 0.5,-0.234375 0.5,0 H 4.203125 L 4.46875,-1.734375 H 4.234375 C 4.171875,-1.4375 4.109375,-1 4,-0.84375 3.9375,-0.765625 3.28125,-0.765625 3.0625,-0.765625 Z m 0,0"
             transform="translate(219.21912,110.99)"
             id="path88" />
        </g>
        <g
           style="fill:#000000;fill-opacity:1"
           id="g89">
          <path
             style="stroke:none"
             d="m 2.9375,-1.640625 v 0.859375 c 0,0.359375 -0.03125,0.46875 -0.765625,0.46875 H 1.96875 V 0 C 2.375,-0.03125 2.890625,-0.03125 3.3125,-0.03125 c 0.421875,0 0.9375,0 1.359375,0.03125 v -0.3125 h -0.21875 c -0.734375,0 -0.75,-0.109375 -0.75,-0.46875 V -1.640625 H 4.6875 v -0.3125 H 3.703125 v -4.53125 c 0,-0.203125 0,-0.265625 -0.171875,-0.265625 -0.078125,0 -0.109375,0 -0.1875,0.125 l -3.0625,4.671875 v 0.3125 z m 0.046875,-0.3125 H 0.5625 l 2.421875,-3.71875 z m 0,0"
             transform="translate(226.97003,110.99)"
             id="path89" />
        </g>
        <g
           style="fill:#000000;fill-opacity:1"
           id="g91">
          <path
             style="stroke:none"
             d="m 4.46875,-2 c 0,-1.1875 -0.8125,-2.1875 -1.890625,-2.1875 -0.46875,0 -0.90625,0.15625 -1.265625,0.515625 V -5.625 c 0.203125,0.0625 0.53125,0.125 0.84375,0.125 1.234375,0 1.9375,-0.90625 1.9375,-1.03125 0,-0.0625 -0.03125,-0.109375 -0.109375,-0.109375 0,0 -0.03125,0 -0.078125,0.03125 C 3.703125,-6.515625 3.21875,-6.3125 2.546875,-6.3125 2.15625,-6.3125 1.6875,-6.390625 1.21875,-6.59375 1.140625,-6.625 1.125,-6.625 1.109375,-6.625 1,-6.625 1,-6.546875 1,-6.390625 V -3.4375 c 0,0.171875 0,0.25 0.140625,0.25 0.078125,0 0.09375,-0.015625 0.140625,-0.078125 C 1.390625,-3.421875 1.75,-3.96875 2.5625,-3.96875 c 0.515625,0 0.765625,0.453125 0.84375,0.640625 0.15625,0.375 0.1875,0.75 0.1875,1.25 0,0.359375 0,0.953125 -0.25,1.375 C 3.109375,-0.3125 2.734375,-0.0625 2.28125,-0.0625 c -0.71875,0 -1.296875,-0.53125 -1.46875,-1.109375 0.03125,0 0.0625,0.015625 0.171875,0.015625 0.328125,0 0.5,-0.25 0.5,-0.484375 0,-0.25 -0.171875,-0.5 -0.5,-0.5 C 0.84375,-2.140625 0.5,-2.0625 0.5,-1.609375 0.5,-0.75 1.1875,0.21875 2.296875,0.21875 3.453125,0.21875 4.46875,-0.734375 4.46875,-2 Z m 0,0"
             transform="translate(234.72093,110.99)"
             id="path90" />
          <path
             style="stroke:none"
             d="M 1.578125,-7.484375 H 0.21875 v 0.40625 H 1.1875 V 2.09375 H 0.21875 V 2.5 h 1.359375 z m 0,0"
             transform="translate(239.70223,110.99)"
             id="path91" />
        </g>
      </g>
    </g>
    <g
       ns1:text="$\mathcal{I}^{(2)}=[2\; 3\; 5\; 6]$"
       transform="matrix(0.49133768,0,0,0.49133768,-26.31042,66.796304)"
       id="g121">
      <g
         id="g120">
        <g
           style="fill:#000000;fill-opacity:1"
           id="g109">
          <path
             style="stroke:none"
             d="m 3.53125,-6.8125 c -1.234375,0 -1.765625,0.234375 -2,0.328125 -1.015625,0.421875 -1.25,1.09375 -1.25,1.234375 0,0.0625 0.046875,0.078125 0.109375,0.078125 0.171875,0 0.65625,-0.25 0.734375,-0.46875 0.125,-0.375 0.15625,-0.46875 0.8125,-0.5625 0.34375,-0.03125 0.671875,-0.0625 1.015625,-0.0625 h 0.90625 c -0.625,0.609375 -0.921875,1.6875 -1.28125,3.109375 -0.28125,1.1875 -0.515625,1.953125 -0.921875,2.484375 -0.09375,0.109375 -0.109375,0.125 -0.375,0.125 H 0.640625 c -0.1875,0 -0.296875,0 -0.546875,0.140625 -0.109375,0.0625 -0.328125,0.234375 -0.328125,0.34375 0,0.046875 0,0.0625 0.21875,0.0625 H 3.40625 C 4.5625,0 5.4375,-0.875 5.4375,-1.21875 c 0,-0.078125 -0.078125,-0.078125 -0.109375,-0.078125 -0.171875,0 -0.640625,0.234375 -0.75,0.484375 -0.0625,0.203125 -0.09375,0.265625 -0.59375,0.265625 H 2.078125 C 2.796875,-1.15625 3.09375,-2.140625 3.421875,-3.5 3.703125,-4.578125 3.9375,-5.546875 4.34375,-6.15625 4.40625,-6.25 4.421875,-6.265625 4.609375,-6.265625 H 5.46875 c 0.1875,0 0.28125,0 0.546875,-0.140625 0.078125,-0.046875 0.3125,-0.21875 0.3125,-0.328125 0,-0.0625 -0.015625,-0.078125 -0.234375,-0.078125 z m 0,0"
             transform="translate(178.585,110.99)"
             id="path109" />
        </g>
        <g
           style="fill:#000000;fill-opacity:1"
           id="g112">
          <path
             style="stroke:none"
             d="M 2.46875,-5.21875 C 1.15625,-4.296875 0.796875,-2.8125 0.796875,-1.75 c 0,0.984375 0.296875,2.515625 1.671875,3.484375 0.0625,0 0.140625,0 0.140625,-0.078125 0,-0.046875 -0.015625,-0.0625 -0.0625,-0.109375 C 1.609375,0.703125 1.28125,-0.46875 1.28125,-1.734375 1.28125,-3.625 2,-4.546875 2.5625,-5.0625 2.59375,-5.09375 2.609375,-5.109375 2.609375,-5.140625 2.609375,-5.21875 2.53125,-5.21875 2.46875,-5.21875 Z m 0,0"
             transform="translate(184.745,107.375)"
             id="path110" />
          <path
             style="stroke:none"
             d="M 3.515625,-1.265625 H 3.28125 c -0.015625,0.15625 -0.09375,0.5625 -0.1875,0.625 C 3.046875,-0.59375 2.515625,-0.59375 2.40625,-0.59375 H 1.125 c 0.734375,-0.640625 0.984375,-0.84375 1.390625,-1.171875 0.515625,-0.40625 1,-0.84375 1,-1.5 0,-0.84375 -0.734375,-1.359375 -1.625,-1.359375 -0.859375,0 -1.453125,0.609375 -1.453125,1.25 0,0.34375 0.296875,0.390625 0.375,0.390625 0.15625,0 0.359375,-0.125 0.359375,-0.375 0,-0.125 -0.046875,-0.375 -0.40625,-0.375 C 0.984375,-4.21875 1.453125,-4.375 1.78125,-4.375 c 0.703125,0 1.0625,0.546875 1.0625,1.109375 0,0.609375 -0.4375,1.078125 -0.65625,1.328125 L 0.515625,-0.265625 C 0.4375,-0.203125 0.4375,-0.1875 0.4375,0 h 2.875 z m 0,0"
             transform="translate(187.85531,107.375)"
             id="path111" />
          <path
             style="stroke:none"
             d="m 0.625,-5.21875 c -0.046875,0 -0.125,0 -0.125,0.078125 0,0.03125 0.015625,0.046875 0.0625,0.109375 0.59375,0.546875 1.265625,1.484375 1.265625,3.28125 0,1.453125 -0.453125,2.5625 -1.203125,3.234375 -0.125,0.125 -0.125,0.125 -0.125,0.171875 0,0.03125 0.015625,0.078125 0.078125,0.078125 0.09375,0 0.75,-0.453125 1.21875,-1.328125 0.296875,-0.578125 0.5,-1.328125 0.5,-2.140625 C 2.296875,-2.71875 2,-4.25 0.625,-5.21875 Z m 0,0"
             transform="translate(191.82341,107.375)"
             id="path112" />
        </g>
        <g
           style="fill:#000000;fill-opacity:1"
           id="g113">
          <path
             style="stroke:none"
             d="m 6.84375,-3.265625 c 0.15625,0 0.34375,0 0.34375,-0.1875 C 7.1875,-3.65625 7,-3.65625 6.859375,-3.65625 h -5.96875 c -0.140625,0 -0.328125,0 -0.328125,0.203125 0,0.1875 0.1875,0.1875 0.328125,0.1875 z m 0.015625,1.9375 c 0.140625,0 0.328125,0 0.328125,-0.203125 0,-0.1875 -0.1875,-0.1875 -0.34375,-0.1875 H 0.890625 c -0.140625,0 -0.328125,0 -0.328125,0.1875 0,0.203125 0.1875,0.203125 0.328125,0.203125 z m 0,0"
             transform="translate(198.208,110.99)"
             id="path113" />
        </g>
        <g
           style="fill:#000000;fill-opacity:1"
           id="g115">
          <path
             style="stroke:none"
             d="M 2.546875,2.5 V 2.09375 h -0.96875 v -9.171875 h 0.96875 v -0.40625 h -1.375 V 2.5 Z m 0,0"
             transform="translate(208.70858,110.99)"
             id="path114" />
          <path
             style="stroke:none"
             d="m 1.265625,-0.765625 1.0625,-1.03125 c 1.546875,-1.375 2.140625,-1.90625 2.140625,-2.90625 0,-1.140625 -0.890625,-1.9375 -2.109375,-1.9375 -1.125,0 -1.859375,0.921875 -1.859375,1.8125 0,0.546875 0.5,0.546875 0.53125,0.546875 0.171875,0 0.515625,-0.109375 0.515625,-0.53125 0,-0.25 -0.1875,-0.515625 -0.53125,-0.515625 -0.078125,0 -0.09375,0 -0.125,0.015625 0.21875,-0.65625 0.765625,-1.015625 1.34375,-1.015625 0.90625,0 1.328125,0.8125 1.328125,1.625 C 3.5625,-3.90625 3.078125,-3.125 2.515625,-2.5 l -1.90625,2.125 C 0.5,-0.265625 0.5,-0.234375 0.5,0 H 4.203125 L 4.46875,-1.734375 H 4.234375 C 4.171875,-1.4375 4.109375,-1 4,-0.84375 3.9375,-0.765625 3.28125,-0.765625 3.0625,-0.765625 Z m 0,0"
             transform="translate(211.46822,110.99)"
             id="path115" />
        </g>
        <g
           style="fill:#000000;fill-opacity:1"
           id="g116">
          <path
             style="stroke:none"
             d="m 2.890625,-3.515625 c 0.8125,-0.265625 1.390625,-0.953125 1.390625,-1.75 0,-0.8125 -0.875,-1.375 -1.828125,-1.375 -1,0 -1.765625,0.59375 -1.765625,1.359375 0,0.328125 0.21875,0.515625 0.515625,0.515625 0.296875,0 0.5,-0.21875 0.5,-0.515625 0,-0.484375 -0.46875,-0.484375 -0.609375,-0.484375 0.296875,-0.5 0.953125,-0.625 1.3125,-0.625 0.421875,0 0.96875,0.21875 0.96875,1.109375 0,0.125 -0.03125,0.703125 -0.28125,1.140625 C 2.796875,-3.65625 2.453125,-3.625 2.203125,-3.625 2.125,-3.609375 1.890625,-3.59375 1.8125,-3.59375 c -0.078125,0.015625 -0.140625,0.03125 -0.140625,0.125 0,0.109375 0.0625,0.109375 0.234375,0.109375 h 0.4375 c 0.8125,0 1.1875,0.671875 1.1875,1.65625 0,1.359375 -0.6875,1.640625 -1.125,1.640625 -0.4375,0 -1.1875,-0.171875 -1.53125,-0.75 0.34375,0.046875 0.65625,-0.171875 0.65625,-0.546875 0,-0.359375 -0.265625,-0.5625 -0.546875,-0.5625 -0.25,0 -0.5625,0.140625 -0.5625,0.578125 0,0.90625 0.921875,1.5625 2.015625,1.5625 1.21875,0 2.125,-0.90625 2.125,-1.921875 0,-0.8125 -0.640625,-1.59375 -1.671875,-1.8125 z m 0,0"
             transform="translate(219.21912,110.99)"
             id="path116" />
        </g>
        <g
           style="fill:#000000;fill-opacity:1"
           id="g117">
          <path
             style="stroke:none"
             d="m 4.46875,-2 c 0,-1.1875 -0.8125,-2.1875 -1.890625,-2.1875 -0.46875,0 -0.90625,0.15625 -1.265625,0.515625 V -5.625 c 0.203125,0.0625 0.53125,0.125 0.84375,0.125 1.234375,0 1.9375,-0.90625 1.9375,-1.03125 0,-0.0625 -0.03125,-0.109375 -0.109375,-0.109375 0,0 -0.03125,0 -0.078125,0.03125 C 3.703125,-6.515625 3.21875,-6.3125 2.546875,-6.3125 2.15625,-6.3125 1.6875,-6.390625 1.21875,-6.59375 1.140625,-6.625 1.125,-6.625 1.109375,-6.625 1,-6.625 1,-6.546875 1,-6.390625 V -3.4375 c 0,0.171875 0,0.25 0.140625,0.25 0.078125,0 0.09375,-0.015625 0.140625,-0.078125 C 1.390625,-3.421875 1.75,-3.96875 2.5625,-3.96875 c 0.515625,0 0.765625,0.453125 0.84375,0.640625 0.15625,0.375 0.1875,0.75 0.1875,1.25 0,0.359375 0,0.953125 -0.25,1.375 C 3.109375,-0.3125 2.734375,-0.0625 2.28125,-0.0625 c -0.71875,0 -1.296875,-0.53125 -1.46875,-1.109375 0.03125,0 0.0625,0.015625 0.171875,0.015625 0.328125,0 0.5,-0.25 0.5,-0.484375 0,-0.25 -0.171875,-0.5 -0.5,-0.5 C 0.84375,-2.140625 0.5,-2.0625 0.5,-1.609375 0.5,-0.75 1.1875,0.21875 2.296875,0.21875 3.453125,0.21875 4.46875,-0.734375 4.46875,-2 Z m 0,0"
             transform="translate(226.97003,110.99)"
             id="path117" />
        </g>
        <g
           style="fill:#000000;fill-opacity:1"
           id="g119">
          <path
             style="stroke:none"
             d="m 1.3125,-3.265625 v -0.25 c 0,-2.515625 1.234375,-2.875 1.75,-2.875 0.234375,0 0.65625,0.0625 0.875,0.40625 -0.15625,0 -0.546875,0 -0.546875,0.4375 0,0.3125 0.234375,0.46875 0.453125,0.46875 0.15625,0 0.46875,-0.09375 0.46875,-0.484375 0,-0.59375 -0.4375,-1.078125 -1.265625,-1.078125 -1.28125,0 -2.625,1.28125 -2.625,3.484375 0,2.671875 1.15625,3.375 2.078125,3.375 1.109375,0 2.0625,-0.9375 2.0625,-2.25 0,-1.265625 -0.890625,-2.21875 -2,-2.21875 -0.671875,0 -1.046875,0.5 -1.25,0.984375 z M 2.5,-0.0625 c -0.625,0 -0.921875,-0.59375 -0.984375,-0.75 -0.1875,-0.46875 -0.1875,-1.265625 -0.1875,-1.4375 0,-0.78125 0.328125,-1.78125 1.21875,-1.78125 0.171875,0 0.625,0 0.9375,0.625 0.171875,0.359375 0.171875,0.875 0.171875,1.359375 0,0.484375 0,0.984375 -0.171875,1.34375 C 3.1875,-0.109375 2.734375,-0.0625 2.5,-0.0625 Z m 0,0"
             transform="translate(234.72093,110.99)"
             id="path118" />
          <path
             style="stroke:none"
             d="M 1.578125,-7.484375 H 0.21875 v 0.40625 H 1.1875 V 2.09375 H 0.21875 V 2.5 h 1.359375 z m 0,0"
             transform="translate(239.70223,110.99)"
             id="path119" />
        </g>
      </g>
    </g>
    <g
       ns1:text="$x$"
       transform="matrix(0.69825401,0,0,0.69825401,-21.634256,35.320543)"
       id="g3">
      <g
         id="g2">
        <g
           style="fill:rgb(0%,0%,0%);fill-opacity:1;"
           id="g1">
          <path
             style="stroke:none;"
             d="M 3.328125 -3.015625 C 3.390625 -3.265625 3.625 -4.1875 4.3125 -4.1875 C 4.359375 -4.1875 4.609375 -4.1875 4.8125 -4.0625 C 4.53125 -4 4.34375 -3.765625 4.34375 -3.515625 C 4.34375 -3.359375 4.453125 -3.171875 4.71875 -3.171875 C 4.9375 -3.171875 5.25 -3.34375 5.25 -3.75 C 5.25 -4.265625 4.671875 -4.40625 4.328125 -4.40625 C 3.75 -4.40625 3.40625 -3.875 3.28125 -3.65625 C 3.03125 -4.3125 2.5 -4.40625 2.203125 -4.40625 C 1.171875 -4.40625 0.59375 -3.125 0.59375 -2.875 C 0.59375 -2.765625 0.703125 -2.765625 0.71875 -2.765625 C 0.796875 -2.765625 0.828125 -2.796875 0.84375 -2.875 C 1.1875 -3.9375 1.84375 -4.1875 2.1875 -4.1875 C 2.375 -4.1875 2.71875 -4.09375 2.71875 -3.515625 C 2.71875 -3.203125 2.546875 -2.546875 2.1875 -1.140625 C 2.03125 -0.53125 1.671875 -0.109375 1.234375 -0.109375 C 1.171875 -0.109375 0.953125 -0.109375 0.734375 -0.234375 C 0.984375 -0.296875 1.203125 -0.5 1.203125 -0.78125 C 1.203125 -1.046875 0.984375 -1.125 0.84375 -1.125 C 0.53125 -1.125 0.296875 -0.875 0.296875 -0.546875 C 0.296875 -0.09375 0.78125 0.109375 1.21875 0.109375 C 1.890625 0.109375 2.25 -0.59375 2.265625 -0.640625 C 2.390625 -0.28125 2.75 0.109375 3.34375 0.109375 C 4.375 0.109375 4.9375 -1.171875 4.9375 -1.421875 C 4.9375 -1.53125 4.859375 -1.53125 4.828125 -1.53125 C 4.734375 -1.53125 4.71875 -1.484375 4.6875 -1.421875 C 4.359375 -0.34375 3.6875 -0.109375 3.375 -0.109375 C 2.984375 -0.109375 2.828125 -0.421875 2.828125 -0.765625 C 2.828125 -0.984375 2.875 -1.203125 2.984375 -1.640625 Z M 3.328125 -3.015625 "
             transform="translate(178.585,110.99)"
             id="path1" />
        </g>
      </g>
    </g>
    <g
       ns1:text="$y$"
       transform="matrix(0.69825401,0,0,0.69825401,-100.00426,-8.5377255)"
       id="g6">
      <g
         id="g5">
        <g
           style="fill:rgb(0%,0%,0%);fill-opacity:1;"
           id="g4">
          <path
             style="stroke:none;"
             d="M 4.84375 -3.796875 C 4.890625 -3.9375 4.890625 -3.953125 4.890625 -4.03125 C 4.890625 -4.203125 4.75 -4.296875 4.59375 -4.296875 C 4.5 -4.296875 4.34375 -4.234375 4.25 -4.09375 C 4.234375 -4.03125 4.140625 -3.734375 4.109375 -3.546875 C 4.03125 -3.296875 3.96875 -3.015625 3.90625 -2.75 L 3.453125 -0.953125 C 3.421875 -0.8125 2.984375 -0.109375 2.328125 -0.109375 C 1.828125 -0.109375 1.71875 -0.546875 1.71875 -0.921875 C 1.71875 -1.375 1.890625 -2 2.21875 -2.875 C 2.375 -3.28125 2.421875 -3.390625 2.421875 -3.59375 C 2.421875 -4.03125 2.109375 -4.40625 1.609375 -4.40625 C 0.65625 -4.40625 0.296875 -2.953125 0.296875 -2.875 C 0.296875 -2.765625 0.390625 -2.765625 0.40625 -2.765625 C 0.515625 -2.765625 0.515625 -2.796875 0.5625 -2.953125 C 0.84375 -3.890625 1.234375 -4.1875 1.578125 -4.1875 C 1.65625 -4.1875 1.828125 -4.1875 1.828125 -3.875 C 1.828125 -3.625 1.71875 -3.359375 1.65625 -3.171875 C 1.25 -2.109375 1.078125 -1.546875 1.078125 -1.078125 C 1.078125 -0.1875 1.703125 0.109375 2.296875 0.109375 C 2.6875 0.109375 3.015625 -0.0625 3.296875 -0.34375 C 3.171875 0.171875 3.046875 0.671875 2.65625 1.203125 C 2.390625 1.53125 2.015625 1.828125 1.5625 1.828125 C 1.421875 1.828125 0.96875 1.796875 0.796875 1.40625 C 0.953125 1.40625 1.09375 1.40625 1.21875 1.28125 C 1.328125 1.203125 1.421875 1.0625 1.421875 0.875 C 1.421875 0.5625 1.15625 0.53125 1.0625 0.53125 C 0.828125 0.53125 0.5 0.6875 0.5 1.171875 C 0.5 1.671875 0.9375 2.046875 1.5625 2.046875 C 2.578125 2.046875 3.609375 1.140625 3.890625 0.015625 Z M 4.84375 -3.796875 "
             transform="translate(178.585,110.99)"
             id="path3" />
        </g>
      </g>
    </g>
  </g>
</svg>
