<?xml version="1.0" encoding="UTF-8" standalone="no"?>
<!-- Created with Inkscape (http://www.inkscape.org/) -->

<svg
   width="114.63457mm"
   height="37.857052mm"
   viewBox="0 0 114.63457 37.857052"
   version="1.1"
   id="svg1"
   inkscape:version="1.3.2 (1:1.3.2+202311252150+091e20ef0f)"
   sodipodi:docname="pure_Dirichlet_1D.svg"
   xmlns:inkscape="http://www.inkscape.org/namespaces/inkscape"
   xmlns:sodipodi="http://sodipodi.sourceforge.net/DTD/sodipodi-0.dtd"
   xmlns="http://www.w3.org/2000/svg"
   xmlns:svg="http://www.w3.org/2000/svg"
   xmlns:ns1="http://wanglongqi.github.io/WriteTeX">
  <sodipodi:namedview
     id="namedview1"
     pagecolor="#ffffff"
     bordercolor="#000000"
     borderopacity="0.25"
     inkscape:showpageshadow="2"
     inkscape:pageopacity="0.0"
     inkscape:pagecheckerboard="0"
     inkscape:deskcolor="#d1d1d1"
     inkscape:document-units="mm"
     inkscape:zoom="2.7778335"
     inkscape:cx="222.29554"
     inkscape:cy="76.678462"
     inkscape:window-width="1920"
     inkscape:window-height="1129"
     inkscape:window-x="1920"
     inkscape:window-y="0"
     inkscape:window-maximized="1"
     inkscape:current-layer="layer1" />
  <defs
     id="defs1">
    <marker
       style="overflow:visible"
       id="marker4"
       refX="0"
       refY="0"
       orient="auto-start-reverse"
       inkscape:stockid="Concave triangle arrow"
       markerWidth="1"
       markerHeight="1"
       viewBox="0 0 1 1"
       inkscape:isstock="true"
       inkscape:collect="always"
       preserveAspectRatio="xMidYMid">
      <path
         transform="scale(0.7)"
         d="M -2,-4 9,0 -2,4 c 2,-2.33 2,-5.66 0,-8 z"
         style="fill:context-stroke;fill-rule:evenodd;stroke:none"
         id="path7" />
    </marker>
    <marker
       style="overflow:visible"
       id="ConcaveTriangle"
       refX="0"
       refY="0"
       orient="auto-start-reverse"
       inkscape:stockid="Concave triangle arrow"
       markerWidth="1"
       markerHeight="1"
       viewBox="0 0 1 1"
       inkscape:isstock="true"
       inkscape:collect="always"
       preserveAspectRatio="xMidYMid">
      <path
         transform="scale(0.7)"
         d="M -2,-4 9,0 -2,4 c 2,-2.33 2,-5.66 0,-8 z"
         style="fill:context-stroke;fill-rule:evenodd;stroke:none"
         id="path18" />
    </marker>
  </defs>
  <g
     inkscape:label="Ebene 1"
     inkscape:groupmode="layer"
     id="layer1"
     transform="translate(-32.960625,-78.603482)">
    <circle
       style="font-variation-settings:normal;vector-effect:none;fill:#000000;fill-opacity:1;stroke:none;stroke-width:0.661286;stroke-linecap:square;stroke-linejoin:round;stroke-miterlimit:10;stroke-dasharray:none;stroke-dashoffset:0;stroke-opacity:1;-inkscape-stroke:none;paint-order:fill markers stroke;stop-color:#000000"
       id="circle5"
       cx="102.67003"
       cy="89.243576"
       r="2.3299713" />
    <path
       style="fill:none;stroke:#000000;stroke-width:0.264583px;stroke-linecap:butt;stroke-linejoin:miter;stroke-opacity:1"
       d="m 77.057117,59.552326 v 2.21752"
       id="path70" />
    <path
       style="fill:none;stroke:#000000;stroke-width:0.264583px;stroke-linecap:butt;stroke-linejoin:miter;stroke-opacity:1"
       d="m 51.425167,59.552326 v 2.21752"
       id="path71" />
    <g
       ns1:text="$x_{2}$"
       transform="matrix(0.69825401,0,0,0.69825401,-51.08439,-10.082981)"
       id="g106">
      <g
         id="g105">
        <g
           style="fill:#000000;fill-opacity:1"
           id="g103">
          <path
             style="stroke:none"
             d="M 3.328125,-3.015625 C 3.390625,-3.265625 3.625,-4.1875 4.3125,-4.1875 c 0.046875,0 0.296875,0 0.5,0.125 C 4.53125,-4 4.34375,-3.765625 4.34375,-3.515625 c 0,0.15625 0.109375,0.34375 0.375,0.34375 0.21875,0 0.53125,-0.171875 0.53125,-0.578125 0,-0.515625 -0.578125,-0.65625 -0.921875,-0.65625 -0.578125,0 -0.921875,0.53125 -1.046875,0.75 -0.25,-0.65625 -0.78125,-0.75 -1.078125,-0.75 -1.03125,0 -1.609375,1.28125 -1.609375,1.53125 0,0.109375 0.109375,0.109375 0.125,0.109375 0.078125,0 0.109375,-0.03125 0.125,-0.109375 0.34375,-1.0625 1,-1.3125 1.34375,-1.3125 0.1875,0 0.53125,0.09375 0.53125,0.671875 0,0.3125 -0.171875,0.96875 -0.53125,2.375 -0.15625,0.609375 -0.515625,1.03125 -0.953125,1.03125 -0.0625,0 -0.28125,0 -0.5,-0.125 0.25,-0.0625 0.46875,-0.265625 0.46875,-0.546875 0,-0.265625 -0.21875,-0.34375 -0.359375,-0.34375 -0.3125,0 -0.546875,0.25 -0.546875,0.578125 0,0.453125 0.484375,0.65625 0.921875,0.65625 0.671875,0 1.03125,-0.703125 1.046875,-0.75 0.125,0.359375 0.484375,0.75 1.078125,0.75 1.03125,0 1.59375,-1.28125 1.59375,-1.53125 0,-0.109375 -0.078125,-0.109375 -0.109375,-0.109375 -0.09375,0 -0.109375,0.046875 -0.140625,0.109375 -0.328125,1.078125 -1,1.3125 -1.3125,1.3125 -0.390625,0 -0.546875,-0.3125 -0.546875,-0.65625 0,-0.21875 0.046875,-0.4375 0.15625,-0.875 z m 0,0"
             transform="translate(178.585,110.99)"
             id="path102" />
        </g>
        <g
           style="fill:#000000;fill-opacity:1"
           id="g104">
          <path
             style="stroke:none"
             d="M 3.515625,-1.265625 H 3.28125 c -0.015625,0.15625 -0.09375,0.5625 -0.1875,0.625 C 3.046875,-0.59375 2.515625,-0.59375 2.40625,-0.59375 H 1.125 c 0.734375,-0.640625 0.984375,-0.84375 1.390625,-1.171875 0.515625,-0.40625 1,-0.84375 1,-1.5 0,-0.84375 -0.734375,-1.359375 -1.625,-1.359375 -0.859375,0 -1.453125,0.609375 -1.453125,1.25 0,0.34375 0.296875,0.390625 0.375,0.390625 0.15625,0 0.359375,-0.125 0.359375,-0.375 0,-0.125 -0.046875,-0.375 -0.40625,-0.375 C 0.984375,-4.21875 1.453125,-4.375 1.78125,-4.375 c 0.703125,0 1.0625,0.546875 1.0625,1.109375 0,0.609375 -0.4375,1.078125 -0.65625,1.328125 L 0.515625,-0.265625 C 0.4375,-0.203125 0.4375,-0.1875 0.4375,0 h 2.875 z m 0,0"
             transform="translate(184.278,112.485)"
             id="path103" />
        </g>
      </g>
    </g>
    <path
       style="font-variation-settings:normal;vector-effect:none;fill:none;fill-opacity:1;stroke:#000000;stroke-width:0.336;stroke-linecap:butt;stroke-linejoin:miter;stroke-miterlimit:4;stroke-dasharray:none;stroke-dashoffset:0;stroke-opacity:1;-inkscape-stroke:none;marker-end:url(#ConcaveTriangle);paint-order:fill markers stroke;stop-color:#000000"
       d="M 133.96434,89.243577 H 139.976"
       id="path142"
       sodipodi:nodetypes="cc" />
    <g
       ns1:text="$x$"
       transform="matrix(0.69825401,0,0,0.69825401,19.231665,12.760763)"
       id="g148">
      <g
         id="g147">
        <g
           style="fill:#000000;fill-opacity:1"
           id="g146">
          <path
             style="stroke:none"
             d="M 3.328125,-3.015625 C 3.390625,-3.265625 3.625,-4.1875 4.3125,-4.1875 c 0.046875,0 0.296875,0 0.5,0.125 C 4.53125,-4 4.34375,-3.765625 4.34375,-3.515625 c 0,0.15625 0.109375,0.34375 0.375,0.34375 0.21875,0 0.53125,-0.171875 0.53125,-0.578125 0,-0.515625 -0.578125,-0.65625 -0.921875,-0.65625 -0.578125,0 -0.921875,0.53125 -1.046875,0.75 -0.25,-0.65625 -0.78125,-0.75 -1.078125,-0.75 -1.03125,0 -1.609375,1.28125 -1.609375,1.53125 0,0.109375 0.109375,0.109375 0.125,0.109375 0.078125,0 0.109375,-0.03125 0.125,-0.109375 0.34375,-1.0625 1,-1.3125 1.34375,-1.3125 0.1875,0 0.53125,0.09375 0.53125,0.671875 0,0.3125 -0.171875,0.96875 -0.53125,2.375 -0.15625,0.609375 -0.515625,1.03125 -0.953125,1.03125 -0.0625,0 -0.28125,0 -0.5,-0.125 0.25,-0.0625 0.46875,-0.265625 0.46875,-0.546875 0,-0.265625 -0.21875,-0.34375 -0.359375,-0.34375 -0.3125,0 -0.546875,0.25 -0.546875,0.578125 0,0.453125 0.484375,0.65625 0.921875,0.65625 0.671875,0 1.03125,-0.703125 1.046875,-0.75 0.125,0.359375 0.484375,0.75 1.078125,0.75 1.03125,0 1.59375,-1.28125 1.59375,-1.53125 0,-0.109375 -0.078125,-0.109375 -0.109375,-0.109375 -0.09375,0 -0.109375,0.046875 -0.140625,0.109375 -0.328125,1.078125 -1,1.3125 -1.3125,1.3125 -0.390625,0 -0.546875,-0.3125 -0.546875,-0.65625 0,-0.21875 0.046875,-0.4375 0.15625,-0.875 z m 0,0"
             transform="translate(178.585,110.99)"
             id="path146" />
        </g>
      </g>
    </g>
    <path
       style="font-variation-settings:normal;vector-effect:none;fill:none;fill-opacity:1;stroke:#000000;stroke-width:0.388001;stroke-linecap:butt;stroke-linejoin:miter;stroke-miterlimit:4;stroke-dasharray:none;stroke-dashoffset:0;stroke-opacity:1;-inkscape-stroke:none;paint-order:fill markers stroke"
       d="M 51.425166,59.552326 H 77.057115"
       id="path186" />
    <path
       style="font-variation-settings:normal;fill:none;fill-opacity:1;stroke:#000000;stroke-width:0.388;stroke-linecap:butt;stroke-linejoin:miter;stroke-miterlimit:4;stroke-dasharray:none;stroke-dashoffset:0;stroke-opacity:1;paint-order:fill markers stroke"
       d="m 102.67003,89.243577 h 31.29431"
       id="path189"
       sodipodi:nodetypes="cc" />
    <circle
       style="font-variation-settings:normal;vector-effect:none;fill:#000000;fill-opacity:1;stroke:none;stroke-width:0.661286;stroke-linecap:square;stroke-linejoin:round;stroke-miterlimit:10;stroke-dasharray:none;stroke-dashoffset:0;stroke-opacity:1;-inkscape-stroke:none;paint-order:fill markers stroke;stop-color:#000000"
       id="circle1"
       cx="71.375717"
       cy="89.243576"
       r="2.3299713" />
    <path
       style="font-variation-settings:normal;fill:none;fill-opacity:1;stroke:#000000;stroke-width:0.388;stroke-linecap:butt;stroke-linejoin:miter;stroke-miterlimit:4;stroke-dasharray:none;stroke-dashoffset:0;stroke-opacity:1;paint-order:fill markers stroke"
       d="M 71.375718,89.243577 H 102.67003"
       id="path1"
       sodipodi:nodetypes="cc" />
    <path
       style="font-variation-settings:normal;fill:none;fill-opacity:1;stroke:#000000;stroke-width:0.388;stroke-linecap:butt;stroke-linejoin:miter;stroke-miterlimit:4;stroke-dasharray:none;stroke-dashoffset:0;stroke-opacity:1;paint-order:fill markers stroke"
       d="m 40.081408,89.243577 h 31.29431"
       id="path2"
       sodipodi:nodetypes="cc" />
    <g
       ns1:text="$\mathbf{1}$"
       transform="matrix(0.56416182,0,0,0.56416182,-57.879737,34.295257)"
       id="g63"
       style="font-variation-settings:normal;opacity:1;vector-effect:none;fill:#006b94;fill-opacity:1;stroke-width:1.23768;stroke-linecap:butt;stroke-linejoin:miter;stroke-miterlimit:4;stroke-dasharray:none;stroke-dashoffset:0;stroke-opacity:1;-inkscape-stroke:none;stop-color:#000000;stop-opacity:1">
      <g
         id="g62"
         style="font-variation-settings:normal;vector-effect:none;fill:#006b94;fill-opacity:1;stroke-width:1.23768;stroke-linecap:butt;stroke-linejoin:miter;stroke-miterlimit:4;stroke-dasharray:none;stroke-dashoffset:0;stroke-opacity:1;-inkscape-stroke:none;stop-color:#000000;stop-opacity:1">
        <g
           style="font-variation-settings:normal;vector-effect:none;fill:#006b94;fill-opacity:1;stroke-width:1.23768;stroke-linecap:butt;stroke-linejoin:miter;stroke-miterlimit:4;stroke-dasharray:none;stroke-dashoffset:0;stroke-opacity:1;-inkscape-stroke:none;stop-color:#000000;stop-opacity:1"
           id="g61">
          <path
             style="font-variation-settings:normal;vector-effect:none;fill:#006b94;fill-opacity:1;stroke:none;stroke-width:1.23768;stroke-linecap:butt;stroke-linejoin:miter;stroke-miterlimit:4;stroke-dasharray:none;stroke-dashoffset:0;stroke-opacity:1;-inkscape-stroke:none;stop-color:#000000;stop-opacity:1"
             d="m 3.53125,-6.203125 c 0,-0.234375 0,-0.328125 -0.265625,-0.328125 -0.109375,0 -0.125,0 -0.21875,0.078125 -0.765625,0.5625 -1.796875,0.5625 -2,0.5625 H 0.84375 v 0.46875 H 1.046875 C 1.203125,-5.421875 1.75,-5.4375 2.34375,-5.625 v 5.15625 H 0.953125 V 0 c 0.4375,-0.03125 1.5,-0.03125 1.984375,-0.03125 0.484375,0 1.546875,0 1.984375,0.03125 V -0.46875 H 3.53125 Z m 0,0"
             transform="translate(178.585,110.99)"
             id="path61" />
        </g>
      </g>
    </g>
    <g
       ns1:text="$\mathbf{2}$"
       transform="matrix(0.56416182,0,0,0.56416182,-30.988271,34.295257)"
       id="g78">
      <g
         id="g77">
        <g
           style="fill:#000000;fill-opacity:1"
           id="g76">
          <path
             style="stroke:none"
             d="M 5.15625,-2.21875 H 4.6875 C 4.65625,-2.015625 4.5625,-1.375 4.421875,-1.3125 4.3125,-1.25 3.5625,-1.25 3.40625,-1.25 H 1.9375 c 0.46875,-0.390625 1,-0.8125 1.4375,-1.140625 1.140625,-0.84375 1.78125,-1.3125 1.78125,-2.25 0,-1.15625 -1.046875,-1.890625 -2.4375,-1.890625 -1.21875,0 -2.15625,0.625 -2.15625,1.515625 0,0.59375 0.484375,0.734375 0.71875,0.734375 C 1.609375,-4.28125 2,-4.5 2,-5 2,-5.515625 1.578125,-5.671875 1.4375,-5.71875 1.71875,-5.953125 2.109375,-6.0625 2.46875,-6.0625 c 0.84375,0 1.3125,0.671875 1.3125,1.421875 0,0.6875 -0.375,1.375 -1.078125,2.078125 l -2,2.046875 C 0.5625,-0.40625 0.5625,-0.375 0.5625,-0.171875 V 0 h 4.28125 z m 0,0"
             transform="translate(178.585,110.99)"
             id="path75" />
        </g>
      </g>
    </g>
    <g
       ns1:text="$\mathbf{3}$"
       transform="matrix(0.56416182,0,0,0.56416182,0.49556157,34.233552)"
       id="g81">
      <g
         id="g80">
        <g
           style="fill:#000000;fill-opacity:1"
           id="g79">
          <path
             style="stroke:none"
             d="m 3.515625,-3.515625 c 0.6875,-0.203125 1.40625,-0.765625 1.40625,-1.625 0,-0.765625 -0.75,-1.390625 -2.15625,-1.390625 -1.1875,0 -1.96875,0.640625 -1.96875,1.4375 0,0.421875 0.3125,0.703125 0.6875,0.703125 0.453125,0 0.703125,-0.328125 0.703125,-0.6875 0,-0.578125 -0.546875,-0.6875 -0.578125,-0.703125 0.34375,-0.28125 0.78125,-0.359375 1.09375,-0.359375 0.828125,0 0.859375,0.640625 0.859375,0.96875 0,0.125 -0.015625,1.4375 -1.046875,1.5 -0.40625,0.015625 -0.4375,0.015625 -0.484375,0.03125 -0.09375,0.015625 -0.125,0.109375 -0.125,0.171875 0,0.171875 0.109375,0.171875 0.28125,0.171875 H 2.625 c 1.09375,0 1.09375,0.984375 1.09375,1.5 0,0.46875 0,1.484375 -1.03125,1.484375 -0.265625,0 -0.78125,-0.046875 -1.265625,-0.34375 C 1.75,-0.75 2,-1 2,-1.40625 c 0,-0.453125 -0.3125,-0.75 -0.75,-0.75 -0.421875,0 -0.765625,0.265625 -0.765625,0.765625 0,0.90625 0.96875,1.5 2.25,1.5 1.78125,0 2.515625,-1 2.515625,-1.90625 0,-0.546875 -0.296875,-1.40625 -1.734375,-1.71875 z m 0,0"
             transform="translate(178.585,110.99)"
             id="path78" />
        </g>
      </g>
    </g>
    <g
       ns1:text="$\mathbf{4}$"
       transform="matrix(0.56416182,0,0,0.56416182,32.12925,34.295257)"
       id="g84"
       style="font-variation-settings:normal;opacity:1;vector-effect:none;fill:#006b94;fill-opacity:1;stroke-width:1.23768;stroke-linecap:butt;stroke-linejoin:miter;stroke-miterlimit:4;stroke-dasharray:none;stroke-dashoffset:0;stroke-opacity:1;-inkscape-stroke:none;stop-color:#000000;stop-opacity:1">
      <g
         id="g83"
         style="font-variation-settings:normal;vector-effect:none;fill:#006b94;fill-opacity:1;stroke-width:1.23768;stroke-linecap:butt;stroke-linejoin:miter;stroke-miterlimit:4;stroke-dasharray:none;stroke-dashoffset:0;stroke-opacity:1;-inkscape-stroke:none;stop-color:#000000;stop-opacity:1">
        <g
           style="font-variation-settings:normal;vector-effect:none;fill:#006b94;fill-opacity:1;stroke-width:1.23768;stroke-linecap:butt;stroke-linejoin:miter;stroke-miterlimit:4;stroke-dasharray:none;stroke-dashoffset:0;stroke-opacity:1;-inkscape-stroke:none;stop-color:#000000;stop-opacity:1"
           id="g82">
          <path
             style="font-variation-settings:normal;vector-effect:none;fill:#006b94;fill-opacity:1;stroke:none;stroke-width:1.23768;stroke-linecap:butt;stroke-linejoin:miter;stroke-miterlimit:4;stroke-dasharray:none;stroke-dashoffset:0;stroke-opacity:1;-inkscape-stroke:none;stop-color:#000000;stop-opacity:1"
             d="M 4.4375,-1.5625 H 5.40625 V -2.03125 H 4.4375 v -4.1875 c 0,-0.265625 -0.015625,-0.328125 -0.296875,-0.328125 -0.21875,0 -0.21875,0.015625 -0.34375,0.171875 L 0.3125,-2.03125 v 0.46875 h 2.875 v 1.09375 H 2.078125 V 0 c 0.375,-0.03125 1.28125,-0.03125 1.703125,-0.03125 0.40625,0 1.265625,0 1.625,0.03125 V -0.46875 H 4.4375 Z M 3.296875,-2.03125 H 0.84375 l 2.453125,-3.078125 z m 0,0"
             transform="translate(178.585,110.99)"
             id="path81" />
        </g>
      </g>
    </g>
    <g
       id="g2"
       transform="matrix(1.4554006,0,0,1.4554006,-5.546846,-59.048826)">
      <path
         style="fill:#000000;stroke:#000000;stroke-width:0.705556;stroke-dasharray:none;paint-order:fill markers stroke"
         d="M 31.350994,94.580357 V 109.20189"
         id="path8-9"
         sodipodi:nodetypes="cc" />
      <path
         style="fill:#000000;stroke:#000000;stroke-width:0.260129;stroke-dasharray:none;paint-order:fill markers stroke"
         d="m 31.38375,95.062619 -4.833449,4.833449"
         id="path10-1" />
      <path
         style="fill:#000000;stroke:#000000;stroke-width:0.260129;stroke-dasharray:none;paint-order:fill markers stroke"
         d="m 31.38375,98.819037 -4.833449,4.833453"
         id="path11-2" />
      <path
         style="fill:#000000;stroke:#000000;stroke-width:0.260129;stroke-dasharray:none;paint-order:fill markers stroke"
         d="m 31.38375,102.57546 -4.833449,4.83344"
         id="path12-7" />
      <path
         style="fill:#000000;stroke:#000000;stroke-width:0.260129;stroke-dasharray:none;paint-order:fill markers stroke"
         d="m 31.38375,106.33187 -4.833449,4.83345"
         id="path13-0" />
    </g>
    <path
       style="fill:none;stroke:#006b94;stroke-width:0.282222;stroke-linecap:butt;stroke-linejoin:miter;stroke-dasharray:none;stroke-opacity:1"
       d="m 133.96434,111.72709 v -4.39341"
       id="path3" />
    <path
       style="fill:none;stroke:#006b94;stroke-width:0.352778;stroke-linecap:butt;stroke-linejoin:miter;stroke-dasharray:none;stroke-opacity:1;marker-end:url(#marker4)"
       d="m 133.96434,109.53039 h 8.25457"
       id="path4" />
    <g
       ns1:text="$\bar{u}_4$"
       transform="matrix(0.69825401,0,0,0.69825401,11.505571,37.917433)"
       id="g11"
       style="fill:#006b94;fill-opacity:1">
      <g
         id="surface1"
         style="fill:#006b94;fill-opacity:1">
        <g
           style="fill:#006b94;fill-opacity:1"
           id="g8">
          <path
             style="fill:#006b94;fill-opacity:1;stroke:none"
             d="M 4.28125,-5.578125 V -5.875 H 0.6875 v 0.296875 z m 0,0"
             transform="translate(179.222,110.99)"
             id="path8" />
        </g>
        <g
           style="fill:#006b94;fill-opacity:1"
           id="g9">
          <path
             style="fill:#006b94;fill-opacity:1;stroke:none"
             d="M 3.484375,-0.5625 C 3.59375,-0.15625 3.953125,0.109375 4.375,0.109375 4.71875,0.109375 4.953125,-0.125 5.109375,-0.4375 5.28125,-0.796875 5.40625,-1.40625 5.40625,-1.421875 c 0,-0.109375 -0.078125,-0.109375 -0.109375,-0.109375 -0.109375,0 -0.109375,0.046875 -0.140625,0.1875 -0.140625,0.5625 -0.328125,1.234375 -0.75,1.234375 -0.203125,0 -0.3125,-0.125 -0.3125,-0.453125 0,-0.21875 0.125,-0.6875 0.203125,-1.046875 L 4.578125,-2.6875 C 4.609375,-2.828125 4.703125,-3.203125 4.75,-3.359375 4.796875,-3.59375 4.890625,-3.96875 4.890625,-4.03125 c 0,-0.171875 -0.140625,-0.265625 -0.28125,-0.265625 -0.046875,0 -0.3125,0.015625 -0.390625,0.34375 -0.1875,0.734375 -0.625,2.484375 -0.75,3 -0.015625,0.046875 -0.40625,0.84375 -1.140625,0.84375 -0.515625,0 -0.609375,-0.453125 -0.609375,-0.8125 0,-0.5625 0.28125,-1.34375 0.53125,-2.03125 0.125,-0.3125 0.171875,-0.453125 0.171875,-0.640625 0,-0.4375 -0.3125,-0.8125 -0.8125,-0.8125 -0.953125,0 -1.3125,1.453125 -1.3125,1.53125 0,0.109375 0.09375,0.109375 0.109375,0.109375 0.109375,0 0.109375,-0.03125 0.15625,-0.1875 0.25,-0.859375 0.640625,-1.234375 1.015625,-1.234375 0.09375,0 0.25,0.015625 0.25,0.328125 0,0.234375 -0.109375,0.53125 -0.171875,0.671875 -0.375,1 -0.578125,1.609375 -0.578125,2.09375 0,0.953125 0.6875,1.203125 1.21875,1.203125 0.65625,0 1.015625,-0.453125 1.1875,-0.671875 z m 0,0"
             transform="translate(178.584,110.99)"
             id="path9" />
        </g>
        <g
           style="fill:#006b94;fill-opacity:1"
           id="g10">
          <path
             style="fill:#006b94;fill-opacity:1;stroke:none"
             d="m 3.6875,-1.140625 v -0.25 H 2.90625 V -4.5 c 0,-0.140625 0,-0.203125 -0.140625,-0.203125 -0.09375,0 -0.125,0 -0.1875,0.109375 l -2.3125,3.203125 v 0.25 h 2.0625 v 0.5625 c 0,0.25 0,0.328125 -0.578125,0.328125 H 1.5625 V 0 C 1.921875,-0.015625 2.359375,-0.03125 2.609375,-0.03125 2.875,-0.03125 3.3125,-0.015625 3.671875,0 v -0.25 h -0.1875 C 2.90625,-0.25 2.90625,-0.328125 2.90625,-0.578125 v -0.5625 z M 2.375,-3.9375 v 2.546875 H 0.53125 Z m 0,0"
             transform="translate(184.288,112.485)"
             id="path10" />
        </g>
      </g>
    </g>
    <path
       style="fill:none;stroke:#006b94;stroke-width:0.282222;stroke-linecap:butt;stroke-linejoin:miter;stroke-dasharray:none;stroke-opacity:1"
       d="m 40.081409,111.72709 v -4.39341"
       id="path11" />
    <path
       style="fill:none;stroke:#006b94;stroke-width:0.352778;stroke-linecap:butt;stroke-linejoin:miter;stroke-dasharray:none;stroke-opacity:1;marker-end:url(#marker4)"
       d="m 40.081409,109.53039 h 8.25457"
       id="path12" />
    <g
       ns1:text="$\bar{u}_1$"
       transform="matrix(0.69825401,0,0,0.69825401,-82.37736,37.917433)"
       id="g22"
       style="fill:#006b94;fill-opacity:1">
      <g
         id="g21"
         style="fill:#006b94;fill-opacity:1">
        <g
           style="fill:#006b94;fill-opacity:1"
           id="g17">
          <path
             style="fill:#006b94;fill-opacity:1;stroke:none"
             d="M 4.28125,-5.578125 V -5.875 H 0.6875 v 0.296875 z m 0,0"
             transform="translate(179.222,110.99)"
             id="path17" />
        </g>
        <g
           style="fill:#006b94;fill-opacity:1"
           id="g19">
          <path
             style="fill:#006b94;fill-opacity:1;stroke:none"
             d="M 3.484375,-0.5625 C 3.59375,-0.15625 3.953125,0.109375 4.375,0.109375 4.71875,0.109375 4.953125,-0.125 5.109375,-0.4375 5.28125,-0.796875 5.40625,-1.40625 5.40625,-1.421875 c 0,-0.109375 -0.078125,-0.109375 -0.109375,-0.109375 -0.109375,0 -0.109375,0.046875 -0.140625,0.1875 -0.140625,0.5625 -0.328125,1.234375 -0.75,1.234375 -0.203125,0 -0.3125,-0.125 -0.3125,-0.453125 0,-0.21875 0.125,-0.6875 0.203125,-1.046875 L 4.578125,-2.6875 C 4.609375,-2.828125 4.703125,-3.203125 4.75,-3.359375 4.796875,-3.59375 4.890625,-3.96875 4.890625,-4.03125 c 0,-0.171875 -0.140625,-0.265625 -0.28125,-0.265625 -0.046875,0 -0.3125,0.015625 -0.390625,0.34375 -0.1875,0.734375 -0.625,2.484375 -0.75,3 -0.015625,0.046875 -0.40625,0.84375 -1.140625,0.84375 -0.515625,0 -0.609375,-0.453125 -0.609375,-0.8125 0,-0.5625 0.28125,-1.34375 0.53125,-2.03125 0.125,-0.3125 0.171875,-0.453125 0.171875,-0.640625 0,-0.4375 -0.3125,-0.8125 -0.8125,-0.8125 -0.953125,0 -1.3125,1.453125 -1.3125,1.53125 0,0.109375 0.09375,0.109375 0.109375,0.109375 0.109375,0 0.109375,-0.03125 0.15625,-0.1875 0.25,-0.859375 0.640625,-1.234375 1.015625,-1.234375 0.09375,0 0.25,0.015625 0.25,0.328125 0,0.234375 -0.109375,0.53125 -0.171875,0.671875 -0.375,1 -0.578125,1.609375 -0.578125,2.09375 0,0.953125 0.6875,1.203125 1.21875,1.203125 0.65625,0 1.015625,-0.453125 1.1875,-0.671875 z m 0,0"
             transform="translate(178.584,110.99)"
             id="path19" />
        </g>
        <g
           style="fill:#006b94;fill-opacity:1"
           id="g20">
          <path
             style="fill:#006b94;fill-opacity:1;stroke:none"
             d="m 2.328125,-4.4375 c 0,-0.1875 0,-0.1875 -0.203125,-0.1875 -0.453125,0.4375 -1.078125,0.4375 -1.359375,0.4375 v 0.25 c 0.15625,0 0.625,0 1,-0.1875 v 3.546875 c 0,0.234375 0,0.328125 -0.6875,0.328125 H 0.8125 V 0 c 0.125,0 0.984375,-0.03125 1.234375,-0.03125 0.21875,0 1.09375,0.03125 1.25,0.03125 V -0.25 H 3.03125 c -0.703125,0 -0.703125,-0.09375 -0.703125,-0.328125 z m 0,0"
             transform="translate(184.288,112.485)"
             id="path20" />
        </g>
      </g>
    </g>
    <circle
       style="font-variation-settings:normal;vector-effect:none;fill:#006b94;fill-opacity:1;stroke:#006b94;stroke-width:0.661286;stroke-linecap:square;stroke-linejoin:round;stroke-miterlimit:10;stroke-dasharray:none;stroke-dashoffset:0;stroke-opacity:1;-inkscape-stroke:none;paint-order:fill markers stroke;stop-color:#000000"
       id="circle4"
       cx="133.96434"
       cy="89.243576"
       r="2.3299713" />
    <circle
       style="font-variation-settings:normal;vector-effect:none;fill:#006b94;fill-opacity:1;stroke:#006b94;stroke-width:0.661286;stroke-linecap:square;stroke-linejoin:round;stroke-miterlimit:10;stroke-dasharray:none;stroke-dashoffset:0;stroke-opacity:1;-inkscape-stroke:none;paint-order:fill markers stroke;stop-color:#000000"
       id="circle2"
       cx="40.081409"
       cy="89.243576"
       r="2.3299713" />
  </g>
</svg>
