<?xml version="1.0" encoding="UTF-8" standalone="no"?>
<!-- Created with Inkscape (http://www.inkscape.org/) -->

<svg
   width="56.060036mm"
   height="48.573044mm"
   viewBox="0 0 56.060036 48.573044"
   version="1.1"
   id="svg1"
   inkscape:version="1.3.2 (1:1.3.2+202311252150+091e20ef0f)"
   sodipodi:docname="Poisson_2D.svg"
   xmlns:inkscape="http://www.inkscape.org/namespaces/inkscape"
   xmlns:sodipodi="http://sodipodi.sourceforge.net/DTD/sodipodi-0.dtd"
   xmlns:xlink="http://www.w3.org/1999/xlink"
   xmlns="http://www.w3.org/2000/svg"
   xmlns:svg="http://www.w3.org/2000/svg"
   xmlns:ns1="http://wanglongqi.github.io/WriteTeX">
  <sodipodi:namedview
     id="namedview1"
     pagecolor="#ffffff"
     bordercolor="#000000"
     borderopacity="0.25"
     inkscape:showpageshadow="2"
     inkscape:pageopacity="0.0"
     inkscape:pagecheckerboard="0"
     inkscape:deskcolor="#d1d1d1"
     inkscape:document-units="mm"
     inkscape:zoom="2.897054"
     inkscape:cx="89.573754"
     inkscape:cy="55.918876"
     inkscape:window-width="1920"
     inkscape:window-height="1129"
     inkscape:window-x="1920"
     inkscape:window-y="0"
     inkscape:window-maximized="1"
     inkscape:current-layer="layer1" />
  <defs
     id="defs1">
    <marker
       style="overflow:visible"
       id="marker45"
       refX="0"
       refY="0"
       orient="auto-start-reverse"
       inkscape:stockid="Concave triangle arrow"
       markerWidth="1"
       markerHeight="1"
       viewBox="0 0 1 1"
       inkscape:isstock="true"
       inkscape:collect="always"
       preserveAspectRatio="xMidYMid">
      <path
         transform="scale(0.7)"
         d="M -2,-4 9,0 -2,4 c 2,-2.33 2,-5.66 0,-8 z"
         style="fill:context-stroke;fill-rule:evenodd;stroke:none"
         id="path45" />
    </marker>
    <linearGradient
       id="linearGradient1">
      <stop
         style="stop-color:#b71a49;stop-opacity:1;"
         offset="0.17423134"
         id="stop3" />
      <stop
         style="stop-color:#e3000f;stop-opacity:0;"
         offset="0.72767204"
         id="stop4" />
    </linearGradient>
    <linearGradient
       id="linearGradient1-1">
      <stop
         style="stop-color:#e3000f;stop-opacity:1;"
         offset="0"
         id="stop1" />
      <stop
         style="stop-color:#e3000f;stop-opacity:0;"
         offset="0.98535872"
         id="stop2" />
    </linearGradient>
    <marker
       style="overflow:visible"
       id="ConcaveTriangle"
       refX="0"
       refY="0"
       orient="auto-start-reverse"
       inkscape:stockid="Concave triangle arrow"
       markerWidth="1"
       markerHeight="1"
       viewBox="0 0 1 1"
       inkscape:isstock="true"
       inkscape:collect="always"
       preserveAspectRatio="xMidYMid">
      <path
         transform="scale(0.7)"
         d="M -2,-4 9,0 -2,4 c 2,-2.33 2,-5.66 0,-8 z"
         style="fill:context-stroke;fill-rule:evenodd;stroke:none"
         id="path18" />
    </marker>
    <marker
       style="overflow:visible"
       id="ArrowWideHeavy"
       refX="0"
       refY="0"
       orient="auto-start-reverse"
       inkscape:stockid="Wide, heavy arrow"
       markerWidth="1"
       markerHeight="1"
       viewBox="0 0 1 1"
       inkscape:isstock="true"
       inkscape:collect="always"
       preserveAspectRatio="xMidYMid">
      <path
         style="fill:context-stroke;fill-rule:evenodd;stroke:none"
         d="m 1,0 -3,3 h -2 l 3,-3 -3,-3 h 2 z"
         id="path9-7" />
    </marker>
    <radialGradient
       inkscape:collect="always"
       xlink:href="#linearGradient1-1"
       id="radialGradient2"
       cx="101.83255"
       cy="102.18708"
       fx="101.83255"
       fy="102.18708"
       r="14.160111"
       gradientUnits="userSpaceOnUse"
       spreadMethod="pad"
       gradientTransform="matrix(1.5036915,-5.599168e-5,5.474612e-5,1.5036912,-51.297777,-51.465028)" />
  </defs>
  <g
     inkscape:label="Ebene 1"
     inkscape:groupmode="layer"
     id="layer1"
     transform="translate(-78.763507,-76.683081)">
    <g
       ns1:text="$\frac{\partial u}{\partial y}=-g$"
       transform="matrix(0.44253475,0,0,0.44253475,37.547437,72.600607)"
       style="font-variation-settings:normal;opacity:1;vector-effect:none;fill:#006b94;fill-opacity:1;stroke-width:0.760001;stroke-linecap:butt;stroke-linejoin:miter;stroke-miterlimit:4;stroke-dasharray:none;stroke-dashoffset:0;stroke-opacity:1;-inkscape-stroke:none;stop-color:#000000;stop-opacity:1"
       id="g95">
      <g
         id="g94"
         style="font-variation-settings:normal;vector-effect:none;fill:#006b94;fill-opacity:1;stroke-width:0.760001;stroke-linecap:butt;stroke-linejoin:miter;stroke-miterlimit:4;stroke-dasharray:none;stroke-dashoffset:0;stroke-opacity:1;-inkscape-stroke:none;stop-color:#000000;stop-opacity:1">
        <g
           style="fill:#006b94;fill-opacity:1;font-variation-settings:normal;vector-effect:none;stroke-width:0.760001;stroke-linecap:butt;stroke-linejoin:miter;stroke-miterlimit:4;stroke-dasharray:none;stroke-dashoffset:0;stroke-opacity:1;-inkscape-stroke:none;stop-color:#000000;stop-opacity:1"
           id="g85">
          <path
             style="stroke:none;font-variation-settings:normal;vector-effect:none;fill:#006b94;fill-opacity:1;stroke-width:0.760001;stroke-linecap:butt;stroke-linejoin:miter;stroke-miterlimit:4;stroke-dasharray:none;stroke-dashoffset:0;stroke-opacity:1;-inkscape-stroke:none;stop-color:#000000;stop-opacity:1"
             d="M 3.65625 -2.359375 C 3.5625 -2.765625 3.25 -3.171875 2.59375 -3.171875 C 1.609375 -3.171875 0.8125 -2.453125 0.5625 -1.8125 C 0.515625 -1.703125 0.421875 -1.421875 0.421875 -1.140625 C 0.421875 -0.65625 0.796875 0.140625 1.875 0.140625 C 3.6875 0.140625 4.421875 -2.109375 4.421875 -3.09375 C 4.421875 -4.296875 3.640625 -4.96875 2.703125 -4.96875 C 1.5625 -4.96875 1.25 -4.0625 1.25 -3.859375 C 1.25 -3.796875 1.296875 -3.609375 1.53125 -3.609375 C 1.78125 -3.609375 1.921875 -3.8125 1.921875 -3.984375 C 1.921875 -4.171875 1.78125 -4.234375 1.65625 -4.25 C 2 -4.78125 2.578125 -4.78125 2.6875 -4.78125 C 3.21875 -4.78125 3.828125 -4.453125 3.828125 -3.453125 C 3.828125 -3.15625 3.796875 -2.90625 3.671875 -2.359375 Z M 1.890625 -0.078125 C 1.109375 -0.078125 1.015625 -0.671875 1.015625 -0.890625 C 1.015625 -1.15625 1.203125 -1.84375 1.28125 -2.015625 C 1.40625 -2.34375 1.828125 -2.984375 2.625 -2.984375 C 3.296875 -2.984375 3.515625 -2.453125 3.515625 -2.03125 C 3.515625 -1.5625 3.0625 -0.078125 1.890625 -0.078125 Z M 1.890625 -0.078125 "
             transform="translate(179.78,107.068)"
             id="path84" />
        </g>
        <g
           style="fill:#006b94;fill-opacity:1;font-variation-settings:normal;vector-effect:none;stroke-width:0.760001;stroke-linecap:butt;stroke-linejoin:miter;stroke-miterlimit:4;stroke-dasharray:none;stroke-dashoffset:0;stroke-opacity:1;-inkscape-stroke:none;stop-color:#000000;stop-opacity:1"
           id="g86">
          <path
             style="stroke:none;font-variation-settings:normal;vector-effect:none;fill:#006b94;fill-opacity:1;stroke-width:0.760001;stroke-linecap:butt;stroke-linejoin:miter;stroke-miterlimit:4;stroke-dasharray:none;stroke-dashoffset:0;stroke-opacity:1;-inkscape-stroke:none;stop-color:#000000;stop-opacity:1"
             d="M 2.953125 -1.125 C 2.90625 -0.984375 2.84375 -0.71875 2.84375 -0.71875 C 2.703125 -0.5 2.421875 -0.125 2 -0.125 C 1.515625 -0.125 1.515625 -0.578125 1.515625 -0.703125 C 1.515625 -1.109375 1.703125 -1.609375 1.90625 -2.125 C 1.953125 -2.265625 2 -2.359375 2 -2.46875 C 2 -2.84375 1.6875 -3.078125 1.34375 -3.078125 C 0.640625 -3.078125 0.328125 -2.125 0.328125 -2 C 0.328125 -1.921875 0.421875 -1.921875 0.453125 -1.921875 C 0.546875 -1.921875 0.546875 -1.953125 0.578125 -2.03125 C 0.734375 -2.59375 1.046875 -2.875 1.3125 -2.875 C 1.4375 -2.875 1.484375 -2.796875 1.484375 -2.640625 C 1.484375 -2.46875 1.4375 -2.328125 1.359375 -2.171875 C 0.984375 -1.203125 0.984375 -1 0.984375 -0.8125 C 0.984375 -0.703125 0.984375 -0.375 1.25 -0.15625 C 1.453125 0.015625 1.71875 0.0625 1.96875 0.0625 C 2.40625 0.0625 2.640625 -0.171875 2.875 -0.390625 C 3.03125 0.0625 3.484375 0.0625 3.578125 0.0625 C 3.8125 0.0625 4 -0.0625 4.125 -0.296875 C 4.28125 -0.578125 4.375 -0.96875 4.375 -1 C 4.375 -1.09375 4.28125 -1.09375 4.265625 -1.09375 C 4.15625 -1.09375 4.15625 -1.0625 4.109375 -0.875 C 4.015625 -0.546875 3.890625 -0.125 3.59375 -0.125 C 3.421875 -0.125 3.359375 -0.28125 3.359375 -0.46875 C 3.359375 -0.578125 3.421875 -0.84375 3.46875 -1.015625 C 3.515625 -1.203125 3.59375 -1.484375 3.625 -1.640625 L 3.78125 -2.265625 C 3.828125 -2.4375 3.90625 -2.75 3.90625 -2.78125 C 3.90625 -2.921875 3.796875 -3 3.671875 -3 C 3.421875 -3 3.359375 -2.796875 3.3125 -2.578125 Z M 2.953125 -1.125 "
             transform="translate(184.460117,107.068)"
             id="path85" />
        </g>
        <path
           style="fill:#006b94;stroke-width:0.760001;stroke-linecap:butt;stroke-linejoin:miter;stroke:rgb(0%, 0%, 0%);stroke-opacity:1;stroke-miterlimit:4;font-variation-settings:normal;vector-effect:none;fill-opacity:1;stroke-dasharray:none;stroke-dashoffset:0;-inkscape-stroke:none;stop-color:#000000;stop-opacity:1"
           d="M 107.78125 -36.5 L 117.175781 -36.5 "
           transform="matrix(1,0,0,-1,72,72)"
           id="path86" />
        <g
           style="fill:#006b94;fill-opacity:1;font-variation-settings:normal;vector-effect:none;stroke-width:0.760001;stroke-linecap:butt;stroke-linejoin:miter;stroke-miterlimit:4;stroke-dasharray:none;stroke-dashoffset:0;stroke-opacity:1;-inkscape-stroke:none;stop-color:#000000;stop-opacity:1"
           id="g89">
          <path
             style="stroke:none;font-variation-settings:normal;vector-effect:none;fill:#006b94;fill-opacity:1;stroke-width:0.760001;stroke-linecap:butt;stroke-linejoin:miter;stroke-miterlimit:4;stroke-dasharray:none;stroke-dashoffset:0;stroke-opacity:1;-inkscape-stroke:none;stop-color:#000000;stop-opacity:1"
             d="M 3.65625 -2.359375 C 3.5625 -2.765625 3.25 -3.171875 2.59375 -3.171875 C 1.609375 -3.171875 0.8125 -2.453125 0.5625 -1.8125 C 0.515625 -1.703125 0.421875 -1.421875 0.421875 -1.140625 C 0.421875 -0.65625 0.796875 0.140625 1.875 0.140625 C 3.6875 0.140625 4.421875 -2.109375 4.421875 -3.09375 C 4.421875 -4.296875 3.640625 -4.96875 2.703125 -4.96875 C 1.5625 -4.96875 1.25 -4.0625 1.25 -3.859375 C 1.25 -3.796875 1.296875 -3.609375 1.53125 -3.609375 C 1.78125 -3.609375 1.921875 -3.8125 1.921875 -3.984375 C 1.921875 -4.171875 1.78125 -4.234375 1.65625 -4.25 C 2 -4.78125 2.578125 -4.78125 2.6875 -4.78125 C 3.21875 -4.78125 3.828125 -4.453125 3.828125 -3.453125 C 3.828125 -3.15625 3.796875 -2.90625 3.671875 -2.359375 Z M 1.890625 -0.078125 C 1.109375 -0.078125 1.015625 -0.671875 1.015625 -0.890625 C 1.015625 -1.15625 1.203125 -1.84375 1.28125 -2.015625 C 1.40625 -2.34375 1.828125 -2.984375 2.625 -2.984375 C 3.296875 -2.984375 3.515625 -2.453125 3.515625 -2.03125 C 3.515625 -1.5625 3.0625 -0.078125 1.890625 -0.078125 Z M 1.890625 -0.078125 "
             transform="translate(179.99,114.426)"
             id="path89" />
        </g>
        <g
           style="fill:#006b94;fill-opacity:1;font-variation-settings:normal;vector-effect:none;stroke-width:0.760001;stroke-linecap:butt;stroke-linejoin:miter;stroke-miterlimit:4;stroke-dasharray:none;stroke-dashoffset:0;stroke-opacity:1;-inkscape-stroke:none;stop-color:#000000;stop-opacity:1"
           id="g90">
          <path
             style="stroke:none;font-variation-settings:normal;vector-effect:none;fill:#006b94;fill-opacity:1;stroke-width:0.760001;stroke-linecap:butt;stroke-linejoin:miter;stroke-miterlimit:4;stroke-dasharray:none;stroke-dashoffset:0;stroke-opacity:1;-inkscape-stroke:none;stop-color:#000000;stop-opacity:1"
             d="M 3.875 -2.625 C 3.90625 -2.71875 3.90625 -2.734375 3.90625 -2.78125 C 3.90625 -2.921875 3.796875 -3 3.671875 -3 C 3.59375 -3 3.46875 -2.96875 3.390625 -2.84375 C 3.359375 -2.796875 3.3125 -2.578125 3.28125 -2.4375 L 3.125 -1.859375 C 3.09375 -1.6875 2.875 -0.8125 2.84375 -0.734375 C 2.84375 -0.734375 2.53125 -0.125 2 -0.125 C 1.515625 -0.125 1.515625 -0.578125 1.515625 -0.703125 C 1.515625 -1.078125 1.671875 -1.515625 1.890625 -2.0625 C 1.96875 -2.28125 2 -2.359375 2 -2.484375 C 2 -2.8125 1.71875 -3.078125 1.34375 -3.078125 C 0.640625 -3.078125 0.328125 -2.125 0.328125 -2 C 0.328125 -1.921875 0.421875 -1.921875 0.453125 -1.921875 C 0.546875 -1.921875 0.546875 -1.953125 0.578125 -2.03125 C 0.75 -2.609375 1.046875 -2.875 1.328125 -2.875 C 1.4375 -2.875 1.5 -2.796875 1.5 -2.640625 C 1.5 -2.46875 1.4375 -2.328125 1.40625 -2.234375 C 1.0625 -1.375 1 -1.125 1 -0.8125 C 1 -0.703125 1 -0.375 1.265625 -0.140625 C 1.484375 0.03125 1.78125 0.0625 1.96875 0.0625 C 2.25 0.0625 2.5 -0.03125 2.71875 -0.25 C 2.640625 0.140625 2.5625 0.4375 2.265625 0.78125 C 2.078125 1 1.796875 1.21875 1.421875 1.21875 C 1.375 1.21875 1.046875 1.21875 0.90625 1 C 1.28125 0.953125 1.28125 0.625 1.28125 0.609375 C 1.28125 0.390625 1.078125 0.34375 1.015625 0.34375 C 0.84375 0.34375 0.609375 0.484375 0.609375 0.8125 C 0.609375 1.15625 0.9375 1.421875 1.4375 1.421875 C 2.140625 1.421875 3 0.875 3.21875 0 Z M 3.875 -2.625 "
             transform="translate(184.670117,114.426)"
             id="path90" />
        </g>
        <g
           style="fill:#006b94;fill-opacity:1;font-variation-settings:normal;vector-effect:none;stroke-width:0.760001;stroke-linecap:butt;stroke-linejoin:miter;stroke-miterlimit:4;stroke-dasharray:none;stroke-dashoffset:0;stroke-opacity:1;-inkscape-stroke:none;stop-color:#000000;stop-opacity:1"
           id="g91">
          <path
             style="stroke:none;font-variation-settings:normal;vector-effect:none;fill:#006b94;fill-opacity:1;stroke-width:0.760001;stroke-linecap:butt;stroke-linejoin:miter;stroke-miterlimit:4;stroke-dasharray:none;stroke-dashoffset:0;stroke-opacity:1;-inkscape-stroke:none;stop-color:#000000;stop-opacity:1"
             d="M 6.84375 -3.265625 C 7 -3.265625 7.1875 -3.265625 7.1875 -3.453125 C 7.1875 -3.65625 7 -3.65625 6.859375 -3.65625 L 0.890625 -3.65625 C 0.75 -3.65625 0.5625 -3.65625 0.5625 -3.453125 C 0.5625 -3.265625 0.75 -3.265625 0.890625 -3.265625 Z M 6.859375 -1.328125 C 7 -1.328125 7.1875 -1.328125 7.1875 -1.53125 C 7.1875 -1.71875 7 -1.71875 6.84375 -1.71875 L 0.890625 -1.71875 C 0.75 -1.71875 0.5625 -1.71875 0.5625 -1.53125 C 0.5625 -1.328125 0.75 -1.328125 0.890625 -1.328125 Z M 6.859375 -1.328125 "
             transform="translate(193.137,110.99)"
             id="path91" />
        </g>
        <g
           style="fill:#006b94;fill-opacity:1;font-variation-settings:normal;vector-effect:none;stroke-width:0.760001;stroke-linecap:butt;stroke-linejoin:miter;stroke-miterlimit:4;stroke-dasharray:none;stroke-dashoffset:0;stroke-opacity:1;-inkscape-stroke:none;stop-color:#000000;stop-opacity:1"
           id="g92">
          <path
             style="stroke:none;font-variation-settings:normal;vector-effect:none;fill:#006b94;fill-opacity:1;stroke-width:0.760001;stroke-linecap:butt;stroke-linejoin:miter;stroke-miterlimit:4;stroke-dasharray:none;stroke-dashoffset:0;stroke-opacity:1;-inkscape-stroke:none;stop-color:#000000;stop-opacity:1"
             d="M 6.5625 -2.296875 C 6.734375 -2.296875 6.921875 -2.296875 6.921875 -2.5 C 6.921875 -2.6875 6.734375 -2.6875 6.5625 -2.6875 L 1.171875 -2.6875 C 1 -2.6875 0.828125 -2.6875 0.828125 -2.5 C 0.828125 -2.296875 1 -2.296875 1.171875 -2.296875 Z M 6.5625 -2.296875 "
             transform="translate(203.653,110.99)"
             id="path92" />
        </g>
        <g
           style="fill:#006b94;fill-opacity:1;font-variation-settings:normal;vector-effect:none;stroke-width:0.760001;stroke-linecap:butt;stroke-linejoin:miter;stroke-miterlimit:4;stroke-dasharray:none;stroke-dashoffset:0;stroke-opacity:1;-inkscape-stroke:none;stop-color:#000000;stop-opacity:1"
           id="g93">
          <path
             style="stroke:none;font-variation-settings:normal;vector-effect:none;fill:#006b94;fill-opacity:1;stroke-width:0.760001;stroke-linecap:butt;stroke-linejoin:miter;stroke-miterlimit:4;stroke-dasharray:none;stroke-dashoffset:0;stroke-opacity:1;-inkscape-stroke:none;stop-color:#000000;stop-opacity:1"
             d="M 4.6875 -3.765625 C 4.703125 -3.8125 4.71875 -3.875 4.71875 -3.9375 C 4.71875 -4.109375 4.609375 -4.203125 4.4375 -4.203125 C 4.34375 -4.203125 4.0625 -4.140625 4.03125 -3.78125 C 3.84375 -4.140625 3.5 -4.40625 3.09375 -4.40625 C 1.96875 -4.40625 0.734375 -3.015625 0.734375 -1.578125 C 0.734375 -0.59375 1.328125 0 2.046875 0 C 2.640625 0 3.109375 -0.46875 3.203125 -0.578125 L 3.21875 -0.5625 C 3.015625 0.3125 2.890625 0.734375 2.890625 0.75 C 2.84375 0.84375 2.515625 1.828125 1.453125 1.828125 C 1.265625 1.828125 0.9375 1.8125 0.65625 1.71875 C 0.953125 1.640625 1.0625 1.375 1.0625 1.203125 C 1.0625 1.046875 0.953125 0.859375 0.6875 0.859375 C 0.46875 0.859375 0.15625 1.03125 0.15625 1.4375 C 0.15625 1.84375 0.515625 2.046875 1.46875 2.046875 C 2.71875 2.046875 3.4375 1.265625 3.59375 0.671875 Z M 3.40625 -1.28125 C 3.34375 -1.015625 3.109375 -0.765625 2.890625 -0.578125 C 2.6875 -0.40625 2.375 -0.21875 2.078125 -0.21875 C 1.578125 -0.21875 1.4375 -0.734375 1.4375 -1.140625 C 1.4375 -1.609375 1.71875 -2.796875 2 -3.296875 C 2.265625 -3.78125 2.6875 -4.1875 3.109375 -4.1875 C 3.765625 -4.1875 3.90625 -3.375 3.90625 -3.328125 C 3.90625 -3.28125 3.890625 -3.21875 3.875 -3.1875 Z M 3.40625 -1.28125 "
             transform="translate(211.402,110.99)"
             id="path93" />
        </g>
      </g>
    </g>
    <g
       ns1:text="$\frac{\partial u}{\partial y}=g$"
       transform="matrix(0.44253475,0,0,0.44253475,37.547439,33.945673)"
       style="font-variation-settings:normal;opacity:1;vector-effect:none;fill:#006b94;fill-opacity:1;stroke-width:0.760001;stroke-linecap:butt;stroke-linejoin:miter;stroke-miterlimit:4;stroke-dasharray:none;stroke-dashoffset:0;stroke-opacity:1;-inkscape-stroke:none;stop-color:#000000;stop-opacity:1"
       id="g84">
      <g
         id="g83"
         style="font-variation-settings:normal;vector-effect:none;fill:#006b94;fill-opacity:1;stroke-width:0.760001;stroke-linecap:butt;stroke-linejoin:miter;stroke-miterlimit:4;stroke-dasharray:none;stroke-dashoffset:0;stroke-opacity:1;-inkscape-stroke:none;stop-color:#000000;stop-opacity:1">
        <g
           style="fill:#006b94;fill-opacity:1;font-variation-settings:normal;vector-effect:none;stroke-width:0.760001;stroke-linecap:butt;stroke-linejoin:miter;stroke-miterlimit:4;stroke-dasharray:none;stroke-dashoffset:0;stroke-opacity:1;-inkscape-stroke:none;stop-color:#000000;stop-opacity:1"
           id="g65">
          <path
             style="stroke:none;font-variation-settings:normal;vector-effect:none;fill:#006b94;fill-opacity:1;stroke-width:0.760001;stroke-linecap:butt;stroke-linejoin:miter;stroke-miterlimit:4;stroke-dasharray:none;stroke-dashoffset:0;stroke-opacity:1;-inkscape-stroke:none;stop-color:#000000;stop-opacity:1"
             d="M 3.65625 -2.359375 C 3.5625 -2.765625 3.25 -3.171875 2.59375 -3.171875 C 1.609375 -3.171875 0.8125 -2.453125 0.5625 -1.8125 C 0.515625 -1.703125 0.421875 -1.421875 0.421875 -1.140625 C 0.421875 -0.65625 0.796875 0.140625 1.875 0.140625 C 3.6875 0.140625 4.421875 -2.109375 4.421875 -3.09375 C 4.421875 -4.296875 3.640625 -4.96875 2.703125 -4.96875 C 1.5625 -4.96875 1.25 -4.0625 1.25 -3.859375 C 1.25 -3.796875 1.296875 -3.609375 1.53125 -3.609375 C 1.78125 -3.609375 1.921875 -3.8125 1.921875 -3.984375 C 1.921875 -4.171875 1.78125 -4.234375 1.65625 -4.25 C 2 -4.78125 2.578125 -4.78125 2.6875 -4.78125 C 3.21875 -4.78125 3.828125 -4.453125 3.828125 -3.453125 C 3.828125 -3.15625 3.796875 -2.90625 3.671875 -2.359375 Z M 1.890625 -0.078125 C 1.109375 -0.078125 1.015625 -0.671875 1.015625 -0.890625 C 1.015625 -1.15625 1.203125 -1.84375 1.28125 -2.015625 C 1.40625 -2.34375 1.828125 -2.984375 2.625 -2.984375 C 3.296875 -2.984375 3.515625 -2.453125 3.515625 -2.03125 C 3.515625 -1.5625 3.0625 -0.078125 1.890625 -0.078125 Z M 1.890625 -0.078125 "
             transform="translate(179.78,107.068)"
             id="path65" />
        </g>
        <g
           style="fill:#006b94;fill-opacity:1;font-variation-settings:normal;vector-effect:none;stroke-width:0.760001;stroke-linecap:butt;stroke-linejoin:miter;stroke-miterlimit:4;stroke-dasharray:none;stroke-dashoffset:0;stroke-opacity:1;-inkscape-stroke:none;stop-color:#000000;stop-opacity:1"
           id="g66">
          <path
             style="stroke:none;font-variation-settings:normal;vector-effect:none;fill:#006b94;fill-opacity:1;stroke-width:0.760001;stroke-linecap:butt;stroke-linejoin:miter;stroke-miterlimit:4;stroke-dasharray:none;stroke-dashoffset:0;stroke-opacity:1;-inkscape-stroke:none;stop-color:#000000;stop-opacity:1"
             d="M 2.953125 -1.125 C 2.90625 -0.984375 2.84375 -0.71875 2.84375 -0.71875 C 2.703125 -0.5 2.421875 -0.125 2 -0.125 C 1.515625 -0.125 1.515625 -0.578125 1.515625 -0.703125 C 1.515625 -1.109375 1.703125 -1.609375 1.90625 -2.125 C 1.953125 -2.265625 2 -2.359375 2 -2.46875 C 2 -2.84375 1.6875 -3.078125 1.34375 -3.078125 C 0.640625 -3.078125 0.328125 -2.125 0.328125 -2 C 0.328125 -1.921875 0.421875 -1.921875 0.453125 -1.921875 C 0.546875 -1.921875 0.546875 -1.953125 0.578125 -2.03125 C 0.734375 -2.59375 1.046875 -2.875 1.3125 -2.875 C 1.4375 -2.875 1.484375 -2.796875 1.484375 -2.640625 C 1.484375 -2.46875 1.4375 -2.328125 1.359375 -2.171875 C 0.984375 -1.203125 0.984375 -1 0.984375 -0.8125 C 0.984375 -0.703125 0.984375 -0.375 1.25 -0.15625 C 1.453125 0.015625 1.71875 0.0625 1.96875 0.0625 C 2.40625 0.0625 2.640625 -0.171875 2.875 -0.390625 C 3.03125 0.0625 3.484375 0.0625 3.578125 0.0625 C 3.8125 0.0625 4 -0.0625 4.125 -0.296875 C 4.28125 -0.578125 4.375 -0.96875 4.375 -1 C 4.375 -1.09375 4.28125 -1.09375 4.265625 -1.09375 C 4.15625 -1.09375 4.15625 -1.0625 4.109375 -0.875 C 4.015625 -0.546875 3.890625 -0.125 3.59375 -0.125 C 3.421875 -0.125 3.359375 -0.28125 3.359375 -0.46875 C 3.359375 -0.578125 3.421875 -0.84375 3.46875 -1.015625 C 3.515625 -1.203125 3.59375 -1.484375 3.625 -1.640625 L 3.78125 -2.265625 C 3.828125 -2.4375 3.90625 -2.75 3.90625 -2.78125 C 3.90625 -2.921875 3.796875 -3 3.671875 -3 C 3.421875 -3 3.359375 -2.796875 3.3125 -2.578125 Z M 2.953125 -1.125 "
             transform="translate(184.460117,107.068)"
             id="path66" />
        </g>
        <path
           style="fill:#006b94;stroke-width:0.760001;stroke-linecap:butt;stroke-linejoin:miter;stroke:rgb(0%, 0%, 0%);stroke-opacity:1;stroke-miterlimit:4;font-variation-settings:normal;vector-effect:none;fill-opacity:1;stroke-dasharray:none;stroke-dashoffset:0;-inkscape-stroke:none;stop-color:#000000;stop-opacity:1"
           d="M 107.78125 -36.5 L 117.175781 -36.5 "
           transform="matrix(1,0,0,-1,72,72)"
           id="path67" />
        <g
           style="fill:#006b94;fill-opacity:1;font-variation-settings:normal;vector-effect:none;stroke-width:0.760001;stroke-linecap:butt;stroke-linejoin:miter;stroke-miterlimit:4;stroke-dasharray:none;stroke-dashoffset:0;stroke-opacity:1;-inkscape-stroke:none;stop-color:#000000;stop-opacity:1"
           id="g79">
          <path
             style="stroke:none;font-variation-settings:normal;vector-effect:none;fill:#006b94;fill-opacity:1;stroke-width:0.760001;stroke-linecap:butt;stroke-linejoin:miter;stroke-miterlimit:4;stroke-dasharray:none;stroke-dashoffset:0;stroke-opacity:1;-inkscape-stroke:none;stop-color:#000000;stop-opacity:1"
             d="M 3.65625 -2.359375 C 3.5625 -2.765625 3.25 -3.171875 2.59375 -3.171875 C 1.609375 -3.171875 0.8125 -2.453125 0.5625 -1.8125 C 0.515625 -1.703125 0.421875 -1.421875 0.421875 -1.140625 C 0.421875 -0.65625 0.796875 0.140625 1.875 0.140625 C 3.6875 0.140625 4.421875 -2.109375 4.421875 -3.09375 C 4.421875 -4.296875 3.640625 -4.96875 2.703125 -4.96875 C 1.5625 -4.96875 1.25 -4.0625 1.25 -3.859375 C 1.25 -3.796875 1.296875 -3.609375 1.53125 -3.609375 C 1.78125 -3.609375 1.921875 -3.8125 1.921875 -3.984375 C 1.921875 -4.171875 1.78125 -4.234375 1.65625 -4.25 C 2 -4.78125 2.578125 -4.78125 2.6875 -4.78125 C 3.21875 -4.78125 3.828125 -4.453125 3.828125 -3.453125 C 3.828125 -3.15625 3.796875 -2.90625 3.671875 -2.359375 Z M 1.890625 -0.078125 C 1.109375 -0.078125 1.015625 -0.671875 1.015625 -0.890625 C 1.015625 -1.15625 1.203125 -1.84375 1.28125 -2.015625 C 1.40625 -2.34375 1.828125 -2.984375 2.625 -2.984375 C 3.296875 -2.984375 3.515625 -2.453125 3.515625 -2.03125 C 3.515625 -1.5625 3.0625 -0.078125 1.890625 -0.078125 Z M 1.890625 -0.078125 "
             transform="translate(179.99,114.426)"
             id="path77" />
        </g>
        <g
           style="fill:#006b94;fill-opacity:1;font-variation-settings:normal;vector-effect:none;stroke-width:0.760001;stroke-linecap:butt;stroke-linejoin:miter;stroke-miterlimit:4;stroke-dasharray:none;stroke-dashoffset:0;stroke-opacity:1;-inkscape-stroke:none;stop-color:#000000;stop-opacity:1"
           id="g80">
          <path
             style="stroke:none;font-variation-settings:normal;vector-effect:none;fill:#006b94;fill-opacity:1;stroke-width:0.760001;stroke-linecap:butt;stroke-linejoin:miter;stroke-miterlimit:4;stroke-dasharray:none;stroke-dashoffset:0;stroke-opacity:1;-inkscape-stroke:none;stop-color:#000000;stop-opacity:1"
             d="M 3.875 -2.625 C 3.90625 -2.71875 3.90625 -2.734375 3.90625 -2.78125 C 3.90625 -2.921875 3.796875 -3 3.671875 -3 C 3.59375 -3 3.46875 -2.96875 3.390625 -2.84375 C 3.359375 -2.796875 3.3125 -2.578125 3.28125 -2.4375 L 3.125 -1.859375 C 3.09375 -1.6875 2.875 -0.8125 2.84375 -0.734375 C 2.84375 -0.734375 2.53125 -0.125 2 -0.125 C 1.515625 -0.125 1.515625 -0.578125 1.515625 -0.703125 C 1.515625 -1.078125 1.671875 -1.515625 1.890625 -2.0625 C 1.96875 -2.28125 2 -2.359375 2 -2.484375 C 2 -2.8125 1.71875 -3.078125 1.34375 -3.078125 C 0.640625 -3.078125 0.328125 -2.125 0.328125 -2 C 0.328125 -1.921875 0.421875 -1.921875 0.453125 -1.921875 C 0.546875 -1.921875 0.546875 -1.953125 0.578125 -2.03125 C 0.75 -2.609375 1.046875 -2.875 1.328125 -2.875 C 1.4375 -2.875 1.5 -2.796875 1.5 -2.640625 C 1.5 -2.46875 1.4375 -2.328125 1.40625 -2.234375 C 1.0625 -1.375 1 -1.125 1 -0.8125 C 1 -0.703125 1 -0.375 1.265625 -0.140625 C 1.484375 0.03125 1.78125 0.0625 1.96875 0.0625 C 2.25 0.0625 2.5 -0.03125 2.71875 -0.25 C 2.640625 0.140625 2.5625 0.4375 2.265625 0.78125 C 2.078125 1 1.796875 1.21875 1.421875 1.21875 C 1.375 1.21875 1.046875 1.21875 0.90625 1 C 1.28125 0.953125 1.28125 0.625 1.28125 0.609375 C 1.28125 0.390625 1.078125 0.34375 1.015625 0.34375 C 0.84375 0.34375 0.609375 0.484375 0.609375 0.8125 C 0.609375 1.15625 0.9375 1.421875 1.4375 1.421875 C 2.140625 1.421875 3 0.875 3.21875 0 Z M 3.875 -2.625 "
             transform="translate(184.670117,114.426)"
             id="path79" />
        </g>
        <g
           style="fill:#006b94;fill-opacity:1;font-variation-settings:normal;vector-effect:none;stroke-width:0.760001;stroke-linecap:butt;stroke-linejoin:miter;stroke-miterlimit:4;stroke-dasharray:none;stroke-dashoffset:0;stroke-opacity:1;-inkscape-stroke:none;stop-color:#000000;stop-opacity:1"
           id="g81">
          <path
             style="stroke:none;font-variation-settings:normal;vector-effect:none;fill:#006b94;fill-opacity:1;stroke-width:0.760001;stroke-linecap:butt;stroke-linejoin:miter;stroke-miterlimit:4;stroke-dasharray:none;stroke-dashoffset:0;stroke-opacity:1;-inkscape-stroke:none;stop-color:#000000;stop-opacity:1"
             d="M 6.84375 -3.265625 C 7 -3.265625 7.1875 -3.265625 7.1875 -3.453125 C 7.1875 -3.65625 7 -3.65625 6.859375 -3.65625 L 0.890625 -3.65625 C 0.75 -3.65625 0.5625 -3.65625 0.5625 -3.453125 C 0.5625 -3.265625 0.75 -3.265625 0.890625 -3.265625 Z M 6.859375 -1.328125 C 7 -1.328125 7.1875 -1.328125 7.1875 -1.53125 C 7.1875 -1.71875 7 -1.71875 6.84375 -1.71875 L 0.890625 -1.71875 C 0.75 -1.71875 0.5625 -1.71875 0.5625 -1.53125 C 0.5625 -1.328125 0.75 -1.328125 0.890625 -1.328125 Z M 6.859375 -1.328125 "
             transform="translate(193.137,110.99)"
             id="path80" />
        </g>
        <g
           style="fill:#006b94;fill-opacity:1;font-variation-settings:normal;vector-effect:none;stroke-width:0.760001;stroke-linecap:butt;stroke-linejoin:miter;stroke-miterlimit:4;stroke-dasharray:none;stroke-dashoffset:0;stroke-opacity:1;-inkscape-stroke:none;stop-color:#000000;stop-opacity:1"
           id="g82">
          <path
             style="stroke:none;font-variation-settings:normal;vector-effect:none;fill:#006b94;fill-opacity:1;stroke-width:0.760001;stroke-linecap:butt;stroke-linejoin:miter;stroke-miterlimit:4;stroke-dasharray:none;stroke-dashoffset:0;stroke-opacity:1;-inkscape-stroke:none;stop-color:#000000;stop-opacity:1"
             d="M 4.6875 -3.765625 C 4.703125 -3.8125 4.71875 -3.875 4.71875 -3.9375 C 4.71875 -4.109375 4.609375 -4.203125 4.4375 -4.203125 C 4.34375 -4.203125 4.0625 -4.140625 4.03125 -3.78125 C 3.84375 -4.140625 3.5 -4.40625 3.09375 -4.40625 C 1.96875 -4.40625 0.734375 -3.015625 0.734375 -1.578125 C 0.734375 -0.59375 1.328125 0 2.046875 0 C 2.640625 0 3.109375 -0.46875 3.203125 -0.578125 L 3.21875 -0.5625 C 3.015625 0.3125 2.890625 0.734375 2.890625 0.75 C 2.84375 0.84375 2.515625 1.828125 1.453125 1.828125 C 1.265625 1.828125 0.9375 1.8125 0.65625 1.71875 C 0.953125 1.640625 1.0625 1.375 1.0625 1.203125 C 1.0625 1.046875 0.953125 0.859375 0.6875 0.859375 C 0.46875 0.859375 0.15625 1.03125 0.15625 1.4375 C 0.15625 1.84375 0.515625 2.046875 1.46875 2.046875 C 2.71875 2.046875 3.4375 1.265625 3.59375 0.671875 Z M 3.40625 -1.28125 C 3.34375 -1.015625 3.109375 -0.765625 2.890625 -0.578125 C 2.6875 -0.40625 2.375 -0.21875 2.078125 -0.21875 C 1.578125 -0.21875 1.4375 -0.734375 1.4375 -1.140625 C 1.4375 -1.609375 1.71875 -2.796875 2 -3.296875 C 2.265625 -3.78125 2.6875 -4.1875 3.109375 -4.1875 C 3.765625 -4.1875 3.90625 -3.375 3.90625 -3.328125 C 3.90625 -3.28125 3.890625 -3.21875 3.875 -3.1875 Z M 3.40625 -1.28125 "
             transform="translate(203.653,110.99)"
             id="path81" />
        </g>
      </g>
    </g>
    <path
       style="font-variation-settings:normal;opacity:1;vector-effect:none;fill:none;fill-opacity:1;stroke:#666666;stroke-width:0.282;stroke-linecap:butt;stroke-linejoin:miter;stroke-miterlimit:4;stroke-dasharray:none;stroke-dashoffset:0;stroke-opacity:1;-inkscape-stroke:none;marker-end:url(#ConcaveTriangle);paint-order:fill markers stroke;stop-color:#000000;stop-opacity:1"
       d="m 78.763782,102.27272 44.361208,-0.0864"
       id="path29"
       sodipodi:nodetypes="cc" />
    <path
       style="font-variation-settings:normal;opacity:1;vector-effect:none;fill:none;fill-opacity:1;stroke:#666666;stroke-width:0.282;stroke-linecap:butt;stroke-linejoin:miter;stroke-miterlimit:4;stroke-dasharray:none;stroke-dashoffset:0;stroke-opacity:1;-inkscape-stroke:none;marker-end:url(#ConcaveTriangle);paint-order:fill markers stroke;stop-color:#000000;stop-opacity:1"
       d="m 101.91818,125.25585 -0.0864,-44.361204"
       id="path1"
       sodipodi:nodetypes="cc" />
    <rect
       style="fill:url(#radialGradient2);stroke:#000000;stroke-width:0.352778;stroke-dasharray:none;paint-order:fill markers stroke"
       id="rect1"
       width="27.967443"
       height="27.967443"
       x="87.848824"
       y="88.203362" />
    <g
       id="g6"
       style="font-variation-settings:normal;opacity:1;vector-effect:none;fill:#000000;fill-opacity:1;stroke:#000000;stroke-width:0.260129;stroke-linecap:butt;stroke-linejoin:miter;stroke-miterlimit:4;stroke-dasharray:none;stroke-dashoffset:0;stroke-opacity:1;-inkscape-stroke:none;paint-order:fill markers stroke;stop-color:#000000;stop-opacity:1">
      <path
         style="font-variation-settings:normal;vector-effect:none;fill:#000000;fill-opacity:1;stroke:#000000;stroke-width:0.260129;stroke-linecap:butt;stroke-linejoin:miter;stroke-miterlimit:4;stroke-dasharray:none;stroke-dashoffset:0;stroke-opacity:1;-inkscape-stroke:none;paint-order:fill markers stroke;stop-color:#000000;stop-opacity:1"
         d="m 87.848824,88.559511 -3.492776,3.492776"
         id="path10" />
      <path
         style="font-variation-settings:normal;vector-effect:none;fill:#000000;fill-opacity:1;stroke:#000000;stroke-width:0.260129;stroke-linecap:butt;stroke-linejoin:miter;stroke-miterlimit:4;stroke-dasharray:none;stroke-dashoffset:0;stroke-opacity:1;-inkscape-stroke:none;paint-order:fill markers stroke;stop-color:#000000;stop-opacity:1"
         d="m 87.848824,92.338986 -3.492776,3.492779"
         id="path11" />
      <path
         style="font-variation-settings:normal;vector-effect:none;fill:#000000;fill-opacity:1;stroke:#000000;stroke-width:0.260129;stroke-linecap:butt;stroke-linejoin:miter;stroke-miterlimit:4;stroke-dasharray:none;stroke-dashoffset:0;stroke-opacity:1;-inkscape-stroke:none;paint-order:fill markers stroke;stop-color:#000000;stop-opacity:1"
         d="m 87.848824,96.118464 -3.492776,3.492767"
         id="path12" />
      <path
         style="font-variation-settings:normal;vector-effect:none;fill:#000000;fill-opacity:1;stroke:#000000;stroke-width:0.260129;stroke-linecap:butt;stroke-linejoin:miter;stroke-miterlimit:4;stroke-dasharray:none;stroke-dashoffset:0;stroke-opacity:1;-inkscape-stroke:none;paint-order:fill markers stroke;stop-color:#000000;stop-opacity:1"
         d="m 87.848824,99.897931 -3.492776,3.492779"
         id="path13" />
      <path
         style="font-variation-settings:normal;vector-effect:none;fill:#000000;fill-opacity:1;stroke:#000000;stroke-width:0.260129;stroke-linecap:butt;stroke-linejoin:miter;stroke-miterlimit:4;stroke-dasharray:none;stroke-dashoffset:0;stroke-opacity:1;-inkscape-stroke:none;paint-order:fill markers stroke;stop-color:#000000;stop-opacity:1"
         d="m 87.848824,103.67741 -3.492776,3.49276"
         id="path2" />
      <path
         style="font-variation-settings:normal;vector-effect:none;fill:#000000;fill-opacity:1;stroke:#000000;stroke-width:0.260129;stroke-linecap:butt;stroke-linejoin:miter;stroke-miterlimit:4;stroke-dasharray:none;stroke-dashoffset:0;stroke-opacity:1;-inkscape-stroke:none;paint-order:fill markers stroke;stop-color:#000000;stop-opacity:1"
         d="m 87.848824,107.45687 -3.492776,3.49279"
         id="path3" />
      <path
         style="font-variation-settings:normal;vector-effect:none;fill:#000000;fill-opacity:1;stroke:#000000;stroke-width:0.260129;stroke-linecap:butt;stroke-linejoin:miter;stroke-miterlimit:4;stroke-dasharray:none;stroke-dashoffset:0;stroke-opacity:1;-inkscape-stroke:none;paint-order:fill markers stroke;stop-color:#000000;stop-opacity:1"
         d="m 87.848824,111.23636 -3.492776,3.49276"
         id="path4" />
      <path
         style="font-variation-settings:normal;vector-effect:none;fill:#000000;fill-opacity:1;stroke:#000000;stroke-width:0.260129;stroke-linecap:butt;stroke-linejoin:miter;stroke-miterlimit:4;stroke-dasharray:none;stroke-dashoffset:0;stroke-opacity:1;-inkscape-stroke:none;paint-order:fill markers stroke;stop-color:#000000;stop-opacity:1"
         d="m 87.848824,115.01582 -3.492776,3.49277"
         id="path5" />
    </g>
    <g
       id="g19"
       transform="translate(31.460219,-2.6028598)"
       style="font-variation-settings:normal;opacity:1;vector-effect:none;fill:#000000;fill-opacity:1;stroke:#000000;stroke-width:0.260129;stroke-linecap:butt;stroke-linejoin:miter;stroke-miterlimit:4;stroke-dasharray:none;stroke-dashoffset:0;stroke-opacity:1;-inkscape-stroke:none;paint-order:fill markers stroke;stop-color:#000000;stop-opacity:1">
      <path
         style="font-variation-settings:normal;vector-effect:none;fill:#000000;fill-opacity:1;stroke:#000000;stroke-width:0.260129;stroke-linecap:butt;stroke-linejoin:miter;stroke-miterlimit:4;stroke-dasharray:none;stroke-dashoffset:0;stroke-opacity:1;-inkscape-stroke:none;paint-order:fill markers stroke;stop-color:#000000;stop-opacity:1"
         d="m 87.848824,88.559511 -3.492776,3.492776"
         id="path7" />
      <path
         style="font-variation-settings:normal;vector-effect:none;fill:#000000;fill-opacity:1;stroke:#000000;stroke-width:0.260129;stroke-linecap:butt;stroke-linejoin:miter;stroke-miterlimit:4;stroke-dasharray:none;stroke-dashoffset:0;stroke-opacity:1;-inkscape-stroke:none;paint-order:fill markers stroke;stop-color:#000000;stop-opacity:1"
         d="m 87.848824,92.338986 -3.492776,3.492779"
         id="path8" />
      <path
         style="font-variation-settings:normal;vector-effect:none;fill:#000000;fill-opacity:1;stroke:#000000;stroke-width:0.260129;stroke-linecap:butt;stroke-linejoin:miter;stroke-miterlimit:4;stroke-dasharray:none;stroke-dashoffset:0;stroke-opacity:1;-inkscape-stroke:none;paint-order:fill markers stroke;stop-color:#000000;stop-opacity:1"
         d="m 87.848824,96.118464 -3.492776,3.492767"
         id="path9" />
      <path
         style="font-variation-settings:normal;vector-effect:none;fill:#000000;fill-opacity:1;stroke:#000000;stroke-width:0.260129;stroke-linecap:butt;stroke-linejoin:miter;stroke-miterlimit:4;stroke-dasharray:none;stroke-dashoffset:0;stroke-opacity:1;-inkscape-stroke:none;paint-order:fill markers stroke;stop-color:#000000;stop-opacity:1"
         d="m 87.848824,99.897931 -3.492776,3.492779"
         id="path14" />
      <path
         style="font-variation-settings:normal;vector-effect:none;fill:#000000;fill-opacity:1;stroke:#000000;stroke-width:0.260129;stroke-linecap:butt;stroke-linejoin:miter;stroke-miterlimit:4;stroke-dasharray:none;stroke-dashoffset:0;stroke-opacity:1;-inkscape-stroke:none;paint-order:fill markers stroke;stop-color:#000000;stop-opacity:1"
         d="m 87.848824,103.67741 -3.492776,3.49276"
         id="path15" />
      <path
         style="font-variation-settings:normal;vector-effect:none;fill:#000000;fill-opacity:1;stroke:#000000;stroke-width:0.260129;stroke-linecap:butt;stroke-linejoin:miter;stroke-miterlimit:4;stroke-dasharray:none;stroke-dashoffset:0;stroke-opacity:1;-inkscape-stroke:none;paint-order:fill markers stroke;stop-color:#000000;stop-opacity:1"
         d="m 87.848824,107.45687 -3.492776,3.49279"
         id="path16" />
      <path
         style="font-variation-settings:normal;vector-effect:none;fill:#000000;fill-opacity:1;stroke:#000000;stroke-width:0.260129;stroke-linecap:butt;stroke-linejoin:miter;stroke-miterlimit:4;stroke-dasharray:none;stroke-dashoffset:0;stroke-opacity:1;-inkscape-stroke:none;paint-order:fill markers stroke;stop-color:#000000;stop-opacity:1"
         d="m 87.848824,111.23636 -3.492776,3.49276"
         id="path17" />
      <path
         style="font-variation-settings:normal;vector-effect:none;fill:#000000;fill-opacity:1;stroke:#000000;stroke-width:0.260129;stroke-linecap:butt;stroke-linejoin:miter;stroke-miterlimit:4;stroke-dasharray:none;stroke-dashoffset:0;stroke-opacity:1;-inkscape-stroke:none;paint-order:fill markers stroke;stop-color:#000000;stop-opacity:1"
         d="m 87.848824,115.01582 -3.492776,3.49277"
         id="path19" />
    </g>
    <path
       style="fill:#006b94;stroke:#006b94;stroke-width:0.423333;stroke-dasharray:none;marker-end:url(#ArrowWideHeavy);paint-order:fill markers stroke"
       d="M 89.789102,87.497806 V 83.864187"
       id="path1-2"
       sodipodi:nodetypes="cc" />
    <path
       style="fill:#006b94;stroke:#006b94;stroke-width:0.423333;stroke-dasharray:none;marker-end:url(#ArrowWideHeavy);paint-order:fill markers stroke"
       d="M 94.60648,87.497806 V 83.864187"
       id="path20"
       sodipodi:nodetypes="cc" />
    <path
       style="fill:#006b94;stroke:#006b94;stroke-width:0.423333;stroke-dasharray:none;marker-end:url(#ArrowWideHeavy);paint-order:fill markers stroke"
       d="M 113.87599,87.497806 V 83.864187"
       id="path21"
       sodipodi:nodetypes="cc" />
    <path
       style="fill:#006b94;stroke:#006b94;stroke-width:0.423333;stroke-dasharray:none;marker-end:url(#ArrowWideHeavy);paint-order:fill markers stroke"
       d="M 99.423857,87.497806 V 83.864187"
       id="path22"
       sodipodi:nodetypes="cc" />
    <path
       style="fill:#006b94;stroke:#006b94;stroke-width:0.423333;stroke-dasharray:none;marker-end:url(#ArrowWideHeavy);paint-order:fill markers stroke"
       d="M 104.24123,87.497806 V 83.864187"
       id="path23"
       sodipodi:nodetypes="cc" />
    <path
       style="fill:#006b94;stroke:#006b94;stroke-width:0.423333;stroke-dasharray:none;marker-end:url(#ArrowWideHeavy);paint-order:fill markers stroke"
       d="M 109.05861,87.497806 V 83.864187"
       id="path24"
       sodipodi:nodetypes="cc" />
    <path
       style="fill:#006b94;stroke:#006b94;stroke-width:0.423333;stroke-dasharray:none;marker-end:url(#ArrowWideHeavy);paint-order:fill markers stroke"
       d="m 89.789102,116.87636 v 3.63362"
       id="path25"
       sodipodi:nodetypes="cc" />
    <path
       style="fill:#006b94;stroke:#006b94;stroke-width:0.423333;stroke-dasharray:none;marker-end:url(#ArrowWideHeavy);paint-order:fill markers stroke"
       d="m 94.60648,116.87636 v 3.63362"
       id="path26"
       sodipodi:nodetypes="cc" />
    <path
       style="fill:#006b94;stroke:#006b94;stroke-width:0.423333;stroke-dasharray:none;marker-end:url(#ArrowWideHeavy);paint-order:fill markers stroke"
       d="m 113.87599,116.87636 v 3.63362"
       id="path27"
       sodipodi:nodetypes="cc" />
    <path
       style="fill:#006b94;stroke:#006b94;stroke-width:0.423333;stroke-dasharray:none;marker-end:url(#ArrowWideHeavy);paint-order:fill markers stroke"
       d="m 99.423857,116.87636 v 3.63362"
       id="path28"
       sodipodi:nodetypes="cc" />
    <path
       style="fill:#006b94;stroke:#006b94;stroke-width:0.423333;stroke-dasharray:none;marker-end:url(#ArrowWideHeavy);paint-order:fill markers stroke"
       d="m 104.24123,116.87636 v 3.63362"
       id="path30"
       sodipodi:nodetypes="cc" />
    <path
       style="fill:#006b94;stroke:#006b94;stroke-width:0.423333;stroke-dasharray:none;marker-end:url(#ArrowWideHeavy);paint-order:fill markers stroke"
       d="m 109.05861,116.87636 v 3.63362"
       id="path31"
       sodipodi:nodetypes="cc" />
    <path
       style="font-variation-settings:normal;opacity:1;fill:#006b94;fill-opacity:1;stroke:#006b94;stroke-width:0.336197;stroke-linecap:butt;stroke-linejoin:miter;stroke-miterlimit:4;stroke-dasharray:none;stroke-dashoffset:0;stroke-opacity:1;paint-order:fill markers stroke"
       d="m 117.10689,120.61563 h 5.7927"
       id="path87" />
    <path
       style="font-variation-settings:normal;opacity:1;fill:#006b94;fill-opacity:1;stroke:#006b94;stroke-width:0.336197;stroke-linecap:butt;stroke-linejoin:miter;stroke-miterlimit:4;stroke-dasharray:none;stroke-dashoffset:0;stroke-opacity:1;paint-order:fill markers stroke"
       d="m 117.10689,81.960693 h 5.7927"
       id="path88" />
    <g
       ns1:text="$f(x)$"
       transform="matrix(0.44253475,0,0,0.44253475,44.224735,61.496701)"
       id="g44"
       style="fill:#e3000f;fill-opacity:1">
      <g
         id="g42"
         style="fill:#e3000f;fill-opacity:1">
        <g
           style="fill:#e3000f;fill-opacity:1"
           id="g37">
          <path
             style="fill:#e3000f;fill-opacity:1;stroke:none"
             d="m 3.65625,-3.984375 h 0.859375 c 0.203125,0 0.296875,0 0.296875,-0.203125 0,-0.109375 -0.09375,-0.109375 -0.265625,-0.109375 H 3.71875 L 3.921875,-5.4375 c 0.046875,-0.203125 0.1875,-0.90625 0.25,-1.03125 0.078125,-0.1875 0.25,-0.34375 0.46875,-0.34375 0.03125,0 0.296875,0 0.484375,0.1875 -0.4375,0.03125 -0.546875,0.390625 -0.546875,0.53125 0,0.234375 0.1875,0.359375 0.375,0.359375 C 5.21875,-5.734375 5.5,-5.96875 5.5,-6.34375 c 0,-0.453125 -0.453125,-0.6875 -0.859375,-0.6875 -0.34375,0 -0.96875,0.1875 -1.265625,1.171875 -0.0625,0.203125 -0.09375,0.3125 -0.328125,1.5625 h -0.6875 c -0.203125,0 -0.3125,0 -0.3125,0.1875 0,0.125 0.09375,0.125 0.28125,0.125 h 0.65625 L 2.25,-0.046875 c -0.1875,0.96875 -0.359375,1.875 -0.875,1.875 -0.046875,0 -0.28125,0 -0.484375,-0.1875 C 1.359375,1.609375 1.453125,1.25 1.453125,1.109375 1.453125,0.875 1.265625,0.75 1.078125,0.75 0.8125,0.75 0.53125,0.984375 0.53125,1.359375 c 0,0.4375 0.4375,0.6875 0.84375,0.6875 0.546875,0 0.953125,-0.59375 1.125,-0.96875 0.328125,-0.625 0.546875,-1.828125 0.5625,-1.90625 z m 0,0"
             transform="translate(178.585,110.99)"
             id="path37" />
        </g>
        <g
           style="fill:#e3000f;fill-opacity:1"
           id="g39">
          <path
             style="fill:#e3000f;fill-opacity:1;stroke:none"
             d="m 3.296875,2.390625 c 0,-0.03125 0,-0.046875 -0.171875,-0.21875 C 1.890625,0.921875 1.5625,-0.96875 1.5625,-2.5 c 0,-1.734375 0.375,-3.46875 1.609375,-4.703125 0.125,-0.125 0.125,-0.140625 0.125,-0.171875 0,-0.078125 -0.03125,-0.109375 -0.09375,-0.109375 -0.109375,0 -1,0.6875 -1.59375,1.953125 -0.5,1.09375 -0.625,2.203125 -0.625,3.03125 0,0.78125 0.109375,1.984375 0.65625,3.125 C 2.25,1.84375 3.09375,2.5 3.203125,2.5 c 0.0625,0 0.09375,-0.03125 0.09375,-0.109375 z m 0,0"
             transform="translate(184.534,110.99)"
             id="path39" />
        </g>
        <g
           style="fill:#e3000f;fill-opacity:1"
           id="g40">
          <path
             style="fill:#e3000f;fill-opacity:1;stroke:none"
             d="M 3.328125,-3.015625 C 3.390625,-3.265625 3.625,-4.1875 4.3125,-4.1875 c 0.046875,0 0.296875,0 0.5,0.125 C 4.53125,-4 4.34375,-3.765625 4.34375,-3.515625 c 0,0.15625 0.109375,0.34375 0.375,0.34375 0.21875,0 0.53125,-0.171875 0.53125,-0.578125 0,-0.515625 -0.578125,-0.65625 -0.921875,-0.65625 -0.578125,0 -0.921875,0.53125 -1.046875,0.75 -0.25,-0.65625 -0.78125,-0.75 -1.078125,-0.75 -1.03125,0 -1.609375,1.28125 -1.609375,1.53125 0,0.109375 0.109375,0.109375 0.125,0.109375 0.078125,0 0.109375,-0.03125 0.125,-0.109375 0.34375,-1.0625 1,-1.3125 1.34375,-1.3125 0.1875,0 0.53125,0.09375 0.53125,0.671875 0,0.3125 -0.171875,0.96875 -0.53125,2.375 -0.15625,0.609375 -0.515625,1.03125 -0.953125,1.03125 -0.0625,0 -0.28125,0 -0.5,-0.125 0.25,-0.0625 0.46875,-0.265625 0.46875,-0.546875 0,-0.265625 -0.21875,-0.34375 -0.359375,-0.34375 -0.3125,0 -0.546875,0.25 -0.546875,0.578125 0,0.453125 0.484375,0.65625 0.921875,0.65625 0.671875,0 1.03125,-0.703125 1.046875,-0.75 0.125,0.359375 0.484375,0.75 1.078125,0.75 1.03125,0 1.59375,-1.28125 1.59375,-1.53125 0,-0.109375 -0.078125,-0.109375 -0.109375,-0.109375 -0.09375,0 -0.109375,0.046875 -0.140625,0.109375 -0.328125,1.078125 -1,1.3125 -1.3125,1.3125 -0.390625,0 -0.546875,-0.3125 -0.546875,-0.65625 0,-0.21875 0.046875,-0.4375 0.15625,-0.875 z m 0,0"
             transform="translate(188.409,110.99)"
             id="path40" />
        </g>
        <g
           style="fill:#e3000f;fill-opacity:1"
           id="g41">
          <path
             style="fill:#e3000f;fill-opacity:1;stroke:none"
             d="m 2.875,-2.5 c 0,-0.765625 -0.109375,-1.96875 -0.65625,-3.109375 -0.59375,-1.21875 -1.453125,-1.875 -1.546875,-1.875 -0.0625,0 -0.109375,0.046875 -0.109375,0.109375 0,0.03125 0,0.046875 0.1875,0.234375 0.984375,0.984375 1.546875,2.5625 1.546875,4.640625 0,1.71875 -0.359375,3.46875 -1.59375,4.71875 C 0.5625,2.34375 0.5625,2.359375 0.5625,2.390625 0.5625,2.453125 0.609375,2.5 0.671875,2.5 0.765625,2.5 1.671875,1.8125 2.25,0.546875 2.765625,-0.546875 2.875,-1.65625 2.875,-2.5 Z m 0,0"
             transform="translate(194.103,110.99)"
             id="path41" />
        </g>
      </g>
    </g>
    <path
       style="fill:none;fill-opacity:1;stroke:#e3000f;stroke-width:0.336;stroke-dasharray:none;stroke-opacity:1;marker-end:url(#marker45);paint-order:fill markers stroke"
       d="m 122.8996,109.73907 c -5.33695,0.64081 -9.69997,-1.8271 -9.69997,-1.8271"
       id="path44"
       sodipodi:nodetypes="cc" />
    <g
       ns1:text="$\frac{\partial u}{\partial x_2} = g$"
       transform="matrix(0.44253475,0,0,0.44253475,37.547439,1.9370478)"
       style="font-variation-settings:normal;opacity:1;vector-effect:none;fill:#006b94;fill-opacity:1;stroke-width:0.760001;stroke-linecap:butt;stroke-linejoin:miter;stroke-miterlimit:4;stroke-dasharray:none;stroke-dashoffset:0;stroke-opacity:1;-inkscape-stroke:none;stop-color:#000000;stop-opacity:1"
       id="g52">
      <g
         id="g51"
         style="font-variation-settings:normal;vector-effect:none;fill:#006b94;fill-opacity:1;stroke-width:0.760001;stroke-linecap:butt;stroke-linejoin:miter;stroke-miterlimit:4;stroke-dasharray:none;stroke-dashoffset:0;stroke-opacity:1;-inkscape-stroke:none;stop-color:#000000;stop-opacity:1">
        <g
           style="font-variation-settings:normal;vector-effect:none;fill:#006b94;fill-opacity:1;stroke-width:0.760001;stroke-linecap:butt;stroke-linejoin:miter;stroke-miterlimit:4;stroke-dasharray:none;stroke-dashoffset:0;stroke-opacity:1;-inkscape-stroke:none;stop-color:#000000;stop-opacity:1"
           id="g7">
          <path
             style="font-variation-settings:normal;vector-effect:none;fill:#006b94;fill-opacity:1;stroke:none;stroke-width:0.760001;stroke-linecap:butt;stroke-linejoin:miter;stroke-miterlimit:4;stroke-dasharray:none;stroke-dashoffset:0;stroke-opacity:1;-inkscape-stroke:none;stop-color:#000000;stop-opacity:1"
             d="m 3.65625,-2.359375 c -0.09375,-0.40625 -0.40625,-0.8125 -1.0625,-0.8125 -0.984375,0 -1.78125,0.71875 -2.03125,1.359375 -0.046875,0.109375 -0.140625,0.390625 -0.140625,0.671875 0,0.484375 0.375,1.28125 1.453125,1.28125 1.8125,0 2.546875,-2.25 2.546875,-3.234375 0,-1.203125 -0.78125,-1.875 -1.71875,-1.875 C 1.5625,-4.96875 1.25,-4.0625 1.25,-3.859375 c 0,0.0625 0.046875,0.25 0.28125,0.25 0.25,0 0.390625,-0.203125 0.390625,-0.375 0,-0.1875 -0.140625,-0.25 -0.265625,-0.265625 C 2,-4.78125 2.578125,-4.78125 2.6875,-4.78125 c 0.53125,0 1.140625,0.328125 1.140625,1.328125 0,0.296875 -0.03125,0.546875 -0.15625,1.09375 z m -1.765625,2.28125 c -0.78125,0 -0.875,-0.59375 -0.875,-0.8125 0,-0.265625 0.1875,-0.953125 0.265625,-1.125 0.125,-0.328125 0.546875,-0.96875 1.34375,-0.96875 0.671875,0 0.890625,0.53125 0.890625,0.953125 0,0.46875 -0.453125,1.953125 -1.625,1.953125 z m 0,0"
             transform="translate(181.628,107.068)"
             id="path6" />
        </g>
        <g
           style="font-variation-settings:normal;vector-effect:none;fill:#006b94;fill-opacity:1;stroke-width:0.760001;stroke-linecap:butt;stroke-linejoin:miter;stroke-miterlimit:4;stroke-dasharray:none;stroke-dashoffset:0;stroke-opacity:1;-inkscape-stroke:none;stop-color:#000000;stop-opacity:1"
           id="g35">
          <path
             style="font-variation-settings:normal;vector-effect:none;fill:#006b94;fill-opacity:1;stroke:none;stroke-width:0.760001;stroke-linecap:butt;stroke-linejoin:miter;stroke-miterlimit:4;stroke-dasharray:none;stroke-dashoffset:0;stroke-opacity:1;-inkscape-stroke:none;stop-color:#000000;stop-opacity:1"
             d="M 2.953125,-1.125 C 2.90625,-0.984375 2.84375,-0.71875 2.84375,-0.71875 2.703125,-0.5 2.421875,-0.125 2,-0.125 c -0.484375,0 -0.484375,-0.453125 -0.484375,-0.578125 0,-0.40625 0.1875,-0.90625 0.390625,-1.421875 C 1.953125,-2.265625 2,-2.359375 2,-2.46875 2,-2.84375 1.6875,-3.078125 1.34375,-3.078125 0.640625,-3.078125 0.328125,-2.125 0.328125,-2 c 0,0.078125 0.09375,0.078125 0.125,0.078125 0.09375,0 0.09375,-0.03125 0.125,-0.109375 0.15625,-0.5625 0.46875,-0.84375 0.734375,-0.84375 0.125,0 0.171875,0.078125 0.171875,0.234375 0,0.171875 -0.046875,0.3125 -0.125,0.46875 -0.375,0.96875 -0.375,1.171875 -0.375,1.359375 0,0.109375 0,0.4375 0.265625,0.65625 0.203125,0.171875 0.46875,0.21875 0.71875,0.21875 0.4375,0 0.671875,-0.234375 0.90625,-0.453125 C 3.03125,0.0625 3.484375,0.0625 3.578125,0.0625 3.8125,0.0625 4,-0.0625 4.125,-0.296875 4.28125,-0.578125 4.375,-0.96875 4.375,-1 c 0,-0.09375 -0.09375,-0.09375 -0.109375,-0.09375 -0.109375,0 -0.109375,0.03125 -0.15625,0.21875 -0.09375,0.328125 -0.21875,0.75 -0.515625,0.75 -0.171875,0 -0.234375,-0.15625 -0.234375,-0.34375 0,-0.109375 0.0625,-0.375 0.109375,-0.546875 0.046875,-0.1875 0.125,-0.46875 0.15625,-0.625 l 0.15625,-0.625 C 3.828125,-2.4375 3.90625,-2.75 3.90625,-2.78125 3.90625,-2.921875 3.796875,-3 3.671875,-3 c -0.25,0 -0.3125,0.203125 -0.359375,0.421875 z m 0,0"
             transform="translate(186.30742,107.068)"
             id="path34" />
        </g>
        <path
           style="font-variation-settings:normal;vector-effect:none;fill:#006b94;fill-opacity:1;stroke:#000000;stroke-width:0.760001;stroke-linecap:butt;stroke-linejoin:miter;stroke-miterlimit:4;stroke-dasharray:none;stroke-dashoffset:0;stroke-opacity:1;-inkscape-stroke:none;stop-color:#000000;stop-opacity:1"
           d="m 107.78125,-36.5 h 13.08984"
           transform="matrix(1,0,0,-1,72,72)"
           id="path35" />
        <g
           style="font-variation-settings:normal;vector-effect:none;fill:#006b94;fill-opacity:1;stroke-width:0.760001;stroke-linecap:butt;stroke-linejoin:miter;stroke-miterlimit:4;stroke-dasharray:none;stroke-dashoffset:0;stroke-opacity:1;-inkscape-stroke:none;stop-color:#000000;stop-opacity:1"
           id="g36">
          <path
             style="font-variation-settings:normal;vector-effect:none;fill:#006b94;fill-opacity:1;stroke:none;stroke-width:0.760001;stroke-linecap:butt;stroke-linejoin:miter;stroke-miterlimit:4;stroke-dasharray:none;stroke-dashoffset:0;stroke-opacity:1;-inkscape-stroke:none;stop-color:#000000;stop-opacity:1"
             d="m 3.65625,-2.359375 c -0.09375,-0.40625 -0.40625,-0.8125 -1.0625,-0.8125 -0.984375,0 -1.78125,0.71875 -2.03125,1.359375 -0.046875,0.109375 -0.140625,0.390625 -0.140625,0.671875 0,0.484375 0.375,1.28125 1.453125,1.28125 1.8125,0 2.546875,-2.25 2.546875,-3.234375 0,-1.203125 -0.78125,-1.875 -1.71875,-1.875 C 1.5625,-4.96875 1.25,-4.0625 1.25,-3.859375 c 0,0.0625 0.046875,0.25 0.28125,0.25 0.25,0 0.390625,-0.203125 0.390625,-0.375 0,-0.1875 -0.140625,-0.25 -0.265625,-0.265625 C 2,-4.78125 2.578125,-4.78125 2.6875,-4.78125 c 0.53125,0 1.140625,0.328125 1.140625,1.328125 0,0.296875 -0.03125,0.546875 -0.15625,1.09375 z m -1.765625,2.28125 c -0.78125,0 -0.875,-0.59375 -0.875,-0.8125 0,-0.265625 0.1875,-0.953125 0.265625,-1.125 0.125,-0.328125 0.546875,-0.96875 1.34375,-0.96875 0.671875,0 0.890625,0.53125 0.890625,0.953125 0,0.46875 -0.453125,1.953125 -1.625,1.953125 z m 0,0"
             transform="translate(179.78,114.426)"
             id="path36" />
        </g>
        <g
           style="font-variation-settings:normal;vector-effect:none;fill:#006b94;fill-opacity:1;stroke-width:0.760001;stroke-linecap:butt;stroke-linejoin:miter;stroke-miterlimit:4;stroke-dasharray:none;stroke-dashoffset:0;stroke-opacity:1;-inkscape-stroke:none;stop-color:#000000;stop-opacity:1"
           id="g45">
          <path
             style="font-variation-settings:normal;vector-effect:none;fill:#006b94;fill-opacity:1;stroke:none;stroke-width:0.760001;stroke-linecap:butt;stroke-linejoin:miter;stroke-miterlimit:4;stroke-dasharray:none;stroke-dashoffset:0;stroke-opacity:1;-inkscape-stroke:none;stop-color:#000000;stop-opacity:1"
             d="M 1.734375,-0.734375 C 1.671875,-0.5 1.4375,-0.125 1.078125,-0.125 c -0.015625,0 -0.234375,0 -0.375,-0.09375 0.28125,-0.09375 0.3125,-0.34375 0.3125,-0.390625 0,-0.15625 -0.125,-0.25 -0.28125,-0.25 -0.203125,0 -0.40625,0.15625 -0.40625,0.421875 0,0.34375 0.390625,0.5 0.734375,0.5 0.328125,0 0.609375,-0.1875 0.78125,-0.484375 C 2.015625,-0.0625 2.390625,0.0625 2.671875,0.0625 c 0.8125,0 1.234375,-0.859375 1.234375,-1.0625 0,-0.09375 -0.09375,-0.09375 -0.109375,-0.09375 -0.109375,0 -0.109375,0.046875 -0.140625,0.125 -0.140625,0.484375 -0.5625,0.84375 -0.953125,0.84375 -0.28125,0 -0.421875,-0.1875 -0.421875,-0.453125 0,-0.1875 0.171875,-0.8125 0.359375,-1.59375 C 2.78125,-2.703125 3.09375,-2.875 3.328125,-2.875 c 0.015625,0 0.21875,0 0.375,0.09375 -0.21875,0.0625 -0.3125,0.265625 -0.3125,0.390625 0,0.140625 0.125,0.25 0.28125,0.25 0.15625,0 0.390625,-0.125 0.390625,-0.421875 0,-0.390625 -0.453125,-0.515625 -0.71875,-0.515625 -0.359375,0 -0.640625,0.234375 -0.78125,0.5 -0.125,-0.28125 -0.453125,-0.5 -0.84375,-0.5 C 0.9375,-3.078125 0.5,-2.21875 0.5,-2 c 0,0.078125 0.09375,0.078125 0.109375,0.078125 0.09375,0 0.09375,-0.015625 0.140625,-0.109375 C 0.921875,-2.578125 1.359375,-2.875 1.703125,-2.875 1.9375,-2.875 2.125,-2.75 2.125,-2.421875 2.125,-2.28125 2.03125,-1.9375 1.96875,-1.6875 Z m 0,0"
             transform="translate(184.45942,114.426)"
             id="path42" />
        </g>
        <g
           style="font-variation-settings:normal;vector-effect:none;fill:#006b94;fill-opacity:1;stroke-width:0.760001;stroke-linecap:butt;stroke-linejoin:miter;stroke-miterlimit:4;stroke-dasharray:none;stroke-dashoffset:0;stroke-opacity:1;-inkscape-stroke:none;stop-color:#000000;stop-opacity:1"
           id="g46">
          <path
             style="font-variation-settings:normal;vector-effect:none;fill:#006b94;fill-opacity:1;stroke:none;stroke-width:0.760001;stroke-linecap:butt;stroke-linejoin:miter;stroke-miterlimit:4;stroke-dasharray:none;stroke-dashoffset:0;stroke-opacity:1;-inkscape-stroke:none;stop-color:#000000;stop-opacity:1"
             d="M 2.9375,-0.96875 H 2.71875 c 0,0.09375 -0.0625,0.40625 -0.140625,0.453125 -0.03125,0.03125 -0.453125,0.03125 -0.53125,0.03125 H 1.078125 C 1.40625,-0.71875 1.765625,-1 2.0625,-1.203125 c 0.453125,-0.3125 0.875,-0.59375 0.875,-1.125 0,-0.640625 -0.609375,-0.984375 -1.3125,-0.984375 -0.671875,0 -1.171875,0.375 -1.171875,0.875 0,0.25 0.21875,0.296875 0.296875,0.296875 0.125,0 0.28125,-0.09375 0.28125,-0.296875 0,-0.171875 -0.125,-0.28125 -0.28125,-0.28125 0.140625,-0.234375 0.4375,-0.375 0.765625,-0.375 0.484375,0 0.890625,0.28125 0.890625,0.765625 0,0.421875 -0.296875,0.75 -0.671875,1.0625 l -1.21875,1.03125 C 0.46875,-0.1875 0.453125,-0.1875 0.453125,-0.15625 V 0 h 2.3125 z m 0,0"
             transform="translate(188.981,115.422)"
             id="path46" />
        </g>
        <g
           style="font-variation-settings:normal;vector-effect:none;fill:#006b94;fill-opacity:1;stroke-width:0.760001;stroke-linecap:butt;stroke-linejoin:miter;stroke-miterlimit:4;stroke-dasharray:none;stroke-dashoffset:0;stroke-opacity:1;-inkscape-stroke:none;stop-color:#000000;stop-opacity:1"
           id="g47">
          <path
             style="font-variation-settings:normal;vector-effect:none;fill:#006b94;fill-opacity:1;stroke:none;stroke-width:0.760001;stroke-linecap:butt;stroke-linejoin:miter;stroke-miterlimit:4;stroke-dasharray:none;stroke-dashoffset:0;stroke-opacity:1;-inkscape-stroke:none;stop-color:#000000;stop-opacity:1"
             d="m 6.84375,-3.265625 c 0.15625,0 0.34375,0 0.34375,-0.1875 C 7.1875,-3.65625 7,-3.65625 6.859375,-3.65625 h -5.96875 c -0.140625,0 -0.328125,0 -0.328125,0.203125 0,0.1875 0.1875,0.1875 0.328125,0.1875 z m 0.015625,1.9375 c 0.140625,0 0.328125,0 0.328125,-0.203125 0,-0.1875 -0.1875,-0.1875 -0.34375,-0.1875 H 0.890625 c -0.140625,0 -0.328125,0 -0.328125,0.1875 0,0.203125 0.1875,0.203125 0.328125,0.203125 z m 0,0"
             transform="translate(196.832,110.99)"
             id="path47" />
        </g>
        <g
           style="font-variation-settings:normal;vector-effect:none;fill:#006b94;fill-opacity:1;stroke-width:0.760001;stroke-linecap:butt;stroke-linejoin:miter;stroke-miterlimit:4;stroke-dasharray:none;stroke-dashoffset:0;stroke-opacity:1;-inkscape-stroke:none;stop-color:#000000;stop-opacity:1"
           id="g48">
          <path
             style="font-variation-settings:normal;vector-effect:none;fill:#006b94;fill-opacity:1;stroke:none;stroke-width:0.760001;stroke-linecap:butt;stroke-linejoin:miter;stroke-miterlimit:4;stroke-dasharray:none;stroke-dashoffset:0;stroke-opacity:1;-inkscape-stroke:none;stop-color:#000000;stop-opacity:1"
             d="M 4.6875,-3.765625 C 4.703125,-3.8125 4.71875,-3.875 4.71875,-3.9375 c 0,-0.171875 -0.109375,-0.265625 -0.28125,-0.265625 -0.09375,0 -0.375,0.0625 -0.40625,0.421875 -0.1875,-0.359375 -0.53125,-0.625 -0.9375,-0.625 -1.125,0 -2.359375,1.390625 -2.359375,2.828125 0,0.984375 0.59375,1.578125 1.3125,1.578125 0.59375,0 1.0625,-0.46875 1.15625,-0.578125 L 3.21875,-0.5625 C 3.015625,0.3125 2.890625,0.734375 2.890625,0.75 2.84375,0.84375 2.515625,1.828125 1.453125,1.828125 1.265625,1.828125 0.9375,1.8125 0.65625,1.71875 0.953125,1.640625 1.0625,1.375 1.0625,1.203125 c 0,-0.15625 -0.109375,-0.34375 -0.375,-0.34375 -0.21875,0 -0.53125,0.171875 -0.53125,0.578125 0,0.40625 0.359375,0.609375 1.3125,0.609375 1.25,0 1.96875,-0.78125 2.125,-1.375 z M 3.40625,-1.28125 C 3.34375,-1.015625 3.109375,-0.765625 2.890625,-0.578125 2.6875,-0.40625 2.375,-0.21875 2.078125,-0.21875 c -0.5,0 -0.640625,-0.515625 -0.640625,-0.921875 0,-0.46875 0.28125,-1.65625 0.5625,-2.15625 C 2.265625,-3.78125 2.6875,-4.1875 3.109375,-4.1875 c 0.65625,0 0.796875,0.8125 0.796875,0.859375 0,0.046875 -0.015625,0.109375 -0.03125,0.140625 z m 0,0"
             transform="translate(207.348,110.99)"
             id="path48" />
        </g>
      </g>
    </g>
    <g
       ns1:text="$y$"
       transform="matrix(0.44253475,0,0,0.44253475,20.866501,29.516068)"
       id="g55">
      <g
         id="g54">
        <g
           style="fill:rgb(0%,0%,0%);fill-opacity:1;"
           id="g53">
          <path
             style="stroke:none;"
             d="M 4.84375 -3.796875 C 4.890625 -3.9375 4.890625 -3.953125 4.890625 -4.03125 C 4.890625 -4.203125 4.75 -4.296875 4.59375 -4.296875 C 4.5 -4.296875 4.34375 -4.234375 4.25 -4.09375 C 4.234375 -4.03125 4.140625 -3.734375 4.109375 -3.546875 C 4.03125 -3.296875 3.96875 -3.015625 3.90625 -2.75 L 3.453125 -0.953125 C 3.421875 -0.8125 2.984375 -0.109375 2.328125 -0.109375 C 1.828125 -0.109375 1.71875 -0.546875 1.71875 -0.921875 C 1.71875 -1.375 1.890625 -2 2.21875 -2.875 C 2.375 -3.28125 2.421875 -3.390625 2.421875 -3.59375 C 2.421875 -4.03125 2.109375 -4.40625 1.609375 -4.40625 C 0.65625 -4.40625 0.296875 -2.953125 0.296875 -2.875 C 0.296875 -2.765625 0.390625 -2.765625 0.40625 -2.765625 C 0.515625 -2.765625 0.515625 -2.796875 0.5625 -2.953125 C 0.84375 -3.890625 1.234375 -4.1875 1.578125 -4.1875 C 1.65625 -4.1875 1.828125 -4.1875 1.828125 -3.875 C 1.828125 -3.625 1.71875 -3.359375 1.65625 -3.171875 C 1.25 -2.109375 1.078125 -1.546875 1.078125 -1.078125 C 1.078125 -0.1875 1.703125 0.109375 2.296875 0.109375 C 2.6875 0.109375 3.015625 -0.0625 3.296875 -0.34375 C 3.171875 0.171875 3.046875 0.671875 2.65625 1.203125 C 2.390625 1.53125 2.015625 1.828125 1.5625 1.828125 C 1.421875 1.828125 0.96875 1.796875 0.796875 1.40625 C 0.953125 1.40625 1.09375 1.40625 1.21875 1.28125 C 1.328125 1.203125 1.421875 1.0625 1.421875 0.875 C 1.421875 0.5625 1.15625 0.53125 1.0625 0.53125 C 0.828125 0.53125 0.5 0.6875 0.5 1.171875 C 0.5 1.671875 0.9375 2.046875 1.5625 2.046875 C 2.578125 2.046875 3.609375 1.140625 3.890625 0.015625 Z M 4.84375 -3.796875 "
             transform="translate(178.585,110.99)"
             id="path52" />
        </g>
      </g>
    </g>
    <g
       ns1:text="$x$"
       transform="matrix(0.44253475,0,0,0.44253475,46.80377,54.020913)"
       id="g57">
      <g
         id="surface1">
        <g
           style="fill:rgb(0%,0%,0%);fill-opacity:1;"
           id="g56">
          <path
             style="stroke:none;"
             d="M 3.328125 -3.015625 C 3.390625 -3.265625 3.625 -4.1875 4.3125 -4.1875 C 4.359375 -4.1875 4.609375 -4.1875 4.8125 -4.0625 C 4.53125 -4 4.34375 -3.765625 4.34375 -3.515625 C 4.34375 -3.359375 4.453125 -3.171875 4.71875 -3.171875 C 4.9375 -3.171875 5.25 -3.34375 5.25 -3.75 C 5.25 -4.265625 4.671875 -4.40625 4.328125 -4.40625 C 3.75 -4.40625 3.40625 -3.875 3.28125 -3.65625 C 3.03125 -4.3125 2.5 -4.40625 2.203125 -4.40625 C 1.171875 -4.40625 0.59375 -3.125 0.59375 -2.875 C 0.59375 -2.765625 0.703125 -2.765625 0.71875 -2.765625 C 0.796875 -2.765625 0.828125 -2.796875 0.84375 -2.875 C 1.1875 -3.9375 1.84375 -4.1875 2.1875 -4.1875 C 2.375 -4.1875 2.71875 -4.09375 2.71875 -3.515625 C 2.71875 -3.203125 2.546875 -2.546875 2.1875 -1.140625 C 2.03125 -0.53125 1.671875 -0.109375 1.234375 -0.109375 C 1.171875 -0.109375 0.953125 -0.109375 0.734375 -0.234375 C 0.984375 -0.296875 1.203125 -0.5 1.203125 -0.78125 C 1.203125 -1.046875 0.984375 -1.125 0.84375 -1.125 C 0.53125 -1.125 0.296875 -0.875 0.296875 -0.546875 C 0.296875 -0.09375 0.78125 0.109375 1.21875 0.109375 C 1.890625 0.109375 2.25 -0.59375 2.265625 -0.640625 C 2.390625 -0.28125 2.75 0.109375 3.34375 0.109375 C 4.375 0.109375 4.9375 -1.171875 4.9375 -1.421875 C 4.9375 -1.53125 4.859375 -1.53125 4.828125 -1.53125 C 4.734375 -1.53125 4.71875 -1.484375 4.6875 -1.421875 C 4.359375 -0.34375 3.6875 -0.109375 3.375 -0.109375 C 2.984375 -0.109375 2.828125 -0.421875 2.828125 -0.765625 C 2.828125 -0.984375 2.875 -1.203125 2.984375 -1.640625 Z M 3.328125 -3.015625 "
             transform="translate(178.585,110.99)"
             id="path55" />
        </g>
      </g>
    </g>
  </g>
</svg>
