<?xml version="1.0" encoding="UTF-8" standalone="no"?>
<!-- Created with Inkscape (http://www.inkscape.org/) -->

<svg
   width="73.423729mm"
   height="25.242134mm"
   viewBox="0 0 73.423729 25.242134"
   version="1.1"
   id="svg1"
   inkscape:version="1.3.2 (091e20e, 2023-11-25, custom)"
   sodipodi:docname="Pure_Dirichlet_1D.svg"
   xmlns:inkscape="http://www.inkscape.org/namespaces/inkscape"
   xmlns:sodipodi="http://sodipodi.sourceforge.net/DTD/sodipodi-0.dtd"
   xmlns="http://www.w3.org/2000/svg"
   xmlns:svg="http://www.w3.org/2000/svg"
   xmlns:ns1="http://wanglongqi.github.io/WriteTeX">
  <sodipodi:namedview
     id="namedview1"
     pagecolor="#ffffff"
     bordercolor="#000000"
     borderopacity="0.25"
     inkscape:showpageshadow="2"
     inkscape:pageopacity="0.0"
     inkscape:pagecheckerboard="0"
     inkscape:deskcolor="#d1d1d1"
     inkscape:document-units="mm"
     inkscape:zoom="2.8970539"
     inkscape:cx="117.5332"
     inkscape:cy="36.761484"
     inkscape:window-width="1920"
     inkscape:window-height="1009"
     inkscape:window-x="1912"
     inkscape:window-y="-8"
     inkscape:window-maximized="1"
     inkscape:current-layer="layer1" />
  <defs
     id="defs1">
    <marker
       style="overflow:visible"
       id="ConcaveTriangle"
       refX="0"
       refY="0"
       orient="auto-start-reverse"
       inkscape:stockid="Concave triangle arrow"
       markerWidth="1"
       markerHeight="1"
       viewBox="0 0 1 1"
       inkscape:isstock="true"
       inkscape:collect="always"
       preserveAspectRatio="xMidYMid">
      <path
         transform="scale(0.7)"
         d="M -2,-4 9,0 -2,4 c 2,-2.33 2,-5.66 0,-8 z"
         style="fill:context-stroke;fill-rule:evenodd;stroke:none"
         id="path18" />
    </marker>
    <marker
       style="overflow:visible"
       id="ArrowWideHeavy"
       refX="0"
       refY="0"
       orient="auto-start-reverse"
       inkscape:stockid="Wide, heavy arrow"
       markerWidth="1"
       markerHeight="1"
       viewBox="0 0 1 1"
       inkscape:isstock="true"
       inkscape:collect="always"
       preserveAspectRatio="xMidYMid">
      <path
         style="fill:context-stroke;fill-rule:evenodd;stroke:none"
         d="m 1,0 -3,3 h -2 l 3,-3 -3,-3 h 2 z"
         id="path9" />
    </marker>
    <marker
       style="overflow:visible"
       id="Stop"
       refX="0"
       refY="0"
       orient="auto"
       inkscape:stockid="Stop"
       markerWidth="1"
       markerHeight="1"
       viewBox="0 0 1 1"
       inkscape:isstock="true"
       inkscape:collect="always"
       preserveAspectRatio="xMidYMid">
      <path
         style="fill:none;stroke:context-stroke;stroke-width:1"
         d="M 0,4 V -4"
         id="path23" />
    </marker>
    <marker
       style="overflow:visible"
       id="marker43"
       refX="0"
       refY="0"
       orient="auto"
       inkscape:stockid="Stop"
       markerWidth="1"
       markerHeight="1"
       viewBox="0 0 1 1"
       inkscape:isstock="true"
       inkscape:collect="always"
       preserveAspectRatio="xMidYMid">
      <path
         style="fill:none;stroke:context-stroke;stroke-width:1"
         d="M 0,4 V -4"
         id="path43" />
    </marker>
  </defs>
  <g
     inkscape:label="Ebene 1"
     inkscape:groupmode="layer"
     id="layer1"
     transform="translate(-26.458331,-91.810417)">
    <path
       style="fill:#000000;stroke:#666666;stroke-width:0.282222;stroke-dasharray:none;marker-end:url(#ConcaveTriangle);paint-order:fill markers stroke"
       d="m 31.350994,101.6842 h 63.70366"
       id="path17"
       sodipodi:nodetypes="cc" />
    <g
       id="g1">
      <path
         style="fill:#000000;stroke:#000000;stroke-width:0.705556;stroke-dasharray:none;paint-order:fill markers stroke"
         d="M 31.350994,94.580357 V 109.20189"
         id="path8"
         sodipodi:nodetypes="cc" />
      <path
         style="fill:#000000;stroke:#000000;stroke-width:0.260129;stroke-dasharray:none;paint-order:fill markers stroke"
         d="m 31.38375,95.062619 -4.833449,4.833449"
         id="path10" />
      <path
         style="fill:#000000;stroke:#000000;stroke-width:0.260129;stroke-dasharray:none;paint-order:fill markers stroke"
         d="m 31.38375,98.819037 -4.833449,4.833453"
         id="path11" />
      <path
         style="fill:#000000;stroke:#000000;stroke-width:0.260129;stroke-dasharray:none;paint-order:fill markers stroke"
         d="m 31.38375,102.57546 -4.833449,4.83344"
         id="path12" />
      <path
         style="fill:#000000;stroke:#000000;stroke-width:0.260129;stroke-dasharray:none;paint-order:fill markers stroke"
         d="m 31.38375,106.33187 -4.833449,4.83345"
         id="path13" />
    </g>
    <path
       style="fill:#000000;stroke:#000000;stroke-width:0.705556;stroke-dasharray:none;paint-order:fill markers stroke"
       d="M 31.350994,101.6842 H 87.320235"
       id="path14" />
    <g
       id="g24"
       transform="translate(-13.048781,37.350547)">
      <path
         style="fill:#000000;stroke:#000000;stroke-width:0.282222;stroke-dasharray:none;marker-end:url(#ArrowWideHeavy);paint-order:fill markers stroke"
         d="m 45.254409,61.868972 h 5.294387"
         id="path15" />
      <path
         style="fill:#000000;stroke:#000000;stroke-width:0.282222;stroke-dasharray:none;marker-end:url(#ArrowWideHeavy);paint-order:fill markers stroke"
         d="m 52.209175,61.868972 h 5.294387"
         id="path16" />
      <path
         style="fill:#000000;stroke:#000000;stroke-width:0.282222;stroke-dasharray:none;marker-end:url(#ArrowWideHeavy);paint-order:fill markers stroke"
         d="m 59.163942,61.868972 h 5.294387"
         id="path19" />
      <path
         style="fill:#000000;stroke:#000000;stroke-width:0.282222;stroke-dasharray:none;marker-end:url(#ArrowWideHeavy);paint-order:fill markers stroke"
         d="m 66.118708,61.868972 h 5.294387"
         id="path20" />
      <path
         style="fill:#000000;stroke:#000000;stroke-width:0.282222;stroke-dasharray:none;marker-end:url(#ArrowWideHeavy);paint-order:fill markers stroke"
         d="m 73.073474,61.868972 h 5.294387"
         id="path21" />
      <path
         style="fill:#000000;stroke:#000000;stroke-width:0.282222;stroke-dasharray:none;marker-end:url(#ArrowWideHeavy);paint-order:fill markers stroke"
         d="m 80.02824,61.868972 h 5.294387"
         id="path22" />
      <path
         style="fill:#000000;stroke:#000000;stroke-width:0.282222;stroke-dasharray:none;marker-end:url(#ArrowWideHeavy);paint-order:fill markers stroke"
         d="m 86.983007,61.868972 h 5.294387"
         id="path24" />
      <path
         style="fill:#000000;stroke:#000000;stroke-width:0.282222;stroke-dasharray:none;marker-end:url(#ArrowWideHeavy);paint-order:fill markers stroke"
         d="M 93.937773,61.868972 H 99.23216"
         id="path25" />
    </g>
    <g
       ns1:text="$f(x)$"
       transform="matrix(0.44253475,0,0,0.44253475,-23.881773,46.005581)"
       id="g23">
      <g
         id="surface1">
        <g
           style="fill:#000000;fill-opacity:1"
           id="g19">
          <path
             style="stroke:none"
             d="m 3.65625,-3.984375 h 0.859375 c 0.203125,0 0.296875,0 0.296875,-0.203125 0,-0.109375 -0.09375,-0.109375 -0.265625,-0.109375 H 3.71875 L 3.921875,-5.4375 c 0.046875,-0.203125 0.1875,-0.90625 0.25,-1.03125 0.078125,-0.1875 0.25,-0.34375 0.46875,-0.34375 0.03125,0 0.296875,0 0.484375,0.1875 -0.4375,0.03125 -0.546875,0.390625 -0.546875,0.53125 0,0.234375 0.1875,0.359375 0.375,0.359375 C 5.21875,-5.734375 5.5,-5.96875 5.5,-6.34375 c 0,-0.453125 -0.453125,-0.6875 -0.859375,-0.6875 -0.34375,0 -0.96875,0.1875 -1.265625,1.171875 -0.0625,0.203125 -0.09375,0.3125 -0.328125,1.5625 h -0.6875 c -0.203125,0 -0.3125,0 -0.3125,0.1875 0,0.125 0.09375,0.125 0.28125,0.125 h 0.65625 L 2.25,-0.046875 c -0.1875,0.96875 -0.359375,1.875 -0.875,1.875 -0.046875,0 -0.28125,0 -0.484375,-0.1875 C 1.359375,1.609375 1.453125,1.25 1.453125,1.109375 1.453125,0.875 1.265625,0.75 1.078125,0.75 0.8125,0.75 0.53125,0.984375 0.53125,1.359375 c 0,0.4375 0.4375,0.6875 0.84375,0.6875 0.546875,0 0.953125,-0.59375 1.125,-0.96875 0.328125,-0.625 0.546875,-1.828125 0.5625,-1.90625 z m 0,0"
             transform="translate(178.585,110.99)"
             id="path26" />
        </g>
        <g
           style="fill:#000000;fill-opacity:1"
           id="g20">
          <path
             style="stroke:none"
             d="m 3.296875,2.390625 c 0,-0.03125 0,-0.046875 -0.171875,-0.21875 C 1.890625,0.921875 1.5625,-0.96875 1.5625,-2.5 c 0,-1.734375 0.375,-3.46875 1.609375,-4.703125 0.125,-0.125 0.125,-0.140625 0.125,-0.171875 0,-0.078125 -0.03125,-0.109375 -0.09375,-0.109375 -0.109375,0 -1,0.6875 -1.59375,1.953125 -0.5,1.09375 -0.625,2.203125 -0.625,3.03125 0,0.78125 0.109375,1.984375 0.65625,3.125 C 2.25,1.84375 3.09375,2.5 3.203125,2.5 c 0.0625,0 0.09375,-0.03125 0.09375,-0.109375 z m 0,0"
             transform="translate(184.534,110.99)"
             id="path27" />
        </g>
        <g
           style="fill:#000000;fill-opacity:1"
           id="g21">
          <path
             style="stroke:none"
             d="M 3.328125,-3.015625 C 3.390625,-3.265625 3.625,-4.1875 4.3125,-4.1875 c 0.046875,0 0.296875,0 0.5,0.125 C 4.53125,-4 4.34375,-3.765625 4.34375,-3.515625 c 0,0.15625 0.109375,0.34375 0.375,0.34375 0.21875,0 0.53125,-0.171875 0.53125,-0.578125 0,-0.515625 -0.578125,-0.65625 -0.921875,-0.65625 -0.578125,0 -0.921875,0.53125 -1.046875,0.75 -0.25,-0.65625 -0.78125,-0.75 -1.078125,-0.75 -1.03125,0 -1.609375,1.28125 -1.609375,1.53125 0,0.109375 0.109375,0.109375 0.125,0.109375 0.078125,0 0.109375,-0.03125 0.125,-0.109375 0.34375,-1.0625 1,-1.3125 1.34375,-1.3125 0.1875,0 0.53125,0.09375 0.53125,0.671875 0,0.3125 -0.171875,0.96875 -0.53125,2.375 -0.15625,0.609375 -0.515625,1.03125 -0.953125,1.03125 -0.0625,0 -0.28125,0 -0.5,-0.125 0.25,-0.0625 0.46875,-0.265625 0.46875,-0.546875 0,-0.265625 -0.21875,-0.34375 -0.359375,-0.34375 -0.3125,0 -0.546875,0.25 -0.546875,0.578125 0,0.453125 0.484375,0.65625 0.921875,0.65625 0.671875,0 1.03125,-0.703125 1.046875,-0.75 0.125,0.359375 0.484375,0.75 1.078125,0.75 1.03125,0 1.59375,-1.28125 1.59375,-1.53125 0,-0.109375 -0.078125,-0.109375 -0.109375,-0.109375 -0.09375,0 -0.109375,0.046875 -0.140625,0.109375 -0.328125,1.078125 -1,1.3125 -1.3125,1.3125 -0.390625,0 -0.546875,-0.3125 -0.546875,-0.65625 0,-0.21875 0.046875,-0.4375 0.15625,-0.875 z m 0,0"
             transform="translate(188.409,110.99)"
             id="path28" />
        </g>
        <g
           style="fill:#000000;fill-opacity:1"
           id="g22">
          <path
             style="stroke:none"
             d="m 2.875,-2.5 c 0,-0.765625 -0.109375,-1.96875 -0.65625,-3.109375 -0.59375,-1.21875 -1.453125,-1.875 -1.546875,-1.875 -0.0625,0 -0.109375,0.046875 -0.109375,0.109375 0,0.03125 0,0.046875 0.1875,0.234375 0.984375,0.984375 1.546875,2.5625 1.546875,4.640625 0,1.71875 -0.359375,3.46875 -1.59375,4.71875 C 0.5625,2.34375 0.5625,2.359375 0.5625,2.390625 0.5625,2.453125 0.609375,2.5 0.671875,2.5 0.765625,2.5 1.671875,1.8125 2.25,0.546875 2.765625,-0.546875 2.875,-1.65625 2.875,-2.5 Z m 0,0"
             transform="translate(194.103,110.99)"
             id="path29" />
        </g>
      </g>
    </g>
    <path
       style="fill:#000000;stroke:#000000;stroke-width:0.282222;stroke-dasharray:none;marker-start:url(#Stop);marker-end:url(#marker43);paint-order:fill markers stroke"
       d="M 31.350994,112.38048 H 87.320235"
       id="path30" />
    <g
       ns1:text="$L$"
       transform="matrix(0.44253475,0,0,0.44253475,-23.881773,67.93562)"
       id="g51">
      <g
         id="g50">
        <g
           style="fill:#000000;fill-opacity:1"
           id="g49">
          <path
             style="stroke:none"
             d="M 3.734375,-6.03125 C 3.8125,-6.390625 3.84375,-6.5 4.78125,-6.5 c 0.296875,0 0.375,0 0.375,-0.1875 0,-0.125 -0.109375,-0.125 -0.15625,-0.125 -0.328125,0 -1.140625,0.03125 -1.46875,0.03125 -0.296875,0 -1.03125,-0.03125 -1.328125,-0.03125 -0.0625,0 -0.1875,0 -0.1875,0.203125 0,0.109375 0.09375,0.109375 0.28125,0.109375 0.015625,0 0.203125,0 0.375,0.015625 0.171875,0.03125 0.265625,0.03125 0.265625,0.171875 0,0.03125 0,0.0625 -0.03125,0.1875 L 1.5625,-0.78125 c -0.09375,0.390625 -0.109375,0.46875 -0.90625,0.46875 -0.171875,0 -0.265625,0 -0.265625,0.203125 C 0.390625,0 0.484375,0 0.65625,0 h 4.625 C 5.515625,0 5.515625,0 5.578125,-0.171875 L 6.375,-2.328125 c 0.03125,-0.109375 0.03125,-0.125 0.03125,-0.140625 0,-0.03125 -0.03125,-0.109375 -0.109375,-0.109375 -0.09375,0 -0.109375,0.0625 -0.171875,0.21875 -0.34375,0.90625 -0.78125,2.046875 -2.5,2.046875 H 2.6875 c -0.140625,0 -0.171875,0 -0.21875,0 -0.109375,-0.015625 -0.140625,-0.03125 -0.140625,-0.109375 0,-0.03125 0,-0.046875 0.046875,-0.21875 z m 0,0"
             transform="translate(178.585,110.99)"
             id="path49" />
        </g>
      </g>
    </g>
    <g
       ns1:text="$x$"
       transform="matrix(0.44253475,0,0,0.44253475,18.528683,53.518029)"
       id="g54">
      <g
         id="g53">
        <g
           style="fill:#000000;fill-opacity:1"
           id="g52">
          <path
             style="stroke:none"
             d="M 3.328125,-3.015625 C 3.390625,-3.265625 3.625,-4.1875 4.3125,-4.1875 c 0.046875,0 0.296875,0 0.5,0.125 C 4.53125,-4 4.34375,-3.765625 4.34375,-3.515625 c 0,0.15625 0.109375,0.34375 0.375,0.34375 0.21875,0 0.53125,-0.171875 0.53125,-0.578125 0,-0.515625 -0.578125,-0.65625 -0.921875,-0.65625 -0.578125,0 -0.921875,0.53125 -1.046875,0.75 -0.25,-0.65625 -0.78125,-0.75 -1.078125,-0.75 -1.03125,0 -1.609375,1.28125 -1.609375,1.53125 0,0.109375 0.109375,0.109375 0.125,0.109375 0.078125,0 0.109375,-0.03125 0.125,-0.109375 0.34375,-1.0625 1,-1.3125 1.34375,-1.3125 0.1875,0 0.53125,0.09375 0.53125,0.671875 0,0.3125 -0.171875,0.96875 -0.53125,2.375 -0.15625,0.609375 -0.515625,1.03125 -0.953125,1.03125 -0.0625,0 -0.28125,0 -0.5,-0.125 0.25,-0.0625 0.46875,-0.265625 0.46875,-0.546875 0,-0.265625 -0.21875,-0.34375 -0.359375,-0.34375 -0.3125,0 -0.546875,0.25 -0.546875,0.578125 0,0.453125 0.484375,0.65625 0.921875,0.65625 0.671875,0 1.03125,-0.703125 1.046875,-0.75 0.125,0.359375 0.484375,0.75 1.078125,0.75 1.03125,0 1.59375,-1.28125 1.59375,-1.53125 0,-0.109375 -0.078125,-0.109375 -0.109375,-0.109375 -0.09375,0 -0.109375,0.046875 -0.140625,0.109375 -0.328125,1.078125 -1,1.3125 -1.3125,1.3125 -0.390625,0 -0.546875,-0.3125 -0.546875,-0.65625 0,-0.21875 0.046875,-0.4375 0.15625,-0.875 z m 0,0"
             transform="translate(178.585,110.99)"
             id="path51" />
        </g>
      </g>
    </g>
    <g
       id="g5"
       transform="rotate(180,59.335615,101.89112)">
      <path
         style="fill:#000000;stroke:#000000;stroke-width:0.705556;stroke-dasharray:none;paint-order:fill markers stroke"
         d="M 31.350994,94.580357 V 109.20189"
         id="path1"
         sodipodi:nodetypes="cc" />
      <path
         style="fill:#000000;stroke:#000000;stroke-width:0.260129;stroke-dasharray:none;paint-order:fill markers stroke"
         d="m 31.38375,95.062619 -4.833449,4.833449"
         id="path2" />
      <path
         style="fill:#000000;stroke:#000000;stroke-width:0.260129;stroke-dasharray:none;paint-order:fill markers stroke"
         d="m 31.38375,98.819037 -4.833449,4.833453"
         id="path3" />
      <path
         style="fill:#000000;stroke:#000000;stroke-width:0.260129;stroke-dasharray:none;paint-order:fill markers stroke"
         d="m 31.38375,102.57546 -4.833449,4.83344"
         id="path4" />
      <path
         style="fill:#000000;stroke:#000000;stroke-width:0.260129;stroke-dasharray:none;paint-order:fill markers stroke"
         d="m 31.38375,106.33187 -4.833449,4.83345"
         id="path5" />
    </g>
  </g>
</svg>
