<?xml version="1.0" encoding="UTF-8" standalone="no"?>
<!-- Created with Inkscape (http://www.inkscape.org/) -->

<svg
   width="286.58118mm"
   height="76.576942mm"
   viewBox="0 0 286.58118 76.576942"
   version="1.1"
   id="svg1"
   inkscape:version="1.3.2 (1:1.3.2+202311252150+091e20ef0f)"
   sodipodi:docname="Gauss_Points_2D.svg"
   xmlns:inkscape="http://www.inkscape.org/namespaces/inkscape"
   xmlns:sodipodi="http://sodipodi.sourceforge.net/DTD/sodipodi-0.dtd"
   xmlns="http://www.w3.org/2000/svg"
   xmlns:svg="http://www.w3.org/2000/svg"
   xmlns:ns1="http://wanglongqi.github.io/WriteTeX">
  <sodipodi:namedview
     id="namedview1"
     pagecolor="#ffffff"
     bordercolor="#666666"
     borderopacity="1.0"
     inkscape:showpageshadow="2"
     inkscape:pageopacity="0.0"
     inkscape:pagecheckerboard="0"
     inkscape:deskcolor="#d1d1d1"
     inkscape:document-units="mm"
     inkscape:zoom="0.5744945"
     inkscape:cx="601.39827"
     inkscape:cy="139.25286"
     inkscape:window-width="1920"
     inkscape:window-height="1129"
     inkscape:window-x="1920"
     inkscape:window-y="0"
     inkscape:window-maximized="1"
     inkscape:current-layer="layer1" />
  <defs
     id="defs1">
    <marker
       style="overflow:visible"
       id="ConcaveTriangle"
       refX="0"
       refY="0"
       orient="auto-start-reverse"
       inkscape:stockid="Concave triangle arrow"
       markerWidth="1"
       markerHeight="1"
       viewBox="0 0 1 1"
       inkscape:isstock="true"
       inkscape:collect="always"
       preserveAspectRatio="xMidYMid">
      <path
         transform="scale(0.7)"
         d="M -2,-4 9,0 -2,4 c 2,-2.33 2,-5.66 0,-8 z"
         style="fill:context-stroke;fill-rule:evenodd;stroke:none"
         id="path7" />
    </marker>
  </defs>
  <g
     inkscape:label="Layer 1"
     inkscape:groupmode="layer"
     id="layer1"
     transform="translate(5.004766,-58.185151)">
    <path
       style="fill:none;stroke:#000000;stroke-width:0.529167;stroke-linecap:butt;stroke-linejoin:miter;stroke-dasharray:none;stroke-opacity:1"
       d="M 45.880492,207.44921 H 155.28516"
       id="path30" />
    <g
       ns1:text="$-1$"
       transform="matrix(0.69825401,0,0,0.69825401,-83.650426,141.99999)"
       id="g36">
      <g
         id="g35">
        <g
           style="fill:#000000;fill-opacity:1"
           id="g33">
          <path
             style="stroke:none"
             d="m 6.5625,-2.296875 c 0.171875,0 0.359375,0 0.359375,-0.203125 0,-0.1875 -0.1875,-0.1875 -0.359375,-0.1875 H 1.171875 c -0.171875,0 -0.34375,0 -0.34375,0.1875 0,0.203125 0.171875,0.203125 0.34375,0.203125 z m 0,0"
             transform="translate(178.585,110.99)"
             id="path33" />
        </g>
        <g
           style="fill:#000000;fill-opacity:1"
           id="g34">
          <path
             style="stroke:none"
             d="m 2.9375,-6.375 c 0,-0.25 0,-0.265625 -0.234375,-0.265625 C 2.078125,-6 1.203125,-6 0.890625,-6 v 0.3125 c 0.203125,0 0.78125,0 1.296875,-0.265625 v 5.171875 c 0,0.359375 -0.03125,0.46875 -0.921875,0.46875 h -0.3125 V 0 c 0.34375,-0.03125 1.203125,-0.03125 1.609375,-0.03125 0.390625,0 1.265625,0 1.609375,0.03125 v -0.3125 h -0.3125 c -0.90625,0 -0.921875,-0.109375 -0.921875,-0.46875 z m 0,0"
             transform="translate(186.333,110.99)"
             id="path34" />
        </g>
      </g>
    </g>
    <g
       ns1:text="$1$"
       transform="matrix(0.69825401,0,0,0.69825401,28.820017,141.99999)"
       id="g39">
      <g
         id="g38">
        <g
           style="fill:#000000;fill-opacity:1"
           id="g37">
          <path
             style="stroke:none"
             d="m 2.9375,-6.375 c 0,-0.25 0,-0.265625 -0.234375,-0.265625 C 2.078125,-6 1.203125,-6 0.890625,-6 v 0.3125 c 0.203125,0 0.78125,0 1.296875,-0.265625 v 5.171875 c 0,0.359375 -0.03125,0.46875 -0.921875,0.46875 h -0.3125 V 0 c 0.34375,-0.03125 1.203125,-0.03125 1.609375,-0.03125 0.390625,0 1.265625,0 1.609375,0.03125 v -0.3125 h -0.3125 c -0.90625,0 -0.921875,-0.109375 -0.921875,-0.46875 z m 0,0"
             transform="translate(178.585,110.99)"
             id="path36" />
        </g>
      </g>
    </g>
    <path
       style="fill:none;stroke:#666666;stroke-width:0.499771;stroke-linecap:butt;stroke-linejoin:miter;stroke-dasharray:none;stroke-opacity:1;marker-end:url(#ConcaveTriangle)"
       d="m 205.04223,97.031807 h 72.31203"
       id="path118" />
    <path
       style="fill:none;stroke:#666666;stroke-width:0.499771;stroke-linecap:butt;stroke-linejoin:miter;stroke-dasharray:none;stroke-opacity:1;marker-end:url(#ConcaveTriangle)"
       d="M 241.19824,134.76209 V 62.450077"
       id="path119" />
    <g
       ns1:text="$-1$"
       transform="matrix(0.69825401,0,0,0.69825401,75.98186,17.483273)"
       id="g123">
      <g
         id="g122">
        <g
           style="fill:#000000;fill-opacity:1"
           id="g120">
          <path
             style="stroke:none"
             d="m 6.5625,-2.296875 c 0.171875,0 0.359375,0 0.359375,-0.203125 0,-0.1875 -0.1875,-0.1875 -0.359375,-0.1875 H 1.171875 c -0.171875,0 -0.34375,0 -0.34375,0.1875 0,0.203125 0.171875,0.203125 0.34375,0.203125 z m 0,0"
             transform="translate(178.585,110.99)"
             id="path120" />
        </g>
        <g
           style="fill:#000000;fill-opacity:1"
           id="g121">
          <path
             style="stroke:none"
             d="m 2.9375,-6.375 c 0,-0.25 0,-0.265625 -0.234375,-0.265625 C 2.078125,-6 1.203125,-6 0.890625,-6 v 0.3125 c 0.203125,0 0.78125,0 1.296875,-0.265625 v 5.171875 c 0,0.359375 -0.03125,0.46875 -0.921875,0.46875 h -0.3125 V 0 c 0.34375,-0.03125 1.203125,-0.03125 1.609375,-0.03125 0.390625,0 1.265625,0 1.609375,0.03125 v -0.3125 h -0.3125 c -0.90625,0 -0.921875,-0.109375 -0.921875,-0.46875 z m 0,0"
             transform="translate(186.333,110.99)"
             id="path121" />
        </g>
      </g>
    </g>
    <g
       ns1:text="$1$"
       transform="matrix(0.69825401,0,0,0.69825401,148.61615,17.483273)"
       id="g126">
      <g
         id="g125">
        <g
           style="fill:#000000;fill-opacity:1"
           id="g124">
          <path
             style="stroke:none"
             d="m 2.9375,-6.375 c 0,-0.25 0,-0.265625 -0.234375,-0.265625 C 2.078125,-6 1.203125,-6 0.890625,-6 v 0.3125 c 0.203125,0 0.78125,0 1.296875,-0.265625 v 5.171875 c 0,0.359375 -0.03125,0.46875 -0.921875,0.46875 h -0.3125 V 0 c 0.34375,-0.03125 1.203125,-0.03125 1.609375,-0.03125 0.390625,0 1.265625,0 1.609375,0.03125 v -0.3125 h -0.3125 c -0.90625,0 -0.921875,-0.109375 -0.921875,-0.46875 z m 0,0"
             transform="translate(178.585,110.99)"
             id="path123" />
        </g>
      </g>
    </g>
    <g
       ns1:text="$-1$"
       transform="matrix(0.69825401,0,0,0.69825401,105.53404,57.19005)"
       id="g130">
      <g
         id="g129">
        <g
           style="fill:#000000;fill-opacity:1"
           id="g127">
          <path
             style="stroke:none"
             d="m 6.5625,-2.296875 c 0.171875,0 0.359375,0 0.359375,-0.203125 0,-0.1875 -0.1875,-0.1875 -0.359375,-0.1875 H 1.171875 c -0.171875,0 -0.34375,0 -0.34375,0.1875 0,0.203125 0.171875,0.203125 0.34375,0.203125 z m 0,0"
             transform="translate(178.585,110.99)"
             id="path126" />
        </g>
        <g
           style="fill:#000000;fill-opacity:1"
           id="g128">
          <path
             style="stroke:none"
             d="m 2.9375,-6.375 c 0,-0.25 0,-0.265625 -0.234375,-0.265625 C 2.078125,-6 1.203125,-6 0.890625,-6 v 0.3125 c 0.203125,0 0.78125,0 1.296875,-0.265625 v 5.171875 c 0,0.359375 -0.03125,0.46875 -0.921875,0.46875 h -0.3125 V 0 c 0.34375,-0.03125 1.203125,-0.03125 1.609375,-0.03125 0.390625,0 1.265625,0 1.609375,0.03125 v -0.3125 h -0.3125 c -0.90625,0 -0.921875,-0.109375 -0.921875,-0.46875 z m 0,0"
             transform="translate(186.333,110.99)"
             id="path127" />
        </g>
      </g>
    </g>
    <g
       ns1:text="$1$"
       transform="matrix(0.69825401,0,0,0.69825401,110.94411,-13.488018)"
       id="g133">
      <g
         id="g132">
        <g
           style="fill:#000000;fill-opacity:1"
           id="g131">
          <path
             style="stroke:none"
             d="m 2.9375,-6.375 c 0,-0.25 0,-0.265625 -0.234375,-0.265625 C 2.078125,-6 1.203125,-6 0.890625,-6 v 0.3125 c 0.203125,0 0.78125,0 1.296875,-0.265625 v 5.171875 c 0,0.359375 -0.03125,0.46875 -0.921875,0.46875 h -0.3125 V 0 c 0.34375,-0.03125 1.203125,-0.03125 1.609375,-0.03125 0.390625,0 1.265625,0 1.609375,0.03125 v -0.3125 h -0.3125 c -0.90625,0 -0.921875,-0.109375 -0.921875,-0.46875 z m 0,0"
             transform="translate(178.585,110.99)"
             id="path130" />
        </g>
      </g>
    </g>
    <g
       id="g81"
       transform="translate(139.42084,-25.128725)">
      <rect
         style="fill:none;stroke:#000000;stroke-width:0.423348;stroke-dasharray:none;paint-order:fill markers stroke"
         id="rect25"
         width="60.893883"
         height="60.893883"
         x="71.33046"
         y="91.713593" />
      <g
         id="g62"
         transform="translate(1.3011279,-1.3011075)">
        <path
           style="fill:none;stroke:#006b94;stroke-width:0.529167;stroke-linecap:butt;stroke-linejoin:miter;stroke-dasharray:none;stroke-opacity:1"
           d="m 97.780136,149.65713 5.392264,-5.39226"
           id="path39" />
        <path
           style="fill:none;stroke:#006b94;stroke-width:0.529167;stroke-linecap:butt;stroke-linejoin:miter;stroke-dasharray:none;stroke-opacity:1"
           d="m 103.1724,149.65713 -5.392264,-5.39226"
           id="path40" />
        <path
           style="fill:none;stroke:#006b94;stroke-width:0.529167;stroke-linecap:butt;stroke-linejoin:miter;stroke-dasharray:none;stroke-opacity:1"
           d="m 121.2795,149.65713 5.39226,-5.39226"
           id="path43" />
        <path
           style="fill:none;stroke:#006b94;stroke-width:0.529167;stroke-linecap:butt;stroke-linejoin:miter;stroke-dasharray:none;stroke-opacity:1"
           d="m 126.67176,149.65713 -5.39226,-5.39226"
           id="path44" />
        <path
           style="fill:none;stroke:#006b94;stroke-width:0.529167;stroke-linecap:butt;stroke-linejoin:miter;stroke-dasharray:none;stroke-opacity:1"
           d="m 74.280788,149.65713 5.39226,-5.39226"
           id="path45" />
        <path
           style="fill:none;stroke:#006b94;stroke-width:0.529167;stroke-linecap:butt;stroke-linejoin:miter;stroke-dasharray:none;stroke-opacity:1"
           d="m 79.673048,149.65713 -5.39226,-5.39226"
           id="path46" />
        <path
           style="fill:none;stroke:#006b94;stroke-width:0.529167;stroke-linecap:butt;stroke-linejoin:miter;stroke-dasharray:none;stroke-opacity:1"
           d="M 103.17241,102.65841 97.780134,97.266153"
           id="path41" />
        <path
           style="fill:none;stroke:#006b94;stroke-width:0.529167;stroke-linecap:butt;stroke-linejoin:miter;stroke-dasharray:none;stroke-opacity:1"
           d="m 103.17241,97.266153 -5.392276,5.392257"
           id="path42" />
        <path
           style="fill:none;stroke:#006b94;stroke-width:0.529167;stroke-linecap:butt;stroke-linejoin:miter;stroke-dasharray:none;stroke-opacity:1"
           d="M 79.673049,102.65841 74.280786,97.266153"
           id="path47" />
        <path
           style="fill:none;stroke:#006b94;stroke-width:0.529167;stroke-linecap:butt;stroke-linejoin:miter;stroke-dasharray:none;stroke-opacity:1"
           d="m 79.673049,97.266153 -5.392263,5.392257"
           id="path48" />
        <path
           style="fill:none;stroke:#006b94;stroke-width:0.529167;stroke-linecap:butt;stroke-linejoin:miter;stroke-dasharray:none;stroke-opacity:1"
           d="M 126.67176,102.65841 121.2795,97.266154"
           id="path49" />
        <path
           style="fill:none;stroke:#006b94;stroke-width:0.529167;stroke-linecap:butt;stroke-linejoin:miter;stroke-dasharray:none;stroke-opacity:1"
           d="m 126.67176,97.266154 -5.39226,5.392256"
           id="path50" />
        <path
           style="fill:none;stroke:#006b94;stroke-width:0.529167;stroke-linecap:butt;stroke-linejoin:miter;stroke-dasharray:none;stroke-opacity:1"
           d="m 103.17241,126.15777 -5.392276,-5.39226"
           id="path57" />
        <path
           style="fill:none;stroke:#006b94;stroke-width:0.529167;stroke-linecap:butt;stroke-linejoin:miter;stroke-dasharray:none;stroke-opacity:1"
           d="m 103.17241,120.76551 -5.392276,5.39226"
           id="path58" />
        <path
           style="fill:none;stroke:#006b94;stroke-width:0.529167;stroke-linecap:butt;stroke-linejoin:miter;stroke-dasharray:none;stroke-opacity:1"
           d="m 79.673049,126.15777 -5.392263,-5.39226"
           id="path59" />
        <path
           style="fill:none;stroke:#006b94;stroke-width:0.529167;stroke-linecap:butt;stroke-linejoin:miter;stroke-dasharray:none;stroke-opacity:1"
           d="m 79.673049,120.76551 -5.392263,5.39226"
           id="path60" />
        <path
           style="fill:none;stroke:#006b94;stroke-width:0.529167;stroke-linecap:butt;stroke-linejoin:miter;stroke-dasharray:none;stroke-opacity:1"
           d="m 126.67176,126.15777 -5.39226,-5.39226"
           id="path61" />
        <path
           style="fill:none;stroke:#006b94;stroke-width:0.529167;stroke-linecap:butt;stroke-linejoin:miter;stroke-dasharray:none;stroke-opacity:1"
           d="m 126.67176,120.76551 -5.39226,5.39226"
           id="path62" />
      </g>
    </g>
    <path
       style="fill:none;stroke:#666666;stroke-width:0.499771;stroke-linecap:butt;stroke-linejoin:miter;stroke-dasharray:none;stroke-opacity:1;marker-end:url(#ConcaveTriangle)"
       d="m 101.91095,97.031807 h 72.31203"
       id="path94" />
    <path
       style="fill:none;stroke:#666666;stroke-width:0.499771;stroke-linecap:butt;stroke-linejoin:miter;stroke-dasharray:none;stroke-opacity:1;marker-end:url(#ConcaveTriangle)"
       d="M 138.06696,134.76209 V 62.450077"
       id="path95" />
    <g
       ns1:text="$-1$"
       transform="matrix(0.69825401,0,0,0.69825401,-27.14942,17.483273)"
       id="g99">
      <g
         id="g98">
        <g
           style="fill:#000000;fill-opacity:1"
           id="g96">
          <path
             style="stroke:none"
             d="m 6.5625,-2.296875 c 0.171875,0 0.359375,0 0.359375,-0.203125 0,-0.1875 -0.1875,-0.1875 -0.359375,-0.1875 H 1.171875 c -0.171875,0 -0.34375,0 -0.34375,0.1875 0,0.203125 0.171875,0.203125 0.34375,0.203125 z m 0,0"
             transform="translate(178.585,110.99)"
             id="path96" />
        </g>
        <g
           style="fill:#000000;fill-opacity:1"
           id="g97">
          <path
             style="stroke:none"
             d="m 2.9375,-6.375 c 0,-0.25 0,-0.265625 -0.234375,-0.265625 C 2.078125,-6 1.203125,-6 0.890625,-6 v 0.3125 c 0.203125,0 0.78125,0 1.296875,-0.265625 v 5.171875 c 0,0.359375 -0.03125,0.46875 -0.921875,0.46875 h -0.3125 V 0 c 0.34375,-0.03125 1.203125,-0.03125 1.609375,-0.03125 0.390625,0 1.265625,0 1.609375,0.03125 v -0.3125 h -0.3125 c -0.90625,0 -0.921875,-0.109375 -0.921875,-0.46875 z m 0,0"
             transform="translate(186.333,110.99)"
             id="path97" />
        </g>
      </g>
    </g>
    <g
       ns1:text="$1$"
       transform="matrix(0.69825401,0,0,0.69825401,45.484871,17.483273)"
       id="g102">
      <g
         id="g101">
        <g
           style="fill:#000000;fill-opacity:1"
           id="g100">
          <path
             style="stroke:none"
             d="m 2.9375,-6.375 c 0,-0.25 0,-0.265625 -0.234375,-0.265625 C 2.078125,-6 1.203125,-6 0.890625,-6 v 0.3125 c 0.203125,0 0.78125,0 1.296875,-0.265625 v 5.171875 c 0,0.359375 -0.03125,0.46875 -0.921875,0.46875 h -0.3125 V 0 c 0.34375,-0.03125 1.203125,-0.03125 1.609375,-0.03125 0.390625,0 1.265625,0 1.609375,0.03125 v -0.3125 h -0.3125 c -0.90625,0 -0.921875,-0.109375 -0.921875,-0.46875 z m 0,0"
             transform="translate(178.585,110.99)"
             id="path99" />
        </g>
      </g>
    </g>
    <g
       ns1:text="$-1$"
       transform="matrix(0.69825401,0,0,0.69825401,2.40276,57.19005)"
       id="g106">
      <g
         id="g105">
        <g
           style="fill:#000000;fill-opacity:1"
           id="g103">
          <path
             style="stroke:none"
             d="m 6.5625,-2.296875 c 0.171875,0 0.359375,0 0.359375,-0.203125 0,-0.1875 -0.1875,-0.1875 -0.359375,-0.1875 H 1.171875 c -0.171875,0 -0.34375,0 -0.34375,0.1875 0,0.203125 0.171875,0.203125 0.34375,0.203125 z m 0,0"
             transform="translate(178.585,110.99)"
             id="path102" />
        </g>
        <g
           style="fill:#000000;fill-opacity:1"
           id="g104">
          <path
             style="stroke:none"
             d="m 2.9375,-6.375 c 0,-0.25 0,-0.265625 -0.234375,-0.265625 C 2.078125,-6 1.203125,-6 0.890625,-6 v 0.3125 c 0.203125,0 0.78125,0 1.296875,-0.265625 v 5.171875 c 0,0.359375 -0.03125,0.46875 -0.921875,0.46875 h -0.3125 V 0 c 0.34375,-0.03125 1.203125,-0.03125 1.609375,-0.03125 0.390625,0 1.265625,0 1.609375,0.03125 v -0.3125 h -0.3125 c -0.90625,0 -0.921875,-0.109375 -0.921875,-0.46875 z m 0,0"
             transform="translate(186.333,110.99)"
             id="path103" />
        </g>
      </g>
    </g>
    <g
       ns1:text="$1$"
       transform="matrix(0.69825401,0,0,0.69825401,7.812832,-13.488018)"
       id="g109">
      <g
         id="g108">
        <g
           style="fill:#000000;fill-opacity:1"
           id="g107">
          <path
             style="stroke:none"
             d="m 2.9375,-6.375 c 0,-0.25 0,-0.265625 -0.234375,-0.265625 C 2.078125,-6 1.203125,-6 0.890625,-6 v 0.3125 c 0.203125,0 0.78125,0 1.296875,-0.265625 v 5.171875 c 0,0.359375 -0.03125,0.46875 -0.921875,0.46875 h -0.3125 V 0 c 0.34375,-0.03125 1.203125,-0.03125 1.609375,-0.03125 0.390625,0 1.265625,0 1.609375,0.03125 v -0.3125 h -0.3125 c -0.90625,0 -0.921875,-0.109375 -0.921875,-0.46875 z m 0,0"
             transform="translate(178.585,110.99)"
             id="path106" />
        </g>
      </g>
    </g>
    <g
       id="g80"
       transform="translate(-32.374334,56.60062)">
      <rect
         style="fill:none;stroke:#000000;stroke-width:0.423333;stroke-dasharray:none;paint-order:fill markers stroke"
         id="rect6"
         width="60.891605"
         height="60.891605"
         x="139.9955"
         y="9.985383" />
      <g
         id="g69"
         transform="translate(54.749754,-77.456093)">
        <path
           style="fill:none;stroke:#006b94;stroke-width:0.529167;stroke-linecap:butt;stroke-linejoin:miter;stroke-dasharray:none;stroke-opacity:1"
           d="m 95.549043,103.13704 5.392267,-5.392268"
           id="path68" />
        <path
           style="fill:none;stroke:#006b94;stroke-width:0.529167;stroke-linecap:butt;stroke-linejoin:miter;stroke-dasharray:none;stroke-opacity:1"
           d="M 100.94131,103.13704 95.549043,97.744772"
           id="path69" />
      </g>
      <g
         id="g71"
         transform="translate(89.642494,-77.456093)">
        <path
           style="fill:none;stroke:#006b94;stroke-width:0.529167;stroke-linecap:butt;stroke-linejoin:miter;stroke-dasharray:none;stroke-opacity:1"
           d="m 95.549043,103.13704 5.392267,-5.392268"
           id="path70" />
        <path
           style="fill:none;stroke:#006b94;stroke-width:0.529167;stroke-linecap:butt;stroke-linejoin:miter;stroke-dasharray:none;stroke-opacity:1"
           d="M 100.94131,103.13704 95.549043,97.744772"
           id="path71" />
      </g>
      <g
         id="g73"
         transform="translate(89.642494,-42.563353)">
        <path
           style="fill:none;stroke:#006b94;stroke-width:0.529167;stroke-linecap:butt;stroke-linejoin:miter;stroke-dasharray:none;stroke-opacity:1"
           d="m 95.549043,103.13704 5.392267,-5.392268"
           id="path72" />
        <path
           style="fill:none;stroke:#006b94;stroke-width:0.529167;stroke-linecap:butt;stroke-linejoin:miter;stroke-dasharray:none;stroke-opacity:1"
           d="M 100.94131,103.13704 95.549043,97.744772"
           id="path73" />
      </g>
      <g
         id="g75"
         transform="translate(54.749754,-42.563353)">
        <path
           style="fill:none;stroke:#006b94;stroke-width:0.529167;stroke-linecap:butt;stroke-linejoin:miter;stroke-dasharray:none;stroke-opacity:1"
           d="m 95.549043,103.13704 5.392267,-5.392268"
           id="path74" />
        <path
           style="fill:none;stroke:#006b94;stroke-width:0.529167;stroke-linecap:butt;stroke-linejoin:miter;stroke-dasharray:none;stroke-opacity:1"
           d="M 100.94131,103.13704 95.549043,97.744772"
           id="path75" />
      </g>
    </g>
    <g
       id="g6"
       transform="translate(-63.038547,-3.9672842)">
      <path
         style="fill:none;stroke:#006b94;stroke-width:0.529167;stroke-linecap:butt;stroke-linejoin:miter;stroke-dasharray:none;stroke-opacity:1"
         d="m 95.549043,103.13704 5.392267,-5.392268"
         id="path11" />
      <path
         style="fill:none;stroke:#006b94;stroke-width:0.529167;stroke-linecap:butt;stroke-linejoin:miter;stroke-dasharray:none;stroke-opacity:1"
         d="M 100.94131,103.13704 95.549043,97.744772"
         id="path12" />
    </g>
    <rect
       style="fill:none;stroke:#000000;stroke-width:0.423333;stroke-dasharray:none;paint-order:fill markers stroke"
       id="rect1"
       width="60.891602"
       height="60.891602"
       x="4.7608285"
       y="66.027824" />
    <path
       style="fill:none;stroke:#666666;stroke-width:0.499771;stroke-linecap:butt;stroke-linejoin:miter;stroke-dasharray:none;stroke-opacity:1;marker-end:url(#ConcaveTriangle)"
       d="M -1.2203288,97.031807 H 71.091695"
       id="path81" />
    <path
       style="fill:none;stroke:#666666;stroke-width:0.499771;stroke-linecap:butt;stroke-linejoin:miter;stroke-dasharray:none;stroke-opacity:1;marker-end:url(#ConcaveTriangle)"
       d="M 34.935683,134.76209 V 62.450077"
       id="path82" />
    <g
       ns1:text="$-1$"
       transform="matrix(0.69825401,0,0,0.69825401,-130.2807,17.483273)"
       id="g5">
      <g
         id="surface1">
        <g
           style="fill:#000000;fill-opacity:1"
           id="g3">
          <path
             style="stroke:none"
             d="m 6.5625,-2.296875 c 0.171875,0 0.359375,0 0.359375,-0.203125 0,-0.1875 -0.1875,-0.1875 -0.359375,-0.1875 H 1.171875 c -0.171875,0 -0.34375,0 -0.34375,0.1875 0,0.203125 0.171875,0.203125 0.34375,0.203125 z m 0,0"
             transform="translate(178.585,110.99)"
             id="path3" />
        </g>
        <g
           style="fill:#000000;fill-opacity:1"
           id="g4">
          <path
             style="stroke:none"
             d="m 2.9375,-6.375 c 0,-0.25 0,-0.265625 -0.234375,-0.265625 C 2.078125,-6 1.203125,-6 0.890625,-6 v 0.3125 c 0.203125,0 0.78125,0 1.296875,-0.265625 v 5.171875 c 0,0.359375 -0.03125,0.46875 -0.921875,0.46875 h -0.3125 V 0 c 0.34375,-0.03125 1.203125,-0.03125 1.609375,-0.03125 0.390625,0 1.265625,0 1.609375,0.03125 v -0.3125 h -0.3125 c -0.90625,0 -0.921875,-0.109375 -0.921875,-0.46875 z m 0,0"
             transform="translate(186.333,110.99)"
             id="path4" />
        </g>
      </g>
    </g>
    <g
       ns1:text="$1$"
       transform="matrix(0.69825401,0,0,0.69825401,-57.646409,17.483273)"
       id="g11">
      <g
         id="g10">
        <g
           style="fill:#000000;fill-opacity:1"
           id="g9">
          <path
             style="stroke:none"
             d="m 2.9375,-6.375 c 0,-0.25 0,-0.265625 -0.234375,-0.265625 C 2.078125,-6 1.203125,-6 0.890625,-6 v 0.3125 c 0.203125,0 0.78125,0 1.296875,-0.265625 v 5.171875 c 0,0.359375 -0.03125,0.46875 -0.921875,0.46875 h -0.3125 V 0 c 0.34375,-0.03125 1.203125,-0.03125 1.609375,-0.03125 0.390625,0 1.265625,0 1.609375,0.03125 v -0.3125 h -0.3125 c -0.90625,0 -0.921875,-0.109375 -0.921875,-0.46875 z m 0,0"
             transform="translate(178.585,110.99)"
             id="path9" />
        </g>
      </g>
    </g>
    <g
       ns1:text="$-1$"
       transform="matrix(0.69825401,0,0,0.69825401,-100.72852,57.19005)"
       id="g19">
      <g
         id="g18">
        <g
           style="fill:#000000;fill-opacity:1"
           id="g16">
          <path
             style="stroke:none"
             d="m 6.5625,-2.296875 c 0.171875,0 0.359375,0 0.359375,-0.203125 0,-0.1875 -0.1875,-0.1875 -0.359375,-0.1875 H 1.171875 c -0.171875,0 -0.34375,0 -0.34375,0.1875 0,0.203125 0.171875,0.203125 0.34375,0.203125 z m 0,0"
             transform="translate(178.585,110.99)"
             id="path16" />
        </g>
        <g
           style="fill:#000000;fill-opacity:1"
           id="g17">
          <path
             style="stroke:none"
             d="m 2.9375,-6.375 c 0,-0.25 0,-0.265625 -0.234375,-0.265625 C 2.078125,-6 1.203125,-6 0.890625,-6 v 0.3125 c 0.203125,0 0.78125,0 1.296875,-0.265625 v 5.171875 c 0,0.359375 -0.03125,0.46875 -0.921875,0.46875 h -0.3125 V 0 c 0.34375,-0.03125 1.203125,-0.03125 1.609375,-0.03125 0.390625,0 1.265625,0 1.609375,0.03125 v -0.3125 h -0.3125 c -0.90625,0 -0.921875,-0.109375 -0.921875,-0.46875 z m 0,0"
             transform="translate(186.333,110.99)"
             id="path17" />
        </g>
      </g>
    </g>
    <g
       ns1:text="$1$"
       transform="matrix(0.69825401,0,0,0.69825401,-95.318448,-13.488018)"
       id="g22">
      <g
         id="g21">
        <g
           style="fill:#000000;fill-opacity:1"
           id="g20">
          <path
             style="stroke:none"
             d="m 2.9375,-6.375 c 0,-0.25 0,-0.265625 -0.234375,-0.265625 C 2.078125,-6 1.203125,-6 0.890625,-6 v 0.3125 c 0.203125,0 0.78125,0 1.296875,-0.265625 v 5.171875 c 0,0.359375 -0.03125,0.46875 -0.921875,0.46875 h -0.3125 V 0 c 0.34375,-0.03125 1.203125,-0.03125 1.609375,-0.03125 0.390625,0 1.265625,0 1.609375,0.03125 v -0.3125 h -0.3125 c -0.90625,0 -0.921875,-0.109375 -0.921875,-0.46875 z m 0,0"
             transform="translate(178.585,110.99)"
             id="path19" />
        </g>
      </g>
    </g>
    <g
       ns1:text="$\xi$"
       transform="matrix(0.69825401,0,0,0.69825401,-54.728907,27.317408)"
       id="g7">
      <g
         id="g2">
        <g
           style="fill:rgb(0%,0%,0%);fill-opacity:1;"
           id="g1">
          <path
             style="stroke:none;"
             d="M 1.53125 -3.046875 C 0.453125 -2.328125 0.234375 -1.390625 0.234375 -1.03125 C 0.234375 -0.5625 0.5 -0.28125 0.515625 -0.25 C 0.84375 0.078125 0.921875 0.125 1.671875 0.40625 L 2.875 0.875 C 3.03125 0.9375 3.234375 1 3.234375 1.296875 C 3.234375 1.53125 3.046875 1.828125 2.734375 1.828125 C 2.296875 1.828125 1.96875 1.578125 1.859375 1.5 C 1.796875 1.46875 1.796875 1.453125 1.75 1.453125 C 1.671875 1.453125 1.65625 1.53125 1.65625 1.5625 C 1.65625 1.6875 2.1875 2.046875 2.734375 2.046875 C 3.359375 2.046875 3.78125 1.46875 3.78125 0.984375 C 3.78125 0.5 3.40625 0.3125 3.296875 0.265625 C 3.15625 0.21875 2.828125 0.09375 2.6875 0.046875 C 2.5 -0.046875 2.296875 -0.125 2.078125 -0.1875 L 1.484375 -0.421875 C 1.03125 -0.609375 0.734375 -0.890625 0.734375 -1.3125 C 0.734375 -1.71875 1.125 -2.59375 1.96875 -3.015625 C 2.328125 -2.875 2.625 -2.875 2.84375 -2.875 C 3.140625 -2.875 3.765625 -2.875 3.765625 -3.1875 C 3.765625 -3.4375 3.34375 -3.453125 2.953125 -3.453125 C 2.765625 -3.453125 2.484375 -3.453125 2.109375 -3.34375 C 1.859375 -3.59375 1.8125 -3.921875 1.8125 -4.109375 C 1.8125 -4.671875 2.171875 -5.4375 2.921875 -5.8125 C 3.09375 -5.59375 3.328125 -5.59375 3.5625 -5.59375 C 3.8125 -5.59375 4.453125 -5.59375 4.453125 -5.90625 C 4.453125 -6.15625 4 -6.171875 3.625 -6.171875 C 3.484375 -6.171875 3.25 -6.171875 2.984375 -6.125 C 2.953125 -6.203125 2.9375 -6.28125 2.9375 -6.453125 C 2.9375 -6.59375 2.984375 -6.796875 2.984375 -6.8125 C 2.984375 -6.890625 2.9375 -6.953125 2.875 -6.953125 C 2.6875 -6.953125 2.6875 -6.484375 2.6875 -6.453125 C 2.6875 -6.265625 2.75 -6.109375 2.765625 -6.078125 C 1.6875 -5.765625 1.015625 -4.96875 1.015625 -4.203125 C 1.015625 -3.84375 1.203125 -3.421875 1.671875 -3.15625 Z M 3.15625 -5.90625 C 3.3125 -5.953125 3.515625 -5.953125 3.625 -5.953125 C 3.96875 -5.953125 4 -5.9375 4.1875 -5.890625 C 4.109375 -5.859375 4 -5.8125 3.5625 -5.8125 C 3.375 -5.8125 3.265625 -5.8125 3.15625 -5.90625 Z M 2.375 -3.1875 C 2.609375 -3.234375 2.828125 -3.234375 2.9375 -3.234375 C 3.296875 -3.234375 3.328125 -3.234375 3.515625 -3.1875 C 3.421875 -3.140625 3.328125 -3.09375 2.875 -3.09375 C 2.640625 -3.09375 2.546875 -3.09375 2.375 -3.1875 Z M 2.375 -3.1875 "
             transform="translate(178.585,110.99)"
             id="path1" />
        </g>
      </g>
    </g>
    <g
       ns1:text="$\xi$"
       transform="matrix(0.69825401,0,0,0.69825401,48.402373,27.317408)"
       id="g13">
      <g
         id="g12">
        <g
           style="fill:rgb(0%,0%,0%);fill-opacity:1;"
           id="g8">
          <path
             style="stroke:none;"
             d="M 1.53125 -3.046875 C 0.453125 -2.328125 0.234375 -1.390625 0.234375 -1.03125 C 0.234375 -0.5625 0.5 -0.28125 0.515625 -0.25 C 0.84375 0.078125 0.921875 0.125 1.671875 0.40625 L 2.875 0.875 C 3.03125 0.9375 3.234375 1 3.234375 1.296875 C 3.234375 1.53125 3.046875 1.828125 2.734375 1.828125 C 2.296875 1.828125 1.96875 1.578125 1.859375 1.5 C 1.796875 1.46875 1.796875 1.453125 1.75 1.453125 C 1.671875 1.453125 1.65625 1.53125 1.65625 1.5625 C 1.65625 1.6875 2.1875 2.046875 2.734375 2.046875 C 3.359375 2.046875 3.78125 1.46875 3.78125 0.984375 C 3.78125 0.5 3.40625 0.3125 3.296875 0.265625 C 3.15625 0.21875 2.828125 0.09375 2.6875 0.046875 C 2.5 -0.046875 2.296875 -0.125 2.078125 -0.1875 L 1.484375 -0.421875 C 1.03125 -0.609375 0.734375 -0.890625 0.734375 -1.3125 C 0.734375 -1.71875 1.125 -2.59375 1.96875 -3.015625 C 2.328125 -2.875 2.625 -2.875 2.84375 -2.875 C 3.140625 -2.875 3.765625 -2.875 3.765625 -3.1875 C 3.765625 -3.4375 3.34375 -3.453125 2.953125 -3.453125 C 2.765625 -3.453125 2.484375 -3.453125 2.109375 -3.34375 C 1.859375 -3.59375 1.8125 -3.921875 1.8125 -4.109375 C 1.8125 -4.671875 2.171875 -5.4375 2.921875 -5.8125 C 3.09375 -5.59375 3.328125 -5.59375 3.5625 -5.59375 C 3.8125 -5.59375 4.453125 -5.59375 4.453125 -5.90625 C 4.453125 -6.15625 4 -6.171875 3.625 -6.171875 C 3.484375 -6.171875 3.25 -6.171875 2.984375 -6.125 C 2.953125 -6.203125 2.9375 -6.28125 2.9375 -6.453125 C 2.9375 -6.59375 2.984375 -6.796875 2.984375 -6.8125 C 2.984375 -6.890625 2.9375 -6.953125 2.875 -6.953125 C 2.6875 -6.953125 2.6875 -6.484375 2.6875 -6.453125 C 2.6875 -6.265625 2.75 -6.109375 2.765625 -6.078125 C 1.6875 -5.765625 1.015625 -4.96875 1.015625 -4.203125 C 1.015625 -3.84375 1.203125 -3.421875 1.671875 -3.15625 Z M 3.15625 -5.90625 C 3.3125 -5.953125 3.515625 -5.953125 3.625 -5.953125 C 3.96875 -5.953125 4 -5.9375 4.1875 -5.890625 C 4.109375 -5.859375 4 -5.8125 3.5625 -5.8125 C 3.375 -5.8125 3.265625 -5.8125 3.15625 -5.90625 Z M 2.375 -3.1875 C 2.609375 -3.234375 2.828125 -3.234375 2.9375 -3.234375 C 3.296875 -3.234375 3.328125 -3.234375 3.515625 -3.1875 C 3.421875 -3.140625 3.328125 -3.09375 2.875 -3.09375 C 2.640625 -3.09375 2.546875 -3.09375 2.375 -3.1875 Z M 2.375 -3.1875 "
             transform="translate(178.585,110.99)"
             id="path8" />
        </g>
      </g>
    </g>
    <g
       ns1:text="$\xi$"
       transform="matrix(0.69825401,0,0,0.69825401,151.53365,27.317408)"
       id="g23">
      <g
         id="g15">
        <g
           style="fill:rgb(0%,0%,0%);fill-opacity:1;"
           id="g14">
          <path
             style="stroke:none;"
             d="M 1.53125 -3.046875 C 0.453125 -2.328125 0.234375 -1.390625 0.234375 -1.03125 C 0.234375 -0.5625 0.5 -0.28125 0.515625 -0.25 C 0.84375 0.078125 0.921875 0.125 1.671875 0.40625 L 2.875 0.875 C 3.03125 0.9375 3.234375 1 3.234375 1.296875 C 3.234375 1.53125 3.046875 1.828125 2.734375 1.828125 C 2.296875 1.828125 1.96875 1.578125 1.859375 1.5 C 1.796875 1.46875 1.796875 1.453125 1.75 1.453125 C 1.671875 1.453125 1.65625 1.53125 1.65625 1.5625 C 1.65625 1.6875 2.1875 2.046875 2.734375 2.046875 C 3.359375 2.046875 3.78125 1.46875 3.78125 0.984375 C 3.78125 0.5 3.40625 0.3125 3.296875 0.265625 C 3.15625 0.21875 2.828125 0.09375 2.6875 0.046875 C 2.5 -0.046875 2.296875 -0.125 2.078125 -0.1875 L 1.484375 -0.421875 C 1.03125 -0.609375 0.734375 -0.890625 0.734375 -1.3125 C 0.734375 -1.71875 1.125 -2.59375 1.96875 -3.015625 C 2.328125 -2.875 2.625 -2.875 2.84375 -2.875 C 3.140625 -2.875 3.765625 -2.875 3.765625 -3.1875 C 3.765625 -3.4375 3.34375 -3.453125 2.953125 -3.453125 C 2.765625 -3.453125 2.484375 -3.453125 2.109375 -3.34375 C 1.859375 -3.59375 1.8125 -3.921875 1.8125 -4.109375 C 1.8125 -4.671875 2.171875 -5.4375 2.921875 -5.8125 C 3.09375 -5.59375 3.328125 -5.59375 3.5625 -5.59375 C 3.8125 -5.59375 4.453125 -5.59375 4.453125 -5.90625 C 4.453125 -6.15625 4 -6.171875 3.625 -6.171875 C 3.484375 -6.171875 3.25 -6.171875 2.984375 -6.125 C 2.953125 -6.203125 2.9375 -6.28125 2.9375 -6.453125 C 2.9375 -6.59375 2.984375 -6.796875 2.984375 -6.8125 C 2.984375 -6.890625 2.9375 -6.953125 2.875 -6.953125 C 2.6875 -6.953125 2.6875 -6.484375 2.6875 -6.453125 C 2.6875 -6.265625 2.75 -6.109375 2.765625 -6.078125 C 1.6875 -5.765625 1.015625 -4.96875 1.015625 -4.203125 C 1.015625 -3.84375 1.203125 -3.421875 1.671875 -3.15625 Z M 3.15625 -5.90625 C 3.3125 -5.953125 3.515625 -5.953125 3.625 -5.953125 C 3.96875 -5.953125 4 -5.9375 4.1875 -5.890625 C 4.109375 -5.859375 4 -5.8125 3.5625 -5.8125 C 3.375 -5.8125 3.265625 -5.8125 3.15625 -5.90625 Z M 2.375 -3.1875 C 2.609375 -3.234375 2.828125 -3.234375 2.9375 -3.234375 C 3.296875 -3.234375 3.328125 -3.234375 3.515625 -3.1875 C 3.421875 -3.140625 3.328125 -3.09375 2.875 -3.09375 C 2.640625 -3.09375 2.546875 -3.09375 2.375 -3.1875 Z M 2.375 -3.1875 "
             transform="translate(178.585,110.99)"
             id="path13" />
        </g>
      </g>
    </g>
    <g
       ns1:text="$\eta$"
       transform="matrix(0.69825401,0,0,0.69825401,118.98031,-14.459014)"
       id="g26">
      <g
         id="g25">
        <g
           style="fill:rgb(0%,0%,0%);fill-opacity:1;"
           id="g24">
          <path
             style="stroke:none;"
             d="M 4.859375 -2.765625 C 4.921875 -2.9375 4.9375 -3.078125 4.9375 -3.34375 C 4.9375 -3.984375 4.546875 -4.40625 3.796875 -4.40625 C 3.015625 -4.40625 2.5 -3.890625 2.25 -3.53125 C 2.203125 -4.109375 1.78125 -4.40625 1.328125 -4.40625 C 0.875 -4.40625 0.6875 -4.015625 0.59375 -3.84375 C 0.421875 -3.5 0.296875 -2.90625 0.296875 -2.875 C 0.296875 -2.765625 0.390625 -2.765625 0.40625 -2.765625 C 0.515625 -2.765625 0.515625 -2.78125 0.578125 -3 C 0.75 -3.703125 0.953125 -4.1875 1.3125 -4.1875 C 1.46875 -4.1875 1.609375 -4.109375 1.609375 -3.734375 C 1.609375 -3.515625 1.578125 -3.40625 1.453125 -2.890625 L 0.875 -0.59375 C 0.84375 -0.4375 0.78125 -0.203125 0.78125 -0.15625 C 0.78125 0.015625 0.921875 0.109375 1.078125 0.109375 C 1.203125 0.109375 1.375 0.03125 1.453125 -0.171875 C 1.453125 -0.1875 1.578125 -0.65625 1.640625 -0.90625 L 1.859375 -1.796875 C 1.90625 -2.03125 1.96875 -2.25 2.03125 -2.46875 C 2.046875 -2.53125 2.125 -2.859375 2.140625 -2.921875 C 2.15625 -3.015625 2.46875 -3.5625 2.8125 -3.84375 C 3.03125 -4 3.34375 -4.1875 3.765625 -4.1875 C 4.203125 -4.1875 4.3125 -3.84375 4.3125 -3.484375 C 4.3125 -3.4375 4.3125 -3.265625 4.203125 -2.859375 L 3.078125 1.71875 C 3.046875 1.84375 3.046875 1.859375 3.046875 1.890625 C 3.046875 2.03125 3.15625 2.15625 3.3125 2.15625 C 3.625 2.15625 3.703125 1.859375 3.734375 1.75 Z M 4.859375 -2.765625 "
             transform="translate(178.585,110.99)"
             id="path23" />
        </g>
      </g>
    </g>
    <g
       ns1:text="$\eta$"
       transform="matrix(0.69825401,0,0,0.69825401,15.849028,-14.459014)"
       id="g29">
      <g
         id="g28">
        <g
           style="fill:rgb(0%,0%,0%);fill-opacity:1;"
           id="g27">
          <path
             style="stroke:none;"
             d="M 4.859375 -2.765625 C 4.921875 -2.9375 4.9375 -3.078125 4.9375 -3.34375 C 4.9375 -3.984375 4.546875 -4.40625 3.796875 -4.40625 C 3.015625 -4.40625 2.5 -3.890625 2.25 -3.53125 C 2.203125 -4.109375 1.78125 -4.40625 1.328125 -4.40625 C 0.875 -4.40625 0.6875 -4.015625 0.59375 -3.84375 C 0.421875 -3.5 0.296875 -2.90625 0.296875 -2.875 C 0.296875 -2.765625 0.390625 -2.765625 0.40625 -2.765625 C 0.515625 -2.765625 0.515625 -2.78125 0.578125 -3 C 0.75 -3.703125 0.953125 -4.1875 1.3125 -4.1875 C 1.46875 -4.1875 1.609375 -4.109375 1.609375 -3.734375 C 1.609375 -3.515625 1.578125 -3.40625 1.453125 -2.890625 L 0.875 -0.59375 C 0.84375 -0.4375 0.78125 -0.203125 0.78125 -0.15625 C 0.78125 0.015625 0.921875 0.109375 1.078125 0.109375 C 1.203125 0.109375 1.375 0.03125 1.453125 -0.171875 C 1.453125 -0.1875 1.578125 -0.65625 1.640625 -0.90625 L 1.859375 -1.796875 C 1.90625 -2.03125 1.96875 -2.25 2.03125 -2.46875 C 2.046875 -2.53125 2.125 -2.859375 2.140625 -2.921875 C 2.15625 -3.015625 2.46875 -3.5625 2.8125 -3.84375 C 3.03125 -4 3.34375 -4.1875 3.765625 -4.1875 C 4.203125 -4.1875 4.3125 -3.84375 4.3125 -3.484375 C 4.3125 -3.4375 4.3125 -3.265625 4.203125 -2.859375 L 3.078125 1.71875 C 3.046875 1.84375 3.046875 1.859375 3.046875 1.890625 C 3.046875 2.03125 3.15625 2.15625 3.3125 2.15625 C 3.625 2.15625 3.703125 1.859375 3.734375 1.75 Z M 4.859375 -2.765625 "
             transform="translate(178.585,110.99)"
             id="path26" />
        </g>
      </g>
    </g>
    <g
       ns1:text="$\eta$"
       transform="matrix(0.69825401,0,0,0.69825401,-87.282252,-14.459014)"
       id="g32">
      <g
         id="g31">
        <g
           style="fill:rgb(0%,0%,0%);fill-opacity:1;"
           id="g30">
          <path
             style="stroke:none;"
             d="M 4.859375 -2.765625 C 4.921875 -2.9375 4.9375 -3.078125 4.9375 -3.34375 C 4.9375 -3.984375 4.546875 -4.40625 3.796875 -4.40625 C 3.015625 -4.40625 2.5 -3.890625 2.25 -3.53125 C 2.203125 -4.109375 1.78125 -4.40625 1.328125 -4.40625 C 0.875 -4.40625 0.6875 -4.015625 0.59375 -3.84375 C 0.421875 -3.5 0.296875 -2.90625 0.296875 -2.875 C 0.296875 -2.765625 0.390625 -2.765625 0.40625 -2.765625 C 0.515625 -2.765625 0.515625 -2.78125 0.578125 -3 C 0.75 -3.703125 0.953125 -4.1875 1.3125 -4.1875 C 1.46875 -4.1875 1.609375 -4.109375 1.609375 -3.734375 C 1.609375 -3.515625 1.578125 -3.40625 1.453125 -2.890625 L 0.875 -0.59375 C 0.84375 -0.4375 0.78125 -0.203125 0.78125 -0.15625 C 0.78125 0.015625 0.921875 0.109375 1.078125 0.109375 C 1.203125 0.109375 1.375 0.03125 1.453125 -0.171875 C 1.453125 -0.1875 1.578125 -0.65625 1.640625 -0.90625 L 1.859375 -1.796875 C 1.90625 -2.03125 1.96875 -2.25 2.03125 -2.46875 C 2.046875 -2.53125 2.125 -2.859375 2.140625 -2.921875 C 2.15625 -3.015625 2.46875 -3.5625 2.8125 -3.84375 C 3.03125 -4 3.34375 -4.1875 3.765625 -4.1875 C 4.203125 -4.1875 4.3125 -3.84375 4.3125 -3.484375 C 4.3125 -3.4375 4.3125 -3.265625 4.203125 -2.859375 L 3.078125 1.71875 C 3.046875 1.84375 3.046875 1.859375 3.046875 1.890625 C 3.046875 2.03125 3.15625 2.15625 3.3125 2.15625 C 3.625 2.15625 3.703125 1.859375 3.734375 1.75 Z M 4.859375 -2.765625 "
             transform="translate(178.585,110.99)"
             id="path29" />
        </g>
      </g>
    </g>
  </g>
</svg>
