<?xml version="1.0" encoding="UTF-8" standalone="no"?>
<!-- Created with Inkscape (http://www.inkscape.org/) -->

<svg
   width="93.424767mm"
   height="48.573044mm"
   viewBox="0 0 93.424767 48.573044"
   version="1.1"
   id="svg1"
   inkscape:version="1.3.2 (1:1.3.2+202311252150+091e20ef0f)"
   sodipodi:docname="Physical_Gradients_2D.svg"
   xmlns:inkscape="http://www.inkscape.org/namespaces/inkscape"
   xmlns:sodipodi="http://sodipodi.sourceforge.net/DTD/sodipodi-0.dtd"
   xmlns:xlink="http://www.w3.org/1999/xlink"
   xmlns="http://www.w3.org/2000/svg"
   xmlns:svg="http://www.w3.org/2000/svg"
   xmlns:ns1="http://wanglongqi.github.io/WriteTeX">
  <sodipodi:namedview
     id="namedview1"
     pagecolor="#ffffff"
     bordercolor="#000000"
     borderopacity="0.25"
     inkscape:showpageshadow="2"
     inkscape:pageopacity="0.0"
     inkscape:pagecheckerboard="0"
     inkscape:deskcolor="#d1d1d1"
     inkscape:document-units="mm"
     inkscape:zoom="2.0485265"
     inkscape:cx="225.28388"
     inkscape:cy="147.42304"
     inkscape:window-width="1920"
     inkscape:window-height="1129"
     inkscape:window-x="1920"
     inkscape:window-y="0"
     inkscape:window-maximized="1"
     inkscape:current-layer="layer1"
     showgrid="false" />
  <defs
     id="defs1">
    <marker
       style="overflow:visible"
       id="marker84"
       refX="0"
       refY="0"
       orient="auto-start-reverse"
       inkscape:stockid="Concave triangle arrow"
       markerWidth="1"
       markerHeight="1"
       viewBox="0 0 1 1"
       inkscape:isstock="true"
       inkscape:collect="always"
       preserveAspectRatio="xMidYMid">
      <path
         transform="scale(0.7)"
         d="M -2,-4 9,0 -2,4 c 2,-2.33 2,-5.66 0,-8 z"
         style="fill:context-stroke;fill-rule:evenodd;stroke:none"
         id="path7" />
    </marker>
    <linearGradient
       id="linearGradient1">
      <stop
         style="stop-color:#b71a49;stop-opacity:1;"
         offset="0.17423134"
         id="stop3" />
      <stop
         style="stop-color:#e3000f;stop-opacity:0;"
         offset="0.72767204"
         id="stop4" />
    </linearGradient>
    <linearGradient
       id="linearGradient1-1">
      <stop
         style="stop-color:#e3000f;stop-opacity:1;"
         offset="0.11555843"
         id="stop1" />
      <stop
         style="stop-color:#e3000f;stop-opacity:0;"
         offset="0.86086082"
         id="stop2" />
    </linearGradient>
    <marker
       style="overflow:visible"
       id="ConcaveTriangle"
       refX="0"
       refY="0"
       orient="auto-start-reverse"
       inkscape:stockid="Concave triangle arrow"
       markerWidth="1"
       markerHeight="1"
       viewBox="0 0 1 1"
       inkscape:isstock="true"
       inkscape:collect="always"
       preserveAspectRatio="xMidYMid">
      <path
         transform="scale(0.7)"
         d="M -2,-4 9,0 -2,4 c 2,-2.33 2,-5.66 0,-8 z"
         style="fill:context-stroke;fill-rule:evenodd;stroke:none"
         id="path18" />
    </marker>
    <marker
       style="overflow:visible"
       id="ArrowWideHeavy"
       refX="0"
       refY="0"
       orient="auto-start-reverse"
       inkscape:stockid="Wide, heavy arrow"
       markerWidth="1"
       markerHeight="1"
       viewBox="0 0 1 1"
       inkscape:isstock="true"
       inkscape:collect="always"
       preserveAspectRatio="xMidYMid">
      <path
         style="fill:context-stroke;fill-rule:evenodd;stroke:none"
         d="m 1,0 -3,3 h -2 l 3,-3 -3,-3 h 2 z"
         id="path9-7" />
    </marker>
    <radialGradient
       inkscape:collect="always"
       xlink:href="#linearGradient1-1"
       id="radialGradient2"
       cx="102.2627"
       cy="97.707619"
       fx="102.2627"
       fy="97.707619"
       r="14.160111"
       gradientUnits="userSpaceOnUse"
       spreadMethod="pad"
       gradientTransform="matrix(-1.6076266,1.2135774,-1.2025142,-1.5929758,389.25693,129.56823)" />
    <mask
       maskUnits="userSpaceOnUse"
       id="mask4">
      <path
         style="fill:#999999;stroke:#000000;stroke-width:0.264583px;stroke-linecap:butt;stroke-linejoin:miter;stroke-opacity:1"
         d="m 94.454022,107.98668 -0.91169,-6.89213 5.441153,-2.260177 4.669135,11.358547 z"
         id="path5" />
    </mask>
    <radialGradient
       inkscape:collect="always"
       xlink:href="#linearGradient1-1"
       id="radialGradient5"
       gradientUnits="userSpaceOnUse"
       gradientTransform="matrix(-1.6076266,1.2135774,-1.2025142,-1.5929758,389.25693,129.56823)"
       cx="102.2627"
       cy="97.707619"
       fx="102.2627"
       fy="97.707619"
       r="14.160111"
       spreadMethod="pad" />
  </defs>
  <g
     inkscape:label="Ebene 1"
     inkscape:groupmode="layer"
     id="layer1"
     transform="translate(-78.763507,-76.683081)">
    <path
       style="font-variation-settings:normal;opacity:1;vector-effect:none;fill:none;fill-opacity:1;stroke:#666666;stroke-width:0.282;stroke-linecap:butt;stroke-linejoin:miter;stroke-miterlimit:4;stroke-dasharray:none;stroke-dashoffset:0;stroke-opacity:1;-inkscape-stroke:none;marker-end:url(#ConcaveTriangle);paint-order:fill markers stroke;stop-color:#000000;stop-opacity:1"
       d="m 78.763782,102.27272 44.361208,-0.0864"
       id="path29"
       sodipodi:nodetypes="cc" />
    <path
       style="font-variation-settings:normal;opacity:1;vector-effect:none;fill:none;fill-opacity:1;stroke:#666666;stroke-width:0.282;stroke-linecap:butt;stroke-linejoin:miter;stroke-miterlimit:4;stroke-dasharray:none;stroke-dashoffset:0;stroke-opacity:1;-inkscape-stroke:none;marker-end:url(#ConcaveTriangle);paint-order:fill markers stroke;stop-color:#000000;stop-opacity:1"
       d="m 101.91818,125.25585 -0.0864,-44.361204"
       id="path1"
       sodipodi:nodetypes="cc" />
    <rect
       style="mix-blend-mode:normal;fill:url(#radialGradient2);stroke:#000000;stroke-width:0.352778;stroke-dasharray:none;paint-order:fill markers stroke"
       id="rect1"
       width="27.967443"
       height="27.967443"
       x="87.848824"
       y="88.203362" />
    <path
       style="font-variation-settings:normal;opacity:1;vector-effect:none;fill:none;fill-opacity:1;stroke:#006b94;stroke-width:0.423333;stroke-linecap:butt;stroke-linejoin:miter;stroke-miterlimit:4;stroke-dasharray:none;stroke-dashoffset:0;stroke-opacity:1;-inkscape-stroke:none;marker-end:url(#marker84);paint-order:fill markers stroke;stop-color:#000000;stop-opacity:1"
       d="m 98.21203,111.87616 c 26.71893,19.00153 45.31438,5.73545 45.31438,5.73545"
       id="path44"
       sodipodi:nodetypes="cc" />
    <path
       style="fill:none;stroke:#000000;stroke-width:0.264583px;stroke-linecap:butt;stroke-linejoin:miter;stroke-opacity:1"
       d="m 94.454022,107.98668 -0.91169,-6.89213 5.441153,-2.260177 4.669135,11.358547 z"
       id="path2" />
    <circle
       style="font-variation-settings:normal;vector-effect:none;fill:#000000;fill-opacity:1;stroke:#000000;stroke-width:0.206167;stroke-linecap:square;stroke-linejoin:round;stroke-miterlimit:10;stroke-dasharray:none;stroke-dashoffset:0;stroke-opacity:1;-inkscape-stroke:none;paint-order:fill markers stroke"
       id="path63"
       cx="103.65262"
       cy="110.19292"
       r="0.72640634" />
    <circle
       style="font-variation-settings:normal;vector-effect:none;fill:#000000;fill-opacity:1;stroke:#000000;stroke-width:0.206167;stroke-linecap:square;stroke-linejoin:round;stroke-miterlimit:10;stroke-dasharray:none;stroke-dashoffset:0;stroke-opacity:1;-inkscape-stroke:none;paint-order:fill markers stroke"
       id="circle2"
       cx="98.983482"
       cy="98.834373"
       r="0.72640634" />
    <circle
       style="font-variation-settings:normal;vector-effect:none;fill:#000000;fill-opacity:1;stroke:#000000;stroke-width:0.206167;stroke-linecap:square;stroke-linejoin:round;stroke-miterlimit:10;stroke-dasharray:none;stroke-dashoffset:0;stroke-opacity:1;-inkscape-stroke:none;paint-order:fill markers stroke"
       id="circle3"
       cx="93.542336"
       cy="101.09455"
       r="0.72640634" />
    <circle
       style="font-variation-settings:normal;vector-effect:none;fill:#000000;fill-opacity:1;stroke:#000000;stroke-width:0.206167;stroke-linecap:square;stroke-linejoin:round;stroke-miterlimit:10;stroke-dasharray:none;stroke-dashoffset:0;stroke-opacity:1;-inkscape-stroke:none;paint-order:fill markers stroke"
       id="circle4"
       cx="94.454025"
       cy="107.98668"
       r="0.72640634" />
    <rect
       style="fill:url(#radialGradient5);stroke:#000000;stroke-width:0.352778;stroke-dasharray:none;paint-order:fill markers stroke"
       id="rect4"
       width="27.967443"
       height="27.967443"
       x="87.848824"
       y="88.203362"
       mask="url(#mask4)"
       transform="matrix(3.4032341,0,0,3.4032341,-181.42131,-254.02503)" />
    <circle
       style="font-variation-settings:normal;vector-effect:none;fill:#000000;fill-opacity:1;stroke:#000000;stroke-width:0.315908;stroke-linecap:square;stroke-linejoin:round;stroke-miterlimit:10;stroke-dasharray:none;stroke-dashoffset:0;stroke-opacity:1;-inkscape-stroke:none;paint-order:fill markers stroke"
       id="circle5"
       cx="170.91725"
       cy="120.5204"
       r="1.1130673" />
    <circle
       style="font-variation-settings:normal;vector-effect:none;fill:#000000;fill-opacity:1;stroke:#000000;stroke-width:0.315908;stroke-linecap:square;stroke-linejoin:round;stroke-miterlimit:10;stroke-dasharray:none;stroke-dashoffset:0;stroke-opacity:1;-inkscape-stroke:none;paint-order:fill markers stroke"
       id="circle6"
       cx="155.41093"
       cy="82.798393"
       r="1.1130673" />
    <circle
       style="font-variation-settings:normal;vector-effect:none;fill:#000000;fill-opacity:1;stroke:#000000;stroke-width:0.315908;stroke-linecap:square;stroke-linejoin:round;stroke-miterlimit:10;stroke-dasharray:none;stroke-dashoffset:0;stroke-opacity:1;-inkscape-stroke:none;paint-order:fill markers stroke"
       id="circle7"
       cx="137.34074"
       cy="90.304489"
       r="1.1130673" />
    <circle
       style="font-variation-settings:normal;vector-effect:none;fill:#000000;fill-opacity:1;stroke:#000000;stroke-width:0.315908;stroke-linecap:square;stroke-linejoin:round;stroke-miterlimit:10;stroke-dasharray:none;stroke-dashoffset:0;stroke-opacity:1;-inkscape-stroke:none;paint-order:fill markers stroke"
       id="circle8"
       cx="140.36848"
       cy="113.19343"
       r="1.1130673" />
    <path
       style="fill:none;stroke:#000000;stroke-width:0.405419px;stroke-linecap:butt;stroke-linejoin:miter;stroke-opacity:1"
       d="m 140.36848,113.19341 30.54877,7.32698 -15.50632,-37.722002 -18.07019,7.5061 z"
       id="path8"
       sodipodi:nodetypes="ccccc" />
    <path
       style="fill:none;stroke:#000000;stroke-width:0.289271;stroke-linecap:butt;stroke-linejoin:miter;stroke-dasharray:none;stroke-opacity:1;marker-end:url(#ArrowWideHeavy)"
       d="m 145.42269,108.14502 6.77288,-4.75562"
       id="path9" />
    <path
       style="font-variation-settings:normal;opacity:1;vector-effect:none;fill:none;fill-opacity:1;stroke:#333333;stroke-width:0.289271;stroke-linecap:butt;stroke-linejoin:miter;stroke-miterlimit:4;stroke-dasharray:0.578543, 0.289271;stroke-dashoffset:0;stroke-opacity:1;-inkscape-stroke:none;marker-end:url(#ArrowWideHeavy);stop-color:#000000;stop-opacity:1"
       d="m 145.42269,108.93314 h 6.77288"
       id="path47" />
    <path
       style="font-variation-settings:normal;opacity:1;vector-effect:none;fill:none;fill-opacity:1;stroke:#333333;stroke-width:0.289271;stroke-linecap:butt;stroke-linejoin:miter;stroke-miterlimit:4;stroke-dasharray:0.578543, 0.289271;stroke-dashoffset:0;stroke-opacity:1;-inkscape-stroke:none;marker-end:url(#ArrowWideHeavy);stop-color:#000000;stop-opacity:1"
       d="M 153.49266,108.14502 V 103.3894"
       id="path48" />
    <g
       ns1:text="$\nabla u$"
       transform="matrix(0.28371165,-0.19010437,0.19010437,0.28371165,75.736567,106.82158)"
       id="g54">
      <g
         id="g53">
        <g
           style="fill:#000000;fill-opacity:1"
           id="g51">
          <path
             style="stroke:none"
             d="M 7.78125,-6.59375 C 7.796875,-6.625 7.828125,-6.6875 7.828125,-6.734375 7.828125,-6.796875 7.8125,-6.8125 7.59375,-6.8125 H 0.703125 c -0.21875,0 -0.234375,0.015625 -0.234375,0.078125 0,0.046875 0.03125,0.109375 0.046875,0.140625 L 3.875,0.140625 c 0.078125,0.125 0.109375,0.1875 0.265625,0.1875 0.171875,0 0.203125,-0.0625 0.28125,-0.1875 z m -6.078125,0.5 h 5.46875 l -2.71875,5.484375 z m 0,0"
             transform="translate(178.585,110.99)"
             id="path49" />
        </g>
        <g
           style="fill:#000000;fill-opacity:1"
           id="g52">
          <path
             style="stroke:none"
             d="M 3.484375,-0.5625 C 3.59375,-0.15625 3.953125,0.109375 4.375,0.109375 4.71875,0.109375 4.953125,-0.125 5.109375,-0.4375 5.28125,-0.796875 5.40625,-1.40625 5.40625,-1.421875 c 0,-0.109375 -0.078125,-0.109375 -0.109375,-0.109375 -0.109375,0 -0.109375,0.046875 -0.140625,0.1875 -0.140625,0.5625 -0.328125,1.234375 -0.75,1.234375 -0.203125,0 -0.3125,-0.125 -0.3125,-0.453125 0,-0.21875 0.125,-0.6875 0.203125,-1.046875 L 4.578125,-2.6875 C 4.609375,-2.828125 4.703125,-3.203125 4.75,-3.359375 4.796875,-3.59375 4.890625,-3.96875 4.890625,-4.03125 c 0,-0.171875 -0.140625,-0.265625 -0.28125,-0.265625 -0.046875,0 -0.3125,0.015625 -0.390625,0.34375 -0.1875,0.734375 -0.625,2.484375 -0.75,3 -0.015625,0.046875 -0.40625,0.84375 -1.140625,0.84375 -0.515625,0 -0.609375,-0.453125 -0.609375,-0.8125 0,-0.5625 0.28125,-1.34375 0.53125,-2.03125 0.125,-0.3125 0.171875,-0.453125 0.171875,-0.640625 0,-0.4375 -0.3125,-0.8125 -0.8125,-0.8125 -0.953125,0 -1.3125,1.453125 -1.3125,1.53125 0,0.109375 0.09375,0.109375 0.109375,0.109375 0.109375,0 0.109375,-0.03125 0.15625,-0.1875 0.25,-0.859375 0.640625,-1.234375 1.015625,-1.234375 0.09375,0 0.25,0.015625 0.25,0.328125 0,0.234375 -0.109375,0.53125 -0.171875,0.671875 -0.375,1 -0.578125,1.609375 -0.578125,2.09375 0,0.953125 0.6875,1.203125 1.21875,1.203125 0.65625,0 1.015625,-0.453125 1.1875,-0.671875 z m 0,0"
             transform="translate(186.887,110.99)"
             id="path51" />
        </g>
      </g>
    </g>
    <g
       ns1:text="$\partial u /\partial x_1$"
       transform="matrix(0.34151423,0,0,0.34151423,86.033239,104.07062)"
       id="g14"
       style="fill:#333333">
      <g
         id="g13"
         style="fill:#333333">
        <g
           style="fill:#333333;fill-opacity:1"
           id="g3">
          <path
             style="fill:#333333;stroke:none"
             d="m 4.609375,-3.375 c -0.09375,-0.625 -0.5,-1.1875 -1.28125,-1.1875 -0.609375,0 -1.25,0.171875 -2.03125,0.9375 -0.828125,0.828125 -0.890625,1.765625 -0.890625,2.0625 0,0.625 0.4375,1.78125 1.828125,1.78125 2.375,0 3.40625,-3.34375 3.40625,-4.78125 0,-1.578125 -0.921875,-2.578125 -2.15625,-2.578125 -1.4375,0 -1.90625,1.296875 -1.90625,1.578125 0,0.140625 0.09375,0.34375 0.390625,0.34375 0.328125,0 0.53125,-0.296875 0.53125,-0.515625 0,-0.359375 -0.3125,-0.359375 -0.46875,-0.359375 0.4375,-0.734375 1.15625,-0.796875 1.4375,-0.796875 0.734375,0 1.421875,0.515625 1.421875,1.8125 0,0.390625 -0.0625,0.890625 -0.265625,1.703125 z m -2.34375,3.3125 c -1.09375,0 -1.09375,-1.03125 -1.09375,-1.125 0,-0.265625 0.25,-1.65625 0.65625,-2.265625 0.390625,-0.5625 0.890625,-0.890625 1.5,-0.890625 1.09375,0 1.109375,1.125 1.109375,1.328125 0,0.71875 -0.640625,2.953125 -2.171875,2.953125 z m 0,0"
             transform="translate(178.585,110.99)"
             id="path3" />
        </g>
        <g
           style="fill:#333333;fill-opacity:1"
           id="g10">
          <path
             style="fill:#333333;stroke:none"
             d="M 3.484375,-0.5625 C 3.59375,-0.15625 3.953125,0.109375 4.375,0.109375 4.71875,0.109375 4.953125,-0.125 5.109375,-0.4375 5.28125,-0.796875 5.40625,-1.40625 5.40625,-1.421875 c 0,-0.109375 -0.078125,-0.109375 -0.109375,-0.109375 -0.109375,0 -0.109375,0.046875 -0.140625,0.1875 -0.140625,0.5625 -0.328125,1.234375 -0.75,1.234375 -0.203125,0 -0.3125,-0.125 -0.3125,-0.453125 0,-0.21875 0.125,-0.6875 0.203125,-1.046875 L 4.578125,-2.6875 C 4.609375,-2.828125 4.703125,-3.203125 4.75,-3.359375 4.796875,-3.59375 4.890625,-3.96875 4.890625,-4.03125 c 0,-0.171875 -0.140625,-0.265625 -0.28125,-0.265625 -0.046875,0 -0.3125,0.015625 -0.390625,0.34375 -0.1875,0.734375 -0.625,2.484375 -0.75,3 -0.015625,0.046875 -0.40625,0.84375 -1.140625,0.84375 -0.515625,0 -0.609375,-0.453125 -0.609375,-0.8125 0,-0.5625 0.28125,-1.34375 0.53125,-2.03125 0.125,-0.3125 0.171875,-0.453125 0.171875,-0.640625 0,-0.4375 -0.3125,-0.8125 -0.8125,-0.8125 -0.953125,0 -1.3125,1.453125 -1.3125,1.53125 0,0.109375 0.09375,0.109375 0.109375,0.109375 0.109375,0 0.109375,-0.03125 0.15625,-0.1875 0.25,-0.859375 0.640625,-1.234375 1.015625,-1.234375 0.09375,0 0.25,0.015625 0.25,0.328125 0,0.234375 -0.109375,0.53125 -0.171875,0.671875 -0.375,1 -0.578125,1.609375 -0.578125,2.09375 0,0.953125 0.6875,1.203125 1.21875,1.203125 0.65625,0 1.015625,-0.453125 1.1875,-0.671875 z m 0,0"
             transform="translate(184.42209,110.99)"
             id="path4" />
          <path
             style="fill:#333333;stroke:none"
             d="m 4.375,-7.09375 c 0.046875,-0.140625 0.046875,-0.171875 0.046875,-0.1875 0,-0.109375 -0.078125,-0.203125 -0.1875,-0.203125 -0.078125,0 -0.140625,0.03125 -0.171875,0.09375 l -3.46875,9.5 C 0.546875,2.25 0.546875,2.28125 0.546875,2.296875 0.546875,2.40625 0.640625,2.5 0.75,2.5 0.875,2.5 0.90625,2.421875 0.96875,2.25 Z m 0,0"
             transform="translate(190.12568,110.99)"
             id="path6" />
          <path
             style="fill:#333333;stroke:none"
             d="m 4.609375,-3.375 c -0.09375,-0.625 -0.5,-1.1875 -1.28125,-1.1875 -0.609375,0 -1.25,0.171875 -2.03125,0.9375 -0.828125,0.828125 -0.890625,1.765625 -0.890625,2.0625 0,0.625 0.4375,1.78125 1.828125,1.78125 2.375,0 3.40625,-3.34375 3.40625,-4.78125 0,-1.578125 -0.921875,-2.578125 -2.15625,-2.578125 -1.4375,0 -1.90625,1.296875 -1.90625,1.578125 0,0.140625 0.09375,0.34375 0.390625,0.34375 0.328125,0 0.53125,-0.296875 0.53125,-0.515625 0,-0.359375 -0.3125,-0.359375 -0.46875,-0.359375 0.4375,-0.734375 1.15625,-0.796875 1.4375,-0.796875 0.734375,0 1.421875,0.515625 1.421875,1.8125 0,0.390625 -0.0625,0.890625 -0.265625,1.703125 z m -2.34375,3.3125 c -1.09375,0 -1.09375,-1.03125 -1.09375,-1.125 0,-0.265625 0.25,-1.65625 0.65625,-2.265625 0.390625,-0.5625 0.890625,-0.890625 1.5,-0.890625 1.09375,0 1.109375,1.125 1.109375,1.328125 0,0.71875 -0.640625,2.953125 -2.171875,2.953125 z m 0,0"
             transform="translate(195.10698,110.99)"
             id="path10" />
        </g>
        <g
           style="fill:#333333;fill-opacity:1"
           id="g11">
          <path
             style="fill:#333333;stroke:none"
             d="M 3.328125,-3.015625 C 3.390625,-3.265625 3.625,-4.1875 4.3125,-4.1875 c 0.046875,0 0.296875,0 0.5,0.125 C 4.53125,-4 4.34375,-3.765625 4.34375,-3.515625 c 0,0.15625 0.109375,0.34375 0.375,0.34375 0.21875,0 0.53125,-0.171875 0.53125,-0.578125 0,-0.515625 -0.578125,-0.65625 -0.921875,-0.65625 -0.578125,0 -0.921875,0.53125 -1.046875,0.75 -0.25,-0.65625 -0.78125,-0.75 -1.078125,-0.75 -1.03125,0 -1.609375,1.28125 -1.609375,1.53125 0,0.109375 0.109375,0.109375 0.125,0.109375 0.078125,0 0.109375,-0.03125 0.125,-0.109375 0.34375,-1.0625 1,-1.3125 1.34375,-1.3125 0.1875,0 0.53125,0.09375 0.53125,0.671875 0,0.3125 -0.171875,0.96875 -0.53125,2.375 -0.15625,0.609375 -0.515625,1.03125 -0.953125,1.03125 -0.0625,0 -0.28125,0 -0.5,-0.125 0.25,-0.0625 0.46875,-0.265625 0.46875,-0.546875 0,-0.265625 -0.21875,-0.34375 -0.359375,-0.34375 -0.3125,0 -0.546875,0.25 -0.546875,0.578125 0,0.453125 0.484375,0.65625 0.921875,0.65625 0.671875,0 1.03125,-0.703125 1.046875,-0.75 0.125,0.359375 0.484375,0.75 1.078125,0.75 1.03125,0 1.59375,-1.28125 1.59375,-1.53125 0,-0.109375 -0.078125,-0.109375 -0.109375,-0.109375 -0.09375,0 -0.109375,0.046875 -0.140625,0.109375 -0.328125,1.078125 -1,1.3125 -1.3125,1.3125 -0.390625,0 -0.546875,-0.3125 -0.546875,-0.65625 0,-0.21875 0.046875,-0.4375 0.15625,-0.875 z m 0,0"
             transform="translate(200.95403,110.99)"
             id="path11" />
        </g>
        <g
           style="fill:#333333;fill-opacity:1"
           id="g12">
          <path
             style="fill:#333333;stroke:none"
             d="m 2.328125,-4.4375 c 0,-0.1875 0,-0.1875 -0.203125,-0.1875 -0.453125,0.4375 -1.078125,0.4375 -1.359375,0.4375 v 0.25 c 0.15625,0 0.625,0 1,-0.1875 v 3.546875 c 0,0.234375 0,0.328125 -0.6875,0.328125 H 0.8125 V 0 c 0.125,0 0.984375,-0.03125 1.234375,-0.03125 0.21875,0 1.09375,0.03125 1.25,0.03125 V -0.25 H 3.03125 c -0.703125,0 -0.703125,-0.09375 -0.703125,-0.328125 z m 0,0"
             transform="translate(206.648,112.485)"
             id="path12" />
        </g>
      </g>
    </g>
    <g
       ns1:text="$\partial u/\partial x$"
       transform="matrix(0.34151423,0,0,0.34151423,86.033239,74.540061)"
       style="fill:#333333;font-variation-settings:normal;opacity:1;vector-effect:none;fill-opacity:1;stroke-width:1;stroke-linecap:butt;stroke-linejoin:miter;stroke-miterlimit:4;stroke-dasharray:none;stroke-dashoffset:0;stroke-opacity:1;-inkscape-stroke:none;stop-color:#000000;stop-opacity:1"
       id="g21">
      <g
         id="g20"
         style="font-variation-settings:normal;vector-effect:none;fill:#333333;fill-opacity:1;stroke-width:1;stroke-linecap:butt;stroke-linejoin:miter;stroke-miterlimit:4;stroke-dasharray:none;stroke-dashoffset:0;stroke-opacity:1;-inkscape-stroke:none;stop-color:#000000;stop-opacity:1">
        <g
           style="fill:#333333;fill-opacity:1;font-variation-settings:normal;vector-effect:none;stroke-width:1;stroke-linecap:butt;stroke-linejoin:miter;stroke-miterlimit:4;stroke-dasharray:none;stroke-dashoffset:0;stroke-opacity:1;-inkscape-stroke:none;stop-color:#000000;stop-opacity:1"
           id="g15">
          <path
             style="stroke:none;font-variation-settings:normal;vector-effect:none;fill:#333333;fill-opacity:1;stroke-width:1;stroke-linecap:butt;stroke-linejoin:miter;stroke-miterlimit:4;stroke-dasharray:none;stroke-dashoffset:0;stroke-opacity:1;-inkscape-stroke:none;stop-color:#000000;stop-opacity:1"
             d="M 4.609375 -3.375 C 4.515625 -4 4.109375 -4.5625 3.328125 -4.5625 C 2.71875 -4.5625 2.078125 -4.390625 1.296875 -3.625 C 0.46875 -2.796875 0.40625 -1.859375 0.40625 -1.5625 C 0.40625 -0.9375 0.84375 0.21875 2.234375 0.21875 C 4.609375 0.21875 5.640625 -3.125 5.640625 -4.5625 C 5.640625 -6.140625 4.71875 -7.140625 3.484375 -7.140625 C 2.046875 -7.140625 1.578125 -5.84375 1.578125 -5.5625 C 1.578125 -5.421875 1.671875 -5.21875 1.96875 -5.21875 C 2.296875 -5.21875 2.5 -5.515625 2.5 -5.734375 C 2.5 -6.09375 2.1875 -6.09375 2.03125 -6.09375 C 2.46875 -6.828125 3.1875 -6.890625 3.46875 -6.890625 C 4.203125 -6.890625 4.890625 -6.375 4.890625 -5.078125 C 4.890625 -4.6875 4.828125 -4.1875 4.625 -3.375 Z M 2.265625 -0.0625 C 1.171875 -0.0625 1.171875 -1.09375 1.171875 -1.1875 C 1.171875 -1.453125 1.421875 -2.84375 1.828125 -3.453125 C 2.21875 -4.015625 2.71875 -4.34375 3.328125 -4.34375 C 4.421875 -4.34375 4.4375 -3.21875 4.4375 -3.015625 C 4.4375 -2.296875 3.796875 -0.0625 2.265625 -0.0625 Z M 2.265625 -0.0625 "
             transform="translate(178.585,110.99)"
             id="path14" />
        </g>
        <g
           style="fill:#333333;fill-opacity:1;font-variation-settings:normal;vector-effect:none;stroke-width:1;stroke-linecap:butt;stroke-linejoin:miter;stroke-miterlimit:4;stroke-dasharray:none;stroke-dashoffset:0;stroke-opacity:1;-inkscape-stroke:none;stop-color:#000000;stop-opacity:1"
           id="g17">
          <path
             style="stroke:none;font-variation-settings:normal;vector-effect:none;fill:#333333;fill-opacity:1;stroke-width:1;stroke-linecap:butt;stroke-linejoin:miter;stroke-miterlimit:4;stroke-dasharray:none;stroke-dashoffset:0;stroke-opacity:1;-inkscape-stroke:none;stop-color:#000000;stop-opacity:1"
             d="M 3.484375 -0.5625 C 3.59375 -0.15625 3.953125 0.109375 4.375 0.109375 C 4.71875 0.109375 4.953125 -0.125 5.109375 -0.4375 C 5.28125 -0.796875 5.40625 -1.40625 5.40625 -1.421875 C 5.40625 -1.53125 5.328125 -1.53125 5.296875 -1.53125 C 5.1875 -1.53125 5.1875 -1.484375 5.15625 -1.34375 C 5.015625 -0.78125 4.828125 -0.109375 4.40625 -0.109375 C 4.203125 -0.109375 4.09375 -0.234375 4.09375 -0.5625 C 4.09375 -0.78125 4.21875 -1.25 4.296875 -1.609375 L 4.578125 -2.6875 C 4.609375 -2.828125 4.703125 -3.203125 4.75 -3.359375 C 4.796875 -3.59375 4.890625 -3.96875 4.890625 -4.03125 C 4.890625 -4.203125 4.75 -4.296875 4.609375 -4.296875 C 4.5625 -4.296875 4.296875 -4.28125 4.21875 -3.953125 C 4.03125 -3.21875 3.59375 -1.46875 3.46875 -0.953125 C 3.453125 -0.90625 3.0625 -0.109375 2.328125 -0.109375 C 1.8125 -0.109375 1.71875 -0.5625 1.71875 -0.921875 C 1.71875 -1.484375 2 -2.265625 2.25 -2.953125 C 2.375 -3.265625 2.421875 -3.40625 2.421875 -3.59375 C 2.421875 -4.03125 2.109375 -4.40625 1.609375 -4.40625 C 0.65625 -4.40625 0.296875 -2.953125 0.296875 -2.875 C 0.296875 -2.765625 0.390625 -2.765625 0.40625 -2.765625 C 0.515625 -2.765625 0.515625 -2.796875 0.5625 -2.953125 C 0.8125 -3.8125 1.203125 -4.1875 1.578125 -4.1875 C 1.671875 -4.1875 1.828125 -4.171875 1.828125 -3.859375 C 1.828125 -3.625 1.71875 -3.328125 1.65625 -3.1875 C 1.28125 -2.1875 1.078125 -1.578125 1.078125 -1.09375 C 1.078125 -0.140625 1.765625 0.109375 2.296875 0.109375 C 2.953125 0.109375 3.3125 -0.34375 3.484375 -0.5625 Z M 3.484375 -0.5625 "
             transform="translate(184.422087,110.99)"
             id="path15" />
          <path
             style="stroke:none;font-variation-settings:normal;vector-effect:none;fill:#333333;fill-opacity:1;stroke-width:1;stroke-linecap:butt;stroke-linejoin:miter;stroke-miterlimit:4;stroke-dasharray:none;stroke-dashoffset:0;stroke-opacity:1;-inkscape-stroke:none;stop-color:#000000;stop-opacity:1"
             d="M 4.375 -7.09375 C 4.421875 -7.234375 4.421875 -7.265625 4.421875 -7.28125 C 4.421875 -7.390625 4.34375 -7.484375 4.234375 -7.484375 C 4.15625 -7.484375 4.09375 -7.453125 4.0625 -7.390625 L 0.59375 2.109375 C 0.546875 2.25 0.546875 2.28125 0.546875 2.296875 C 0.546875 2.40625 0.640625 2.5 0.75 2.5 C 0.875 2.5 0.90625 2.421875 0.96875 2.25 Z M 4.375 -7.09375 "
             transform="translate(190.125676,110.99)"
             id="path16" />
          <path
             style="stroke:none;font-variation-settings:normal;vector-effect:none;fill:#333333;fill-opacity:1;stroke-width:1;stroke-linecap:butt;stroke-linejoin:miter;stroke-miterlimit:4;stroke-dasharray:none;stroke-dashoffset:0;stroke-opacity:1;-inkscape-stroke:none;stop-color:#000000;stop-opacity:1"
             d="M 4.609375 -3.375 C 4.515625 -4 4.109375 -4.5625 3.328125 -4.5625 C 2.71875 -4.5625 2.078125 -4.390625 1.296875 -3.625 C 0.46875 -2.796875 0.40625 -1.859375 0.40625 -1.5625 C 0.40625 -0.9375 0.84375 0.21875 2.234375 0.21875 C 4.609375 0.21875 5.640625 -3.125 5.640625 -4.5625 C 5.640625 -6.140625 4.71875 -7.140625 3.484375 -7.140625 C 2.046875 -7.140625 1.578125 -5.84375 1.578125 -5.5625 C 1.578125 -5.421875 1.671875 -5.21875 1.96875 -5.21875 C 2.296875 -5.21875 2.5 -5.515625 2.5 -5.734375 C 2.5 -6.09375 2.1875 -6.09375 2.03125 -6.09375 C 2.46875 -6.828125 3.1875 -6.890625 3.46875 -6.890625 C 4.203125 -6.890625 4.890625 -6.375 4.890625 -5.078125 C 4.890625 -4.6875 4.828125 -4.1875 4.625 -3.375 Z M 2.265625 -0.0625 C 1.171875 -0.0625 1.171875 -1.09375 1.171875 -1.1875 C 1.171875 -1.453125 1.421875 -2.84375 1.828125 -3.453125 C 2.21875 -4.015625 2.71875 -4.34375 3.328125 -4.34375 C 4.421875 -4.34375 4.4375 -3.21875 4.4375 -3.015625 C 4.4375 -2.296875 3.796875 -0.0625 2.265625 -0.0625 Z M 2.265625 -0.0625 "
             transform="translate(195.106976,110.99)"
             id="path17" />
        </g>
        <g
           style="fill:#333333;fill-opacity:1;font-variation-settings:normal;vector-effect:none;stroke-width:1;stroke-linecap:butt;stroke-linejoin:miter;stroke-miterlimit:4;stroke-dasharray:none;stroke-dashoffset:0;stroke-opacity:1;-inkscape-stroke:none;stop-color:#000000;stop-opacity:1"
           id="g19">
          <path
             style="stroke:none;font-variation-settings:normal;vector-effect:none;fill:#333333;fill-opacity:1;stroke-width:1;stroke-linecap:butt;stroke-linejoin:miter;stroke-miterlimit:4;stroke-dasharray:none;stroke-dashoffset:0;stroke-opacity:1;-inkscape-stroke:none;stop-color:#000000;stop-opacity:1"
             d="M 3.328125 -3.015625 C 3.390625 -3.265625 3.625 -4.1875 4.3125 -4.1875 C 4.359375 -4.1875 4.609375 -4.1875 4.8125 -4.0625 C 4.53125 -4 4.34375 -3.765625 4.34375 -3.515625 C 4.34375 -3.359375 4.453125 -3.171875 4.71875 -3.171875 C 4.9375 -3.171875 5.25 -3.34375 5.25 -3.75 C 5.25 -4.265625 4.671875 -4.40625 4.328125 -4.40625 C 3.75 -4.40625 3.40625 -3.875 3.28125 -3.65625 C 3.03125 -4.3125 2.5 -4.40625 2.203125 -4.40625 C 1.171875 -4.40625 0.59375 -3.125 0.59375 -2.875 C 0.59375 -2.765625 0.703125 -2.765625 0.71875 -2.765625 C 0.796875 -2.765625 0.828125 -2.796875 0.84375 -2.875 C 1.1875 -3.9375 1.84375 -4.1875 2.1875 -4.1875 C 2.375 -4.1875 2.71875 -4.09375 2.71875 -3.515625 C 2.71875 -3.203125 2.546875 -2.546875 2.1875 -1.140625 C 2.03125 -0.53125 1.671875 -0.109375 1.234375 -0.109375 C 1.171875 -0.109375 0.953125 -0.109375 0.734375 -0.234375 C 0.984375 -0.296875 1.203125 -0.5 1.203125 -0.78125 C 1.203125 -1.046875 0.984375 -1.125 0.84375 -1.125 C 0.53125 -1.125 0.296875 -0.875 0.296875 -0.546875 C 0.296875 -0.09375 0.78125 0.109375 1.21875 0.109375 C 1.890625 0.109375 2.25 -0.59375 2.265625 -0.640625 C 2.390625 -0.28125 2.75 0.109375 3.34375 0.109375 C 4.375 0.109375 4.9375 -1.171875 4.9375 -1.421875 C 4.9375 -1.53125 4.859375 -1.53125 4.828125 -1.53125 C 4.734375 -1.53125 4.71875 -1.484375 4.6875 -1.421875 C 4.359375 -0.34375 3.6875 -0.109375 3.375 -0.109375 C 2.984375 -0.109375 2.828125 -0.421875 2.828125 -0.765625 C 2.828125 -0.984375 2.875 -1.203125 2.984375 -1.640625 Z M 3.328125 -3.015625 "
             transform="translate(200.954026,110.99)"
             id="path19" />
        </g>
      </g>
    </g>
    <g
       ns1:text="$\partial u/\partial y$"
       transform="matrix(0.34151423,0,0,0.34151423,92.846762,69.147737)"
       style="fill:#333333;font-variation-settings:normal;opacity:1;vector-effect:none;fill-opacity:1;stroke-width:1;stroke-linecap:butt;stroke-linejoin:miter;stroke-miterlimit:4;stroke-dasharray:none;stroke-dashoffset:0;stroke-opacity:1;-inkscape-stroke:none;stop-color:#000000;stop-opacity:1"
       id="g27">
      <g
         id="g26"
         style="font-variation-settings:normal;vector-effect:none;fill:#333333;fill-opacity:1;stroke-width:1;stroke-linecap:butt;stroke-linejoin:miter;stroke-miterlimit:4;stroke-dasharray:none;stroke-dashoffset:0;stroke-opacity:1;-inkscape-stroke:none;stop-color:#000000;stop-opacity:1">
        <g
           style="fill:#333333;fill-opacity:1;font-variation-settings:normal;vector-effect:none;stroke-width:1;stroke-linecap:butt;stroke-linejoin:miter;stroke-miterlimit:4;stroke-dasharray:none;stroke-dashoffset:0;stroke-opacity:1;-inkscape-stroke:none;stop-color:#000000;stop-opacity:1"
           id="g22">
          <path
             style="stroke:none;font-variation-settings:normal;vector-effect:none;fill:#333333;fill-opacity:1;stroke-width:1;stroke-linecap:butt;stroke-linejoin:miter;stroke-miterlimit:4;stroke-dasharray:none;stroke-dashoffset:0;stroke-opacity:1;-inkscape-stroke:none;stop-color:#000000;stop-opacity:1"
             d="M 4.609375 -3.375 C 4.515625 -4 4.109375 -4.5625 3.328125 -4.5625 C 2.71875 -4.5625 2.078125 -4.390625 1.296875 -3.625 C 0.46875 -2.796875 0.40625 -1.859375 0.40625 -1.5625 C 0.40625 -0.9375 0.84375 0.21875 2.234375 0.21875 C 4.609375 0.21875 5.640625 -3.125 5.640625 -4.5625 C 5.640625 -6.140625 4.71875 -7.140625 3.484375 -7.140625 C 2.046875 -7.140625 1.578125 -5.84375 1.578125 -5.5625 C 1.578125 -5.421875 1.671875 -5.21875 1.96875 -5.21875 C 2.296875 -5.21875 2.5 -5.515625 2.5 -5.734375 C 2.5 -6.09375 2.1875 -6.09375 2.03125 -6.09375 C 2.46875 -6.828125 3.1875 -6.890625 3.46875 -6.890625 C 4.203125 -6.890625 4.890625 -6.375 4.890625 -5.078125 C 4.890625 -4.6875 4.828125 -4.1875 4.625 -3.375 Z M 2.265625 -0.0625 C 1.171875 -0.0625 1.171875 -1.09375 1.171875 -1.1875 C 1.171875 -1.453125 1.421875 -2.84375 1.828125 -3.453125 C 2.21875 -4.015625 2.71875 -4.34375 3.328125 -4.34375 C 4.421875 -4.34375 4.4375 -3.21875 4.4375 -3.015625 C 4.4375 -2.296875 3.796875 -0.0625 2.265625 -0.0625 Z M 2.265625 -0.0625 "
             transform="translate(178.585,110.99)"
             id="path21" />
        </g>
        <g
           style="fill:#333333;fill-opacity:1;font-variation-settings:normal;vector-effect:none;stroke-width:1;stroke-linecap:butt;stroke-linejoin:miter;stroke-miterlimit:4;stroke-dasharray:none;stroke-dashoffset:0;stroke-opacity:1;-inkscape-stroke:none;stop-color:#000000;stop-opacity:1"
           id="g24">
          <path
             style="stroke:none;font-variation-settings:normal;vector-effect:none;fill:#333333;fill-opacity:1;stroke-width:1;stroke-linecap:butt;stroke-linejoin:miter;stroke-miterlimit:4;stroke-dasharray:none;stroke-dashoffset:0;stroke-opacity:1;-inkscape-stroke:none;stop-color:#000000;stop-opacity:1"
             d="M 3.484375 -0.5625 C 3.59375 -0.15625 3.953125 0.109375 4.375 0.109375 C 4.71875 0.109375 4.953125 -0.125 5.109375 -0.4375 C 5.28125 -0.796875 5.40625 -1.40625 5.40625 -1.421875 C 5.40625 -1.53125 5.328125 -1.53125 5.296875 -1.53125 C 5.1875 -1.53125 5.1875 -1.484375 5.15625 -1.34375 C 5.015625 -0.78125 4.828125 -0.109375 4.40625 -0.109375 C 4.203125 -0.109375 4.09375 -0.234375 4.09375 -0.5625 C 4.09375 -0.78125 4.21875 -1.25 4.296875 -1.609375 L 4.578125 -2.6875 C 4.609375 -2.828125 4.703125 -3.203125 4.75 -3.359375 C 4.796875 -3.59375 4.890625 -3.96875 4.890625 -4.03125 C 4.890625 -4.203125 4.75 -4.296875 4.609375 -4.296875 C 4.5625 -4.296875 4.296875 -4.28125 4.21875 -3.953125 C 4.03125 -3.21875 3.59375 -1.46875 3.46875 -0.953125 C 3.453125 -0.90625 3.0625 -0.109375 2.328125 -0.109375 C 1.8125 -0.109375 1.71875 -0.5625 1.71875 -0.921875 C 1.71875 -1.484375 2 -2.265625 2.25 -2.953125 C 2.375 -3.265625 2.421875 -3.40625 2.421875 -3.59375 C 2.421875 -4.03125 2.109375 -4.40625 1.609375 -4.40625 C 0.65625 -4.40625 0.296875 -2.953125 0.296875 -2.875 C 0.296875 -2.765625 0.390625 -2.765625 0.40625 -2.765625 C 0.515625 -2.765625 0.515625 -2.796875 0.5625 -2.953125 C 0.8125 -3.8125 1.203125 -4.1875 1.578125 -4.1875 C 1.671875 -4.1875 1.828125 -4.171875 1.828125 -3.859375 C 1.828125 -3.625 1.71875 -3.328125 1.65625 -3.1875 C 1.28125 -2.1875 1.078125 -1.578125 1.078125 -1.09375 C 1.078125 -0.140625 1.765625 0.109375 2.296875 0.109375 C 2.953125 0.109375 3.3125 -0.34375 3.484375 -0.5625 Z M 3.484375 -0.5625 "
             transform="translate(184.422087,110.99)"
             id="path22" />
          <path
             style="stroke:none;font-variation-settings:normal;vector-effect:none;fill:#333333;fill-opacity:1;stroke-width:1;stroke-linecap:butt;stroke-linejoin:miter;stroke-miterlimit:4;stroke-dasharray:none;stroke-dashoffset:0;stroke-opacity:1;-inkscape-stroke:none;stop-color:#000000;stop-opacity:1"
             d="M 4.375 -7.09375 C 4.421875 -7.234375 4.421875 -7.265625 4.421875 -7.28125 C 4.421875 -7.390625 4.34375 -7.484375 4.234375 -7.484375 C 4.15625 -7.484375 4.09375 -7.453125 4.0625 -7.390625 L 0.59375 2.109375 C 0.546875 2.25 0.546875 2.28125 0.546875 2.296875 C 0.546875 2.40625 0.640625 2.5 0.75 2.5 C 0.875 2.5 0.90625 2.421875 0.96875 2.25 Z M 4.375 -7.09375 "
             transform="translate(190.125676,110.99)"
             id="path23" />
          <path
             style="stroke:none;font-variation-settings:normal;vector-effect:none;fill:#333333;fill-opacity:1;stroke-width:1;stroke-linecap:butt;stroke-linejoin:miter;stroke-miterlimit:4;stroke-dasharray:none;stroke-dashoffset:0;stroke-opacity:1;-inkscape-stroke:none;stop-color:#000000;stop-opacity:1"
             d="M 4.609375 -3.375 C 4.515625 -4 4.109375 -4.5625 3.328125 -4.5625 C 2.71875 -4.5625 2.078125 -4.390625 1.296875 -3.625 C 0.46875 -2.796875 0.40625 -1.859375 0.40625 -1.5625 C 0.40625 -0.9375 0.84375 0.21875 2.234375 0.21875 C 4.609375 0.21875 5.640625 -3.125 5.640625 -4.5625 C 5.640625 -6.140625 4.71875 -7.140625 3.484375 -7.140625 C 2.046875 -7.140625 1.578125 -5.84375 1.578125 -5.5625 C 1.578125 -5.421875 1.671875 -5.21875 1.96875 -5.21875 C 2.296875 -5.21875 2.5 -5.515625 2.5 -5.734375 C 2.5 -6.09375 2.1875 -6.09375 2.03125 -6.09375 C 2.46875 -6.828125 3.1875 -6.890625 3.46875 -6.890625 C 4.203125 -6.890625 4.890625 -6.375 4.890625 -5.078125 C 4.890625 -4.6875 4.828125 -4.1875 4.625 -3.375 Z M 2.265625 -0.0625 C 1.171875 -0.0625 1.171875 -1.09375 1.171875 -1.1875 C 1.171875 -1.453125 1.421875 -2.84375 1.828125 -3.453125 C 2.21875 -4.015625 2.71875 -4.34375 3.328125 -4.34375 C 4.421875 -4.34375 4.4375 -3.21875 4.4375 -3.015625 C 4.4375 -2.296875 3.796875 -0.0625 2.265625 -0.0625 Z M 2.265625 -0.0625 "
             transform="translate(195.106976,110.99)"
             id="path24" />
        </g>
        <g
           style="fill:#333333;fill-opacity:1;font-variation-settings:normal;vector-effect:none;stroke-width:1;stroke-linecap:butt;stroke-linejoin:miter;stroke-miterlimit:4;stroke-dasharray:none;stroke-dashoffset:0;stroke-opacity:1;-inkscape-stroke:none;stop-color:#000000;stop-opacity:1"
           id="g25">
          <path
             style="stroke:none;font-variation-settings:normal;vector-effect:none;fill:#333333;fill-opacity:1;stroke-width:1;stroke-linecap:butt;stroke-linejoin:miter;stroke-miterlimit:4;stroke-dasharray:none;stroke-dashoffset:0;stroke-opacity:1;-inkscape-stroke:none;stop-color:#000000;stop-opacity:1"
             d="M 4.84375 -3.796875 C 4.890625 -3.9375 4.890625 -3.953125 4.890625 -4.03125 C 4.890625 -4.203125 4.75 -4.296875 4.59375 -4.296875 C 4.5 -4.296875 4.34375 -4.234375 4.25 -4.09375 C 4.234375 -4.03125 4.140625 -3.734375 4.109375 -3.546875 C 4.03125 -3.296875 3.96875 -3.015625 3.90625 -2.75 L 3.453125 -0.953125 C 3.421875 -0.8125 2.984375 -0.109375 2.328125 -0.109375 C 1.828125 -0.109375 1.71875 -0.546875 1.71875 -0.921875 C 1.71875 -1.375 1.890625 -2 2.21875 -2.875 C 2.375 -3.28125 2.421875 -3.390625 2.421875 -3.59375 C 2.421875 -4.03125 2.109375 -4.40625 1.609375 -4.40625 C 0.65625 -4.40625 0.296875 -2.953125 0.296875 -2.875 C 0.296875 -2.765625 0.390625 -2.765625 0.40625 -2.765625 C 0.515625 -2.765625 0.515625 -2.796875 0.5625 -2.953125 C 0.84375 -3.890625 1.234375 -4.1875 1.578125 -4.1875 C 1.65625 -4.1875 1.828125 -4.1875 1.828125 -3.875 C 1.828125 -3.625 1.71875 -3.359375 1.65625 -3.171875 C 1.25 -2.109375 1.078125 -1.546875 1.078125 -1.078125 C 1.078125 -0.1875 1.703125 0.109375 2.296875 0.109375 C 2.6875 0.109375 3.015625 -0.0625 3.296875 -0.34375 C 3.171875 0.171875 3.046875 0.671875 2.65625 1.203125 C 2.390625 1.53125 2.015625 1.828125 1.5625 1.828125 C 1.421875 1.828125 0.96875 1.796875 0.796875 1.40625 C 0.953125 1.40625 1.09375 1.40625 1.21875 1.28125 C 1.328125 1.203125 1.421875 1.0625 1.421875 0.875 C 1.421875 0.5625 1.15625 0.53125 1.0625 0.53125 C 0.828125 0.53125 0.5 0.6875 0.5 1.171875 C 0.5 1.671875 0.9375 2.046875 1.5625 2.046875 C 2.578125 2.046875 3.609375 1.140625 3.890625 0.015625 Z M 4.84375 -3.796875 "
             transform="translate(200.954026,110.99)"
             id="path25" />
        </g>
      </g>
    </g>
    <g
       ns1:text="$x$"
       transform="matrix(0.44253475,0,0,0.44253475,46.80377,54.020913)"
       id="g29">
      <g
         id="surface1">
        <g
           style="fill:rgb(0%,0%,0%);fill-opacity:1;"
           id="g28">
          <path
             style="stroke:none;"
             d="M 3.328125 -3.015625 C 3.390625 -3.265625 3.625 -4.1875 4.3125 -4.1875 C 4.359375 -4.1875 4.609375 -4.1875 4.8125 -4.0625 C 4.53125 -4 4.34375 -3.765625 4.34375 -3.515625 C 4.34375 -3.359375 4.453125 -3.171875 4.71875 -3.171875 C 4.9375 -3.171875 5.25 -3.34375 5.25 -3.75 C 5.25 -4.265625 4.671875 -4.40625 4.328125 -4.40625 C 3.75 -4.40625 3.40625 -3.875 3.28125 -3.65625 C 3.03125 -4.3125 2.5 -4.40625 2.203125 -4.40625 C 1.171875 -4.40625 0.59375 -3.125 0.59375 -2.875 C 0.59375 -2.765625 0.703125 -2.765625 0.71875 -2.765625 C 0.796875 -2.765625 0.828125 -2.796875 0.84375 -2.875 C 1.1875 -3.9375 1.84375 -4.1875 2.1875 -4.1875 C 2.375 -4.1875 2.71875 -4.09375 2.71875 -3.515625 C 2.71875 -3.203125 2.546875 -2.546875 2.1875 -1.140625 C 2.03125 -0.53125 1.671875 -0.109375 1.234375 -0.109375 C 1.171875 -0.109375 0.953125 -0.109375 0.734375 -0.234375 C 0.984375 -0.296875 1.203125 -0.5 1.203125 -0.78125 C 1.203125 -1.046875 0.984375 -1.125 0.84375 -1.125 C 0.53125 -1.125 0.296875 -0.875 0.296875 -0.546875 C 0.296875 -0.09375 0.78125 0.109375 1.21875 0.109375 C 1.890625 0.109375 2.25 -0.59375 2.265625 -0.640625 C 2.390625 -0.28125 2.75 0.109375 3.34375 0.109375 C 4.375 0.109375 4.9375 -1.171875 4.9375 -1.421875 C 4.9375 -1.53125 4.859375 -1.53125 4.828125 -1.53125 C 4.734375 -1.53125 4.71875 -1.484375 4.6875 -1.421875 C 4.359375 -0.34375 3.6875 -0.109375 3.375 -0.109375 C 2.984375 -0.109375 2.828125 -0.421875 2.828125 -0.765625 C 2.828125 -0.984375 2.875 -1.203125 2.984375 -1.640625 Z M 3.328125 -3.015625 "
             transform="translate(178.585,110.99)"
             id="path27" />
        </g>
      </g>
    </g>
    <g
       ns1:text="$y$"
       transform="matrix(0.44253475,0,0,0.44253475,20.866501,29.516068)"
       id="g34">
      <g
         id="g33">
        <g
           style="fill:rgb(0%,0%,0%);fill-opacity:1;"
           id="g32">
          <path
             style="stroke:none;"
             d="M 4.84375 -3.796875 C 4.890625 -3.9375 4.890625 -3.953125 4.890625 -4.03125 C 4.890625 -4.203125 4.75 -4.296875 4.59375 -4.296875 C 4.5 -4.296875 4.34375 -4.234375 4.25 -4.09375 C 4.234375 -4.03125 4.140625 -3.734375 4.109375 -3.546875 C 4.03125 -3.296875 3.96875 -3.015625 3.90625 -2.75 L 3.453125 -0.953125 C 3.421875 -0.8125 2.984375 -0.109375 2.328125 -0.109375 C 1.828125 -0.109375 1.71875 -0.546875 1.71875 -0.921875 C 1.71875 -1.375 1.890625 -2 2.21875 -2.875 C 2.375 -3.28125 2.421875 -3.390625 2.421875 -3.59375 C 2.421875 -4.03125 2.109375 -4.40625 1.609375 -4.40625 C 0.65625 -4.40625 0.296875 -2.953125 0.296875 -2.875 C 0.296875 -2.765625 0.390625 -2.765625 0.40625 -2.765625 C 0.515625 -2.765625 0.515625 -2.796875 0.5625 -2.953125 C 0.84375 -3.890625 1.234375 -4.1875 1.578125 -4.1875 C 1.65625 -4.1875 1.828125 -4.1875 1.828125 -3.875 C 1.828125 -3.625 1.71875 -3.359375 1.65625 -3.171875 C 1.25 -2.109375 1.078125 -1.546875 1.078125 -1.078125 C 1.078125 -0.1875 1.703125 0.109375 2.296875 0.109375 C 2.6875 0.109375 3.015625 -0.0625 3.296875 -0.34375 C 3.171875 0.171875 3.046875 0.671875 2.65625 1.203125 C 2.390625 1.53125 2.015625 1.828125 1.5625 1.828125 C 1.421875 1.828125 0.96875 1.796875 0.796875 1.40625 C 0.953125 1.40625 1.09375 1.40625 1.21875 1.28125 C 1.328125 1.203125 1.421875 1.0625 1.421875 0.875 C 1.421875 0.5625 1.15625 0.53125 1.0625 0.53125 C 0.828125 0.53125 0.5 0.6875 0.5 1.171875 C 0.5 1.671875 0.9375 2.046875 1.5625 2.046875 C 2.578125 2.046875 3.609375 1.140625 3.890625 0.015625 Z M 4.84375 -3.796875 "
             transform="translate(178.585,110.99)"
             id="path32" />
        </g>
      </g>
    </g>
    <g
       ns1:text="$u(x)$"
       transform="matrix(0.44253475,0,0,0.44253475,38.182366,24.333584)"
       style="font-variation-settings:normal;opacity:1;vector-effect:none;fill:#e3000f;fill-opacity:1;stroke-width:1;stroke-linecap:butt;stroke-linejoin:miter;stroke-miterlimit:4;stroke-dasharray:none;stroke-dashoffset:0;stroke-opacity:1;-inkscape-stroke:none;stop-color:#000000;stop-opacity:1"
       id="g42">
      <g
         id="g41"
         style="font-variation-settings:normal;vector-effect:none;fill:#e3000f;fill-opacity:1;stroke-width:1;stroke-linecap:butt;stroke-linejoin:miter;stroke-miterlimit:4;stroke-dasharray:none;stroke-dashoffset:0;stroke-opacity:1;-inkscape-stroke:none;stop-color:#000000;stop-opacity:1">
        <g
           style="font-variation-settings:normal;vector-effect:none;fill:#e3000f;fill-opacity:1;stroke-width:1;stroke-linecap:butt;stroke-linejoin:miter;stroke-miterlimit:4;stroke-dasharray:none;stroke-dashoffset:0;stroke-opacity:1;-inkscape-stroke:none;stop-color:#000000;stop-opacity:1"
           id="g37">
          <path
             style="font-variation-settings:normal;vector-effect:none;fill:#e3000f;fill-opacity:1;stroke:none;stroke-width:1;stroke-linecap:butt;stroke-linejoin:miter;stroke-miterlimit:4;stroke-dasharray:none;stroke-dashoffset:0;stroke-opacity:1;-inkscape-stroke:none;stop-color:#000000;stop-opacity:1"
             d="M 3.484375,-0.5625 C 3.59375,-0.15625 3.953125,0.109375 4.375,0.109375 4.71875,0.109375 4.953125,-0.125 5.109375,-0.4375 5.28125,-0.796875 5.40625,-1.40625 5.40625,-1.421875 c 0,-0.109375 -0.078125,-0.109375 -0.109375,-0.109375 -0.109375,0 -0.109375,0.046875 -0.140625,0.1875 -0.140625,0.5625 -0.328125,1.234375 -0.75,1.234375 -0.203125,0 -0.3125,-0.125 -0.3125,-0.453125 0,-0.21875 0.125,-0.6875 0.203125,-1.046875 L 4.578125,-2.6875 C 4.609375,-2.828125 4.703125,-3.203125 4.75,-3.359375 4.796875,-3.59375 4.890625,-3.96875 4.890625,-4.03125 c 0,-0.171875 -0.140625,-0.265625 -0.28125,-0.265625 -0.046875,0 -0.3125,0.015625 -0.390625,0.34375 -0.1875,0.734375 -0.625,2.484375 -0.75,3 -0.015625,0.046875 -0.40625,0.84375 -1.140625,0.84375 -0.515625,0 -0.609375,-0.453125 -0.609375,-0.8125 0,-0.5625 0.28125,-1.34375 0.53125,-2.03125 0.125,-0.3125 0.171875,-0.453125 0.171875,-0.640625 0,-0.4375 -0.3125,-0.8125 -0.8125,-0.8125 -0.953125,0 -1.3125,1.453125 -1.3125,1.53125 0,0.109375 0.09375,0.109375 0.109375,0.109375 0.109375,0 0.109375,-0.03125 0.15625,-0.1875 0.25,-0.859375 0.640625,-1.234375 1.015625,-1.234375 0.09375,0 0.25,0.015625 0.25,0.328125 0,0.234375 -0.109375,0.53125 -0.171875,0.671875 -0.375,1 -0.578125,1.609375 -0.578125,2.09375 0,0.953125 0.6875,1.203125 1.21875,1.203125 0.65625,0 1.015625,-0.453125 1.1875,-0.671875 z m 0,0"
             transform="translate(178.585,110.99)"
             id="path36" />
        </g>
        <g
           style="font-variation-settings:normal;vector-effect:none;fill:#e3000f;fill-opacity:1;stroke-width:1;stroke-linecap:butt;stroke-linejoin:miter;stroke-miterlimit:4;stroke-dasharray:none;stroke-dashoffset:0;stroke-opacity:1;-inkscape-stroke:none;stop-color:#000000;stop-opacity:1"
           id="g38">
          <path
             style="font-variation-settings:normal;vector-effect:none;fill:#e3000f;fill-opacity:1;stroke:none;stroke-width:1;stroke-linecap:butt;stroke-linejoin:miter;stroke-miterlimit:4;stroke-dasharray:none;stroke-dashoffset:0;stroke-opacity:1;-inkscape-stroke:none;stop-color:#000000;stop-opacity:1"
             d="m 3.296875,2.390625 c 0,-0.03125 0,-0.046875 -0.171875,-0.21875 C 1.890625,0.921875 1.5625,-0.96875 1.5625,-2.5 c 0,-1.734375 0.375,-3.46875 1.609375,-4.703125 0.125,-0.125 0.125,-0.140625 0.125,-0.171875 0,-0.078125 -0.03125,-0.109375 -0.09375,-0.109375 -0.109375,0 -1,0.6875 -1.59375,1.953125 -0.5,1.09375 -0.625,2.203125 -0.625,3.03125 0,0.78125 0.109375,1.984375 0.65625,3.125 C 2.25,1.84375 3.09375,2.5 3.203125,2.5 c 0.0625,0 0.09375,-0.03125 0.09375,-0.109375 z m 0,0"
             transform="translate(184.288,110.99)"
             id="path37" />
        </g>
        <g
           style="font-variation-settings:normal;vector-effect:none;fill:#e3000f;fill-opacity:1;stroke-width:1;stroke-linecap:butt;stroke-linejoin:miter;stroke-miterlimit:4;stroke-dasharray:none;stroke-dashoffset:0;stroke-opacity:1;-inkscape-stroke:none;stop-color:#000000;stop-opacity:1"
           id="g39">
          <path
             style="font-variation-settings:normal;vector-effect:none;fill:#e3000f;fill-opacity:1;stroke:none;stroke-width:1;stroke-linecap:butt;stroke-linejoin:miter;stroke-miterlimit:4;stroke-dasharray:none;stroke-dashoffset:0;stroke-opacity:1;-inkscape-stroke:none;stop-color:#000000;stop-opacity:1"
             d="M 3.328125,-3.015625 C 3.390625,-3.265625 3.625,-4.1875 4.3125,-4.1875 c 0.046875,0 0.296875,0 0.5,0.125 C 4.53125,-4 4.34375,-3.765625 4.34375,-3.515625 c 0,0.15625 0.109375,0.34375 0.375,0.34375 0.21875,0 0.53125,-0.171875 0.53125,-0.578125 0,-0.515625 -0.578125,-0.65625 -0.921875,-0.65625 -0.578125,0 -0.921875,0.53125 -1.046875,0.75 -0.25,-0.65625 -0.78125,-0.75 -1.078125,-0.75 -1.03125,0 -1.609375,1.28125 -1.609375,1.53125 0,0.109375 0.109375,0.109375 0.125,0.109375 0.078125,0 0.109375,-0.03125 0.125,-0.109375 0.34375,-1.0625 1,-1.3125 1.34375,-1.3125 0.1875,0 0.53125,0.09375 0.53125,0.671875 0,0.3125 -0.171875,0.96875 -0.53125,2.375 -0.15625,0.609375 -0.515625,1.03125 -0.953125,1.03125 -0.0625,0 -0.28125,0 -0.5,-0.125 0.25,-0.0625 0.46875,-0.265625 0.46875,-0.546875 0,-0.265625 -0.21875,-0.34375 -0.359375,-0.34375 -0.3125,0 -0.546875,0.25 -0.546875,0.578125 0,0.453125 0.484375,0.65625 0.921875,0.65625 0.671875,0 1.03125,-0.703125 1.046875,-0.75 0.125,0.359375 0.484375,0.75 1.078125,0.75 1.03125,0 1.59375,-1.28125 1.59375,-1.53125 0,-0.109375 -0.078125,-0.109375 -0.109375,-0.109375 -0.09375,0 -0.109375,0.046875 -0.140625,0.109375 -0.328125,1.078125 -1,1.3125 -1.3125,1.3125 -0.390625,0 -0.546875,-0.3125 -0.546875,-0.65625 0,-0.21875 0.046875,-0.4375 0.15625,-0.875 z m 0,0"
             transform="translate(188.162,110.99)"
             id="path38" />
        </g>
        <g
           style="font-variation-settings:normal;vector-effect:none;fill:#e3000f;fill-opacity:1;stroke-width:1;stroke-linecap:butt;stroke-linejoin:miter;stroke-miterlimit:4;stroke-dasharray:none;stroke-dashoffset:0;stroke-opacity:1;-inkscape-stroke:none;stop-color:#000000;stop-opacity:1"
           id="g40">
          <path
             style="font-variation-settings:normal;vector-effect:none;fill:#e3000f;fill-opacity:1;stroke:none;stroke-width:1;stroke-linecap:butt;stroke-linejoin:miter;stroke-miterlimit:4;stroke-dasharray:none;stroke-dashoffset:0;stroke-opacity:1;-inkscape-stroke:none;stop-color:#000000;stop-opacity:1"
             d="m 2.875,-2.5 c 0,-0.765625 -0.109375,-1.96875 -0.65625,-3.109375 -0.59375,-1.21875 -1.453125,-1.875 -1.546875,-1.875 -0.0625,0 -0.109375,0.046875 -0.109375,0.109375 0,0.03125 0,0.046875 0.1875,0.234375 0.984375,0.984375 1.546875,2.5625 1.546875,4.640625 0,1.71875 -0.359375,3.46875 -1.59375,4.71875 C 0.5625,2.34375 0.5625,2.359375 0.5625,2.390625 0.5625,2.453125 0.609375,2.5 0.671875,2.5 0.765625,2.5 1.671875,1.8125 2.25,0.546875 2.765625,-0.546875 2.875,-1.65625 2.875,-2.5 Z m 0,0"
             transform="translate(193.856,110.99)"
             id="path39" />
        </g>
      </g>
    </g>
    <g
       ns1:text="$u(\mathbf{x})$"
       transform="matrix(0.44253475,0,0,0.44253475,38.182366,46.964357)"
       style="font-variation-settings:normal;opacity:1;vector-effect:none;fill:#e3000f;fill-opacity:1;stroke-width:1;stroke-linecap:butt;stroke-linejoin:miter;stroke-miterlimit:4;stroke-dasharray:none;stroke-dashoffset:0;stroke-opacity:1;-inkscape-stroke:none;stop-color:#000000;stop-opacity:1"
       id="g48">
      <g
         id="g47"
         style="font-variation-settings:normal;vector-effect:none;fill:#e3000f;fill-opacity:1;stroke-width:1;stroke-linecap:butt;stroke-linejoin:miter;stroke-miterlimit:4;stroke-dasharray:none;stroke-dashoffset:0;stroke-opacity:1;-inkscape-stroke:none;stop-color:#000000;stop-opacity:1">
        <g
           style="fill:#e3000f;fill-opacity:1;font-variation-settings:normal;vector-effect:none;stroke-width:1;stroke-linecap:butt;stroke-linejoin:miter;stroke-miterlimit:4;stroke-dasharray:none;stroke-dashoffset:0;stroke-opacity:1;-inkscape-stroke:none;stop-color:#000000;stop-opacity:1"
           id="g43">
          <path
             style="stroke:none;font-variation-settings:normal;vector-effect:none;fill:#e3000f;fill-opacity:1;stroke-width:1;stroke-linecap:butt;stroke-linejoin:miter;stroke-miterlimit:4;stroke-dasharray:none;stroke-dashoffset:0;stroke-opacity:1;-inkscape-stroke:none;stop-color:#000000;stop-opacity:1"
             d="M 3.484375 -0.5625 C 3.59375 -0.15625 3.953125 0.109375 4.375 0.109375 C 4.71875 0.109375 4.953125 -0.125 5.109375 -0.4375 C 5.28125 -0.796875 5.40625 -1.40625 5.40625 -1.421875 C 5.40625 -1.53125 5.328125 -1.53125 5.296875 -1.53125 C 5.1875 -1.53125 5.1875 -1.484375 5.15625 -1.34375 C 5.015625 -0.78125 4.828125 -0.109375 4.40625 -0.109375 C 4.203125 -0.109375 4.09375 -0.234375 4.09375 -0.5625 C 4.09375 -0.78125 4.21875 -1.25 4.296875 -1.609375 L 4.578125 -2.6875 C 4.609375 -2.828125 4.703125 -3.203125 4.75 -3.359375 C 4.796875 -3.59375 4.890625 -3.96875 4.890625 -4.03125 C 4.890625 -4.203125 4.75 -4.296875 4.609375 -4.296875 C 4.5625 -4.296875 4.296875 -4.28125 4.21875 -3.953125 C 4.03125 -3.21875 3.59375 -1.46875 3.46875 -0.953125 C 3.453125 -0.90625 3.0625 -0.109375 2.328125 -0.109375 C 1.8125 -0.109375 1.71875 -0.5625 1.71875 -0.921875 C 1.71875 -1.484375 2 -2.265625 2.25 -2.953125 C 2.375 -3.265625 2.421875 -3.40625 2.421875 -3.59375 C 2.421875 -4.03125 2.109375 -4.40625 1.609375 -4.40625 C 0.65625 -4.40625 0.296875 -2.953125 0.296875 -2.875 C 0.296875 -2.765625 0.390625 -2.765625 0.40625 -2.765625 C 0.515625 -2.765625 0.515625 -2.796875 0.5625 -2.953125 C 0.8125 -3.8125 1.203125 -4.1875 1.578125 -4.1875 C 1.671875 -4.1875 1.828125 -4.171875 1.828125 -3.859375 C 1.828125 -3.625 1.71875 -3.328125 1.65625 -3.1875 C 1.28125 -2.1875 1.078125 -1.578125 1.078125 -1.09375 C 1.078125 -0.140625 1.765625 0.109375 2.296875 0.109375 C 2.953125 0.109375 3.3125 -0.34375 3.484375 -0.5625 Z M 3.484375 -0.5625 "
             transform="translate(178.585,110.99)"
             id="path42" />
        </g>
        <g
           style="fill:#e3000f;fill-opacity:1;font-variation-settings:normal;vector-effect:none;stroke-width:1;stroke-linecap:butt;stroke-linejoin:miter;stroke-miterlimit:4;stroke-dasharray:none;stroke-dashoffset:0;stroke-opacity:1;-inkscape-stroke:none;stop-color:#000000;stop-opacity:1"
           id="g44">
          <path
             style="stroke:none;font-variation-settings:normal;vector-effect:none;fill:#e3000f;fill-opacity:1;stroke-width:1;stroke-linecap:butt;stroke-linejoin:miter;stroke-miterlimit:4;stroke-dasharray:none;stroke-dashoffset:0;stroke-opacity:1;-inkscape-stroke:none;stop-color:#000000;stop-opacity:1"
             d="M 3.296875 2.390625 C 3.296875 2.359375 3.296875 2.34375 3.125 2.171875 C 1.890625 0.921875 1.5625 -0.96875 1.5625 -2.5 C 1.5625 -4.234375 1.9375 -5.96875 3.171875 -7.203125 C 3.296875 -7.328125 3.296875 -7.34375 3.296875 -7.375 C 3.296875 -7.453125 3.265625 -7.484375 3.203125 -7.484375 C 3.09375 -7.484375 2.203125 -6.796875 1.609375 -5.53125 C 1.109375 -4.4375 0.984375 -3.328125 0.984375 -2.5 C 0.984375 -1.71875 1.09375 -0.515625 1.640625 0.625 C 2.25 1.84375 3.09375 2.5 3.203125 2.5 C 3.265625 2.5 3.296875 2.46875 3.296875 2.390625 Z M 3.296875 2.390625 "
             transform="translate(184.288,110.99)"
             id="path43" />
        </g>
        <g
           style="fill:#e3000f;fill-opacity:1;font-variation-settings:normal;vector-effect:none;stroke-width:1;stroke-linecap:butt;stroke-linejoin:miter;stroke-miterlimit:4;stroke-dasharray:none;stroke-dashoffset:0;stroke-opacity:1;-inkscape-stroke:none;stop-color:#000000;stop-opacity:1"
           id="g45">
          <path
             style="stroke:none;font-variation-settings:normal;vector-effect:none;fill:#e3000f;fill-opacity:1;stroke-width:1;stroke-linecap:butt;stroke-linejoin:miter;stroke-miterlimit:4;stroke-dasharray:none;stroke-dashoffset:0;stroke-opacity:1;-inkscape-stroke:none;stop-color:#000000;stop-opacity:1"
             d="M 3.453125 -2.453125 L 4.609375 -3.75 C 4.75 -3.890625 4.8125 -3.953125 5.625 -3.953125 L 5.625 -4.421875 C 5.28125 -4.40625 4.765625 -4.390625 4.71875 -4.390625 C 4.46875 -4.390625 3.96875 -4.421875 3.6875 -4.421875 L 3.6875 -3.953125 C 3.828125 -3.953125 3.953125 -3.9375 4.0625 -3.875 C 4.03125 -3.8125 4.03125 -3.78125 3.984375 -3.75 L 3.15625 -2.8125 L 2.171875 -3.953125 L 2.578125 -3.953125 L 2.578125 -4.421875 C 2.3125 -4.421875 1.6875 -4.390625 1.359375 -4.390625 C 1.046875 -4.390625 0.59375 -4.421875 0.265625 -4.421875 L 0.265625 -3.953125 L 0.984375 -3.953125 L 2.53125 -2.125 L 1.21875 -0.65625 C 1.0625 -0.46875 0.703125 -0.46875 0.21875 -0.46875 L 0.21875 0 C 0.5625 -0.015625 1.09375 -0.03125 1.140625 -0.03125 C 1.390625 -0.03125 1.96875 -0.015625 2.15625 0 L 2.15625 -0.46875 C 1.984375 -0.46875 1.796875 -0.515625 1.796875 -0.578125 C 1.796875 -0.59375 1.796875 -0.59375 1.859375 -0.671875 L 2.828125 -1.765625 L 3.921875 -0.46875 L 3.53125 -0.46875 L 3.53125 0 C 3.796875 -0.015625 4.40625 -0.03125 4.734375 -0.03125 C 5.046875 -0.03125 5.5 -0.015625 5.828125 0 L 5.828125 -0.46875 L 5.125 -0.46875 Z M 3.453125 -2.453125 "
             transform="translate(188.162,110.99)"
             id="path45" />
        </g>
        <g
           style="fill:#e3000f;fill-opacity:1;font-variation-settings:normal;vector-effect:none;stroke-width:1;stroke-linecap:butt;stroke-linejoin:miter;stroke-miterlimit:4;stroke-dasharray:none;stroke-dashoffset:0;stroke-opacity:1;-inkscape-stroke:none;stop-color:#000000;stop-opacity:1"
           id="g46">
          <path
             style="stroke:none;font-variation-settings:normal;vector-effect:none;fill:#e3000f;fill-opacity:1;stroke-width:1;stroke-linecap:butt;stroke-linejoin:miter;stroke-miterlimit:4;stroke-dasharray:none;stroke-dashoffset:0;stroke-opacity:1;-inkscape-stroke:none;stop-color:#000000;stop-opacity:1"
             d="M 2.875 -2.5 C 2.875 -3.265625 2.765625 -4.46875 2.21875 -5.609375 C 1.625 -6.828125 0.765625 -7.484375 0.671875 -7.484375 C 0.609375 -7.484375 0.5625 -7.4375 0.5625 -7.375 C 0.5625 -7.34375 0.5625 -7.328125 0.75 -7.140625 C 1.734375 -6.15625 2.296875 -4.578125 2.296875 -2.5 C 2.296875 -0.78125 1.9375 0.96875 0.703125 2.21875 C 0.5625 2.34375 0.5625 2.359375 0.5625 2.390625 C 0.5625 2.453125 0.609375 2.5 0.671875 2.5 C 0.765625 2.5 1.671875 1.8125 2.25 0.546875 C 2.765625 -0.546875 2.875 -1.65625 2.875 -2.5 Z M 2.875 -2.5 "
             transform="translate(194.209,110.99)"
             id="path46" />
        </g>
      </g>
    </g>
  </g>
</svg>
