<?xml version="1.0" encoding="UTF-8" standalone="no"?>
<!-- Created with Inkscape (http://www.inkscape.org/) -->

<svg
   width="82.993103mm"
   height="40.414665mm"
   viewBox="0 0 82.993101 40.414665"
   version="1.1"
   id="svg1"
   xml:space="preserve"
   inkscape:version="1.3.2 (091e20e, 2023-11-25, custom)"
   sodipodi:docname="du_Interpolation.svg"
   xmlns:inkscape="http://www.inkscape.org/namespaces/inkscape"
   xmlns:sodipodi="http://sodipodi.sourceforge.net/DTD/sodipodi-0.dtd"
   xmlns:xlink="http://www.w3.org/1999/xlink"
   xmlns="http://www.w3.org/2000/svg"
   xmlns:svg="http://www.w3.org/2000/svg"
   xmlns:ns1="http://wanglongqi.github.io/WriteTeX"><sodipodi:namedview
     id="namedview1"
     pagecolor="#ffffff"
     bordercolor="#666666"
     borderopacity="1.0"
     inkscape:showpageshadow="2"
     inkscape:pageopacity="0.0"
     inkscape:pagecheckerboard="0"
     inkscape:deskcolor="#d1d1d1"
     inkscape:document-units="mm"
     inkscape:zoom="4.595956"
     inkscape:cx="177.11223"
     inkscape:cy="53.851691"
     inkscape:window-width="1920"
     inkscape:window-height="1009"
     inkscape:window-x="1912"
     inkscape:window-y="-8"
     inkscape:window-maximized="1"
     inkscape:current-layer="svg1"
     showgrid="false" /><defs
     id="defs1"><marker
       style="overflow:visible"
       id="ConcaveTriangle"
       refX="0"
       refY="0"
       orient="auto-start-reverse"
       inkscape:stockid="Concave triangle arrow"
       markerWidth="1"
       markerHeight="1"
       viewBox="0 0 1 1"
       inkscape:isstock="true"
       inkscape:collect="always"
       preserveAspectRatio="xMidYMid"><path
         transform="scale(0.7)"
         d="M -2,-4 9,0 -2,4 c 2,-2.33 2,-5.66 0,-8 z"
         style="fill:context-stroke;fill-rule:evenodd;stroke:none"
         id="path12" /></marker><linearGradient
       id="linearGradient5"
       inkscape:collect="always"><stop
         style="stop-color:#e3000f;stop-opacity:0;"
         offset="0"
         id="stop6" /><stop
         style="stop-color:#e3000f;stop-opacity:1;"
         offset="1"
         id="stop5" /></linearGradient><linearGradient
       inkscape:collect="always"
       xlink:href="#linearGradient5"
       id="linearGradient6"
       x1="23.531412"
       y1="61.536827"
       x2="105.53171"
       y2="61.536827"
       gradientUnits="userSpaceOnUse"
       gradientTransform="translate(-23.423023,-94.105652)" /></defs><path
     style="fill:none;stroke:#b3b3b3;stroke-width:0.352778;stroke-linecap:butt;stroke-linejoin:miter;stroke-dasharray:1.05833, 1.05833;stroke-dashoffset:0;stroke-opacity:1"
     d="M 41.108537,29.86256 V 1.9705579"
     id="path5"
     sodipodi:nodetypes="cc" /><path
     style="fill:none;stroke:#b3b3b3;stroke-width:0.352778;stroke-linecap:butt;stroke-linejoin:miter;stroke-dasharray:1.05833, 1.05833;stroke-dashoffset:0;stroke-opacity:1"
     d="M 60.33251,29.86256 V 1.9705579"
     id="path6-2"
     sodipodi:nodetypes="cc" /><g
     inkscape:label="Layer 1"
     inkscape:groupmode="layer"
     id="layer1"
     transform="translate(-23.423022,-8.54175)" /><circle
     style="font-variation-settings:normal;opacity:1;vector-effect:none;fill:#e3000f;fill-opacity:0.8;stroke:none;stroke-width:0.661286;stroke-linecap:square;stroke-linejoin:round;stroke-miterlimit:10;stroke-dasharray:none;stroke-dashoffset:0;stroke-opacity:1;-inkscape-stroke:none;paint-order:fill markers stroke;stop-color:#000000;stop-opacity:1"
     id="circle2"
     cx="79.556465"
     cy="32.192532"
     r="2.3299713" /><circle
     style="font-variation-settings:normal;opacity:1;vector-effect:none;fill:#e3000f;fill-opacity:0.76;stroke:none;stroke-width:0.661286;stroke-linecap:square;stroke-linejoin:round;stroke-miterlimit:10;stroke-dasharray:none;stroke-dashoffset:0;stroke-opacity:1;-inkscape-stroke:none;paint-order:fill markers stroke;stop-color:#000000;stop-opacity:1"
     id="circle3"
     cx="60.332512"
     cy="32.192532"
     r="2.3299713" /><circle
     style="font-variation-settings:normal;opacity:1;vector-effect:none;fill:#e3000f;fill-opacity:0.64;stroke:none;stroke-width:0.661286;stroke-linecap:square;stroke-linejoin:round;stroke-miterlimit:10;stroke-dasharray:none;stroke-dashoffset:0;stroke-opacity:1;-inkscape-stroke:none;paint-order:fill markers stroke;stop-color:#000000;stop-opacity:1"
     id="circle4"
     cx="41.108543"
     cy="32.192532"
     r="2.3299713" /><circle
     style="font-variation-settings:normal;opacity:1;vector-effect:none;fill:#e3000f;fill-opacity:0.48;stroke:none;stroke-width:0.661286;stroke-linecap:square;stroke-linejoin:round;stroke-miterlimit:10;stroke-dasharray:none;stroke-dashoffset:0;stroke-opacity:1;-inkscape-stroke:none;paint-order:fill markers stroke;stop-color:#000000;stop-opacity:1"
     id="circle5"
     cx="21.884577"
     cy="32.192532"
     r="2.3299713" /><rect
     style="fill:url(#linearGradient6);fill-opacity:1;stroke:#000000;stroke-width:0.223652;paint-order:fill markers stroke"
     id="rect5"
     width="81.776649"
     height="3.8601139"
     x="0.22021717"
     y="-34.498882" /><path
     style="fill:none;stroke:#000000;stroke-width:0.264583px;stroke-linecap:butt;stroke-linejoin:miter;stroke-opacity:1"
     d="M 4.9905852,32.192528 H 19.554602"
     id="path6" /><path
     style="fill:none;stroke:#000000;stroke-width:0.264583px;stroke-linecap:butt;stroke-linejoin:miter;stroke-opacity:1"
     d="M 24.214548,32.192528 H 38.778569"
     id="path7" /><path
     style="fill:none;stroke:#000000;stroke-width:0.264583px;stroke-linecap:butt;stroke-linejoin:miter;stroke-opacity:1"
     d="M 43.438511,32.192528 H 58.002537"
     id="path8" /><g
     ns1:text="$u_{\mbox{\tiny min}}$"
     transform="matrix(0.69825401,0,0,0.69825401,-127.57599,-115.1797)"
     id="g35"><g
       id="surface1"><g
         style="fill:#000000;fill-opacity:1"
         id="g31"><path
           style="stroke:none"
           d="M 3.484375,-0.5625 C 3.59375,-0.15625 3.953125,0.109375 4.375,0.109375 4.71875,0.109375 4.953125,-0.125 5.109375,-0.4375 5.28125,-0.796875 5.40625,-1.40625 5.40625,-1.421875 c 0,-0.109375 -0.078125,-0.109375 -0.109375,-0.109375 -0.109375,0 -0.109375,0.046875 -0.140625,0.1875 -0.140625,0.5625 -0.328125,1.234375 -0.75,1.234375 -0.203125,0 -0.3125,-0.125 -0.3125,-0.453125 0,-0.21875 0.125,-0.6875 0.203125,-1.046875 L 4.578125,-2.6875 C 4.609375,-2.828125 4.703125,-3.203125 4.75,-3.359375 4.796875,-3.59375 4.890625,-3.96875 4.890625,-4.03125 c 0,-0.171875 -0.140625,-0.265625 -0.28125,-0.265625 -0.046875,0 -0.3125,0.015625 -0.390625,0.34375 -0.1875,0.734375 -0.625,2.484375 -0.75,3 -0.015625,0.046875 -0.40625,0.84375 -1.140625,0.84375 -0.515625,0 -0.609375,-0.453125 -0.609375,-0.8125 0,-0.5625 0.28125,-1.34375 0.53125,-2.03125 0.125,-0.3125 0.171875,-0.453125 0.171875,-0.640625 0,-0.4375 -0.3125,-0.8125 -0.8125,-0.8125 -0.953125,0 -1.3125,1.453125 -1.3125,1.53125 0,0.109375 0.09375,0.109375 0.109375,0.109375 0.109375,0 0.109375,-0.03125 0.15625,-0.1875 0.25,-0.859375 0.640625,-1.234375 1.015625,-1.234375 0.09375,0 0.25,0.015625 0.25,0.328125 0,0.234375 -0.109375,0.53125 -0.171875,0.671875 -0.375,1 -0.578125,1.609375 -0.578125,2.09375 0,0.953125 0.6875,1.203125 1.21875,1.203125 0.65625,0 1.015625,-0.453125 1.1875,-0.671875 z m 0,0"
           transform="translate(178.585,110.99)"
           id="path31" /></g><g
         style="fill:#000000;fill-opacity:1"
         id="g34"><path
           style="stroke:none"
           d="m 5.140625,0 v -0.21875 h -0.09375 c -0.328125,0 -0.328125,-0.046875 -0.328125,-0.203125 V -1.5 c 0,-0.625 -0.46875,-0.703125 -0.828125,-0.703125 -0.5,0 -0.78125,0.25 -0.921875,0.46875 -0.125,-0.46875 -0.625,-0.46875 -0.8125,-0.46875 -0.515625,0 -0.8125,0.28125 -0.9375,0.484375 v -0.484375 l -0.8125,0.0625 v 0.21875 c 0.375,0 0.421875,0.03125 0.421875,0.265625 v 1.234375 c 0,0.15625 0,0.203125 -0.328125,0.203125 H 0.40625 V 0 C 0.625,-0.015625 0.828125,-0.015625 1.046875,-0.015625 1.25,-0.015625 1.46875,-0.015625 1.6875,0 V -0.21875 H 1.59375 c -0.328125,0 -0.328125,-0.046875 -0.328125,-0.203125 V -1.28125 c 0,-0.5625 0.515625,-0.75 0.828125,-0.75 0.375,0 0.453125,0.203125 0.453125,0.515625 v 1.09375 c 0,0.15625 0,0.203125 -0.3125,0.203125 H 2.140625 V 0 c 0.21875,-0.015625 0.421875,-0.015625 0.640625,-0.015625 0.203125,0 0.421875,0 0.625,0.015625 V -0.21875 H 3.3125 C 3,-0.21875 3,-0.265625 3,-0.421875 V -1.28125 c 0,-0.5625 0.5,-0.75 0.828125,-0.75 0.359375,0 0.453125,0.203125 0.453125,0.515625 v 1.09375 c 0,0.15625 0,0.203125 -0.328125,0.203125 H 3.875 V 0 c 0.203125,-0.015625 0.421875,-0.015625 0.625,-0.015625 0.21875,0 0.421875,0 0.640625,0.015625 z m 0,0"
           transform="translate(184.288,112.485)"
           id="path32" /><path
           style="stroke:none"
           d="m 1.625,0 v -0.21875 c -0.328125,0 -0.375,0 -0.375,-0.203125 v -1.78125 l -0.8125,0.0625 v 0.21875 c 0.34375,0 0.390625,0.03125 0.390625,0.265625 v 1.234375 c 0,0.15625 0,0.203125 -0.328125,0.203125 H 0.40625 V 0 c 0.21875,-0.015625 0.421875,-0.015625 0.625,-0.015625 0.1875,0 0.40625,0 0.59375,0.015625 z M 1.3125,-2.984375 c 0,-0.171875 -0.140625,-0.3125 -0.3125,-0.3125 -0.15625,0 -0.296875,0.140625 -0.296875,0.3125 0,0.15625 0.125,0.296875 0.296875,0.296875 0.171875,0 0.3125,-0.140625 0.3125,-0.296875 z m 0,0"
           transform="translate(189.75249,112.485)"
           id="path33" /><path
           style="stroke:none"
           d="M 3.40625,0 V -0.21875 H 3.3125 c -0.328125,0 -0.328125,-0.046875 -0.328125,-0.203125 V -1.5 c 0,-0.546875 -0.375,-0.703125 -0.828125,-0.703125 -0.53125,0 -0.8125,0.296875 -0.9375,0.484375 v -0.484375 l -0.8125,0.0625 v 0.21875 c 0.375,0 0.421875,0.03125 0.421875,0.265625 v 1.234375 c 0,0.15625 0,0.203125 -0.328125,0.203125 H 0.40625 V 0 C 0.625,-0.015625 0.828125,-0.015625 1.046875,-0.015625 1.25,-0.015625 1.46875,-0.015625 1.6875,0 V -0.21875 H 1.59375 c -0.328125,0 -0.328125,-0.046875 -0.328125,-0.203125 V -1.28125 c 0,-0.5625 0.515625,-0.75 0.828125,-0.75 0.375,0 0.453125,0.203125 0.453125,0.515625 v 1.09375 c 0,0.15625 0,0.203125 -0.328125,0.203125 H 2.140625 V 0 c 0.203125,-0.015625 0.421875,-0.015625 0.625,-0.015625 0.21875,0 0.421875,0 0.640625,0.015625 z m 0,0"
           transform="translate(191.75995,112.485)"
           id="path34" /></g></g></g><g
     ns1:text="$u_{\mbox{\tiny max}}$"
     transform="matrix(0.69825401,0,0,0.69825401,-45.799326,-115.22334)"
     id="g40"><g
       id="g39"><g
         style="fill:#000000;fill-opacity:1"
         id="g36"><path
           style="stroke:none"
           d="M 3.484375,-0.5625 C 3.59375,-0.15625 3.953125,0.109375 4.375,0.109375 4.71875,0.109375 4.953125,-0.125 5.109375,-0.4375 5.28125,-0.796875 5.40625,-1.40625 5.40625,-1.421875 c 0,-0.109375 -0.078125,-0.109375 -0.109375,-0.109375 -0.109375,0 -0.109375,0.046875 -0.140625,0.1875 -0.140625,0.5625 -0.328125,1.234375 -0.75,1.234375 -0.203125,0 -0.3125,-0.125 -0.3125,-0.453125 0,-0.21875 0.125,-0.6875 0.203125,-1.046875 L 4.578125,-2.6875 C 4.609375,-2.828125 4.703125,-3.203125 4.75,-3.359375 4.796875,-3.59375 4.890625,-3.96875 4.890625,-4.03125 c 0,-0.171875 -0.140625,-0.265625 -0.28125,-0.265625 -0.046875,0 -0.3125,0.015625 -0.390625,0.34375 -0.1875,0.734375 -0.625,2.484375 -0.75,3 -0.015625,0.046875 -0.40625,0.84375 -1.140625,0.84375 -0.515625,0 -0.609375,-0.453125 -0.609375,-0.8125 0,-0.5625 0.28125,-1.34375 0.53125,-2.03125 0.125,-0.3125 0.171875,-0.453125 0.171875,-0.640625 0,-0.4375 -0.3125,-0.8125 -0.8125,-0.8125 -0.953125,0 -1.3125,1.453125 -1.3125,1.53125 0,0.109375 0.09375,0.109375 0.109375,0.109375 0.109375,0 0.109375,-0.03125 0.15625,-0.1875 0.25,-0.859375 0.640625,-1.234375 1.015625,-1.234375 0.09375,0 0.25,0.015625 0.25,0.328125 0,0.234375 -0.109375,0.53125 -0.171875,0.671875 -0.375,1 -0.578125,1.609375 -0.578125,2.09375 0,0.953125 0.6875,1.203125 1.21875,1.203125 0.65625,0 1.015625,-0.453125 1.1875,-0.671875 z m 0,0"
           transform="translate(178.585,110.99)"
           id="path35" /></g><g
         style="fill:#000000;fill-opacity:1"
         id="g38"><path
           style="stroke:none"
           d="m 5.140625,0 v -0.21875 h -0.09375 c -0.328125,0 -0.328125,-0.046875 -0.328125,-0.203125 V -1.5 c 0,-0.625 -0.46875,-0.703125 -0.828125,-0.703125 -0.5,0 -0.78125,0.25 -0.921875,0.46875 -0.125,-0.46875 -0.625,-0.46875 -0.8125,-0.46875 -0.515625,0 -0.8125,0.28125 -0.9375,0.484375 v -0.484375 l -0.8125,0.0625 v 0.21875 c 0.375,0 0.421875,0.03125 0.421875,0.265625 v 1.234375 c 0,0.15625 0,0.203125 -0.328125,0.203125 H 0.40625 V 0 C 0.625,-0.015625 0.828125,-0.015625 1.046875,-0.015625 1.25,-0.015625 1.46875,-0.015625 1.6875,0 V -0.21875 H 1.59375 c -0.328125,0 -0.328125,-0.046875 -0.328125,-0.203125 V -1.28125 c 0,-0.5625 0.515625,-0.75 0.828125,-0.75 0.375,0 0.453125,0.203125 0.453125,0.515625 v 1.09375 c 0,0.15625 0,0.203125 -0.3125,0.203125 H 2.140625 V 0 c 0.21875,-0.015625 0.421875,-0.015625 0.640625,-0.015625 0.203125,0 0.421875,0 0.625,0.015625 V -0.21875 H 3.3125 C 3,-0.21875 3,-0.265625 3,-0.421875 V -1.28125 c 0,-0.5625 0.5,-0.75 0.828125,-0.75 0.359375,0 0.453125,0.203125 0.453125,0.515625 v 1.09375 c 0,0.15625 0,0.203125 -0.328125,0.203125 H 3.875 V 0 c 0.203125,-0.015625 0.421875,-0.015625 0.625,-0.015625 0.21875,0 0.421875,0 0.640625,0.015625 z m 0,0"
           transform="translate(184.288,112.485)"
           id="path36" /><path
           style="stroke:none"
           d="M 3.171875,-0.453125 V -0.71875 h -0.21875 v 0.265625 c 0,0.046875 0,0.265625 -0.203125,0.265625 -0.1875,0 -0.1875,-0.21875 -0.1875,-0.265625 v -1.03125 c 0,-0.46875 -0.515625,-0.75 -1.125,-0.75 -0.3125,0 -0.890625,0.015625 -0.890625,0.4375 0,0.1875 0.140625,0.265625 0.265625,0.265625 0.140625,0 0.265625,-0.09375 0.265625,-0.265625 0,-0.109375 -0.0625,-0.1875 -0.109375,-0.21875 C 1.125,-2.0625 1.375,-2.0625 1.421875,-2.0625 c 0.421875,0 0.6875,0.234375 0.6875,0.59375 v 0.125 c -0.484375,0.015625 -0.75,0.03125 -1.125,0.171875 -0.34375,0.109375 -0.625,0.328125 -0.625,0.65625 0,0.453125 0.578125,0.578125 0.96875,0.578125 0.390625,0 0.6875,-0.15625 0.84375,-0.421875 C 2.1875,-0.171875 2.3125,0.03125 2.5625,0.03125 c 0.03125,0 0.609375,0 0.609375,-0.484375 z m -1.0625,-0.25 c 0,0.546875 -0.59375,0.59375 -0.71875,0.59375 -0.296875,0 -0.578125,-0.15625 -0.578125,-0.40625 0,-0.171875 0.109375,-0.625 1.296875,-0.6875 z m 0,0"
           transform="translate(189.75249,112.485)"
           id="path37" /><path
           style="stroke:none"
           d="M 3.296875,0 V -0.21875 H 3.203125 C 2.9375,-0.21875 2.875,-0.265625 2.828125,-0.296875 2.765625,-0.328125 2.1875,-0.9375 1.96875,-1.15625 c 0.609375,-0.640625 0.75,-0.765625 1.21875,-0.765625 v -0.21875 c -0.140625,0 -0.28125,0.015625 -0.46875,0.015625 -0.171875,0 -0.375,-0.015625 -0.5625,-0.015625 v 0.21875 c 0.09375,0 0.109375,0.09375 0.109375,0.09375 0,0.078125 -0.0625,0.140625 -0.203125,0.265625 l -0.25,0.25 C 1.59375,-1.53125 1.328125,-1.796875 1.328125,-1.84375 c 0,-0.078125 0.109375,-0.078125 0.125,-0.078125 v -0.21875 C 1.25,-2.140625 0.875,-2.125 0.84375,-2.125 c -0.203125,0 -0.34375,0 -0.546875,-0.015625 v 0.21875 h 0.09375 c 0.3125,0 0.3125,0 0.578125,0.265625 L 1.5625,-1.0625 C 1.53125,-1.03125 1.09375,-0.59375 1.015625,-0.515625 0.875,-0.390625 0.6875,-0.21875 0.265625,-0.21875 V 0 c 0.140625,-0.015625 0.28125,-0.015625 0.46875,-0.015625 0.171875,0 0.375,0 0.5625,0.015625 v -0.21875 c -0.078125,-0.015625 -0.09375,-0.0625 -0.09375,-0.09375 0,-0.09375 0.0625,-0.15625 0.09375,-0.1875 l 0.40625,-0.40625 c 0.171875,0.171875 0.390625,0.390625 0.515625,0.515625 0.046875,0.0625 0.046875,0.0625 0.046875,0.078125 0,0.09375 -0.109375,0.09375 -0.125,0.09375 V 0 C 2.34375,-0.015625 2.71875,-0.015625 2.75,-0.015625 c 0.203125,0 0.34375,0 0.546875,0.015625 z m 0,0"
           transform="translate(193.14475,112.485)"
           id="path38" /></g></g></g><g
     ns1:text="$u_{1}$"
     transform="matrix(0.69825401,0,0,0.69825401,-124.85191,-38.182987)"
     id="g44"><g
       id="g43"><g
         style="fill:#000000;fill-opacity:1"
         id="g41"><path
           style="stroke:none"
           d="M 3.484375,-0.5625 C 3.59375,-0.15625 3.953125,0.109375 4.375,0.109375 4.71875,0.109375 4.953125,-0.125 5.109375,-0.4375 5.28125,-0.796875 5.40625,-1.40625 5.40625,-1.421875 c 0,-0.109375 -0.078125,-0.109375 -0.109375,-0.109375 -0.109375,0 -0.109375,0.046875 -0.140625,0.1875 -0.140625,0.5625 -0.328125,1.234375 -0.75,1.234375 -0.203125,0 -0.3125,-0.125 -0.3125,-0.453125 0,-0.21875 0.125,-0.6875 0.203125,-1.046875 L 4.578125,-2.6875 C 4.609375,-2.828125 4.703125,-3.203125 4.75,-3.359375 4.796875,-3.59375 4.890625,-3.96875 4.890625,-4.03125 c 0,-0.171875 -0.140625,-0.265625 -0.28125,-0.265625 -0.046875,0 -0.3125,0.015625 -0.390625,0.34375 -0.1875,0.734375 -0.625,2.484375 -0.75,3 -0.015625,0.046875 -0.40625,0.84375 -1.140625,0.84375 -0.515625,0 -0.609375,-0.453125 -0.609375,-0.8125 0,-0.5625 0.28125,-1.34375 0.53125,-2.03125 0.125,-0.3125 0.171875,-0.453125 0.171875,-0.640625 0,-0.4375 -0.3125,-0.8125 -0.8125,-0.8125 -0.953125,0 -1.3125,1.453125 -1.3125,1.53125 0,0.109375 0.09375,0.109375 0.109375,0.109375 0.109375,0 0.109375,-0.03125 0.15625,-0.1875 0.25,-0.859375 0.640625,-1.234375 1.015625,-1.234375 0.09375,0 0.25,0.015625 0.25,0.328125 0,0.234375 -0.109375,0.53125 -0.171875,0.671875 -0.375,1 -0.578125,1.609375 -0.578125,2.09375 0,0.953125 0.6875,1.203125 1.21875,1.203125 0.65625,0 1.015625,-0.453125 1.1875,-0.671875 z m 0,0"
           transform="translate(178.585,110.99)"
           id="path40" /></g><g
         style="fill:#000000;fill-opacity:1"
         id="g42"><path
           style="stroke:none"
           d="m 2.328125,-4.4375 c 0,-0.1875 0,-0.1875 -0.203125,-0.1875 -0.453125,0.4375 -1.078125,0.4375 -1.359375,0.4375 v 0.25 c 0.15625,0 0.625,0 1,-0.1875 v 3.546875 c 0,0.234375 0,0.328125 -0.6875,0.328125 H 0.8125 V 0 c 0.125,0 0.984375,-0.03125 1.234375,-0.03125 0.21875,0 1.09375,0.03125 1.25,0.03125 V -0.25 H 3.03125 c -0.703125,0 -0.703125,-0.09375 -0.703125,-0.328125 z m 0,0"
           transform="translate(184.288,112.485)"
           id="path41" /></g></g></g><g
     ns1:text="$u_{2}$"
     transform="matrix(0.69825401,0,0,0.69825401,-105.86252,-38.182987)"
     id="g48"><g
       id="g47"><g
         style="fill:#000000;fill-opacity:1"
         id="g45"><path
           style="stroke:none"
           d="M 3.484375,-0.5625 C 3.59375,-0.15625 3.953125,0.109375 4.375,0.109375 4.71875,0.109375 4.953125,-0.125 5.109375,-0.4375 5.28125,-0.796875 5.40625,-1.40625 5.40625,-1.421875 c 0,-0.109375 -0.078125,-0.109375 -0.109375,-0.109375 -0.109375,0 -0.109375,0.046875 -0.140625,0.1875 -0.140625,0.5625 -0.328125,1.234375 -0.75,1.234375 -0.203125,0 -0.3125,-0.125 -0.3125,-0.453125 0,-0.21875 0.125,-0.6875 0.203125,-1.046875 L 4.578125,-2.6875 C 4.609375,-2.828125 4.703125,-3.203125 4.75,-3.359375 4.796875,-3.59375 4.890625,-3.96875 4.890625,-4.03125 c 0,-0.171875 -0.140625,-0.265625 -0.28125,-0.265625 -0.046875,0 -0.3125,0.015625 -0.390625,0.34375 -0.1875,0.734375 -0.625,2.484375 -0.75,3 -0.015625,0.046875 -0.40625,0.84375 -1.140625,0.84375 -0.515625,0 -0.609375,-0.453125 -0.609375,-0.8125 0,-0.5625 0.28125,-1.34375 0.53125,-2.03125 0.125,-0.3125 0.171875,-0.453125 0.171875,-0.640625 0,-0.4375 -0.3125,-0.8125 -0.8125,-0.8125 -0.953125,0 -1.3125,1.453125 -1.3125,1.53125 0,0.109375 0.09375,0.109375 0.109375,0.109375 0.109375,0 0.109375,-0.03125 0.15625,-0.1875 0.25,-0.859375 0.640625,-1.234375 1.015625,-1.234375 0.09375,0 0.25,0.015625 0.25,0.328125 0,0.234375 -0.109375,0.53125 -0.171875,0.671875 -0.375,1 -0.578125,1.609375 -0.578125,2.09375 0,0.953125 0.6875,1.203125 1.21875,1.203125 0.65625,0 1.015625,-0.453125 1.1875,-0.671875 z m 0,0"
           transform="translate(178.585,110.99)"
           id="path44" /></g><g
         style="fill:#000000;fill-opacity:1"
         id="g46"><path
           style="stroke:none"
           d="M 3.515625,-1.265625 H 3.28125 c -0.015625,0.15625 -0.09375,0.5625 -0.1875,0.625 C 3.046875,-0.59375 2.515625,-0.59375 2.40625,-0.59375 H 1.125 c 0.734375,-0.640625 0.984375,-0.84375 1.390625,-1.171875 0.515625,-0.40625 1,-0.84375 1,-1.5 0,-0.84375 -0.734375,-1.359375 -1.625,-1.359375 -0.859375,0 -1.453125,0.609375 -1.453125,1.25 0,0.34375 0.296875,0.390625 0.375,0.390625 0.15625,0 0.359375,-0.125 0.359375,-0.375 0,-0.125 -0.046875,-0.375 -0.40625,-0.375 C 0.984375,-4.21875 1.453125,-4.375 1.78125,-4.375 c 0.703125,0 1.0625,0.546875 1.0625,1.109375 0,0.609375 -0.4375,1.078125 -0.65625,1.328125 L 0.515625,-0.265625 C 0.4375,-0.203125 0.4375,-0.1875 0.4375,0 h 2.875 z m 0,0"
           transform="translate(184.288,112.485)"
           id="path45" /></g></g></g><g
     ns1:text="$u_{3}$"
     transform="matrix(0.69825401,0,0,0.69825401,-86.676741,-38.281179)"
     id="g52"><g
       id="g51"><g
         style="fill:#000000;fill-opacity:1"
         id="g49"><path
           style="stroke:none"
           d="M 3.484375,-0.5625 C 3.59375,-0.15625 3.953125,0.109375 4.375,0.109375 4.71875,0.109375 4.953125,-0.125 5.109375,-0.4375 5.28125,-0.796875 5.40625,-1.40625 5.40625,-1.421875 c 0,-0.109375 -0.078125,-0.109375 -0.109375,-0.109375 -0.109375,0 -0.109375,0.046875 -0.140625,0.1875 -0.140625,0.5625 -0.328125,1.234375 -0.75,1.234375 -0.203125,0 -0.3125,-0.125 -0.3125,-0.453125 0,-0.21875 0.125,-0.6875 0.203125,-1.046875 L 4.578125,-2.6875 C 4.609375,-2.828125 4.703125,-3.203125 4.75,-3.359375 4.796875,-3.59375 4.890625,-3.96875 4.890625,-4.03125 c 0,-0.171875 -0.140625,-0.265625 -0.28125,-0.265625 -0.046875,0 -0.3125,0.015625 -0.390625,0.34375 -0.1875,0.734375 -0.625,2.484375 -0.75,3 -0.015625,0.046875 -0.40625,0.84375 -1.140625,0.84375 -0.515625,0 -0.609375,-0.453125 -0.609375,-0.8125 0,-0.5625 0.28125,-1.34375 0.53125,-2.03125 0.125,-0.3125 0.171875,-0.453125 0.171875,-0.640625 0,-0.4375 -0.3125,-0.8125 -0.8125,-0.8125 -0.953125,0 -1.3125,1.453125 -1.3125,1.53125 0,0.109375 0.09375,0.109375 0.109375,0.109375 0.109375,0 0.109375,-0.03125 0.15625,-0.1875 0.25,-0.859375 0.640625,-1.234375 1.015625,-1.234375 0.09375,0 0.25,0.015625 0.25,0.328125 0,0.234375 -0.109375,0.53125 -0.171875,0.671875 -0.375,1 -0.578125,1.609375 -0.578125,2.09375 0,0.953125 0.6875,1.203125 1.21875,1.203125 0.65625,0 1.015625,-0.453125 1.1875,-0.671875 z m 0,0"
           transform="translate(178.585,110.99)"
           id="path48" /></g><g
         style="fill:#000000;fill-opacity:1"
         id="g50"><path
           style="stroke:none"
           d="m 1.90625,-2.328125 c 0.546875,0 0.9375,0.375 0.9375,1.125 0,0.859375 -0.515625,1.125 -0.90625,1.125 -0.28125,0 -0.90625,-0.078125 -1.1875,-0.5 0.328125,0 0.40625,-0.234375 0.40625,-0.390625 0,-0.21875 -0.171875,-0.375 -0.390625,-0.375 -0.1875,0 -0.390625,0.125 -0.390625,0.40625 0,0.65625 0.71875,1.078125 1.5625,1.078125 0.96875,0 1.640625,-0.65625 1.640625,-1.34375 0,-0.546875 -0.4375,-1.09375 -1.203125,-1.25 0.71875,-0.265625 0.984375,-0.78125 0.984375,-1.21875 0,-0.546875 -0.625,-0.953125 -1.40625,-0.953125 -0.765625,0 -1.359375,0.375 -1.359375,0.9375 0,0.234375 0.15625,0.359375 0.359375,0.359375 0.21875,0 0.359375,-0.15625 0.359375,-0.34375 0,-0.203125 -0.140625,-0.359375 -0.359375,-0.375 0.25,-0.296875 0.71875,-0.375 0.984375,-0.375 0.3125,0 0.75,0.15625 0.75,0.75 0,0.296875 -0.09375,0.625 -0.28125,0.828125 -0.21875,0.265625 -0.421875,0.28125 -0.765625,0.3125 -0.171875,0.015625 -0.1875,0.015625 -0.21875,0.015625 -0.015625,0 -0.078125,0.015625 -0.078125,0.09375 0,0.09375 0.0625,0.09375 0.1875,0.09375 z m 0,0"
           transform="translate(184.288,112.485)"
           id="path49" /></g></g></g><g
     ns1:text="$u_{4}$"
     transform="matrix(0.69825401,0,0,0.69825401,-67.447323,-38.182987)"
     id="g56"><g
       id="g55"><g
         style="fill:#000000;fill-opacity:1"
         id="g53"><path
           style="stroke:none"
           d="M 3.484375,-0.5625 C 3.59375,-0.15625 3.953125,0.109375 4.375,0.109375 4.71875,0.109375 4.953125,-0.125 5.109375,-0.4375 5.28125,-0.796875 5.40625,-1.40625 5.40625,-1.421875 c 0,-0.109375 -0.078125,-0.109375 -0.109375,-0.109375 -0.109375,0 -0.109375,0.046875 -0.140625,0.1875 -0.140625,0.5625 -0.328125,1.234375 -0.75,1.234375 -0.203125,0 -0.3125,-0.125 -0.3125,-0.453125 0,-0.21875 0.125,-0.6875 0.203125,-1.046875 L 4.578125,-2.6875 C 4.609375,-2.828125 4.703125,-3.203125 4.75,-3.359375 4.796875,-3.59375 4.890625,-3.96875 4.890625,-4.03125 c 0,-0.171875 -0.140625,-0.265625 -0.28125,-0.265625 -0.046875,0 -0.3125,0.015625 -0.390625,0.34375 -0.1875,0.734375 -0.625,2.484375 -0.75,3 -0.015625,0.046875 -0.40625,0.84375 -1.140625,0.84375 -0.515625,0 -0.609375,-0.453125 -0.609375,-0.8125 0,-0.5625 0.28125,-1.34375 0.53125,-2.03125 0.125,-0.3125 0.171875,-0.453125 0.171875,-0.640625 0,-0.4375 -0.3125,-0.8125 -0.8125,-0.8125 -0.953125,0 -1.3125,1.453125 -1.3125,1.53125 0,0.109375 0.09375,0.109375 0.109375,0.109375 0.109375,0 0.109375,-0.03125 0.15625,-0.1875 0.25,-0.859375 0.640625,-1.234375 1.015625,-1.234375 0.09375,0 0.25,0.015625 0.25,0.328125 0,0.234375 -0.109375,0.53125 -0.171875,0.671875 -0.375,1 -0.578125,1.609375 -0.578125,2.09375 0,0.953125 0.6875,1.203125 1.21875,1.203125 0.65625,0 1.015625,-0.453125 1.1875,-0.671875 z m 0,0"
           transform="translate(178.585,110.99)"
           id="path52" /></g><g
         style="fill:#000000;fill-opacity:1"
         id="g54"><path
           style="stroke:none"
           d="m 3.6875,-1.140625 v -0.25 H 2.90625 V -4.5 c 0,-0.140625 0,-0.203125 -0.140625,-0.203125 -0.09375,0 -0.125,0 -0.1875,0.109375 l -2.3125,3.203125 v 0.25 h 2.0625 v 0.5625 c 0,0.25 0,0.328125 -0.578125,0.328125 H 1.5625 V 0 C 1.921875,-0.015625 2.359375,-0.03125 2.609375,-0.03125 2.875,-0.03125 3.3125,-0.015625 3.671875,0 v -0.25 h -0.1875 C 2.90625,-0.25 2.90625,-0.328125 2.90625,-0.578125 v -0.5625 z M 2.375,-3.9375 v 2.546875 H 0.53125 Z m 0,0"
           transform="translate(184.288,112.485)"
           id="path53" /></g></g></g><path
     style="fill:none;stroke:#000000;stroke-width:0.264583px;stroke-linecap:butt;stroke-linejoin:miter;stroke-opacity:1"
     d="M 62.662481,32.19253 H 74.604477"
     id="path122"
     sodipodi:nodetypes="cc" /><path
     style="fill:none;stroke:#000000;stroke-width:0.264583px;stroke-linecap:butt;stroke-linejoin:miter;stroke-opacity:1"
     d="m 74.604478,32.19253 h 2.622018"
     id="path123" /><g
     ns1:text="$u_5$"
     transform="matrix(0.69825401,0,0,0.69825401,-48.141533,-38.226628)"
     id="g4"><g
   id="g3">
<g
   style="fill:#000000;fill-opacity:1"
   id="g1">
  <path
   style="stroke:none"
   d="M 3.484375,-0.5625 C 3.59375,-0.15625 3.953125,0.109375 4.375,0.109375 4.71875,0.109375 4.953125,-0.125 5.109375,-0.4375 5.28125,-0.796875 5.40625,-1.40625 5.40625,-1.421875 c 0,-0.109375 -0.078125,-0.109375 -0.109375,-0.109375 -0.109375,0 -0.109375,0.046875 -0.140625,0.1875 -0.140625,0.5625 -0.328125,1.234375 -0.75,1.234375 -0.203125,0 -0.3125,-0.125 -0.3125,-0.453125 0,-0.21875 0.125,-0.6875 0.203125,-1.046875 L 4.578125,-2.6875 C 4.609375,-2.828125 4.703125,-3.203125 4.75,-3.359375 4.796875,-3.59375 4.890625,-3.96875 4.890625,-4.03125 c 0,-0.171875 -0.140625,-0.265625 -0.28125,-0.265625 -0.046875,0 -0.3125,0.015625 -0.390625,0.34375 -0.1875,0.734375 -0.625,2.484375 -0.75,3 -0.015625,0.046875 -0.40625,0.84375 -1.140625,0.84375 -0.515625,0 -0.609375,-0.453125 -0.609375,-0.8125 0,-0.5625 0.28125,-1.34375 0.53125,-2.03125 0.125,-0.3125 0.171875,-0.453125 0.171875,-0.640625 0,-0.4375 -0.3125,-0.8125 -0.8125,-0.8125 -0.953125,0 -1.3125,1.453125 -1.3125,1.53125 0,0.109375 0.09375,0.109375 0.109375,0.109375 0.109375,0 0.109375,-0.03125 0.15625,-0.1875 0.25,-0.859375 0.640625,-1.234375 1.015625,-1.234375 0.09375,0 0.25,0.015625 0.25,0.328125 0,0.234375 -0.109375,0.53125 -0.171875,0.671875 -0.375,1 -0.578125,1.609375 -0.578125,2.09375 0,0.953125 0.6875,1.203125 1.21875,1.203125 0.65625,0 1.015625,-0.453125 1.1875,-0.671875 z m 0,0"
   transform="translate(178.585,110.99)"
   id="path1" />
</g>
<g
   style="fill:#000000;fill-opacity:1"
   id="g2">
  <path
   style="stroke:none"
   d="m 1.078125,-3.890625 c 0.359375,0.09375 0.5625,0.09375 0.671875,0.09375 0.921875,0 1.46875,-0.625 1.46875,-0.734375 0,-0.078125 -0.046875,-0.09375 -0.078125,-0.09375 -0.015625,0 -0.03125,0 -0.0625,0.015625 -0.171875,0.0625 -0.53125,0.203125 -1.046875,0.203125 -0.203125,0 -0.5625,-0.015625 -1.015625,-0.1875 C 0.9375,-4.625 0.921875,-4.625 0.921875,-4.625 c -0.09375,0 -0.09375,0.078125 -0.09375,0.1875 v 2.046875 c 0,0.125 0,0.203125 0.109375,0.203125 0.0625,0 0.078125,0 0.140625,-0.09375 0.296875,-0.375 0.734375,-0.4375 0.96875,-0.4375 0.421875,0 0.609375,0.328125 0.640625,0.390625 0.125,0.234375 0.171875,0.5 0.171875,0.90625 0,0.203125 0,0.609375 -0.21875,0.921875 -0.171875,0.25 -0.46875,0.421875 -0.8125,0.421875 -0.453125,0 -0.921875,-0.25 -1.09375,-0.71875 0.265625,0.015625 0.40625,-0.15625 0.40625,-0.34375 0,-0.296875 -0.265625,-0.34375 -0.359375,-0.34375 0,0 -0.34375,0 -0.34375,0.375 0,0.625 0.578125,1.25 1.40625,1.25 0.890625,0 1.671875,-0.65625 1.671875,-1.546875 0,-0.78125 -0.59375,-1.5 -1.453125,-1.5 -0.3125,0 -0.671875,0.0625 -0.984375,0.328125 z m 0,0"
   transform="translate(184.288,112.485)"
   id="path2" />
</g>
</g>
</g><circle
     style="font-variation-settings:normal;vector-effect:none;fill:#ffffff;fill-opacity:1;stroke:#000000;stroke-width:0.661286;stroke-linecap:square;stroke-linejoin:round;stroke-miterlimit:10;stroke-dasharray:none;stroke-dashoffset:0;stroke-opacity:1;-inkscape-stroke:none;paint-order:fill markers stroke"
     id="path63"
     cx="2.6606143"
     cy="32.192532"
     r="2.3299713" /><path
     style="font-variation-settings:normal;vector-effect:none;fill:none;fill-opacity:1;stroke:#e3000f;stroke-width:0.291075;stroke-linecap:butt;stroke-linejoin:miter;stroke-miterlimit:4;stroke-dasharray:none;stroke-dashoffset:0;stroke-opacity:1;-inkscape-stroke:none;paint-order:fill markers stroke;stop-color:#000000"
     d="M 41.108537,6.252565 H 60.434653"
     id="path180"
     sodipodi:nodetypes="cc" /><path
     style="fill:#006b94;fill-opacity:1;stroke:#006b94;stroke-width:0.599378;stroke-opacity:1;-inkscape-stroke:none;paint-order:fill markers stroke"
     d="m 46.933037,33.4235 2.461939,-2.461943"
     id="path9" /><path
     style="fill:#006b94;fill-opacity:1;stroke:#006b94;stroke-width:0.599378;stroke-opacity:1;-inkscape-stroke:none;paint-order:fill markers stroke"
     d="M 49.394976,33.4235 46.933037,30.961557"
     id="path10" /><path
     style="fill:#006b94;fill-opacity:1;stroke:#666666;stroke-width:0.388;stroke-dasharray:none;stroke-opacity:1;marker-end:url(#ConcaveTriangle);paint-order:fill markers stroke"
     d="M 41.108537,12.366133 H 65.131579"
     id="path11" /><g
     ns1:text="$\xi$"
     transform="matrix(0.69825401,0,0,0.69825401,-55.479395,-57.880126)"
     id="g18"><g
   id="g17">
<g
   style="fill:#000000;fill-opacity:1"
   id="g16">
  <path
   style="stroke:none"
   d="m 1.53125,-3.046875 c -1.078125,0.71875 -1.296875,1.65625 -1.296875,2.015625 0,0.46875 0.265625,0.75 0.28125,0.78125 0.328125,0.328125 0.40625,0.375 1.15625,0.65625 L 2.875,0.875 C 3.03125,0.9375 3.234375,1 3.234375,1.296875 c 0,0.234375 -0.1875,0.53125 -0.5,0.53125 -0.4375,0 -0.765625,-0.25 -0.875,-0.328125 C 1.796875,1.46875 1.796875,1.453125 1.75,1.453125 c -0.078125,0 -0.09375,0.078125 -0.09375,0.109375 0,0.125 0.53125,0.484375 1.078125,0.484375 0.625,0 1.046875,-0.578125 1.046875,-1.0625 C 3.78125,0.5 3.40625,0.3125 3.296875,0.265625 3.15625,0.21875 2.828125,0.09375 2.6875,0.046875 2.5,-0.046875 2.296875,-0.125 2.078125,-0.1875 l -0.59375,-0.234375 c -0.453125,-0.1875 -0.75,-0.46875 -0.75,-0.890625 0,-0.40625 0.390625,-1.28125 1.234375,-1.703125 C 2.328125,-2.875 2.625,-2.875 2.84375,-2.875 c 0.296875,0 0.921875,0 0.921875,-0.3125 0,-0.25 -0.421875,-0.265625 -0.8125,-0.265625 -0.1875,0 -0.46875,0 -0.84375,0.109375 -0.25,-0.25 -0.296875,-0.578125 -0.296875,-0.765625 0,-0.5625 0.359375,-1.328125 1.109375,-1.703125 0.171875,0.21875 0.40625,0.21875 0.640625,0.21875 0.25,0 0.890625,0 0.890625,-0.3125 0,-0.25 -0.453125,-0.265625 -0.828125,-0.265625 -0.140625,0 -0.375,0 -0.640625,0.046875 C 2.953125,-6.203125 2.9375,-6.28125 2.9375,-6.453125 c 0,-0.140625 0.046875,-0.34375 0.046875,-0.359375 0,-0.078125 -0.046875,-0.140625 -0.109375,-0.140625 -0.1875,0 -0.1875,0.46875 -0.1875,0.5 0,0.1875 0.0625,0.34375 0.078125,0.375 -1.078125,0.3125 -1.75,1.109375 -1.75,1.875 0,0.359375 0.1875,0.78125 0.65625,1.046875 z m 1.625,-2.859375 C 3.3125,-5.953125 3.515625,-5.953125 3.625,-5.953125 c 0.34375,0 0.375,0.015625 0.5625,0.0625 C 4.109375,-5.859375 4,-5.8125 3.5625,-5.8125 c -0.1875,0 -0.296875,0 -0.40625,-0.09375 z M 2.375,-3.1875 c 0.234375,-0.046875 0.453125,-0.046875 0.5625,-0.046875 0.359375,0 0.390625,0 0.578125,0.046875 -0.09375,0.046875 -0.1875,0.09375 -0.640625,0.09375 -0.234375,0 -0.328125,0 -0.5,-0.09375 z m 0,0"
   transform="translate(178.585,110.99)"
   id="path16" />
</g>
</g>
</g><g
     ns1:text="$0$"
     transform="matrix(0.50186692,0,0,0.50186692,-52.778443,-41.724613)"
     id="g27"><g
   id="g26">
<g
   style="fill:#000000;fill-opacity:1"
   id="g25">
  <path
   style="stroke:none"
   d="m 183.55466,107.8025 c 0,-0.79687 -0.0469,-1.59375 -0.39062,-2.32812 -0.45313,-0.96875 -1.28125,-1.125 -1.6875,-1.125 -0.60938,0 -1.32813,0.26562 -1.75,1.1875 -0.3125,0.6875 -0.35938,1.46875 -0.35938,2.26562 0,0.75 0.0312,1.64063 0.45313,2.40625 0.42187,0.79688 1.15625,1 1.64062,1 0.53125,0 1.29688,-0.20312 1.73438,-1.15625 0.3125,-0.6875 0.35937,-1.46875 0.35937,-2.25 z m -2.09375,3.1875 c -0.39062,0 -0.98437,-0.25 -1.15625,-1.20312 -0.10937,-0.59375 -0.10937,-1.51563 -0.10937,-2.10938 0,-0.64062 0,-1.29687 0.0781,-1.82812 0.1875,-1.1875 0.9375,-1.28125 1.1875,-1.28125 0.32813,0 0.98438,0.1875 1.17188,1.17187 0.10937,0.5625 0.10937,1.3125 0.10937,1.9375 0,0.75 0,1.42188 -0.10937,2.0625 -0.15625,0.95313 -0.71875,1.25 -1.17188,1.25 z m 0,0"
   id="path24" />
</g>
</g>
</g><g
     ns1:text="$-1$"
     transform="matrix(0.50186692,0,0,0.50186692,-53.503666,-30.49182)"
     id="g63"><g
   id="g62">
<g
   style="fill:#000000;fill-opacity:1"
   id="g60">
  <path
   style="stroke:none"
   d="m 6.5625,-2.296875 c 0.171875,0 0.359375,0 0.359375,-0.203125 0,-0.1875 -0.1875,-0.1875 -0.359375,-0.1875 H 1.171875 c -0.171875,0 -0.34375,0 -0.34375,0.1875 0,0.203125 0.171875,0.203125 0.34375,0.203125 z m 0,0"
   transform="translate(178.585,110.99)"
   id="path59" />
</g>
<g
   style="fill:#000000;fill-opacity:1"
   id="g61">
  <path
   style="stroke:none"
   d="m 2.9375,-6.375 c 0,-0.25 0,-0.265625 -0.234375,-0.265625 C 2.078125,-6 1.203125,-6 0.890625,-6 v 0.3125 c 0.203125,0 0.78125,0 1.296875,-0.265625 v 5.171875 c 0,0.359375 -0.03125,0.46875 -0.921875,0.46875 h -0.3125 V 0 c 0.34375,-0.03125 1.203125,-0.03125 1.609375,-0.03125 0.390625,0 1.265625,0 1.609375,0.03125 v -0.3125 h -0.3125 c -0.90625,0 -0.921875,-0.109375 -0.921875,-0.46875 z m 0,0"
   transform="translate(186.333,110.99)"
   id="path60" />
</g>
</g>
</g><g
     ns1:text="$1$"
     transform="matrix(0.50186692,0,0,0.50186692,-30.387356,-30.49182)"
     id="g66"><g
   id="g65">
<g
   style="fill:#000000;fill-opacity:1"
   id="g64">
  <path
   style="stroke:none"
   d="m 2.9375,-6.375 c 0,-0.25 0,-0.265625 -0.234375,-0.265625 C 2.078125,-6 1.203125,-6 0.890625,-6 v 0.3125 c 0.203125,0 0.78125,0 1.296875,-0.265625 v 5.171875 c 0,0.359375 -0.03125,0.46875 -0.921875,0.46875 h -0.3125 V 0 c 0.34375,-0.03125 1.203125,-0.03125 1.609375,-0.03125 0.390625,0 1.265625,0 1.609375,0.03125 v -0.3125 h -0.3125 c -0.90625,0 -0.921875,-0.109375 -0.921875,-0.46875 z m 0,0"
   transform="translate(178.585,110.99)"
   id="path64" />
</g>
</g>
</g><path
     style="font-variation-settings:normal;fill:none;fill-opacity:1;stroke:#006b94;stroke-width:0.291076;stroke-linecap:butt;stroke-linejoin:miter;stroke-miterlimit:4;stroke-dasharray:none;stroke-dashoffset:0;stroke-opacity:1;paint-order:fill markers stroke"
     d="M 41.108537,18.479701 60.3375,18.4797"
     id="path66"
     sodipodi:nodetypes="cc" /><g
     ns1:text="$\frac{1}{2}$"
     transform="matrix(0.49223465,0,0,0.49223465,-51.106547,-46.97711)"
     id="g71"><g
   id="g70">
<g
   style="fill:#000000;fill-opacity:1"
   id="g67">
  <path
   style="stroke:none"
   d="m 2.328125,-4.4375 c 0,-0.1875 0,-0.1875 -0.203125,-0.1875 -0.453125,0.4375 -1.078125,0.4375 -1.359375,0.4375 v 0.25 c 0.15625,0 0.625,0 1,-0.1875 v 3.546875 c 0,0.234375 0,0.328125 -0.6875,0.328125 H 0.8125 V 0 c 0.125,0 0.984375,-0.03125 1.234375,-0.03125 0.21875,0 1.09375,0.03125 1.25,0.03125 V -0.25 H 3.03125 c -0.703125,0 -0.703125,-0.09375 -0.703125,-0.328125 z m 0,0"
   transform="translate(179.78,107.068)"
   id="path67" />
</g>
<path
   style="fill:none;stroke:#000000;stroke-width:0.3985;stroke-linecap:butt;stroke-linejoin:miter;stroke-miterlimit:10;stroke-opacity:1"
   d="M 107.78125,-36.5 H 111.75"
   transform="matrix(1,0,0,-1,72,72)"
   id="path68" />
<g
   style="fill:#000000;fill-opacity:1"
   id="g69">
  <path
   style="stroke:none"
   d="M 3.515625,-1.265625 H 3.28125 c -0.015625,0.15625 -0.09375,0.5625 -0.1875,0.625 C 3.046875,-0.59375 2.515625,-0.59375 2.40625,-0.59375 H 1.125 c 0.734375,-0.640625 0.984375,-0.84375 1.390625,-1.171875 0.515625,-0.40625 1,-0.84375 1,-1.5 0,-0.84375 -0.734375,-1.359375 -1.625,-1.359375 -0.859375,0 -1.453125,0.609375 -1.453125,1.25 0,0.34375 0.296875,0.390625 0.375,0.390625 0.15625,0 0.359375,-0.125 0.359375,-0.375 0,-0.125 -0.046875,-0.375 -0.40625,-0.375 C 0.984375,-4.21875 1.453125,-4.375 1.78125,-4.375 c 0.703125,0 1.0625,0.546875 1.0625,1.109375 0,0.609375 -0.4375,1.078125 -0.65625,1.328125 L 0.515625,-0.265625 C 0.4375,-0.203125 0.4375,-0.1875 0.4375,0 h 2.875 z m 0,0"
   transform="translate(179.78,114.426)"
   id="path69" />
</g>
</g>
</g><g
     ns1:text="$-\frac{1}{2}$"
     transform="matrix(0.45869012,0,0,0.45869012,-48.497589,-31.403672)"
     id="g80"><g
   id="g79">
<g
   style="fill:#000000;fill-opacity:1"
   id="g75">
  <path
   style="stroke:none"
   d="m 6.5625,-2.296875 c 0.171875,0 0.359375,0 0.359375,-0.203125 0,-0.1875 -0.1875,-0.1875 -0.359375,-0.1875 H 1.171875 c -0.171875,0 -0.34375,0 -0.34375,0.1875 0,0.203125 0.171875,0.203125 0.34375,0.203125 z m 0,0"
   transform="translate(178.585,110.99)"
   id="path75" />
</g>
<g
   style="fill:#000000;fill-opacity:1"
   id="g76">
  <path
   style="stroke:none"
   d="m 2.328125,-4.4375 c 0,-0.1875 0,-0.1875 -0.203125,-0.1875 -0.453125,0.4375 -1.078125,0.4375 -1.359375,0.4375 v 0.25 c 0.15625,0 0.625,0 1,-0.1875 v 3.546875 c 0,0.234375 0,0.328125 -0.6875,0.328125 H 0.8125 V 0 c 0.125,0 0.984375,-0.03125 1.234375,-0.03125 0.21875,0 1.09375,0.03125 1.25,0.03125 V -0.25 H 3.03125 c -0.703125,0 -0.703125,-0.09375 -0.703125,-0.328125 z m 0,0"
   transform="translate(187.529,107.068)"
   id="path76" />
</g>
<path
   style="fill:none;stroke:#000000;stroke-width:0.3985;stroke-linecap:butt;stroke-linejoin:miter;stroke-miterlimit:10;stroke-opacity:1"
   d="M 115.52734,-36.5 H 119.5"
   transform="matrix(1,0,0,-1,72,72)"
   id="path77" />
<g
   style="fill:#000000;fill-opacity:1"
   id="g78">
  <path
   style="stroke:none"
   d="M 3.515625,-1.265625 H 3.28125 c -0.015625,0.15625 -0.09375,0.5625 -0.1875,0.625 C 3.046875,-0.59375 2.515625,-0.59375 2.40625,-0.59375 H 1.125 c 0.734375,-0.640625 0.984375,-0.84375 1.390625,-1.171875 0.515625,-0.40625 1,-0.84375 1,-1.5 0,-0.84375 -0.734375,-1.359375 -1.625,-1.359375 -0.859375,0 -1.453125,0.609375 -1.453125,1.25 0,0.34375 0.296875,0.390625 0.375,0.390625 0.15625,0 0.359375,-0.125 0.359375,-0.375 0,-0.125 -0.046875,-0.375 -0.40625,-0.375 C 0.984375,-4.21875 1.453125,-4.375 1.78125,-4.375 c 0.703125,0 1.0625,0.546875 1.0625,1.109375 0,0.609375 -0.4375,1.078125 -0.65625,1.328125 L 0.515625,-0.265625 C 0.4375,-0.203125 0.4375,-0.1875 0.4375,0 h 2.875 z m 0,0"
   transform="translate(187.529,114.426)"
   id="path78" />
</g>
</g>
</g><g
     ns1:text="$N'_1$"
     transform="matrix(0.52382675,0,0,0.52382675,-49.64507,-34.94374)"
     style="font-variation-settings:normal;opacity:1;vector-effect:none;fill:#006b94;fill-opacity:1;stroke-width:1;stroke-linecap:butt;stroke-linejoin:miter;stroke-miterlimit:4;stroke-dasharray:none;stroke-dashoffset:0;stroke-opacity:1;-inkscape-stroke:none;stop-color:#000000;stop-opacity:1"
     id="g93"><g
   id="g92"
   style="font-variation-settings:normal;vector-effect:none;fill:#006b94;fill-opacity:1;stroke-width:1;stroke-linecap:butt;stroke-linejoin:miter;stroke-miterlimit:4;stroke-dasharray:none;stroke-dashoffset:0;stroke-opacity:1;-inkscape-stroke:none;stop-color:#000000;stop-opacity:1">
<g
   style="font-variation-settings:normal;vector-effect:none;fill:#006b94;fill-opacity:1;stroke-width:1;stroke-linecap:butt;stroke-linejoin:miter;stroke-miterlimit:4;stroke-dasharray:none;stroke-dashoffset:0;stroke-opacity:1;-inkscape-stroke:none;stop-color:#000000;stop-opacity:1"
   id="g89">
  <path
   style="font-variation-settings:normal;vector-effect:none;fill:#006b94;fill-opacity:1;stroke:none;stroke-width:1;stroke-linecap:butt;stroke-linejoin:miter;stroke-miterlimit:4;stroke-dasharray:none;stroke-dashoffset:0;stroke-opacity:1;-inkscape-stroke:none;stop-color:#000000;stop-opacity:1"
   d="M 7.53125,-5.765625 C 7.640625,-6.15625 7.8125,-6.46875 8.609375,-6.5 c 0.046875,0 0.171875,-0.015625 0.171875,-0.203125 0,0 0,-0.109375 -0.125,-0.109375 -0.328125,0 -0.6875,0.03125 -1.015625,0.03125 -0.328125,0 -0.6875,-0.03125 -1.015625,-0.03125 -0.0625,0 -0.171875,0 -0.171875,0.203125 C 6.453125,-6.5 6.546875,-6.5 6.625,-6.5 c 0.578125,0.015625 0.6875,0.21875 0.6875,0.4375 0,0.03125 -0.03125,0.1875 -0.03125,0.203125 l -1.125,4.4375 L 3.953125,-6.625 C 3.875,-6.796875 3.875,-6.8125 3.640625,-6.8125 h -1.34375 c -0.1875,0 -0.28125,0 -0.28125,0.203125 0,0.109375 0.09375,0.109375 0.28125,0.109375 0.046875,0 0.671875,0 0.671875,0.09375 L 1.640625,-1.0625 c -0.109375,0.40625 -0.28125,0.71875 -1.078125,0.75 -0.0625,0 -0.171875,0.015625 -0.171875,0.203125 0,0.0625 0.046875,0.109375 0.125,0.109375 0.328125,0 0.671875,-0.03125 1,-0.03125 C 1.859375,-0.03125 2.21875,0 2.546875,0 2.59375,0 2.71875,0 2.71875,-0.203125 2.71875,-0.296875 2.625,-0.3125 2.515625,-0.3125 1.9375,-0.328125 1.859375,-0.546875 1.859375,-0.75 c 0,-0.0625 0.015625,-0.125 0.046875,-0.234375 l 1.3125,-5.25 C 3.265625,-6.1875 3.265625,-6.15625 3.3125,-6.0625 l 2.484375,5.875 C 5.859375,-0.015625 5.890625,0 5.984375,0 6.09375,0 6.09375,-0.03125 6.140625,-0.203125 Z m 0,0"
   transform="translate(178.585,110.99)"
   id="path88" />
</g>
<g
   style="font-variation-settings:normal;vector-effect:none;fill:#006b94;fill-opacity:1;stroke-width:1;stroke-linecap:butt;stroke-linejoin:miter;stroke-miterlimit:4;stroke-dasharray:none;stroke-dashoffset:0;stroke-opacity:1;-inkscape-stroke:none;stop-color:#000000;stop-opacity:1"
   id="g90">
  <path
   style="font-variation-settings:normal;vector-effect:none;fill:#006b94;fill-opacity:1;stroke:none;stroke-width:1;stroke-linecap:butt;stroke-linejoin:miter;stroke-miterlimit:4;stroke-dasharray:none;stroke-dashoffset:0;stroke-opacity:1;-inkscape-stroke:none;stop-color:#000000;stop-opacity:1"
   d="m 2.015625,-3.296875 c 0.0625,-0.109375 0.0625,-0.171875 0.0625,-0.21875 0,-0.21875 -0.1875,-0.375 -0.40625,-0.375 -0.265625,0 -0.34375,0.21875 -0.375,0.328125 L 0.375,-0.546875 c -0.015625,0.015625 -0.046875,0.09375 -0.046875,0.109375 0,0.078125 0.21875,0.15625 0.28125,0.15625 0.046875,0 0.046875,-0.015625 0.09375,-0.125 z m 0,0"
   transform="translate(187.675,107.375)"
   id="path89" />
</g>
<g
   style="font-variation-settings:normal;vector-effect:none;fill:#006b94;fill-opacity:1;stroke-width:1;stroke-linecap:butt;stroke-linejoin:miter;stroke-miterlimit:4;stroke-dasharray:none;stroke-dashoffset:0;stroke-opacity:1;-inkscape-stroke:none;stop-color:#000000;stop-opacity:1"
   id="g91">
  <path
   style="font-variation-settings:normal;vector-effect:none;fill:#006b94;fill-opacity:1;stroke:none;stroke-width:1;stroke-linecap:butt;stroke-linejoin:miter;stroke-miterlimit:4;stroke-dasharray:none;stroke-dashoffset:0;stroke-opacity:1;-inkscape-stroke:none;stop-color:#000000;stop-opacity:1"
   d="m 2.328125,-4.4375 c 0,-0.1875 0,-0.1875 -0.203125,-0.1875 -0.453125,0.4375 -1.078125,0.4375 -1.359375,0.4375 v 0.25 c 0.15625,0 0.625,0 1,-0.1875 v 3.546875 c 0,0.234375 0,0.328125 -0.6875,0.328125 H 0.8125 V 0 c 0.125,0 0.984375,-0.03125 1.234375,-0.03125 0.21875,0 1.09375,0.03125 1.25,0.03125 V -0.25 H 3.03125 c -0.703125,0 -0.703125,-0.09375 -0.703125,-0.328125 z m 0,0"
   transform="translate(186.589,113.463)"
   id="path90" />
</g>
</g>
</g><g
     ns1:text="$N'_2$"
     transform="matrix(0.52382675,0,0,0.52382675,-42.584964,-54.207884)"
     style="font-variation-settings:normal;opacity:1;vector-effect:none;fill:#e3000f;fill-opacity:1;stroke-width:1;stroke-linecap:butt;stroke-linejoin:miter;stroke-miterlimit:4;stroke-dasharray:none;stroke-dashoffset:0;stroke-opacity:1;-inkscape-stroke:none;stop-color:#000000;stop-opacity:1"
     id="g98"><g
   id="g97"
   style="font-variation-settings:normal;vector-effect:none;fill:#e3000f;fill-opacity:1;stroke-width:1;stroke-linecap:butt;stroke-linejoin:miter;stroke-miterlimit:4;stroke-dasharray:none;stroke-dashoffset:0;stroke-opacity:1;-inkscape-stroke:none;stop-color:#000000;stop-opacity:1">
<g
   style="font-variation-settings:normal;vector-effect:none;fill:#e3000f;fill-opacity:1;stroke-width:1;stroke-linecap:butt;stroke-linejoin:miter;stroke-miterlimit:4;stroke-dasharray:none;stroke-dashoffset:0;stroke-opacity:1;-inkscape-stroke:none;stop-color:#000000;stop-opacity:1"
   id="g94">
  <path
   style="font-variation-settings:normal;vector-effect:none;fill:#e3000f;fill-opacity:1;stroke:none;stroke-width:1;stroke-linecap:butt;stroke-linejoin:miter;stroke-miterlimit:4;stroke-dasharray:none;stroke-dashoffset:0;stroke-opacity:1;-inkscape-stroke:none;stop-color:#000000;stop-opacity:1"
   d="M 7.53125,-5.765625 C 7.640625,-6.15625 7.8125,-6.46875 8.609375,-6.5 c 0.046875,0 0.171875,-0.015625 0.171875,-0.203125 0,0 0,-0.109375 -0.125,-0.109375 -0.328125,0 -0.6875,0.03125 -1.015625,0.03125 -0.328125,0 -0.6875,-0.03125 -1.015625,-0.03125 -0.0625,0 -0.171875,0 -0.171875,0.203125 C 6.453125,-6.5 6.546875,-6.5 6.625,-6.5 c 0.578125,0.015625 0.6875,0.21875 0.6875,0.4375 0,0.03125 -0.03125,0.1875 -0.03125,0.203125 l -1.125,4.4375 L 3.953125,-6.625 C 3.875,-6.796875 3.875,-6.8125 3.640625,-6.8125 h -1.34375 c -0.1875,0 -0.28125,0 -0.28125,0.203125 0,0.109375 0.09375,0.109375 0.28125,0.109375 0.046875,0 0.671875,0 0.671875,0.09375 L 1.640625,-1.0625 c -0.109375,0.40625 -0.28125,0.71875 -1.078125,0.75 -0.0625,0 -0.171875,0.015625 -0.171875,0.203125 0,0.0625 0.046875,0.109375 0.125,0.109375 0.328125,0 0.671875,-0.03125 1,-0.03125 C 1.859375,-0.03125 2.21875,0 2.546875,0 2.59375,0 2.71875,0 2.71875,-0.203125 2.71875,-0.296875 2.625,-0.3125 2.515625,-0.3125 1.9375,-0.328125 1.859375,-0.546875 1.859375,-0.75 c 0,-0.0625 0.015625,-0.125 0.046875,-0.234375 l 1.3125,-5.25 C 3.265625,-6.1875 3.265625,-6.15625 3.3125,-6.0625 l 2.484375,5.875 C 5.859375,-0.015625 5.890625,0 5.984375,0 6.09375,0 6.09375,-0.03125 6.140625,-0.203125 Z m 0,0"
   transform="translate(178.585,110.99)"
   id="path93" />
</g>
<g
   style="font-variation-settings:normal;vector-effect:none;fill:#e3000f;fill-opacity:1;stroke-width:1;stroke-linecap:butt;stroke-linejoin:miter;stroke-miterlimit:4;stroke-dasharray:none;stroke-dashoffset:0;stroke-opacity:1;-inkscape-stroke:none;stop-color:#000000;stop-opacity:1"
   id="g95">
  <path
   style="font-variation-settings:normal;vector-effect:none;fill:#e3000f;fill-opacity:1;stroke:none;stroke-width:1;stroke-linecap:butt;stroke-linejoin:miter;stroke-miterlimit:4;stroke-dasharray:none;stroke-dashoffset:0;stroke-opacity:1;-inkscape-stroke:none;stop-color:#000000;stop-opacity:1"
   d="m 2.015625,-3.296875 c 0.0625,-0.109375 0.0625,-0.171875 0.0625,-0.21875 0,-0.21875 -0.1875,-0.375 -0.40625,-0.375 -0.265625,0 -0.34375,0.21875 -0.375,0.328125 L 0.375,-0.546875 c -0.015625,0.015625 -0.046875,0.09375 -0.046875,0.109375 0,0.078125 0.21875,0.15625 0.28125,0.15625 0.046875,0 0.046875,-0.015625 0.09375,-0.125 z m 0,0"
   transform="translate(187.675,107.375)"
   id="path94" />
</g>
<g
   style="font-variation-settings:normal;vector-effect:none;fill:#e3000f;fill-opacity:1;stroke-width:1;stroke-linecap:butt;stroke-linejoin:miter;stroke-miterlimit:4;stroke-dasharray:none;stroke-dashoffset:0;stroke-opacity:1;-inkscape-stroke:none;stop-color:#000000;stop-opacity:1"
   id="g96">
  <path
   style="font-variation-settings:normal;vector-effect:none;fill:#e3000f;fill-opacity:1;stroke:none;stroke-width:1;stroke-linecap:butt;stroke-linejoin:miter;stroke-miterlimit:4;stroke-dasharray:none;stroke-dashoffset:0;stroke-opacity:1;-inkscape-stroke:none;stop-color:#000000;stop-opacity:1"
   d="M 3.515625,-1.265625 H 3.28125 c -0.015625,0.15625 -0.09375,0.5625 -0.1875,0.625 C 3.046875,-0.59375 2.515625,-0.59375 2.40625,-0.59375 H 1.125 c 0.734375,-0.640625 0.984375,-0.84375 1.390625,-1.171875 0.515625,-0.40625 1,-0.84375 1,-1.5 0,-0.84375 -0.734375,-1.359375 -1.625,-1.359375 -0.859375,0 -1.453125,0.609375 -1.453125,1.25 0,0.34375 0.296875,0.390625 0.375,0.390625 0.15625,0 0.359375,-0.125 0.359375,-0.375 0,-0.125 -0.046875,-0.375 -0.40625,-0.375 C 0.984375,-4.21875 1.453125,-4.375 1.78125,-4.375 c 0.703125,0 1.0625,0.546875 1.0625,1.109375 0,0.609375 -0.4375,1.078125 -0.65625,1.328125 L 0.515625,-0.265625 C 0.4375,-0.203125 0.4375,-0.1875 0.4375,0 h 2.875 z m 0,0"
   transform="translate(186.589,113.463)"
   id="path95" />
</g>
</g>
</g></svg>
