<?xml version="1.0" encoding="UTF-8" standalone="no"?>
<!-- Created with Inkscape (http://www.inkscape.org/) -->

<svg
   width="12.261166mm"
   height="74.246155mm"
   viewBox="0 0 12.261166 74.246155"
   version="1.1"
   id="svg1"
   xml:space="preserve"
   inkscape:version="1.3.2 (091e20e, 2023-11-25, custom)"
   sodipodi:docname="u_Colorbar.svg"
   xmlns:inkscape="http://www.inkscape.org/namespaces/inkscape"
   xmlns:sodipodi="http://sodipodi.sourceforge.net/DTD/sodipodi-0.dtd"
   xmlns:xlink="http://www.w3.org/1999/xlink"
   xmlns="http://www.w3.org/2000/svg"
   xmlns:svg="http://www.w3.org/2000/svg"
   xmlns:ns1="http://wanglongqi.github.io/WriteTeX"><sodipodi:namedview
     id="namedview1"
     pagecolor="#ffffff"
     bordercolor="#666666"
     borderopacity="1.0"
     inkscape:showpageshadow="2"
     inkscape:pageopacity="0.0"
     inkscape:pagecheckerboard="0"
     inkscape:deskcolor="#d1d1d1"
     inkscape:document-units="mm"
     inkscape:zoom="2.297978"
     inkscape:cx="91.384687"
     inkscape:cy="127.28581"
     inkscape:window-width="1920"
     inkscape:window-height="1009"
     inkscape:window-x="1912"
     inkscape:window-y="-8"
     inkscape:window-maximized="1"
     inkscape:current-layer="svg1"
     showgrid="false" /><defs
     id="defs1"><linearGradient
       id="linearGradient5"
       inkscape:collect="always"><stop
         style="stop-color:#e3000f;stop-opacity:0;"
         offset="0"
         id="stop6" /><stop
         style="stop-color:#e3000f;stop-opacity:1;"
         offset="1"
         id="stop5" /></linearGradient><linearGradient
       inkscape:collect="always"
       xlink:href="#linearGradient5"
       id="linearGradient6"
       x1="23.531412"
       y1="61.536827"
       x2="105.53171"
       y2="61.536827"
       gradientUnits="userSpaceOnUse"
       gradientTransform="matrix(0.77297811,0,0,0.77297811,-87.026386,-41.43603)" /></defs><g
     inkscape:label="Layer 1"
     inkscape:groupmode="layer"
     id="layer1"
     transform="translate(-168.29331,-1.8413388)" /><circle
     style="font-variation-settings:normal;opacity:1;vector-effect:none;fill:#e3000f;fill-opacity:0.8;stroke:none;stroke-width:0.661286;stroke-linecap:square;stroke-linejoin:round;stroke-miterlimit:10;stroke-dasharray:none;stroke-dashoffset:0;stroke-opacity:1;-inkscape-stroke:none;paint-order:fill markers stroke;stop-color:#000000;stop-opacity:1"
     id="circle2"
     cx="-65.313812"
     cy="38.892944"
     r="2.3299713" /><circle
     style="font-variation-settings:normal;opacity:1;vector-effect:none;fill:#e3000f;fill-opacity:0.76;stroke:none;stroke-width:0.661286;stroke-linecap:square;stroke-linejoin:round;stroke-miterlimit:10;stroke-dasharray:none;stroke-dashoffset:0;stroke-opacity:1;-inkscape-stroke:none;paint-order:fill markers stroke;stop-color:#000000;stop-opacity:1"
     id="circle3"
     cx="-84.537773"
     cy="38.892944"
     r="2.3299713" /><circle
     style="font-variation-settings:normal;opacity:1;vector-effect:none;fill:#e3000f;fill-opacity:0.64;stroke:none;stroke-width:0.661286;stroke-linecap:square;stroke-linejoin:round;stroke-miterlimit:10;stroke-dasharray:none;stroke-dashoffset:0;stroke-opacity:1;-inkscape-stroke:none;paint-order:fill markers stroke;stop-color:#000000;stop-opacity:1"
     id="circle4"
     cx="-103.76173"
     cy="38.892944"
     r="2.3299713" /><circle
     style="font-variation-settings:normal;opacity:1;vector-effect:none;fill:#e3000f;fill-opacity:0.48;stroke:none;stroke-width:0.661286;stroke-linecap:square;stroke-linejoin:round;stroke-miterlimit:10;stroke-dasharray:none;stroke-dashoffset:0;stroke-opacity:1;-inkscape-stroke:none;paint-order:fill markers stroke;stop-color:#000000;stop-opacity:1"
     id="circle5"
     cx="-122.98571"
     cy="38.892944"
     r="2.3299713" /><rect
     style="fill:url(#linearGradient6);fill-opacity:1;stroke:#000000;stroke-width:0.172878;paint-order:fill markers stroke"
     id="rect5"
     width="63.211559"
     height="2.9837835"
     x="-68.750679"
     y="4.6386962"
     transform="rotate(-90)" /><path
     style="fill:none;stroke:#000000;stroke-width:0.264583px;stroke-linecap:butt;stroke-linejoin:miter;stroke-opacity:1"
     d="m -139.8797,38.892939 h 14.56402"
     id="path6" /><path
     style="fill:none;stroke:#000000;stroke-width:0.264583px;stroke-linecap:butt;stroke-linejoin:miter;stroke-opacity:1"
     d="m -120.65574,38.892939 h 14.56402"
     id="path7" /><path
     style="fill:none;stroke:#000000;stroke-width:0.264583px;stroke-linecap:butt;stroke-linejoin:miter;stroke-opacity:1"
     d="m -101.43177,38.892939 h 14.564024"
     id="path8" /><g
     ns1:text="$u_{\mbox{\tiny min}}$"
     transform="matrix(0.69825401,0,0,0.69825401,-124.4597,-4.2969478)"
     id="g35"><g
       id="surface1"><g
         style="fill:#000000;fill-opacity:1"
         id="g31"><path
           style="stroke:none"
           d="M 3.484375,-0.5625 C 3.59375,-0.15625 3.953125,0.109375 4.375,0.109375 4.71875,0.109375 4.953125,-0.125 5.109375,-0.4375 5.28125,-0.796875 5.40625,-1.40625 5.40625,-1.421875 c 0,-0.109375 -0.078125,-0.109375 -0.109375,-0.109375 -0.109375,0 -0.109375,0.046875 -0.140625,0.1875 -0.140625,0.5625 -0.328125,1.234375 -0.75,1.234375 -0.203125,0 -0.3125,-0.125 -0.3125,-0.453125 0,-0.21875 0.125,-0.6875 0.203125,-1.046875 L 4.578125,-2.6875 C 4.609375,-2.828125 4.703125,-3.203125 4.75,-3.359375 4.796875,-3.59375 4.890625,-3.96875 4.890625,-4.03125 c 0,-0.171875 -0.140625,-0.265625 -0.28125,-0.265625 -0.046875,0 -0.3125,0.015625 -0.390625,0.34375 -0.1875,0.734375 -0.625,2.484375 -0.75,3 -0.015625,0.046875 -0.40625,0.84375 -1.140625,0.84375 -0.515625,0 -0.609375,-0.453125 -0.609375,-0.8125 0,-0.5625 0.28125,-1.34375 0.53125,-2.03125 0.125,-0.3125 0.171875,-0.453125 0.171875,-0.640625 0,-0.4375 -0.3125,-0.8125 -0.8125,-0.8125 -0.953125,0 -1.3125,1.453125 -1.3125,1.53125 0,0.109375 0.09375,0.109375 0.109375,0.109375 0.109375,0 0.109375,-0.03125 0.15625,-0.1875 0.25,-0.859375 0.640625,-1.234375 1.015625,-1.234375 0.09375,0 0.25,0.015625 0.25,0.328125 0,0.234375 -0.109375,0.53125 -0.171875,0.671875 -0.375,1 -0.578125,1.609375 -0.578125,2.09375 0,0.953125 0.6875,1.203125 1.21875,1.203125 0.65625,0 1.015625,-0.453125 1.1875,-0.671875 z m 0,0"
           transform="translate(178.585,110.99)"
           id="path31" /></g><g
         style="fill:#000000;fill-opacity:1"
         id="g34"><path
           style="stroke:none"
           d="m 5.140625,0 v -0.21875 h -0.09375 c -0.328125,0 -0.328125,-0.046875 -0.328125,-0.203125 V -1.5 c 0,-0.625 -0.46875,-0.703125 -0.828125,-0.703125 -0.5,0 -0.78125,0.25 -0.921875,0.46875 -0.125,-0.46875 -0.625,-0.46875 -0.8125,-0.46875 -0.515625,0 -0.8125,0.28125 -0.9375,0.484375 v -0.484375 l -0.8125,0.0625 v 0.21875 c 0.375,0 0.421875,0.03125 0.421875,0.265625 v 1.234375 c 0,0.15625 0,0.203125 -0.328125,0.203125 H 0.40625 V 0 C 0.625,-0.015625 0.828125,-0.015625 1.046875,-0.015625 1.25,-0.015625 1.46875,-0.015625 1.6875,0 V -0.21875 H 1.59375 c -0.328125,0 -0.328125,-0.046875 -0.328125,-0.203125 V -1.28125 c 0,-0.5625 0.515625,-0.75 0.828125,-0.75 0.375,0 0.453125,0.203125 0.453125,0.515625 v 1.09375 c 0,0.15625 0,0.203125 -0.3125,0.203125 H 2.140625 V 0 c 0.21875,-0.015625 0.421875,-0.015625 0.640625,-0.015625 0.203125,0 0.421875,0 0.625,0.015625 V -0.21875 H 3.3125 C 3,-0.21875 3,-0.265625 3,-0.421875 V -1.28125 c 0,-0.5625 0.5,-0.75 0.828125,-0.75 0.359375,0 0.453125,0.203125 0.453125,0.515625 v 1.09375 c 0,0.15625 0,0.203125 -0.328125,0.203125 H 3.875 V 0 c 0.203125,-0.015625 0.421875,-0.015625 0.625,-0.015625 0.21875,0 0.421875,0 0.640625,0.015625 z m 0,0"
           transform="translate(184.288,112.485)"
           id="path32" /><path
           style="stroke:none"
           d="m 1.625,0 v -0.21875 c -0.328125,0 -0.375,0 -0.375,-0.203125 v -1.78125 l -0.8125,0.0625 v 0.21875 c 0.34375,0 0.390625,0.03125 0.390625,0.265625 v 1.234375 c 0,0.15625 0,0.203125 -0.328125,0.203125 H 0.40625 V 0 c 0.21875,-0.015625 0.421875,-0.015625 0.625,-0.015625 0.1875,0 0.40625,0 0.59375,0.015625 z M 1.3125,-2.984375 c 0,-0.171875 -0.140625,-0.3125 -0.3125,-0.3125 -0.15625,0 -0.296875,0.140625 -0.296875,0.3125 0,0.15625 0.125,0.296875 0.296875,0.296875 0.171875,0 0.3125,-0.140625 0.3125,-0.296875 z m 0,0"
           transform="translate(189.75249,112.485)"
           id="path33" /><path
           style="stroke:none"
           d="M 3.40625,0 V -0.21875 H 3.3125 c -0.328125,0 -0.328125,-0.046875 -0.328125,-0.203125 V -1.5 c 0,-0.546875 -0.375,-0.703125 -0.828125,-0.703125 -0.53125,0 -0.8125,0.296875 -0.9375,0.484375 v -0.484375 l -0.8125,0.0625 v 0.21875 c 0.375,0 0.421875,0.03125 0.421875,0.265625 v 1.234375 c 0,0.15625 0,0.203125 -0.328125,0.203125 H 0.40625 V 0 C 0.625,-0.015625 0.828125,-0.015625 1.046875,-0.015625 1.25,-0.015625 1.46875,-0.015625 1.6875,0 V -0.21875 H 1.59375 c -0.328125,0 -0.328125,-0.046875 -0.328125,-0.203125 V -1.28125 c 0,-0.5625 0.515625,-0.75 0.828125,-0.75 0.375,0 0.453125,0.203125 0.453125,0.515625 v 1.09375 c 0,0.15625 0,0.203125 -0.328125,0.203125 H 2.140625 V 0 c 0.203125,-0.015625 0.421875,-0.015625 0.625,-0.015625 0.21875,0 0.421875,0 0.640625,0.015625 z m 0,0"
           transform="translate(191.75995,112.485)"
           id="path34" /></g></g></g><g
     ns1:text="$u_{\mbox{\tiny max}}$"
     transform="matrix(0.69825401,0,0,0.69825401,-124.90499,-74.422531)"
     id="g40"><g
       id="g39"><g
         style="fill:#000000;fill-opacity:1"
         id="g36"><path
           style="stroke:none"
           d="M 3.484375,-0.5625 C 3.59375,-0.15625 3.953125,0.109375 4.375,0.109375 4.71875,0.109375 4.953125,-0.125 5.109375,-0.4375 5.28125,-0.796875 5.40625,-1.40625 5.40625,-1.421875 c 0,-0.109375 -0.078125,-0.109375 -0.109375,-0.109375 -0.109375,0 -0.109375,0.046875 -0.140625,0.1875 -0.140625,0.5625 -0.328125,1.234375 -0.75,1.234375 -0.203125,0 -0.3125,-0.125 -0.3125,-0.453125 0,-0.21875 0.125,-0.6875 0.203125,-1.046875 L 4.578125,-2.6875 C 4.609375,-2.828125 4.703125,-3.203125 4.75,-3.359375 4.796875,-3.59375 4.890625,-3.96875 4.890625,-4.03125 c 0,-0.171875 -0.140625,-0.265625 -0.28125,-0.265625 -0.046875,0 -0.3125,0.015625 -0.390625,0.34375 -0.1875,0.734375 -0.625,2.484375 -0.75,3 -0.015625,0.046875 -0.40625,0.84375 -1.140625,0.84375 -0.515625,0 -0.609375,-0.453125 -0.609375,-0.8125 0,-0.5625 0.28125,-1.34375 0.53125,-2.03125 0.125,-0.3125 0.171875,-0.453125 0.171875,-0.640625 0,-0.4375 -0.3125,-0.8125 -0.8125,-0.8125 -0.953125,0 -1.3125,1.453125 -1.3125,1.53125 0,0.109375 0.09375,0.109375 0.109375,0.109375 0.109375,0 0.109375,-0.03125 0.15625,-0.1875 0.25,-0.859375 0.640625,-1.234375 1.015625,-1.234375 0.09375,0 0.25,0.015625 0.25,0.328125 0,0.234375 -0.109375,0.53125 -0.171875,0.671875 -0.375,1 -0.578125,1.609375 -0.578125,2.09375 0,0.953125 0.6875,1.203125 1.21875,1.203125 0.65625,0 1.015625,-0.453125 1.1875,-0.671875 z m 0,0"
           transform="translate(178.585,110.99)"
           id="path35" /></g><g
         style="fill:#000000;fill-opacity:1"
         id="g38"><path
           style="stroke:none"
           d="m 5.140625,0 v -0.21875 h -0.09375 c -0.328125,0 -0.328125,-0.046875 -0.328125,-0.203125 V -1.5 c 0,-0.625 -0.46875,-0.703125 -0.828125,-0.703125 -0.5,0 -0.78125,0.25 -0.921875,0.46875 -0.125,-0.46875 -0.625,-0.46875 -0.8125,-0.46875 -0.515625,0 -0.8125,0.28125 -0.9375,0.484375 v -0.484375 l -0.8125,0.0625 v 0.21875 c 0.375,0 0.421875,0.03125 0.421875,0.265625 v 1.234375 c 0,0.15625 0,0.203125 -0.328125,0.203125 H 0.40625 V 0 C 0.625,-0.015625 0.828125,-0.015625 1.046875,-0.015625 1.25,-0.015625 1.46875,-0.015625 1.6875,0 V -0.21875 H 1.59375 c -0.328125,0 -0.328125,-0.046875 -0.328125,-0.203125 V -1.28125 c 0,-0.5625 0.515625,-0.75 0.828125,-0.75 0.375,0 0.453125,0.203125 0.453125,0.515625 v 1.09375 c 0,0.15625 0,0.203125 -0.3125,0.203125 H 2.140625 V 0 c 0.21875,-0.015625 0.421875,-0.015625 0.640625,-0.015625 0.203125,0 0.421875,0 0.625,0.015625 V -0.21875 H 3.3125 C 3,-0.21875 3,-0.265625 3,-0.421875 V -1.28125 c 0,-0.5625 0.5,-0.75 0.828125,-0.75 0.359375,0 0.453125,0.203125 0.453125,0.515625 v 1.09375 c 0,0.15625 0,0.203125 -0.328125,0.203125 H 3.875 V 0 c 0.203125,-0.015625 0.421875,-0.015625 0.625,-0.015625 0.21875,0 0.421875,0 0.640625,0.015625 z m 0,0"
           transform="translate(184.288,112.485)"
           id="path36" /><path
           style="stroke:none"
           d="M 3.171875,-0.453125 V -0.71875 h -0.21875 v 0.265625 c 0,0.046875 0,0.265625 -0.203125,0.265625 -0.1875,0 -0.1875,-0.21875 -0.1875,-0.265625 v -1.03125 c 0,-0.46875 -0.515625,-0.75 -1.125,-0.75 -0.3125,0 -0.890625,0.015625 -0.890625,0.4375 0,0.1875 0.140625,0.265625 0.265625,0.265625 0.140625,0 0.265625,-0.09375 0.265625,-0.265625 0,-0.109375 -0.0625,-0.1875 -0.109375,-0.21875 C 1.125,-2.0625 1.375,-2.0625 1.421875,-2.0625 c 0.421875,0 0.6875,0.234375 0.6875,0.59375 v 0.125 c -0.484375,0.015625 -0.75,0.03125 -1.125,0.171875 -0.34375,0.109375 -0.625,0.328125 -0.625,0.65625 0,0.453125 0.578125,0.578125 0.96875,0.578125 0.390625,0 0.6875,-0.15625 0.84375,-0.421875 C 2.1875,-0.171875 2.3125,0.03125 2.5625,0.03125 c 0.03125,0 0.609375,0 0.609375,-0.484375 z m -1.0625,-0.25 c 0,0.546875 -0.59375,0.59375 -0.71875,0.59375 -0.296875,0 -0.578125,-0.15625 -0.578125,-0.40625 0,-0.171875 0.109375,-0.625 1.296875,-0.6875 z m 0,0"
           transform="translate(189.75249,112.485)"
           id="path37" /><path
           style="stroke:none"
           d="M 3.296875,0 V -0.21875 H 3.203125 C 2.9375,-0.21875 2.875,-0.265625 2.828125,-0.296875 2.765625,-0.328125 2.1875,-0.9375 1.96875,-1.15625 c 0.609375,-0.640625 0.75,-0.765625 1.21875,-0.765625 v -0.21875 c -0.140625,0 -0.28125,0.015625 -0.46875,0.015625 -0.171875,0 -0.375,-0.015625 -0.5625,-0.015625 v 0.21875 c 0.09375,0 0.109375,0.09375 0.109375,0.09375 0,0.078125 -0.0625,0.140625 -0.203125,0.265625 l -0.25,0.25 C 1.59375,-1.53125 1.328125,-1.796875 1.328125,-1.84375 c 0,-0.078125 0.109375,-0.078125 0.125,-0.078125 v -0.21875 C 1.25,-2.140625 0.875,-2.125 0.84375,-2.125 c -0.203125,0 -0.34375,0 -0.546875,-0.015625 v 0.21875 h 0.09375 c 0.3125,0 0.3125,0 0.578125,0.265625 L 1.5625,-1.0625 C 1.53125,-1.03125 1.09375,-0.59375 1.015625,-0.515625 0.875,-0.390625 0.6875,-0.21875 0.265625,-0.21875 V 0 c 0.140625,-0.015625 0.28125,-0.015625 0.46875,-0.015625 0.171875,0 0.375,0 0.5625,0.015625 v -0.21875 c -0.078125,-0.015625 -0.09375,-0.0625 -0.09375,-0.09375 0,-0.09375 0.0625,-0.15625 0.09375,-0.1875 l 0.40625,-0.40625 c 0.171875,0.171875 0.390625,0.390625 0.515625,0.515625 0.046875,0.0625 0.046875,0.0625 0.046875,0.078125 0,0.09375 -0.109375,0.09375 -0.125,0.09375 V 0 C 2.34375,-0.015625 2.71875,-0.015625 2.75,-0.015625 c 0.203125,0 0.34375,0 0.546875,0.015625 z m 0,0"
           transform="translate(193.14475,112.485)"
           id="path38" /></g></g></g><g
     ns1:text="$u_{1}$"
     transform="matrix(0.69825401,0,0,0.69825401,-265.6855,-45.049034)"
     id="g44"><g
       id="g43"><g
         style="fill:#000000;fill-opacity:1"
         id="g41"><path
           style="stroke:none"
           d="M 3.484375,-0.5625 C 3.59375,-0.15625 3.953125,0.109375 4.375,0.109375 4.71875,0.109375 4.953125,-0.125 5.109375,-0.4375 5.28125,-0.796875 5.40625,-1.40625 5.40625,-1.421875 c 0,-0.109375 -0.078125,-0.109375 -0.109375,-0.109375 -0.109375,0 -0.109375,0.046875 -0.140625,0.1875 -0.140625,0.5625 -0.328125,1.234375 -0.75,1.234375 -0.203125,0 -0.3125,-0.125 -0.3125,-0.453125 0,-0.21875 0.125,-0.6875 0.203125,-1.046875 L 4.578125,-2.6875 C 4.609375,-2.828125 4.703125,-3.203125 4.75,-3.359375 4.796875,-3.59375 4.890625,-3.96875 4.890625,-4.03125 c 0,-0.171875 -0.140625,-0.265625 -0.28125,-0.265625 -0.046875,0 -0.3125,0.015625 -0.390625,0.34375 -0.1875,0.734375 -0.625,2.484375 -0.75,3 -0.015625,0.046875 -0.40625,0.84375 -1.140625,0.84375 -0.515625,0 -0.609375,-0.453125 -0.609375,-0.8125 0,-0.5625 0.28125,-1.34375 0.53125,-2.03125 0.125,-0.3125 0.171875,-0.453125 0.171875,-0.640625 0,-0.4375 -0.3125,-0.8125 -0.8125,-0.8125 -0.953125,0 -1.3125,1.453125 -1.3125,1.53125 0,0.109375 0.09375,0.109375 0.109375,0.109375 0.109375,0 0.109375,-0.03125 0.15625,-0.1875 0.25,-0.859375 0.640625,-1.234375 1.015625,-1.234375 0.09375,0 0.25,0.015625 0.25,0.328125 0,0.234375 -0.109375,0.53125 -0.171875,0.671875 -0.375,1 -0.578125,1.609375 -0.578125,2.09375 0,0.953125 0.6875,1.203125 1.21875,1.203125 0.65625,0 1.015625,-0.453125 1.1875,-0.671875 z m 0,0"
           transform="translate(178.585,110.99)"
           id="path40" /></g><g
         style="fill:#000000;fill-opacity:1"
         id="g42"><path
           style="stroke:none"
           d="m 2.328125,-4.4375 c 0,-0.1875 0,-0.1875 -0.203125,-0.1875 -0.453125,0.4375 -1.078125,0.4375 -1.359375,0.4375 v 0.25 c 0.15625,0 0.625,0 1,-0.1875 v 3.546875 c 0,0.234375 0,0.328125 -0.6875,0.328125 H 0.8125 V 0 c 0.125,0 0.984375,-0.03125 1.234375,-0.03125 0.21875,0 1.09375,0.03125 1.25,0.03125 V -0.25 H 3.03125 c -0.703125,0 -0.703125,-0.09375 -0.703125,-0.328125 z m 0,0"
           transform="translate(184.288,112.485)"
           id="path41" /></g></g></g><g
     ns1:text="$u_{2}$"
     transform="matrix(0.69825401,0,0,0.69825401,-250.7328,-45.049034)"
     id="g48"><g
       id="g47"><g
         style="fill:#000000;fill-opacity:1"
         id="g45"><path
           style="stroke:none"
           d="M 3.484375,-0.5625 C 3.59375,-0.15625 3.953125,0.109375 4.375,0.109375 4.71875,0.109375 4.953125,-0.125 5.109375,-0.4375 5.28125,-0.796875 5.40625,-1.40625 5.40625,-1.421875 c 0,-0.109375 -0.078125,-0.109375 -0.109375,-0.109375 -0.109375,0 -0.109375,0.046875 -0.140625,0.1875 -0.140625,0.5625 -0.328125,1.234375 -0.75,1.234375 -0.203125,0 -0.3125,-0.125 -0.3125,-0.453125 0,-0.21875 0.125,-0.6875 0.203125,-1.046875 L 4.578125,-2.6875 C 4.609375,-2.828125 4.703125,-3.203125 4.75,-3.359375 4.796875,-3.59375 4.890625,-3.96875 4.890625,-4.03125 c 0,-0.171875 -0.140625,-0.265625 -0.28125,-0.265625 -0.046875,0 -0.3125,0.015625 -0.390625,0.34375 -0.1875,0.734375 -0.625,2.484375 -0.75,3 -0.015625,0.046875 -0.40625,0.84375 -1.140625,0.84375 -0.515625,0 -0.609375,-0.453125 -0.609375,-0.8125 0,-0.5625 0.28125,-1.34375 0.53125,-2.03125 0.125,-0.3125 0.171875,-0.453125 0.171875,-0.640625 0,-0.4375 -0.3125,-0.8125 -0.8125,-0.8125 -0.953125,0 -1.3125,1.453125 -1.3125,1.53125 0,0.109375 0.09375,0.109375 0.109375,0.109375 0.109375,0 0.109375,-0.03125 0.15625,-0.1875 0.25,-0.859375 0.640625,-1.234375 1.015625,-1.234375 0.09375,0 0.25,0.015625 0.25,0.328125 0,0.234375 -0.109375,0.53125 -0.171875,0.671875 -0.375,1 -0.578125,1.609375 -0.578125,2.09375 0,0.953125 0.6875,1.203125 1.21875,1.203125 0.65625,0 1.015625,-0.453125 1.1875,-0.671875 z m 0,0"
           transform="translate(178.585,110.99)"
           id="path44" /></g><g
         style="fill:#000000;fill-opacity:1"
         id="g46"><path
           style="stroke:none"
           d="M 3.515625,-1.265625 H 3.28125 c -0.015625,0.15625 -0.09375,0.5625 -0.1875,0.625 C 3.046875,-0.59375 2.515625,-0.59375 2.40625,-0.59375 H 1.125 c 0.734375,-0.640625 0.984375,-0.84375 1.390625,-1.171875 0.515625,-0.40625 1,-0.84375 1,-1.5 0,-0.84375 -0.734375,-1.359375 -1.625,-1.359375 -0.859375,0 -1.453125,0.609375 -1.453125,1.25 0,0.34375 0.296875,0.390625 0.375,0.390625 0.15625,0 0.359375,-0.125 0.359375,-0.375 0,-0.125 -0.046875,-0.375 -0.40625,-0.375 C 0.984375,-4.21875 1.453125,-4.375 1.78125,-4.375 c 0.703125,0 1.0625,0.546875 1.0625,1.109375 0,0.609375 -0.4375,1.078125 -0.65625,1.328125 L 0.515625,-0.265625 C 0.4375,-0.203125 0.4375,-0.1875 0.4375,0 h 2.875 z m 0,0"
           transform="translate(184.288,112.485)"
           id="path45" /></g></g></g><g
     ns1:text="$u_{3}$"
     transform="matrix(0.69825401,0,0,0.69825401,-231.54703,-45.147226)"
     id="g52"><g
       id="g51"><g
         style="fill:#000000;fill-opacity:1"
         id="g49"><path
           style="stroke:none"
           d="M 3.484375,-0.5625 C 3.59375,-0.15625 3.953125,0.109375 4.375,0.109375 4.71875,0.109375 4.953125,-0.125 5.109375,-0.4375 5.28125,-0.796875 5.40625,-1.40625 5.40625,-1.421875 c 0,-0.109375 -0.078125,-0.109375 -0.109375,-0.109375 -0.109375,0 -0.109375,0.046875 -0.140625,0.1875 -0.140625,0.5625 -0.328125,1.234375 -0.75,1.234375 -0.203125,0 -0.3125,-0.125 -0.3125,-0.453125 0,-0.21875 0.125,-0.6875 0.203125,-1.046875 L 4.578125,-2.6875 C 4.609375,-2.828125 4.703125,-3.203125 4.75,-3.359375 4.796875,-3.59375 4.890625,-3.96875 4.890625,-4.03125 c 0,-0.171875 -0.140625,-0.265625 -0.28125,-0.265625 -0.046875,0 -0.3125,0.015625 -0.390625,0.34375 -0.1875,0.734375 -0.625,2.484375 -0.75,3 -0.015625,0.046875 -0.40625,0.84375 -1.140625,0.84375 -0.515625,0 -0.609375,-0.453125 -0.609375,-0.8125 0,-0.5625 0.28125,-1.34375 0.53125,-2.03125 0.125,-0.3125 0.171875,-0.453125 0.171875,-0.640625 0,-0.4375 -0.3125,-0.8125 -0.8125,-0.8125 -0.953125,0 -1.3125,1.453125 -1.3125,1.53125 0,0.109375 0.09375,0.109375 0.109375,0.109375 0.109375,0 0.109375,-0.03125 0.15625,-0.1875 0.25,-0.859375 0.640625,-1.234375 1.015625,-1.234375 0.09375,0 0.25,0.015625 0.25,0.328125 0,0.234375 -0.109375,0.53125 -0.171875,0.671875 -0.375,1 -0.578125,1.609375 -0.578125,2.09375 0,0.953125 0.6875,1.203125 1.21875,1.203125 0.65625,0 1.015625,-0.453125 1.1875,-0.671875 z m 0,0"
           transform="translate(178.585,110.99)"
           id="path48" /></g><g
         style="fill:#000000;fill-opacity:1"
         id="g50"><path
           style="stroke:none"
           d="m 1.90625,-2.328125 c 0.546875,0 0.9375,0.375 0.9375,1.125 0,0.859375 -0.515625,1.125 -0.90625,1.125 -0.28125,0 -0.90625,-0.078125 -1.1875,-0.5 0.328125,0 0.40625,-0.234375 0.40625,-0.390625 0,-0.21875 -0.171875,-0.375 -0.390625,-0.375 -0.1875,0 -0.390625,0.125 -0.390625,0.40625 0,0.65625 0.71875,1.078125 1.5625,1.078125 0.96875,0 1.640625,-0.65625 1.640625,-1.34375 0,-0.546875 -0.4375,-1.09375 -1.203125,-1.25 0.71875,-0.265625 0.984375,-0.78125 0.984375,-1.21875 0,-0.546875 -0.625,-0.953125 -1.40625,-0.953125 -0.765625,0 -1.359375,0.375 -1.359375,0.9375 0,0.234375 0.15625,0.359375 0.359375,0.359375 0.21875,0 0.359375,-0.15625 0.359375,-0.34375 0,-0.203125 -0.140625,-0.359375 -0.359375,-0.375 0.25,-0.296875 0.71875,-0.375 0.984375,-0.375 0.3125,0 0.75,0.15625 0.75,0.75 0,0.296875 -0.09375,0.625 -0.28125,0.828125 -0.21875,0.265625 -0.421875,0.28125 -0.765625,0.3125 -0.171875,0.015625 -0.1875,0.015625 -0.21875,0.015625 -0.015625,0 -0.078125,0.015625 -0.078125,0.09375 0,0.09375 0.0625,0.09375 0.1875,0.09375 z m 0,0"
           transform="translate(184.288,112.485)"
           id="path49" /></g></g></g><g
     ns1:text="$u_{4}$"
     transform="matrix(0.69825401,0,0,0.69825401,-212.31761,-45.049034)"
     id="g56"><g
       id="g55"><g
         style="fill:#000000;fill-opacity:1"
         id="g53"><path
           style="stroke:none"
           d="M 3.484375,-0.5625 C 3.59375,-0.15625 3.953125,0.109375 4.375,0.109375 4.71875,0.109375 4.953125,-0.125 5.109375,-0.4375 5.28125,-0.796875 5.40625,-1.40625 5.40625,-1.421875 c 0,-0.109375 -0.078125,-0.109375 -0.109375,-0.109375 -0.109375,0 -0.109375,0.046875 -0.140625,0.1875 -0.140625,0.5625 -0.328125,1.234375 -0.75,1.234375 -0.203125,0 -0.3125,-0.125 -0.3125,-0.453125 0,-0.21875 0.125,-0.6875 0.203125,-1.046875 L 4.578125,-2.6875 C 4.609375,-2.828125 4.703125,-3.203125 4.75,-3.359375 4.796875,-3.59375 4.890625,-3.96875 4.890625,-4.03125 c 0,-0.171875 -0.140625,-0.265625 -0.28125,-0.265625 -0.046875,0 -0.3125,0.015625 -0.390625,0.34375 -0.1875,0.734375 -0.625,2.484375 -0.75,3 -0.015625,0.046875 -0.40625,0.84375 -1.140625,0.84375 -0.515625,0 -0.609375,-0.453125 -0.609375,-0.8125 0,-0.5625 0.28125,-1.34375 0.53125,-2.03125 0.125,-0.3125 0.171875,-0.453125 0.171875,-0.640625 0,-0.4375 -0.3125,-0.8125 -0.8125,-0.8125 -0.953125,0 -1.3125,1.453125 -1.3125,1.53125 0,0.109375 0.09375,0.109375 0.109375,0.109375 0.109375,0 0.109375,-0.03125 0.15625,-0.1875 0.25,-0.859375 0.640625,-1.234375 1.015625,-1.234375 0.09375,0 0.25,0.015625 0.25,0.328125 0,0.234375 -0.109375,0.53125 -0.171875,0.671875 -0.375,1 -0.578125,1.609375 -0.578125,2.09375 0,0.953125 0.6875,1.203125 1.21875,1.203125 0.65625,0 1.015625,-0.453125 1.1875,-0.671875 z m 0,0"
           transform="translate(178.585,110.99)"
           id="path52" /></g><g
         style="fill:#000000;fill-opacity:1"
         id="g54"><path
           style="stroke:none"
           d="m 3.6875,-1.140625 v -0.25 H 2.90625 V -4.5 c 0,-0.140625 0,-0.203125 -0.140625,-0.203125 -0.09375,0 -0.125,0 -0.1875,0.109375 l -2.3125,3.203125 v 0.25 h 2.0625 v 0.5625 c 0,0.25 0,0.328125 -0.578125,0.328125 H 1.5625 V 0 C 1.921875,-0.015625 2.359375,-0.03125 2.609375,-0.03125 2.875,-0.03125 3.3125,-0.015625 3.671875,0 v -0.25 h -0.1875 C 2.90625,-0.25 2.90625,-0.328125 2.90625,-0.578125 v -0.5625 z M 2.375,-3.9375 v 2.546875 H 0.53125 Z m 0,0"
           transform="translate(184.288,112.485)"
           id="path53" /></g></g></g><path
     style="fill:none;stroke:#000000;stroke-width:0.264583px;stroke-linecap:butt;stroke-linejoin:miter;stroke-opacity:1"
     d="m -82.207801,38.892941 h 12.432462"
     id="path122"
     sodipodi:nodetypes="cc" /><path
     style="fill:none;stroke:#000000;stroke-width:0.264583px;stroke-linecap:butt;stroke-linejoin:miter;stroke-opacity:1"
     d="m -70.265805,38.892941 h 2.622018"
     id="path123" /><g
     ns1:text="$u_5$"
     transform="matrix(0.69825401,0,0,0.69825401,-193.01182,-45.092675)"
     id="g4"><g
   id="g3">
<g
   style="fill:#000000;fill-opacity:1"
   id="g1">
  <path
   style="stroke:none"
   d="M 3.484375,-0.5625 C 3.59375,-0.15625 3.953125,0.109375 4.375,0.109375 4.71875,0.109375 4.953125,-0.125 5.109375,-0.4375 5.28125,-0.796875 5.40625,-1.40625 5.40625,-1.421875 c 0,-0.109375 -0.078125,-0.109375 -0.109375,-0.109375 -0.109375,0 -0.109375,0.046875 -0.140625,0.1875 -0.140625,0.5625 -0.328125,1.234375 -0.75,1.234375 -0.203125,0 -0.3125,-0.125 -0.3125,-0.453125 0,-0.21875 0.125,-0.6875 0.203125,-1.046875 L 4.578125,-2.6875 C 4.609375,-2.828125 4.703125,-3.203125 4.75,-3.359375 4.796875,-3.59375 4.890625,-3.96875 4.890625,-4.03125 c 0,-0.171875 -0.140625,-0.265625 -0.28125,-0.265625 -0.046875,0 -0.3125,0.015625 -0.390625,0.34375 -0.1875,0.734375 -0.625,2.484375 -0.75,3 -0.015625,0.046875 -0.40625,0.84375 -1.140625,0.84375 -0.515625,0 -0.609375,-0.453125 -0.609375,-0.8125 0,-0.5625 0.28125,-1.34375 0.53125,-2.03125 0.125,-0.3125 0.171875,-0.453125 0.171875,-0.640625 0,-0.4375 -0.3125,-0.8125 -0.8125,-0.8125 -0.953125,0 -1.3125,1.453125 -1.3125,1.53125 0,0.109375 0.09375,0.109375 0.109375,0.109375 0.109375,0 0.109375,-0.03125 0.15625,-0.1875 0.25,-0.859375 0.640625,-1.234375 1.015625,-1.234375 0.09375,0 0.25,0.015625 0.25,0.328125 0,0.234375 -0.109375,0.53125 -0.171875,0.671875 -0.375,1 -0.578125,1.609375 -0.578125,2.09375 0,0.953125 0.6875,1.203125 1.21875,1.203125 0.65625,0 1.015625,-0.453125 1.1875,-0.671875 z m 0,0"
   transform="translate(178.585,110.99)"
   id="path1" />
</g>
<g
   style="fill:#000000;fill-opacity:1"
   id="g2">
  <path
   style="stroke:none"
   d="m 1.078125,-3.890625 c 0.359375,0.09375 0.5625,0.09375 0.671875,0.09375 0.921875,0 1.46875,-0.625 1.46875,-0.734375 0,-0.078125 -0.046875,-0.09375 -0.078125,-0.09375 -0.015625,0 -0.03125,0 -0.0625,0.015625 -0.171875,0.0625 -0.53125,0.203125 -1.046875,0.203125 -0.203125,0 -0.5625,-0.015625 -1.015625,-0.1875 C 0.9375,-4.625 0.921875,-4.625 0.921875,-4.625 c -0.09375,0 -0.09375,0.078125 -0.09375,0.1875 v 2.046875 c 0,0.125 0,0.203125 0.109375,0.203125 0.0625,0 0.078125,0 0.140625,-0.09375 0.296875,-0.375 0.734375,-0.4375 0.96875,-0.4375 0.421875,0 0.609375,0.328125 0.640625,0.390625 0.125,0.234375 0.171875,0.5 0.171875,0.90625 0,0.203125 0,0.609375 -0.21875,0.921875 -0.171875,0.25 -0.46875,0.421875 -0.8125,0.421875 -0.453125,0 -0.921875,-0.25 -1.09375,-0.71875 0.265625,0.015625 0.40625,-0.15625 0.40625,-0.34375 0,-0.296875 -0.265625,-0.34375 -0.359375,-0.34375 0,0 -0.34375,0 -0.34375,0.375 0,0.625 0.578125,1.25 1.40625,1.25 0.890625,0 1.671875,-0.65625 1.671875,-1.546875 0,-0.78125 -0.59375,-1.5 -1.453125,-1.5 -0.3125,0 -0.671875,0.0625 -0.984375,0.328125 z m 0,0"
   transform="translate(184.288,112.485)"
   id="path2" />
</g>
</g>
</g><g
     id="g5"
     transform="matrix(0.79911708,0,0,0.79911708,-159.27813,-1.6518218)"><path
       style="fill:#000000;stroke:#000000;stroke-width:0.975098;stroke-dasharray:none;paint-order:fill markers stroke"
       d="M 21.313878,39.6875 V 59.89486"
       id="path17"
       sodipodi:nodetypes="cc" /><path
       style="fill:#000000;stroke:#000000;stroke-width:0.359505;stroke-dasharray:none;paint-order:fill markers stroke"
       d="m 21.359148,40.354 -6.67996,6.67996"
       id="path11-9" /><path
       style="fill:#000000;stroke:#000000;stroke-width:0.359505;stroke-dasharray:none;paint-order:fill markers stroke"
       d="m 21.359148,45.54547 -6.67996,6.67996"
       id="path12-4" /><path
       style="fill:#000000;stroke:#000000;stroke-width:0.359505;stroke-dasharray:none;paint-order:fill markers stroke"
       d="m 21.359148,50.73695 -6.67996,6.67995"
       id="path13-7" /><path
       style="fill:#000000;stroke:#000000;stroke-width:0.359505;stroke-dasharray:none;paint-order:fill markers stroke"
       d="m 21.359148,55.92841 -6.67996,6.67996"
       id="path14-8" /></g><circle
     style="font-variation-settings:normal;vector-effect:none;fill:#ffffff;fill-opacity:1;stroke:#000000;stroke-width:0.661286;stroke-linecap:square;stroke-linejoin:round;stroke-miterlimit:10;stroke-dasharray:none;stroke-dashoffset:0;stroke-opacity:1;-inkscape-stroke:none;paint-order:fill markers stroke"
     id="path63"
     cx="-142.20966"
     cy="38.892944"
     r="2.3299713" /></svg>
